<svg width="16" height="17" viewBox="0 0 16 17" fill="none" xmlns="http://www.w3.org/2000/svg">
<path d="M8 4.25C6.89543 4.25 6 3.35457 6 2.25C6 1.14543 6.89543 0.25 8 0.25C9.10457 0.25 10 1.14543 10 2.25C10 3.35457 9.10457 4.25 8 4.25Z" fill="white"/>
<path d="M8 10.25C6.89543 10.25 6 9.35457 6 8.25C6 7.14543 6.89543 6.25 8 6.25C9.10457 6.25 10 7.14543 10 8.25C10 9.35457 9.10457 10.25 8 10.25Z" fill="white"/>
<path d="M6 14.25C6 15.3546 6.89543 16.25 8 16.25C9.10457 16.25 10 15.3546 10 14.25C10 13.1454 9.10457 12.25 8 12.25C6.89543 12.25 6 13.1454 6 14.25Z" fill="white"/>
</svg>
