<svg width="20" height="20" viewBox="0 0 20 20" fill="none" xmlns="http://www.w3.org/2000/svg">
<path fill-rule="evenodd" clip-rule="evenodd" d="M9.58844 2.42859C8.90041 2.42859 8.34265 2.98635 8.34265 3.67438C8.34265 4.22657 7.89508 4.67424 7.34289 4.67438C6.51849 4.67457 5.959 4.67857 5.52907 4.72046C5.11265 4.76104 4.90484 4.83083 4.7629 4.91179C4.48177 5.07214 4.24885 5.30506 4.08849 5.5862C3.96225 5.80753 3.88113 6.1489 3.85951 7.06624C3.85888 7.09282 3.85842 7.12662 3.85809 7.16587C3.90021 7.16592 3.93924 7.16595 3.97397 7.16595C5.76657 7.16595 7.21976 8.61914 7.21976 10.4117C7.21976 12.2043 5.76657 13.6575 3.97397 13.6575C3.94016 13.6575 3.90099 13.6575 3.85798 13.6574C3.85835 13.6955 3.85885 13.7292 3.85951 13.7572C3.88113 14.6746 3.96225 15.0159 4.08849 15.2373C4.24885 15.5184 4.48176 15.7513 4.7629 15.9117C4.98424 16.0379 5.32561 16.119 6.24295 16.1407C6.26808 16.1413 6.30205 16.1416 6.34265 16.1419L6.34265 16.0262C6.34265 14.2336 7.79584 12.7804 9.58844 12.7804C11.381 12.7804 12.8342 14.2336 12.8342 16.0262L12.8342 16.1422C12.8714 16.1419 12.905 16.1413 12.9339 16.1407C13.8513 16.119 14.1926 16.0379 14.414 15.9117C14.6951 15.7513 14.928 15.5184 15.0884 15.2373C15.1693 15.0953 15.2391 14.8875 15.2797 14.4711C15.3216 14.0412 15.3256 13.4817 15.3258 12.6573C15.3259 12.1051 15.7736 11.6575 16.3258 11.6575C17.0138 11.6575 17.5716 11.0998 17.5716 10.4117C17.5716 9.72371 17.0138 9.16595 16.3258 9.16595C15.7736 9.16595 15.3259 8.71838 15.3258 8.16619C15.3256 7.34179 15.3216 6.7823 15.2797 6.35236C15.2391 5.93594 15.1693 5.72814 15.0884 5.5862C14.928 5.30506 14.6951 5.07215 14.414 4.91179C14.272 4.83083 14.0642 4.76104 13.6478 4.72046C13.2179 4.67857 12.6584 4.67457 11.834 4.67438C11.2818 4.67424 10.8342 4.22657 10.8342 3.67438C10.8342 2.98635 10.2765 2.42859 9.58844 2.42859ZM7.35528 18.1351L7.21338 18.1368C7.12702 18.1378 7.0091 18.139 6.88311 18.14C6.63949 18.142 6.34055 18.1435 6.19582 18.1401C5.27638 18.1184 4.47275 18.0487 3.77199 17.6489C3.17972 17.3111 2.68905 16.8204 2.35123 16.2282C1.95152 15.5274 1.88174 14.7238 1.86007 13.8044C1.85607 13.6348 1.85688 13.3379 1.85838 13.0977C1.85915 12.9744 1.86015 12.861 1.86095 12.7784L1.86237 12.6438C1.86883 12.0949 2.31664 11.6531 2.86562 11.6549L3.30231 11.6562C3.54094 11.6569 3.81747 11.6575 3.97397 11.6575C4.662 11.6575 5.21976 11.0998 5.21976 10.4117C5.21976 9.72371 4.662 9.16595 3.97397 9.16595C3.7992 9.16595 3.51994 9.16528 3.28544 9.16463L2.8594 9.16331L1.86233 8.17385L1.86102 8.03551C1.86028 7.95116 1.85935 7.8357 1.85863 7.71144C1.85723 7.46988 1.85642 7.17369 1.86007 7.01912C1.88174 6.09967 1.95152 5.29605 2.35123 4.59528C2.68905 4.00302 3.17972 3.51234 3.77199 3.17452C4.25528 2.89886 4.77517 2.78445 5.3351 2.72989C5.67573 2.6967 6.06263 2.68339 6.49844 2.67803C6.91896 1.37287 8.14342 0.428589 9.58844 0.428589C11.0335 0.428589 12.2579 1.37287 12.6784 2.67803C13.1142 2.68339 13.5011 2.6967 13.8418 2.72989C14.4017 2.78445 14.9216 2.89886 15.4049 3.17453C15.9972 3.51235 16.4878 4.00302 16.8256 4.59528C17.1013 5.07857 17.2157 5.59847 17.2703 6.1584C17.3035 6.49903 17.3168 6.88593 17.3221 7.32174C18.6273 7.74226 19.5716 8.96672 19.5716 10.4117C19.5716 11.8568 18.6273 13.0812 17.3221 13.5017C17.3168 13.9375 17.3035 14.3244 17.2703 14.6651C17.2157 15.225 17.1013 15.7449 16.8256 16.2282C16.4878 16.8204 15.9972 17.3111 15.4049 17.6489C14.7041 18.0487 13.9005 18.1184 12.9811 18.1401C12.7968 18.1444 12.4997 18.1429 12.2625 18.1407C12.141 18.1395 12.03 18.1381 11.9495 18.137L11.8537 18.1357L11.8186 18.1351C11.2727 18.1262 10.8342 17.6811 10.8342 17.1352L10.8342 16.0262C10.8342 15.3382 10.2765 14.7804 9.58844 14.7804C8.90041 14.7804 8.34265 15.3382 8.34265 16.0262L8.34262 17.1347C8.3426 17.6821 7.90256 18.1282 7.35528 18.1351ZM1.86233 8.17385C1.86811 8.72064 2.31258 9.16142 2.8594 9.16331L1.86233 8.17385Z" fill="white"/>
</svg>
