<svg width="14" height="14" viewBox="0 0 14 14" fill="none" xmlns="http://www.w3.org/2000/svg">
<path fill-rule="evenodd" clip-rule="evenodd" d="M7.00002 2.40002C5.2141 2.40002 3.66411 3.41756 2.90135 4.90915C2.58112 5.53536 2.40002 6.24509 2.40002 7.00002C2.40002 7.12501 2.40499 7.24876 2.41473 7.37111L7.37108 2.41475C7.24868 2.405 7.12494 2.40002 7.00002 2.40002ZM9.48571 3.12855L3.1286 9.48566C3.26053 9.69062 3.40834 9.8845 3.57029 10.0655L10.0656 3.57024C9.88456 3.40826 9.69069 3.26046 9.48571 3.12855ZM11.2436 5.22071L5.22071 11.2436C5.76769 11.4732 6.36853 11.6 7.00002 11.6C8.7085 11.6 10.2008 10.6691 10.9952 9.28207C11.3798 8.61042 11.6 7.83246 11.6 7.00002C11.6 6.36853 11.4732 5.76769 11.2436 5.22071ZM1.12067 3.99855C2.21198 1.86448 4.43412 0.400024 7.00002 0.400024C9.13863 0.400024 11.0398 1.41828 12.2442 2.99228C13.0944 4.10334 13.6 5.49406 13.6 7.00002C13.6 8.19031 13.284 9.30981 12.7307 10.276C11.5946 12.2598 9.45442 13.6 7.00002 13.6C5.49406 13.6 4.10334 13.0944 2.99228 12.2442C2.29359 11.7096 1.70482 11.0383 1.26574 10.2697C0.714626 9.30491 0.400024 8.18769 0.400024 7.00002C0.400024 5.9212 0.659633 4.9001 1.12067 3.99855Z" fill="white"/>
</svg>
