<svg width="20" height="20" viewBox="0 0 20 20" fill="none" xmlns="http://www.w3.org/2000/svg">
<path fill-rule="evenodd" clip-rule="evenodd" d="M6.98489 2H13.8151C14.8181 1.99998 15.651 1.99996 16.322 2.07266C17.0241 2.14873 17.6667 2.31387 18.2336 2.72574C18.5562 2.96012 18.8399 3.24382 19.0743 3.56642C19.4861 4.13331 19.6513 4.77591 19.7273 5.47795C19.8 6.14903 19.8 6.98187 19.8 7.98486V12.0151C19.8 13.0181 19.8 13.851 19.7273 14.522C19.6513 15.2241 19.4861 15.8667 19.0743 16.4336C18.8399 16.7562 18.5562 17.0399 18.2336 17.2743C17.6667 17.6861 17.0241 17.8513 16.322 17.9273C15.651 18 14.8181 18 13.8151 18H6.9849C5.98189 18 5.14904 18 4.47795 17.9273C3.77591 17.8513 3.13331 17.6861 2.56642 17.2743C2.24382 17.0399 1.96012 16.7562 1.72574 16.4336C1.31387 15.8667 1.14873 15.2241 1.07266 14.522C0.999957 13.851 0.999977 13.0181 1 12.0151V7.98489C0.999977 6.98188 0.999957 6.14903 1.07266 5.47795C1.14873 4.77591 1.31387 4.13331 1.72574 3.56642C1.96012 3.24382 2.24382 2.96012 2.56642 2.72574C3.13331 2.31387 3.77591 2.14873 4.47795 2.07266C5.14903 1.99996 5.98188 1.99998 6.98489 2ZM4.69338 4.06103C4.1615 4.11865 3.91112 4.22089 3.74199 4.34377C3.58918 4.45479 3.45479 4.58918 3.34377 4.74199C3.22089 4.91112 3.11865 5.1615 3.06103 5.69338C3.02177 6.05575 3.00775 6.49315 3.00276 7.05552H17.7972C17.7923 6.49315 17.7782 6.05575 17.739 5.69338C17.6814 5.1615 17.5791 4.91112 17.4562 4.74199C17.3452 4.58918 17.2108 4.4548 17.058 4.34377C16.8889 4.22089 16.6385 4.11865 16.1066 4.06103C15.556 4.00137 14.8322 4 13.76 4H7.04C5.9678 4 5.24398 4.00137 4.69338 4.06103ZM17.8 9.05552H3V11.96C3 13.0322 3.00137 13.756 3.06103 14.3066C3.11865 14.8385 3.22089 15.0889 3.34377 15.258C3.4548 15.4108 3.58918 15.5452 3.74199 15.6562C3.91112 15.7791 4.1615 15.8814 4.69338 15.939C5.24398 15.9986 5.9678 16 7.04 16H13.76C14.8322 16 15.556 15.9986 16.1066 15.939C16.6385 15.8814 16.8889 15.7791 17.058 15.6562C17.2108 15.5452 17.3452 15.4108 17.4562 15.258C17.5791 15.0889 17.6814 14.8385 17.739 14.3066C17.7986 13.756 17.8 13.0322 17.8 11.96V9.05552ZM12.2 12.8C12.2 12.2477 12.6477 11.8 13.2 11.8H14.6C15.1523 11.8 15.6 12.2477 15.6 12.8C15.6 13.3523 15.1523 13.8 14.6 13.8H13.2C12.6477 13.8 12.2 13.3523 12.2 12.8Z" fill="white"/>
</svg>
