<svg width="16" height="16" viewBox="0 0 16 16" fill="none" xmlns="http://www.w3.org/2000/svg">
<path fill-rule="evenodd" clip-rule="evenodd" d="M8 2C7.0335 2 6.25 2.7835 6.25 3.75C6.25 4.7165 7.0335 5.5 8 5.5C8.9665 5.5 9.75 4.7165 9.75 3.75C9.75 2.7835 8.9665 2 8 2ZM4.25 3.75C4.25 1.67893 5.92893 0 8 0C10.0711 0 11.75 1.67893 11.75 3.75C11.75 5.82107 10.0711 7.5 8 7.5C5.92893 7.5 4.25 5.82107 4.25 3.75ZM8 10.21C6.35778 10.21 4.90797 11.0349 4.04257 12.2975C3.87554 12.5412 3.75435 12.7188 3.66072 12.8765C3.56888 13.0313 3.52975 13.1246 3.51251 13.1849C3.49884 13.2327 3.4974 13.264 3.50324 13.3031C3.51051 13.3517 3.53507 13.4467 3.62092 13.6096C3.72392 13.8051 3.80657 13.8647 4.01763 13.9167C4.34262 13.9968 4.81277 14.0037 5.68254 14.0037H10.3175C11.1872 14.0037 11.6574 13.9968 11.9824 13.9167C12.1934 13.8647 12.2761 13.8051 12.3791 13.6096C12.4649 13.4467 12.4895 13.3517 12.4968 13.3031C12.5026 13.264 12.5012 13.2327 12.4875 13.1849C12.4703 13.1246 12.4311 13.0313 12.3393 12.8765C12.2456 12.7188 12.1245 12.5412 11.9574 12.2975C11.092 11.0349 9.64222 10.21 8 10.21ZM2.39286 11.1668C3.61522 9.3834 5.67045 8.21 8 8.21C10.3296 8.21 12.3848 9.3834 13.6071 11.1668C13.6235 11.1907 13.64 11.2147 13.6567 11.2391C13.9364 11.646 14.2639 12.1226 14.4104 12.6351C14.5987 13.2936 14.4811 13.9107 14.1485 14.542C13.7625 15.2744 13.1912 15.6787 12.4609 15.8586C11.87 16.0042 11.1486 16.004 10.413 16.0037C10.3812 16.0037 10.3493 16.0037 10.3175 16.0037H5.68254C5.65069 16.0037 5.61885 16.0037 5.58704 16.0037C4.85141 16.004 4.12996 16.0042 3.53913 15.8586C2.80883 15.6787 2.23746 15.2744 1.85154 14.542C1.5189 13.9107 1.40131 13.2936 1.58955 12.6351C1.7361 12.1225 2.06359 11.646 2.34327 11.2391C2.35999 11.2147 2.37654 11.1907 2.39286 11.1668Z" fill="white"/>
</svg>
