<svg width="14" height="14" viewBox="0 0 14 14" fill="none" xmlns="http://www.w3.org/2000/svg">
<path d="M5.48988 0.750004L4.98707 0.750001C4.18934 0.749973 3.51129 0.74995 2.96167 0.809497C2.38117 0.872391 1.82653 1.01119 1.33214 1.37039C1.05637 1.57075 0.813853 1.81327 0.613494 2.08904C0.254297 2.58343 0.115494 3.13807 0.0526001 3.71857C-0.00694728 4.26819 -0.00692362 4.9462 -0.00689577 5.74393V8.24852C-0.00692362 9.04625 -0.00694728 9.7243 0.0526001 10.2739C0.115494 10.8544 0.254297 11.4091 0.613494 11.9035C0.813853 12.1792 1.05637 12.4217 1.33214 12.6221C1.82653 12.9813 2.38117 13.1201 2.96167 13.183C3.5113 13.2425 4.18932 13.2425 4.98706 13.2425L5.48988 13.2425C6.04217 13.2425 6.48988 12.7948 6.48988 12.2425C6.48988 11.6902 6.04217 11.2425 5.48988 11.2425H5.04021C4.17485 11.2425 3.60615 11.2411 3.1771 11.1946C2.76676 11.1502 2.60434 11.0743 2.50771 11.0041C2.40173 10.9271 2.30853 10.8339 2.23153 10.7279C2.16132 10.6312 2.08542 10.4688 2.04096 10.0585C1.99448 9.62944 1.99311 9.06075 1.99311 8.19539V5.7971C1.99311 4.93174 1.99448 4.36305 2.04096 3.934C2.08542 3.52366 2.16132 3.36124 2.23153 3.26461C2.30853 3.15863 2.40173 3.06542 2.50771 2.98842C2.60434 2.91822 2.76676 2.84232 3.1771 2.79786C3.60615 2.75138 4.17485 2.75 5.04021 2.75H5.48988C6.04217 2.75 6.48988 2.30229 6.48988 1.75C6.48988 1.19772 6.04217 0.750004 5.48988 0.750004Z" fill="white"/>
<path d="M9.9529 2.54185C9.56237 2.15132 8.92921 2.15132 8.53868 2.54185C8.14816 2.93237 8.14816 3.56554 8.53868 3.95606L10.5789 5.99627L5.49592 5.99627C4.94364 5.99627 4.49592 6.44398 4.49592 6.99627C4.49592 7.54855 4.94364 7.99627 5.49592 7.99627L10.5789 7.99627L8.53868 10.0365C8.14816 10.427 8.14816 11.0602 8.53868 11.4507C8.92921 11.8412 9.56238 11.8412 9.9529 11.4507L13.7002 7.70337C14.0907 7.31285 14.0907 6.67969 13.7002 6.28916L9.9529 2.54185Z" fill="white"/>
</svg>
