<svg width="14" height="14" viewBox="0 0 14 14" fill="none" xmlns="http://www.w3.org/2000/svg">
<path fill-rule="evenodd" clip-rule="evenodd" d="M7 2.00067C4.23858 2.00067 2 4.24 2 7.00235C2 9.7647 4.23858 12.004 7 12.004C9.76142 12.004 12 9.7647 12 7.00235C12 4.24 9.76142 2.00067 7 2.00067ZM0 7.00235C0 3.13506 3.13401 0 7 0C10.866 0 14 3.13506 14 7.00235C14 10.8696 10.866 14.0047 7 14.0047C3.13401 14.0047 0 10.8696 0 7.00235ZM9.28624 4.70543C9.55407 4.97335 9.64759 5.36965 9.52782 5.72911L8.7351 8.10805C8.63556 8.40676 8.40125 8.64115 8.10264 8.74072L5.7245 9.5337C5.36517 9.65352 4.969 9.55997 4.70117 9.29204C4.43333 9.02412 4.33981 8.62782 4.45959 8.26837L5.2523 5.88942C5.35184 5.59072 5.58615 5.35632 5.88476 5.25675L8.26291 4.46377C8.62224 4.34395 9.01841 4.43751 9.28624 4.70543ZM6.99156 6.99659L6.98941 7.00303L6.99585 7.00088L6.99799 6.99444L6.99156 6.99659Z" fill="white"/>
</svg>
