<svg width="20" height="20" viewBox="0 0 20 20" fill="none" xmlns="http://www.w3.org/2000/svg">
<path fill-rule="evenodd" clip-rule="evenodd" d="M9.12953 1H10.845C12.2958 0.999983 13.4658 0.999969 14.4011 1.10131C15.3676 1.20602 16.2016 1.42846 16.9262 1.95492C17.3506 2.26331 17.7239 2.6366 18.0323 3.06107C18.5588 3.78569 18.7812 4.61963 18.8859 5.5861C18.9873 6.52147 18.9873 7.69138 18.9872 9.14226V10.8577C18.9873 12.3086 18.9873 13.4785 18.8859 14.4139C18.7812 15.3804 18.5588 16.2143 18.0323 16.9389C17.7239 17.3634 17.3506 17.7367 16.9262 18.0451C16.2016 18.5715 15.3676 18.794 14.4011 18.8987C13.4658 19 12.2959 19 10.845 19H9.1295C7.67863 19 6.50871 19 5.57334 18.8987C4.60688 18.794 3.77293 18.5715 3.04832 18.0451C2.62384 17.7367 2.25056 17.3634 1.94216 16.9389C1.4157 16.2143 1.19326 15.3804 1.08855 14.4139C0.987212 13.4785 0.987226 12.3086 0.987244 10.8577V9.14229C0.987226 7.6914 0.987212 6.52147 1.08855 5.5861C1.19326 4.61963 1.4157 3.78569 1.94216 3.06107C2.25056 2.6366 2.62384 2.26331 3.04832 1.95492C3.77293 1.42846 4.60688 1.20602 5.57334 1.10131C6.50872 0.999969 7.67864 0.999983 9.12953 1ZM5.78877 3.08967C4.99247 3.17595 4.55074 3.33548 4.22389 3.57295C3.9692 3.75799 3.74523 3.98196 3.56019 4.23665C3.32272 4.5635 3.16319 5.00523 3.07692 5.80152C2.98862 6.61653 2.98724 7.67783 2.98724 9.2V10.8C2.98724 11.953 2.98803 12.8416 3.02679 13.559L3.44083 13.1449C3.93971 12.646 4.36987 12.2158 4.75777 11.9037C5.16983 11.5722 5.62377 11.2978 6.18749 11.2085C6.49842 11.1593 6.81517 11.1593 7.1261 11.2085C7.47921 11.2645 7.79205 11.3935 8.0816 11.568C8.4199 11.7719 8.63737 11.9025 8.79872 11.9878C8.82913 12.0039 8.85426 12.0166 8.87483 12.0266C8.87805 12.0239 8.88144 12.021 8.88501 12.0179C8.97288 11.9423 9.08677 11.8293 9.29012 11.626L9.32947 11.5866C10.0914 10.8246 10.72 10.196 11.2805 9.74511C11.8652 9.27468 12.4657 8.92127 13.1899 8.80657C13.6044 8.74091 14.0268 8.74091 14.4413 8.80657C15.1655 8.92127 15.766 9.27468 16.3507 9.74511C16.553 9.90783 16.7642 10.0937 16.9872 10.3007V9.2C16.9872 7.67783 16.9859 6.61653 16.8976 5.80152C16.8113 5.00523 16.6518 4.5635 16.4143 4.23665C16.2293 3.98196 16.0053 3.75799 15.7506 3.57295C15.4237 3.33548 14.982 3.17595 14.1857 3.08967C13.3707 3.00137 12.3094 3 10.7872 3H9.18724C7.66508 3 6.60378 3.00137 5.78877 3.08967ZM16.9675 13.0808L16.9269 13.0402C16.1157 12.229 15.5631 11.6784 15.0971 11.3034C14.6457 10.9403 14.3671 10.8197 14.1285 10.7819C13.9212 10.7491 13.71 10.7491 13.5027 10.7819C13.2642 10.8197 12.9855 10.9403 12.5341 11.3034C12.0681 11.6784 11.5155 12.229 10.7043 13.0402L10.6831 13.0614C10.5089 13.2356 10.3414 13.4032 10.1897 13.5338C10.0256 13.675 9.81534 13.8314 9.54196 13.9286C9.4222 13.9712 9.28099 14.0135 9.11486 14.0338C8.94872 14.0541 8.80147 14.047 8.67498 14.0345C8.35287 14.0026 8.06537 13.8625 7.86353 13.7557C7.64662 13.641 7.38066 13.4807 7.07357 13.2956L7.04932 13.281C6.93693 13.2133 6.8661 13.1923 6.81323 13.1839C6.70959 13.1675 6.60401 13.1675 6.50036 13.1839C6.42225 13.1963 6.29012 13.2378 6.01143 13.462C5.71807 13.6981 5.36436 14.0498 4.81832 14.5959L4.25263 15.1615C3.99583 15.4183 3.78163 15.6329 3.6018 15.8192C3.77846 16.0509 3.988 16.2557 4.22389 16.4271C4.55074 16.6645 4.99247 16.8241 5.78877 16.9103C6.60378 16.9986 7.66508 17 9.18724 17H10.7872C12.3094 17 13.3707 16.9986 14.1857 16.9103C14.982 16.8241 15.4237 16.6645 15.7506 16.4271C16.0053 16.242 16.2293 16.018 16.4143 15.7634C16.6518 15.4365 16.8113 14.9948 16.8976 14.1985C16.9331 13.8705 16.9546 13.5026 16.9675 13.0808ZM8.94519 12.0576C8.94653 12.058 8.94721 12.0583 8.94718 12.0583L8.94519 12.0576ZM4.98724 7C4.98724 5.89543 5.88268 5 6.98724 5C8.09181 5 8.98724 5.89543 8.98724 7C8.98724 8.10457 8.09181 9 6.98724 9C5.88268 9 4.98724 8.10457 4.98724 7Z" fill="white"/>
</svg>
