<svg width="20" height="20" viewBox="0 0 20 20" fill="none" xmlns="http://www.w3.org/2000/svg">
<path fill-rule="evenodd" clip-rule="evenodd" d="M0 4C0 3.44772 0.447715 3 1 3H19C19.5523 3 20 3.44772 20 4C20 4.55228 19.5523 5 19 5H1C0.447715 5 0 4.55228 0 4ZM3.38397 10C3.38397 9.44772 3.83169 9 4.38397 9H15.634C16.1863 9 16.634 9.44772 16.634 10C16.634 10.5523 16.1863 11 15.634 11H4.38397C3.83169 11 3.38397 10.5523 3.38397 10ZM6.75 16C6.75 15.4477 7.19772 15 7.75 15H12.25C12.8023 15 13.25 15.4477 13.25 16C13.25 16.5523 12.8023 17 12.25 17H7.75C7.19772 17 6.75 16.5523 6.75 16Z" fill="white"/>
</svg>
