<svg width="16" height="14" viewBox="0 0 16 14" fill="none" xmlns="http://www.w3.org/2000/svg">
<path fill-rule="evenodd" clip-rule="evenodd" d="M6.44996 2.5C5.34539 2.5 4.44996 3.39543 4.44996 4.5C4.44996 5.60457 5.34539 6.5 6.44996 6.5C7.55453 6.5 8.44996 5.60457 8.44996 4.5C8.44996 4.16896 8.36953 3.8567 8.22714 3.5817C8.20332 3.54492 8.18222 3.50711 8.16379 3.46851C7.81372 2.88812 7.17716 2.5 6.44996 2.5ZM9.37661 1.77332C8.64641 0.9899 7.60539 0.5 6.44996 0.5C4.24082 0.5 2.44996 2.29086 2.44996 4.5C2.44996 5.56488 2.86607 6.53256 3.54457 7.24933C2.72554 7.70349 2.02425 8.34341 1.49793 9.11133C1.483 9.13311 1.46777 9.15524 1.45231 9.17773C1.21383 9.52449 0.918849 9.95341 0.785944 10.4183C0.611485 11.0285 0.723409 11.5977 1.02256 12.1655C1.375 12.8343 1.90157 13.2068 2.56739 13.3709C3.09403 13.5006 3.73219 13.5003 4.35974 13.5C4.38984 13.5 4.41992 13.5 4.44996 13.5H8.44996C8.48 13.5 8.51007 13.5 8.54017 13.5C9.16772 13.5003 9.80589 13.5006 10.3325 13.3709C10.9161 13.2271 11.3926 12.9232 11.7388 12.4H12.4504C12.4742 12.4 12.4982 12.4 12.5223 12.4001C12.9392 12.4003 13.3988 12.4007 13.7853 12.3151C14.2914 12.2031 14.7383 11.9364 15.0445 11.4197C15.3034 10.9828 15.3979 10.5227 15.2854 10.0258C15.2042 9.66671 15.0125 9.31808 14.869 9.05725C14.8586 9.03833 14.8485 9.01987 14.8387 9.0019C14.4238 8.24415 13.8177 7.6049 13.0848 7.14965C13.5634 6.56384 13.8504 5.81542 13.8504 4.99998C13.8504 3.12221 12.3282 1.59998 10.4504 1.59998C10.0758 1.59998 9.71453 1.66088 9.37661 1.77332ZM10.3491 3.60355C10.4151 3.89174 10.45 4.1918 10.45 4.5C10.45 5.15903 10.2906 5.78083 10.0083 6.32897C10.1472 6.37513 10.2959 6.40002 10.4504 6.40002C11.2236 6.40002 11.8504 5.7732 11.8504 4.99998C11.8504 4.22678 11.2236 3.59998 10.4504 3.59998C10.4163 3.59998 10.3825 3.60118 10.3491 3.60355ZM10.8558 8.42716C11.8174 8.55697 12.6354 9.14223 13.0843 9.96226C13.1737 10.1255 13.2338 10.2361 13.2791 10.3308C13.2864 10.3461 13.2928 10.3599 13.2983 10.3723C13.2418 10.3808 13.1612 10.3884 13.045 10.3932C12.885 10.3998 12.6971 10.4 12.4504 10.4H12.1087C11.9733 9.94218 11.683 9.51995 11.4476 9.17774C11.4321 9.15525 11.4169 9.13311 11.402 9.11133C11.2366 8.87004 11.054 8.64139 10.8558 8.42716ZM10.1898 11.0381C10.1928 11.0264 10.1944 11.0179 10.1952 11.0122C10.1972 10.999 10.1978 10.9918 10.191 10.968C10.1807 10.9319 10.1533 10.8627 10.077 10.7342C9.99895 10.6027 9.89715 10.4534 9.75228 10.242C9.02988 9.18803 7.82014 8.5 6.44996 8.5C5.07977 8.5 3.87003 9.18803 3.14763 10.242C3.00276 10.4534 2.90096 10.6027 2.82289 10.7342C2.74663 10.8627 2.71925 10.9319 2.7089 10.968C2.70212 10.9918 2.70271 10.999 2.70467 11.0122C2.70807 11.0348 2.72283 11.1019 2.79194 11.2331C2.84174 11.3276 2.87692 11.357 2.89001 11.3669C2.90461 11.3781 2.94292 11.4036 3.04589 11.429C3.3064 11.4931 3.6924 11.5 4.44996 11.5H8.44996C9.20751 11.5 9.59351 11.4931 9.85402 11.429C9.957 11.4036 9.99531 11.3781 10.0099 11.3669C10.023 11.357 10.0582 11.3276 10.108 11.2331C10.1326 11.1863 10.1503 11.1477 10.1631 11.1163C10.171 11.0898 10.1799 11.0637 10.1898 11.0381Z" fill="white"/>
</svg>
