<svg width="22" height="20" viewBox="0 0 22 20" fill="none" xmlns="http://www.w3.org/2000/svg">
<path fill-rule="evenodd" clip-rule="evenodd" d="M16.324 13.6231C17.3057 12.7548 18.7698 12.5667 19.9686 13.2589C21.4689 14.1272 21.9851 16.0448 21.124 17.5306C20.2556 19.0285 18.3357 19.5446 16.8378 18.6763C15.639 17.9841 15.0722 16.6213 15.3327 15.3381L13.7263 14.407L13.7215 14.4119C13.4827 14.6482 13.2222 14.8484 12.9376 15.0124C12.6481 15.1813 12.3297 15.3115 11.9945 15.4032C11.6664 15.4949 11.3312 15.5334 10.9959 15.5334C10.6727 15.5334 10.3422 15.4924 10.019 15.408C9.68374 15.3236 9.36535 15.1933 9.07591 15.0221C8.78406 14.8581 8.51873 14.6531 8.27994 14.4143L6.67353 15.3453C6.93403 16.6285 6.36721 17.9913 5.16843 18.6835C3.66332 19.5543 1.75059 19.0357 0.882259 17.5378C0.0115179 16.0327 0.530103 14.12 2.02797 13.2517C3.22675 12.5594 4.69085 12.7476 5.67254 13.6159L7.27895 12.6848C7.18729 12.3544 7.1487 12.0215 7.1487 11.6911C7.1487 11.3558 7.19212 11.0157 7.28378 10.6853C7.37061 10.3621 7.50086 10.0557 7.66488 9.77112C7.82889 9.47926 8.03392 9.21394 8.27271 8.97515C8.51873 8.7243 8.79129 8.52169 9.08556 8.35043C9.37018 8.184 9.67651 8.05375 9.99972 7.96933V6.11449C8.75752 5.69479 7.86025 4.52496 7.86025 3.14046C7.86025 1.4038 9.26405 0 10.9959 0C12.7277 0 14.1291 1.40862 14.1291 3.14046C14.1291 4.52496 13.2318 5.69479 11.9945 6.11449L11.9896 6.12655V7.97657H12.0017C12.3249 8.0634 12.6312 8.19365 12.9159 8.35767C13.2077 8.52169 13.473 8.72671 13.7118 8.9655C13.9579 9.20911 14.1677 9.48167 14.3317 9.77112C14.503 10.0606 14.6332 10.3717 14.7176 10.7022C14.8093 11.0326 14.8479 11.3655 14.8479 11.6959C14.8479 12.0264 14.8021 12.3616 14.7176 12.6848V12.6897L16.324 13.6231ZM2.60445 16.5441C2.91801 17.0892 3.61508 17.2701 4.1602 16.959C4.70532 16.6478 4.89105 15.9483 4.57507 15.4032C4.26151 14.8581 3.56443 14.6772 3.01931 14.9883C2.4742 15.3019 2.29329 15.999 2.60445 16.5441ZM11.0007 2.01163C10.3712 2.01163 9.85982 2.52298 9.85982 3.15252C9.85982 3.77723 10.3712 4.28858 11.0007 4.29341C11.6302 4.29341 12.1416 3.78206 12.1416 3.15252C12.1416 2.52298 11.6302 2.01163 11.0007 2.01163ZM12.6843 12.4581C12.7639 12.2748 12.817 12.0818 12.8387 11.884C12.841 11.8642 12.843 11.8451 12.845 11.8261C12.8494 11.785 12.8538 11.7445 12.8604 11.6983C12.8604 11.6532 12.8566 11.6118 12.8527 11.5687C12.8512 11.552 12.8497 11.535 12.8483 11.5174C12.829 11.3196 12.7735 11.1194 12.6939 10.9385C12.6722 10.8831 12.6433 10.8324 12.6095 10.7745C12.5758 10.7215 12.542 10.6708 12.5083 10.6202L12.5082 10.6201C12.3876 10.4537 12.2453 10.3114 12.0813 10.1932C12.0684 10.185 12.0556 10.1768 12.0429 10.1686C12.0036 10.1433 11.9652 10.1186 11.9269 10.0967C11.8763 10.0678 11.8184 10.0388 11.7677 10.0171C11.5868 9.93272 11.3866 9.87966 11.1888 9.85795C11.1261 9.85071 11.0634 9.84589 11.0007 9.84589C10.9522 9.84589 10.9009 9.85021 10.8511 9.8544C10.8365 9.85563 10.822 9.85685 10.8077 9.85795C10.6148 9.88207 10.4218 9.93272 10.2457 10.0123C10.1879 10.034 10.1324 10.063 10.0745 10.0967C10.0214 10.1257 9.97078 10.1594 9.92013 10.1932C9.75611 10.3138 9.60656 10.461 9.48837 10.625C9.4546 10.6708 9.42083 10.7215 9.39189 10.7721C9.35812 10.8228 9.32917 10.8734 9.30747 10.9313C9.22787 11.1146 9.1748 11.3076 9.1531 11.5054C9.14586 11.5681 9.14104 11.6308 9.14104 11.6935C9.14104 11.7405 9.14511 11.7876 9.14918 11.8346C9.15053 11.8503 9.15189 11.866 9.1531 11.8816C9.17239 12.0818 9.22787 12.2748 9.30747 12.4557C9.334 12.5112 9.36294 12.5691 9.39189 12.6197C9.42565 12.6728 9.45942 12.7234 9.49319 12.7741C9.61138 12.9333 9.75369 13.0756 9.91288 13.1938C9.96354 13.2275 10.0142 13.2613 10.0721 13.2951C10.1154 13.315 10.1574 13.3362 10.2001 13.3577C10.2144 13.365 10.2288 13.3722 10.2433 13.3795C10.4266 13.4591 10.6196 13.517 10.8174 13.5339C10.8729 13.5411 10.9356 13.5459 10.9983 13.5459C11.0562 13.5459 11.1165 13.5459 11.1744 13.5411C11.3794 13.517 11.5772 13.4663 11.7653 13.3819C11.816 13.3602 11.8739 13.3313 11.9245 13.3023C11.9824 13.2686 12.0331 13.2348 12.0837 13.201C12.2429 13.0877 12.3852 12.9453 12.4986 12.7861C12.5121 12.764 12.5256 12.7425 12.5391 12.7211C12.5594 12.689 12.5796 12.6569 12.5999 12.6221C12.6079 12.6067 12.6169 12.5909 12.6261 12.5746C12.6471 12.5375 12.6692 12.4984 12.6843 12.4581ZM17.834 16.959C18.3791 17.2773 19.0786 17.0892 19.3897 16.5441C19.7033 15.999 19.5152 15.3019 18.9749 14.9883C18.4297 14.6699 17.7303 14.8581 17.4191 15.4032C17.1007 15.9483 17.2889 16.6478 17.834 16.959Z" fill="white"/>
<path fill-rule="evenodd" clip-rule="evenodd" d="M4.63055 9.4262C5.34692 9.84106 6.2659 9.59745 6.68077 8.87626C7.09564 8.15988 6.85202 7.2409 6.13083 6.82603C5.40963 6.41116 4.49547 6.65478 4.08061 7.37597C3.66574 8.09717 3.91418 9.01133 4.63055 9.4262ZM4.94893 7.87526C5.08401 7.63647 5.39275 7.55205 5.62913 7.69436C5.86792 7.82944 5.95234 8.13817 5.81003 8.37455C5.67495 8.61334 5.36621 8.69776 5.12984 8.55546C4.89105 8.42038 4.80662 8.11405 4.94893 7.87526Z" fill="white"/>
<path fill-rule="evenodd" clip-rule="evenodd" d="M17.9449 8.87626C17.5301 9.59745 16.6111 9.84106 15.8947 9.4262C15.1783 9.01133 14.9347 8.09717 15.3448 7.37597C15.7596 6.65478 16.6738 6.41116 17.395 6.82603C18.1162 7.2409 18.3598 8.15988 17.9449 8.87626ZM16.8909 7.69436C16.6545 7.55205 16.3458 7.63647 16.2107 7.87526C16.0756 8.11405 16.1552 8.42038 16.3916 8.55546C16.628 8.69776 16.9367 8.61334 17.0718 8.37455C17.2141 8.13817 17.1297 7.82944 16.8909 7.69436Z" fill="white"/>
<path fill-rule="evenodd" clip-rule="evenodd" d="M9.75128 17.7477C10.1661 17.0265 11.0851 16.7829 11.8015 17.1977C12.5155 17.6126 12.7591 18.5268 12.3514 19.248C11.9366 19.9692 11.0176 20.2128 10.3012 19.7979C9.58002 19.383 9.33641 18.4641 9.75128 17.7477ZM10.8029 18.9272C11.0393 19.0695 11.348 18.9851 11.4831 18.7463C11.6182 18.5026 11.5386 18.2036 11.3022 18.0661C11.0658 17.9238 10.7571 18.0082 10.622 18.247C10.4797 18.4834 10.5641 18.7921 10.8029 18.9272Z" fill="white"/>
</svg>
