<svg width="20" height="20" viewBox="0 0 20 20" fill="none" xmlns="http://www.w3.org/2000/svg">
<path fill-rule="evenodd" clip-rule="evenodd" d="M8 3.99998C6.54772 3.99998 5.99756 4.00694 5.56622 4.1105C4.10362 4.46164 2.96166 5.6036 2.61052 7.0662C2.50697 7.49754 2.5 8.04769 2.5 9.49998C2.5 10.9523 2.50697 11.5024 2.61052 11.9338C2.96166 13.3964 4.10362 14.5383 5.56622 14.8895C5.68777 14.9186 5.8287 14.9417 6.0107 14.9587C6.37278 14.9926 6.68793 15.2204 6.83369 15.5535L7.65613 17.4334L10.5815 15.2045C10.7556 15.0718 10.9685 15 11.1875 15H12C13.4523 15 14.0024 14.993 14.4338 14.8895C15.8964 14.5383 17.0383 13.3964 17.3895 11.9338C17.493 11.5024 17.5 10.9523 17.5 9.49998C17.5 8.04769 17.493 7.49754 17.3895 7.0662C17.0383 5.6036 15.8964 4.46164 14.4338 4.1105C14.0024 4.00694 13.4523 3.99998 12 3.99998H8ZM7.85042 1.99996C7.89959 1.99997 7.94944 1.99998 8 1.99998H12C12.0506 1.99998 12.1004 1.99997 12.1496 1.99996C13.4005 1.99971 14.2084 1.99955 14.9007 2.16576C17.0946 2.69247 18.8075 4.40541 19.3342 6.59931C19.5004 7.29162 19.5003 8.09951 19.5 9.35038C19.5 9.39955 19.5 9.44941 19.5 9.49998C19.5 9.55054 19.5 9.6004 19.5 9.64958C19.5003 10.9004 19.5004 11.7083 19.3342 12.4007C18.8075 14.5945 17.0946 16.3075 14.9007 16.8342C14.2084 17.0004 13.4005 17.0002 12.1496 17C12.1004 17 12.0506 17 12 17H11.525L7.85604 19.7954C7.61198 19.9814 7.29607 20.045 6.99906 19.968C6.70205 19.891 6.45683 19.6819 6.33384 19.4008L5.22311 16.862C5.18169 16.8533 5.14045 16.8441 5.09933 16.8342C2.90544 16.3075 1.19249 14.5945 0.665781 12.4007C0.499569 11.7083 0.499731 10.9004 0.499981 9.64956C0.499991 9.60039 0.500001 9.55054 0.500001 9.49998C0.500001 9.44942 0.499991 9.39956 0.499981 9.35039C0.499731 8.09952 0.499569 7.29163 0.665781 6.59931C1.19249 4.40541 2.90544 2.69247 5.09933 2.16576C5.79165 1.99955 6.59954 1.99971 7.85042 1.99996Z" fill="white"/>
</svg>
