<svg width="16" height="16" viewBox="0 0 16 16" fill="none" xmlns="http://www.w3.org/2000/svg">
<path d="M9 5.3999C9 4.84762 8.55229 4.3999 8 4.3999C7.44772 4.3999 7 4.84762 7 5.3999L7 7.1999C7 7.75219 7.44771 8.1999 8 8.1999C8.55228 8.1999 9 7.75219 9 7.1999V5.3999Z" fill="white"/>
<path d="M9.20005 10.4C9.20005 11.0627 8.66279 11.6 8.00005 11.6C7.33731 11.6 6.80005 11.0627 6.80005 10.4C6.80005 9.73721 7.33731 9.19995 8.00005 9.19995C8.66279 9.19995 9.20005 9.73721 9.20005 10.4Z" fill="white"/>
<path fill-rule="evenodd" clip-rule="evenodd" d="M8 0.5C3.85786 0.5 0.5 3.85786 0.5 8C0.5 12.1421 3.85786 15.5 8 15.5C12.1421 15.5 15.5 12.1421 15.5 8C15.5 3.85787 12.1421 0.5 8 0.5ZM2.5 8C2.5 4.96243 4.96243 2.5 8 2.5C11.0376 2.5 13.5 4.96243 13.5 8C13.5 11.0376 11.0376 13.5 8 13.5C4.96243 13.5 2.5 11.0376 2.5 8Z" fill="white"/>
</svg>
