<svg width="14" height="14" viewBox="0 0 14 14" fill="none" xmlns="http://www.w3.org/2000/svg">
<path fill-rule="evenodd" clip-rule="evenodd" d="M4.55001 2C4.78164 0.85888 5.79052 0 7 0C8.20948 0 9.21836 0.85888 9.44999 2H10.9842C10.9939 1.99986 11.0036 1.99986 11.0133 2H12C12.5523 2 13 2.44772 13 3C13 3.55228 12.5523 4 12 4H11.8828L11.3592 8.18856C11.2913 8.73242 11.2322 9.2048 11.1484 9.59087C11.0591 10.0019 10.9252 10.4017 10.6585 10.7675C10.4011 11.1204 10.0698 11.413 9.68758 11.6246C9.29157 11.8438 8.87823 11.9271 8.45932 11.9647C8.06583 12 7.58979 12 7.04171 12H6.95829C6.41021 12 5.93417 12 5.54068 11.9647C5.12177 11.9271 4.70843 11.8438 4.31242 11.6246C3.93024 11.413 3.59888 11.1204 3.3415 10.7675C3.07481 10.4017 2.94094 10.0019 2.85165 9.59087C2.76778 9.20481 2.70875 8.73245 2.64079 8.1886L2.11722 4H2C1.44772 4 1 3.55228 1 3C1 2.44772 1.44772 2 2 2H2.98674C2.99644 1.99986 3.00612 1.99986 3.01577 2H4.55001ZM4.13278 4L4.62017 7.89913C4.69481 8.49625 4.74354 8.87851 4.80606 9.16628C4.86527 9.43886 4.91981 9.5374 4.95754 9.58915C5.04333 9.70682 5.15379 9.80432 5.28118 9.87486C5.33722 9.90588 5.44177 9.94777 5.71958 9.97272C6.01288 9.99906 6.39823 10 7 10C7.60177 10 7.98712 9.99906 8.28042 9.97272C8.55823 9.94777 8.66278 9.90588 8.71882 9.87486C8.84621 9.80432 8.95666 9.70682 9.04246 9.58915C9.08019 9.5374 9.13473 9.43885 9.19394 9.16628C9.25646 8.87851 9.30519 8.49625 9.37983 7.89913L9.86722 4H4.13278Z" fill="white"/>
</svg>
