<svg width="14" height="14" viewBox="0 0 14 14" fill="none" xmlns="http://www.w3.org/2000/svg">
<path d="M3.5 7.21875C3.5 8.18525 2.7165 8.96875 1.75 8.96875C0.783502 8.96875 0 8.18525 0 7.21875C0 6.25225 0.783502 5.46875 1.75 5.46875C2.7165 5.46875 3.5 6.25225 3.5 7.21875Z" fill="white"/>
<path d="M8.75 7.21875C8.75 8.18525 7.9665 8.96875 7 8.96875C6.0335 8.96875 5.25 8.18525 5.25 7.21875C5.25 6.25225 6.0335 5.46875 7 5.46875C7.9665 5.46875 8.75 6.25225 8.75 7.21875Z" fill="white"/>
<path d="M12.25 8.96875C13.2165 8.96875 14 8.18525 14 7.21875C14 6.25225 13.2165 5.46875 12.25 5.46875C11.2835 5.46875 10.5 6.25225 10.5 7.21875C10.5 8.18525 11.2835 8.96875 12.25 8.96875Z" fill="white"/>
</svg>
