<svg width="16" height="16" viewBox="0 0 16 16" fill="none" xmlns="http://www.w3.org/2000/svg">
<path fill-rule="evenodd" clip-rule="evenodd" d="M7.99731 2C4.68472 2 1.99933 4.68629 1.99933 8C1.99933 11.3137 4.68472 14 7.99731 14C11.3099 14 13.9953 11.3137 13.9953 8C13.9953 4.68629 11.3099 2 7.99731 2ZM0 8C0 3.58172 3.58052 0 7.99731 0C12.4141 0 15.9946 3.58172 15.9946 8C15.9946 12.4183 12.4141 16 7.99731 16C3.58052 16 0 12.4183 0 8ZM10.6565 5.34769C10.9337 5.62498 11.0233 6.03874 10.8856 6.40592L9.82533 9.23435C9.72396 9.50477 9.51066 9.71814 9.24032 9.81955L6.41285 10.8802C6.04579 11.0179 5.63216 10.9283 5.35497 10.651C5.07778 10.3737 4.98818 9.95994 5.12582 9.59276L6.18613 6.76433C6.2875 6.49391 6.50081 6.28054 6.77114 6.17913L9.59862 5.11847C9.96567 4.98078 10.3793 5.0704 10.6565 5.34769ZM7.89861 7.89218L7.77007 8.23508L8.11285 8.1065L8.24139 7.7636L7.89861 7.89218Z" fill="white"/>
</svg>
