<svg width="16" height="16" viewBox="0 0 16 16" fill="none" xmlns="http://www.w3.org/2000/svg">
<path fill-rule="evenodd" clip-rule="evenodd" d="M3.16046 4.4524C3.56821 4.62329 4.06066 4.77726 4.62225 4.9033C4.76274 4.09033 4.9582 3.34517 5.20047 2.69913C5.20163 2.69602 5.2028 2.69292 5.20396 2.68982C4.39647 3.11582 3.6977 3.72076 3.16046 4.4524ZM7.99295 9.00692e-07C4.88605 0.00268055 2.19546 1.77667 0.873389 4.36198C0.314696 5.45451 0 6.69196 0 8C0 9.43996 0.381334 10.7939 1.04922 11.9631C2.42445 14.3705 5.01798 15.9974 7.99295 16M8 9.00692e-07C12.4183 9.00692e-07 16 3.58172 16 8C16 9.44312 15.617 10.7998 14.9464 11.9708C13.569 14.3759 10.9748 16 8 16C7.99844 16 7.99687 16 7.99531 16M10.7784 13.3195C11.4773 12.9537 12.0953 12.4542 12.5986 11.8544C12.2207 11.7124 11.7821 11.5845 11.2928 11.4778C11.1601 12.1433 10.9893 12.7572 10.7854 13.3009C10.7831 13.3071 10.7808 13.3133 10.7784 13.3195ZM11.5614 9.49038C12.3214 9.64699 13.0176 9.85482 13.6192 10.109C13.8653 9.45359 14 8.74324 14 8C14 7.38645 13.9079 6.79441 13.7368 6.23695C13.1154 6.51157 12.3869 6.73476 11.5874 6.90105C11.6076 7.26106 11.618 7.62804 11.618 8C11.618 8.50776 11.5987 9.00626 11.5614 9.49038ZM9.59932 7.18412C9.61158 7.4505 9.61795 7.72278 9.61795 8C9.61795 8.4158 9.60362 8.82047 9.57657 9.21081C9.06082 9.16852 8.53061 9.14682 7.99295 9.14682C7.45524 9.14682 6.92504 9.16852 6.40933 9.21081C6.38228 8.82046 6.36795 8.4158 6.36795 8C6.36795 7.72278 6.37432 7.4505 6.38658 7.18412C6.90966 7.22767 7.44757 7.25 7.99295 7.25C8.53833 7.25 9.07624 7.22767 9.59932 7.18412ZM11.3636 4.9033C11.9301 4.77616 12.4263 4.62061 12.8361 4.44793C12.2957 3.71344 11.592 3.10652 10.7785 2.68074C10.7808 2.68686 10.7831 2.69299 10.7854 2.69913C11.0277 3.34517 11.2232 4.09033 11.3636 4.9033ZM7.993 2.00001L7.99408 2.0001C7.99481 2.0002 7.9967 2.00049 7.99994 2.00137C8.00623 2.00307 8.02047 2.00775 8.04298 2.02003C8.09004 2.04571 8.16719 2.10153 8.26646 2.2135C8.47046 2.4436 8.69986 2.83361 8.91278 3.40138C9.10259 3.90756 9.26404 4.51388 9.38436 5.19522C8.94101 5.23077 8.47583 5.25 7.99295 5.25C7.51007 5.25 7.04489 5.23077 6.60155 5.19522C6.72186 4.51388 6.88331 3.90756 7.07312 3.40138C7.28604 2.83361 7.51544 2.4436 7.71944 2.2135C7.81871 2.10153 7.89586 2.04571 7.94293 2.02003C7.96543 2.00775 7.97967 2.00307 7.98596 2.00137C7.9892 2.00049 7.99109 2.0002 7.99182 2.0001L7.993 2.00001C7.99303 2.00001 7.99297 2.00001 7.993 2.00001ZM4.39847 6.90105C3.6042 6.73585 2.88002 6.51448 2.26128 6.24232C2.09147 6.79756 2 7.38753 2 8C2 8.7413 2.13402 9.44989 2.37892 10.1039C2.97765 9.85205 3.66949 9.64595 4.42446 9.49038C4.38723 9.00626 4.36795 8.50776 4.36795 8C4.36795 7.62804 4.3783 7.26106 4.39847 6.90105ZM4.69313 11.4778C4.20846 11.5835 3.77351 11.7099 3.39808 11.8504C3.89769 12.4469 4.51078 12.9445 5.20398 13.3102C5.20281 13.3071 5.20164 13.304 5.20047 13.3009C4.99658 12.7572 4.82584 12.1433 4.69313 11.4778ZM7.993 14C7.99297 14 7.99303 14 7.993 14L7.99182 13.9999C7.99109 13.9998 7.9892 13.9995 7.98596 13.9986C7.97967 13.9969 7.96543 13.9923 7.94293 13.98C7.89586 13.9543 7.81871 13.8985 7.71944 13.7865C7.51544 13.5564 7.28604 13.1664 7.07312 12.5986C6.92043 12.1914 6.7861 11.7195 6.67676 11.1957C7.09757 11.1639 7.53748 11.1468 7.99295 11.1468C8.44846 11.1468 8.88836 11.1639 9.30914 11.1957C9.1998 11.7195 9.06547 12.1914 8.91278 12.5986C8.69986 13.1664 8.47046 13.5564 8.26646 13.7865C8.16719 13.8985 8.09004 13.9543 8.04298 13.98C8.02047 13.9923 8.00623 13.9969 7.99994 13.9986C7.99858 13.999 7.99745 13.9993 7.99655 13.9995C7.99531 13.9997 7.9945 13.9998 7.99408 13.9999L7.993 14ZM8 9.00692e-07C7.99765 9.00692e-07 7.9953 -1.12587e-06 7.99295 9.00692e-07H8Z" fill="white"/>
</svg>
