<svg width="16" height="16" viewBox="0 0 16 16" fill="none" xmlns="http://www.w3.org/2000/svg">
<path fill-rule="evenodd" clip-rule="evenodd" d="M11.4006 2.20002C11.4138 2.20002 11.4269 2.20002 11.44 2.20002H12.56C12.5731 2.20002 12.5862 2.20002 12.5994 2.20002C12.8649 2.19996 13.1378 2.19989 13.369 2.22494C13.6303 2.25326 13.954 2.32291 14.258 2.54379C14.4108 2.65482 14.5452 2.7892 14.6562 2.94201C14.8771 3.24604 14.9468 3.56971 14.9751 3.83107C15.0001 4.06226 15.0001 4.33518 15 4.60063C15 4.61378 15 4.62692 15 4.64002V12.8C15 13.3523 14.5523 13.8 14 13.8H2C1.44772 13.8 1 13.3523 1 12.8V11.04C1 11.0269 0.999998 11.0138 0.999995 11.0006C0.999933 10.7352 0.999869 10.4623 1.02492 10.2311C1.05323 9.96971 1.12288 9.64604 1.34377 9.34201C1.45479 9.1892 1.58918 9.05482 1.74199 8.94379C2.04601 8.72291 2.36969 8.65326 2.63105 8.62494C2.86224 8.59989 3.13515 8.59996 3.40061 8.60002C3.41376 8.60002 3.42689 8.60002 3.44 8.60002H4.56C4.57311 8.60002 4.58624 8.60002 4.59939 8.60002C4.73313 8.59999 4.86876 8.59996 5 8.60314V7.84002C5 7.82691 5 7.81378 4.99999 7.80062C4.99993 7.53517 4.99987 7.26226 5.02492 7.03107C5.05323 6.76971 5.12288 6.44604 5.34377 6.14201C5.45479 5.9892 5.58918 5.85482 5.74199 5.74379C6.04601 5.52291 6.36969 5.45326 6.63105 5.42494C6.86224 5.39989 7.13515 5.39996 7.4006 5.40002C7.41376 5.40002 7.42689 5.40002 7.44 5.40002H8.56C8.57311 5.40002 8.58625 5.40002 8.5994 5.40002C8.73314 5.39999 8.86877 5.39996 9 5.40314V4.64002C9 4.62691 9 4.61378 9 4.60062C8.99993 4.33517 8.99987 4.06226 9.02492 3.83107C9.05323 3.56971 9.12288 3.24604 9.34377 2.94201C9.45479 2.7892 9.58918 2.65482 9.74199 2.54379C10.046 2.32291 10.3697 2.25326 10.6311 2.22494C10.8622 2.19989 11.1352 2.19996 11.4006 2.20002ZM11 7.84002V11.8H13V4.64002C13 4.48702 13 4.36699 12.9978 4.26363C12.9974 4.24216 12.9969 4.22225 12.9963 4.20376C12.9778 4.20316 12.9579 4.20264 12.9364 4.2022C12.833 4.20007 12.713 4.20002 12.56 4.20002H11.44C11.287 4.20002 11.167 4.20007 11.0636 4.2022C11.0421 4.20264 11.0222 4.20316 11.0037 4.20376C11.0031 4.22225 11.0026 4.24216 11.0022 4.26363C11 4.36699 11 4.48702 11 4.64002V7.72186C11 7.74815 11 7.77442 11 7.80061C11 7.81377 11 7.82691 11 7.84002ZM9 11.8V7.84002C9 7.68702 8.99996 7.56699 8.99783 7.46363C8.99738 7.44216 8.99686 7.42225 8.99627 7.40376C8.97778 7.40316 8.95786 7.40264 8.93639 7.4022C8.83304 7.40007 8.713 7.40002 8.56 7.40002H7.44C7.287 7.40002 7.16697 7.40007 7.06361 7.4022C7.04214 7.40264 7.02223 7.40316 7.00373 7.40376C7.00314 7.42225 7.00262 7.44216 7.00218 7.46363C7.00004 7.56699 7 7.68702 7 7.84002V10.9217C7.00002 10.9481 7.00001 10.9744 7.00001 11.0006C7 11.0138 7 11.0269 7 11.04V11.8H9ZM5 11.8V11.04C5 10.887 4.99996 10.767 4.99783 10.6636C4.99738 10.6422 4.99686 10.6222 4.99627 10.6038C4.97778 10.6032 4.95786 10.6026 4.93639 10.6022C4.83304 10.6001 4.713 10.6 4.56 10.6H3.44C3.287 10.6 3.16697 10.6001 3.06361 10.6022C3.04214 10.6026 3.02223 10.6032 3.00373 10.6038C3.00314 10.6222 3.00262 10.6422 3.00218 10.6636C3.00004 10.767 3 10.887 3 11.04V11.8H5Z" fill="white"/>
</svg>
