<svg width="20" height="20" viewBox="0 0 20 20" fill="none" xmlns="http://www.w3.org/2000/svg">
<path fill-rule="evenodd" clip-rule="evenodd" d="M3.0429 17.5821C2.65237 17.1916 2.65237 16.5584 3.0429 16.1679L4.02616 15.1846C3.45759 14.7424 2.96258 14.2658 2.53796 13.794C1.77501 12.9462 1.22659 12.1019 0.868264 11.4696C0.688538 11.1524 0.555074 10.8858 0.465108 10.695C0.420087 10.5995 0.385846 10.5227 0.362051 10.4678C0.35015 10.4403 0.340852 10.4183 0.334114 10.4021L0.325919 10.3822L0.32325 10.3757L0.322271 10.3732L0.32187 10.3722C0.321694 10.3718 0.321528 10.3714 1.24994 10L0.32187 10.3722C0.226506 10.1338 0.226164 9.86702 0.321528 9.62861L1.24994 10C0.321528 9.62866 0.321352 9.62905 0.321528 9.62861L0.322271 9.62676L0.32325 9.62433L0.325919 9.61775L0.334114 9.59788C0.340852 9.58169 0.35015 9.55967 0.362051 9.5322C0.385846 9.47729 0.420087 9.40052 0.465108 9.30503C0.555074 9.11419 0.688538 8.84759 0.868264 8.53043C1.22659 7.89809 1.77501 7.05376 2.53796 6.20604C4.06526 4.50904 6.50303 2.75 10 2.75C12.027 2.75 13.6982 3.34103 15.0424 4.16841L16.7929 2.41789C17.1834 2.02737 17.8166 2.02737 18.2071 2.41789C18.5225 2.73324 18.5832 3.2068 18.3892 3.58306C18.3558 3.60893 18.3236 3.6372 18.2929 3.66789L4.5429 17.4179C4.46772 17.4931 4.40702 17.5772 4.36079 17.6669C3.96857 17.9702 3.40273 17.9419 3.0429 17.5821ZM5.45341 13.7574L7.87302 11.3378C7.6324 10.9536 7.49329 10.4993 7.49329 10.0126C7.49329 8.63186 8.61258 7.51257 9.99329 7.51257C10.48 7.51257 10.9343 7.65168 11.3185 7.89231L13.5781 5.63265C12.5807 5.10078 11.3951 4.75 10 4.75C7.24698 4.75 5.30975 6.11596 4.02455 7.54396C3.38125 8.25874 2.91405 8.97691 2.60831 9.51645C2.50263 9.70293 2.417 9.86675 2.3507 10C2.417 10.1332 2.50263 10.2971 2.60831 10.4836C2.91405 11.0231 3.38125 11.7413 4.02455 12.456C4.43317 12.9101 4.9077 13.3578 5.45341 13.7574ZM2.17776 9.62681C2.17758 9.62638 2.17764 9.62652 2.17776 9.62681V9.62681Z" fill="white"/>
<path d="M7.78809 17.0011C8.47236 17.16 9.20909 17.25 10 17.25C13.497 17.25 15.9348 15.491 17.462 13.794C18.225 12.9462 18.7734 12.1019 19.1317 11.4696C19.3115 11.1524 19.4449 10.8858 19.5349 10.695C19.5799 10.5995 19.6142 10.5227 19.638 10.4678C19.6499 10.4403 19.6592 10.4183 19.6659 10.4021L19.6741 10.3822L19.6768 10.3757L19.6777 10.3732L19.6781 10.3722C19.6783 10.3718 19.6785 10.3714 18.75 10L19.6781 10.3722C19.7735 10.1338 19.7738 9.86702 19.6785 9.62861L18.75 10C19.6785 9.62861 19.6787 9.62905 19.6785 9.62861L19.6777 9.62676L19.6768 9.62433L19.6741 9.61775L19.6659 9.59788L19.6559 9.57407L19.638 9.5322C19.6142 9.47729 19.5799 9.40052 19.5349 9.30503C19.4449 9.11419 19.3115 8.84759 19.1317 8.53043C18.8596 8.05008 18.4777 7.44741 17.9754 6.81385L16.55 8.23919C16.9068 8.70889 17.1858 9.15316 17.3917 9.51645C17.4974 9.70293 17.583 9.86675 17.6493 10C17.583 10.1332 17.4974 10.2971 17.3917 10.4836C17.086 11.0231 16.6188 11.7413 15.9755 12.456C14.6903 13.884 12.753 15.25 10 15.25C9.84802 15.25 9.69853 15.2458 9.55149 15.2377L7.78809 17.0011Z" fill="white"/>
</svg>
