<svg width="14" height="14" viewBox="0 0 14 14" fill="none" xmlns="http://www.w3.org/2000/svg">
<path d="M6 9.5C6 10.0523 6.44772 10.5 7 10.5C7.55228 10.5 8 10.0523 8 9.5V7.5C8 6.94772 7.55228 6.5 7 6.5C6.44772 6.5 6 6.94772 6 7.5V9.5Z" fill="white"/>
<path d="M6.99998 3.5C6.4477 3.5 5.99998 3.94772 5.99998 4.5C5.99998 5.05228 6.4477 5.5 6.99998 5.5C7.55227 5.5 7.99998 5.05228 7.99998 4.5C7.99998 3.94772 7.55227 3.5 6.99998 3.5Z" fill="white"/>
<path fill-rule="evenodd" clip-rule="evenodd" d="M7 14C10.866 14 14 10.866 14 7C14 3.13401 10.866 0 7 0C3.13401 0 0 3.13401 0 7C0 10.866 3.13401 14 7 14ZM12 7C12 9.76142 9.76142 12 7 12C4.23858 12 2 9.76142 2 7C2 4.23858 4.23858 2 7 2C9.76142 2 12 4.23858 12 7Z" fill="white"/>
</svg>
