<svg width="16" height="16" viewBox="0 0 16 16" fill="none" xmlns="http://www.w3.org/2000/svg">
<path fill-rule="evenodd" clip-rule="evenodd" d="M8.00153 0C8.55382 0 9.00153 0.447715 9.00153 1V6.38462C9.00153 6.9369 8.55382 7.38462 8.00153 7.38462C7.44925 7.38462 7.00153 6.9369 7.00153 6.38462V1C7.00153 0.447715 7.44925 0 8.00153 0ZM5.26125 2.60017C5.56704 3.06008 5.4421 3.68079 4.9822 3.98658C3.50806 4.96672 2.53999 6.63975 2.53999 8.53846C2.53999 11.5548 4.98521 14 8.00153 14C11.0179 14 13.4631 11.5548 13.4631 8.53846C13.4631 6.63975 12.495 4.96672 11.0209 3.98658C10.561 3.68079 10.436 3.06008 10.7418 2.60017C11.0476 2.14027 11.6683 2.01533 12.1282 2.32111C14.1362 3.65619 15.4631 5.94216 15.4631 8.53846C15.4631 12.6594 12.1224 16 8.00153 16C3.88064 16 0.539993 12.6594 0.539993 8.53846C0.539993 5.94216 1.86687 3.65619 3.87485 2.32111C4.33475 2.01533 4.95547 2.14027 5.26125 2.60017Z" fill="white"/>
</svg>
