<svg width="16" height="16" viewBox="0 0 16 16" fill="none" xmlns="http://www.w3.org/2000/svg">
<path fill-rule="evenodd" clip-rule="evenodd" d="M10.4 3.79999C9.84769 3.79999 9.39998 4.2477 9.39998 4.79999C9.39998 5.35227 9.84769 5.79999 10.4 5.79999C10.9523 5.79999 11.4 5.35227 11.4 4.79999C11.4 4.2477 10.9523 3.79999 10.4 3.79999ZM7.57068 3.79999C7.98252 2.6348 9.09376 1.79999 10.4 1.79999C11.7062 1.79999 12.8174 2.6348 13.2293 3.79999L14.4 3.79999C14.9523 3.79999 15.4 4.2477 15.4 4.79999C15.4 5.35227 14.9523 5.79999 14.4 5.79999L13.2293 5.79999C12.8174 6.96518 11.7062 7.79999 10.4 7.79999C9.09376 7.79999 7.98252 6.96518 7.57068 5.79999L1.59998 5.79999C1.04769 5.79999 0.599976 5.35227 0.599976 4.79999C0.599976 4.2477 1.04769 3.79999 1.59998 3.79999L7.57068 3.79999ZM5.59998 10.2C5.04769 10.2 4.59997 10.6477 4.59997 11.2C4.59997 11.7523 5.04769 12.2 5.59998 12.2C6.15226 12.2 6.59998 11.7523 6.59998 11.2C6.59998 10.6477 6.15226 10.2 5.59998 10.2ZM2.77068 10.2C3.18252 9.03479 4.29376 8.19999 5.59998 8.19999C6.90619 8.19999 8.01743 9.0348 8.42927 10.2H14.4C14.9523 10.2 15.4 10.6477 15.4 11.2C15.4 11.7523 14.9523 12.2 14.4 12.2H8.42927C8.01743 13.3652 6.90619 14.2 5.59998 14.2C4.29376 14.2 3.18252 13.3652 2.77068 12.2L1.59998 12.2C1.04769 12.2 0.599976 11.7523 0.599976 11.2C0.599975 10.6477 1.04769 10.2 1.59998 10.2H2.77068Z" fill="white"/>
</svg>
