<svg width="16" height="16" viewBox="0 0 16 16" fill="none" xmlns="http://www.w3.org/2000/svg">
<path fill-rule="evenodd" clip-rule="evenodd" d="M0.14325 4.57295C0.14325 3.07358 1.35833 1.85809 2.8572 1.85809H11.4286C12.9275 1.85809 14.1426 3.07358 14.1426 4.57295V4.62049C15.1467 5.01868 15.8569 5.99901 15.8569 7.14525V8.86011C15.8569 10.0063 15.1467 10.9867 14.1426 11.3849V11.4324C14.1426 12.9318 12.9275 14.1473 11.4286 14.1473H2.8572C1.35833 14.1473 0.14325 12.9318 0.14325 11.4324V4.57295ZM12.129 11.575H10.5715C8.59923 11.575 7.00039 9.9756 7.00039 8.00268C7.00039 6.02975 8.59923 4.43038 10.5715 4.43038L12.129 4.43039C12.063 4.10389 11.7745 3.85809 11.4286 3.85809H2.8572C2.46253 3.85809 2.14258 4.17815 2.14258 4.57295V11.4324C2.14258 11.8272 2.46253 12.1473 2.8572 12.1473H11.4286C11.7745 12.1473 12.063 11.9015 12.129 11.575ZM10.5715 6.43038C9.70342 6.43038 8.99972 7.13432 8.99972 8.00268C8.99972 8.87103 9.70342 9.57497 10.5715 9.57497H13.1429C13.5376 9.57497 13.8575 9.25492 13.8575 8.86011V7.14525C13.8575 6.75044 13.5376 6.43039 13.1429 6.43039L10.5715 6.43038Z" fill="white"/>
</svg>
