<svg width="16" height="16" viewBox="0 0 16 16" fill="none" xmlns="http://www.w3.org/2000/svg">
<path d="M7.65076 7.99994L2.15784 13.4225C2.21908 13.6395 2.32912 13.8397 2.47957 14.0077C2.63001 14.1757 2.81687 14.307 3.02587 14.3917C3.23486 14.4764 3.46045 14.5122 3.68539 14.4963C3.91034 14.4805 4.12868 14.4134 4.32372 14.3003L10.4674 10.7949L7.65076 7.99994Z" fill="white" fill-opacity="0.6"/>
<path d="M13.1254 6.73791L10.4719 5.21814L7.65078 7.99992L10.4675 10.7974L13.1173 9.2939C13.3506 9.17175 13.546 8.98809 13.6823 8.76281C13.8187 8.53753 13.8907 8.27923 13.8907 8.0159C13.8907 7.75258 13.8187 7.49428 13.6823 7.269C13.546 7.04372 13.3506 6.86006 13.1173 6.73791H13.1254Z" fill="white" fill-opacity="0.9"/>
<path d="M2.15794 2.58087C2.12498 2.70273 2.10857 2.82848 2.10918 2.95472V13.0486C2.10951 13.1748 2.12589 13.3004 2.15794 13.4225L7.65081 7.99991L2.15794 2.58087Z" fill="white" fill-opacity="0.5"/>
<path d="M7.65178 8.00171L10.4719 5.21816L4.34404 1.70724C4.11351 1.57223 3.85131 1.50072 3.58416 1.5C3.2615 1.49936 2.94749 1.60424 2.68998 1.79866C2.43247 1.99307 2.2456 2.26635 2.15784 2.57685L7.65178 8.00171Z" fill="white" fill-opacity="0.7"/>
</svg>
