<svg width="78" height="48" viewBox="0 0 78 48" fill="none" xmlns="http://www.w3.org/2000/svg">
<path d="M16.3227 9.59699C28.8471 -2.66547 49.1532 -2.66547 61.6776 9.59699L63.185 11.0728C63.8112 11.6859 63.8112 12.68 63.185 13.2931L58.0287 18.3416C57.7156 18.6481 57.2079 18.6481 56.8948 18.3416L54.8205 16.3107C46.0832 7.75607 31.9171 7.75607 23.1798 16.3107L20.9584 18.4856C20.6453 18.7921 20.1376 18.7921 19.8245 18.4856L14.6682 13.4371C14.042 12.824 14.042 11.8299 14.6682 11.2168L16.3227 9.59699ZM72.3413 20.0377L76.9304 24.5308C77.5566 25.144 77.5567 26.138 76.9304 26.7511L56.2378 47.0113C55.6116 47.6244 54.5963 47.6244 53.9701 47.0113L39.2837 32.6321C39.1271 32.4788 38.8733 32.4788 38.7168 32.6321L24.0307 47.0113C23.4045 47.6244 22.3892 47.6244 21.763 47.0113L1.06976 26.7509C0.443542 26.1378 0.443542 25.1437 1.06976 24.5306L5.65888 20.0374C6.2851 19.4243 7.30041 19.4243 7.92663 20.0374L22.6132 34.4168C22.7698 34.5701 23.0236 34.5701 23.1801 34.4168L37.866 20.0374C38.4922 19.4243 39.5075 19.4243 40.1337 20.0374L54.8203 34.4168C54.9769 34.5701 55.2307 34.5701 55.3873 34.4168L70.0736 20.0377C70.6998 19.4246 71.7151 19.4246 72.3413 20.0377Z" fill="#47A1FF"/>
</svg>
