<svg width="20" height="20" viewBox="0 0 20 20" fill="none" xmlns="http://www.w3.org/2000/svg">
<path fill-rule="evenodd" clip-rule="evenodd" d="M18.5589 5.30875C18.5368 5.02132 18.3913 4.74559 18.1371 4.56675C17.9907 4.46375 17.8263 4.40553 17.66 4.38927C17.5602 4.37863 17.4572 4.38293 17.3537 4.40404L12.7143 5.35046C12.1732 5.46086 11.824 5.98903 11.9344 6.53017C12.0448 7.07131 12.5729 7.4205 13.1141 7.31011L15.2976 6.86467L11.2562 12.6087L7.07347 9.68078C6.66116 9.39217 6.09861 9.45494 5.76007 9.82734L0.760067 15.3273C0.38856 15.736 0.418677 16.3684 0.827334 16.74C1.23599 17.1115 1.86844 17.0813 2.23995 16.6727L6.64776 11.8241L10.9265 14.8192C11.3782 15.1354 12.0006 15.0264 12.3179 14.5754L17.0392 7.86513L17.5202 10.2231C17.6306 10.7643 18.1587 11.1135 18.6999 11.0031C19.241 10.8927 19.5902 10.3645 19.4798 9.82336L18.5589 5.30875Z" fill="white"/>
</svg>
