<svg width="14" height="14" viewBox="0 0 14 14" fill="none" xmlns="http://www.w3.org/2000/svg">
<path fill-rule="evenodd" clip-rule="evenodd" d="M5.29247 0.792893C5.68299 1.18342 5.68299 1.81658 5.29247 2.20711L4.31665 3.18293H8.87805C9.43033 3.18293 9.87805 3.63064 9.87805 4.18293C9.87805 4.73521 9.43033 5.18293 8.87805 5.18293H4.31665L5.29247 6.15875C5.68299 6.54927 5.68299 7.18244 5.29247 7.57296C4.90194 7.96348 4.26878 7.96348 3.87826 7.57296L1.19533 4.89003C0.804804 4.49951 0.804804 3.86634 1.19533 3.47582L3.87826 0.792893C4.26878 0.402369 4.90194 0.402369 5.29247 0.792893ZM8.70752 6.42704C9.09805 6.03652 9.73121 6.03652 10.1217 6.42704L12.8047 9.10997C13.1952 9.50049 13.1952 10.1337 12.8047 10.5242L10.1217 13.2071C9.73121 13.5976 9.09805 13.5976 8.70752 13.2071C8.317 12.8166 8.317 12.1834 8.70752 11.7929L9.68334 10.8171L5.12195 10.8171C4.56966 10.8171 4.12195 10.3694 4.12195 9.81707C4.12195 9.26479 4.56966 8.81707 5.12195 8.81707L9.68334 8.81707L8.70752 7.84125C8.317 7.45073 8.317 6.81756 8.70752 6.42704Z" fill="white"/>
</svg>
