<svg width="20" height="20" viewBox="0 0 20 20" fill="none" xmlns="http://www.w3.org/2000/svg">
<path d="M9.92943 6.64827C10.5059 6.62425 11.0422 7.00995 11.0422 7.73407C11.0422 8.06772 10.9281 8.19954 10.3887 8.61583L10.3444 8.64996C9.83313 9.04337 8.95731 9.71726 8.95731 11.0808C8.95731 11.6331 9.40502 12.0808 9.95731 12.0808C10.5096 12.0808 10.9573 11.6331 10.9573 11.0808C10.9573 10.7472 11.0714 10.6154 11.6108 10.1991L11.6551 10.1649C12.1664 9.77152 13.0422 9.09762 13.0422 7.73407C13.0422 5.67819 11.3546 4.58716 9.84618 4.65C9.02406 4.68426 8.289 5.08653 7.77104 5.62105C7.25311 6.15554 6.8724 6.90506 6.8724 7.73403C6.8724 8.28632 7.32012 8.73403 7.8724 8.73403C8.42469 8.73403 8.8724 8.28632 8.8724 7.73403C8.8724 7.52053 8.97817 7.24932 9.20733 7.01284C9.43646 6.77638 9.7091 6.65745 9.92943 6.64827Z" fill="white"/>
<path d="M11.32 14.2603C11.32 14.9893 10.729 15.5803 10 15.5803C9.27099 15.5803 8.68001 14.9893 8.68001 14.2603C8.68001 13.5313 9.27099 12.9403 10 12.9403C10.729 12.9403 11.32 13.5313 11.32 14.2603Z" fill="white"/>
<path fill-rule="evenodd" clip-rule="evenodd" d="M10 0.875C4.9604 0.875 0.875 4.9604 0.875 10C0.875 15.0396 4.9604 19.125 10 19.125C15.0396 19.125 19.125 15.0396 19.125 10C19.125 4.9604 15.0396 0.875 10 0.875ZM2.875 10C2.875 6.06497 6.06497 2.875 10 2.875C13.935 2.875 17.125 6.06497 17.125 10C17.125 13.935 13.935 17.125 10 17.125C6.06497 17.125 2.875 13.935 2.875 10Z" fill="white"/>
</svg>
