<svg width="20" height="20" viewBox="0 0 20 20" fill="none" xmlns="http://www.w3.org/2000/svg">
<path fill-rule="evenodd" clip-rule="evenodd" d="M2.79289 3.29289C3.18342 2.90237 3.81658 2.90237 4.20711 3.29289L10.2071 9.29289C10.3946 9.48043 10.5 9.73478 10.5 10C10.5 10.2652 10.3946 10.5196 10.2071 10.7071L4.20711 16.7071C3.81658 17.0976 3.18342 17.0976 2.79289 16.7071C2.40237 16.3166 2.40237 15.6834 2.79289 15.2929L8.08579 10L2.79289 4.70711C2.40237 4.31658 2.40237 3.68342 2.79289 3.29289ZM11.4386 3.29289C11.8292 2.90237 12.4623 2.90237 12.8529 3.29289L18.8529 9.29289C19.0404 9.48043 19.1457 9.73478 19.1457 10C19.1457 10.2652 19.0404 10.5196 18.8529 10.7071L12.8529 16.7071C12.4623 17.0976 11.8292 17.0976 11.4386 16.7071C11.0481 16.3166 11.0481 15.6834 11.4386 15.2929L16.7315 10L11.4386 4.70711C11.0481 4.31658 11.0481 3.68342 11.4386 3.29289Z" fill="white"/>
</svg>
