<svg width="16" height="16" viewBox="0 0 16 16" fill="none" xmlns="http://www.w3.org/2000/svg">
<path fill-rule="evenodd" clip-rule="evenodd" d="M8 2.12653C8.26522 2.12653 8.51957 2.23188 8.70711 2.41942L11.7071 5.41942C12.0976 5.80994 12.0976 6.44311 11.7071 6.83363C11.3166 7.22416 10.6834 7.22416 10.2929 6.83363L8 4.54074L5.70711 6.83363C5.31658 7.22416 4.68342 7.22416 4.29289 6.83363C3.90237 6.44311 3.90237 5.80994 4.29289 5.41942L7.29289 2.41942C7.48043 2.23188 7.73478 2.12653 8 2.12653ZM4.29289 9.16942C4.68342 8.77889 5.31658 8.77889 5.70711 9.16942L8 11.4623L10.2929 9.16942C10.6834 8.77889 11.3166 8.77889 11.7071 9.16942C12.0976 9.55994 12.0976 10.1931 11.7071 10.5836L8.70711 13.5836C8.31658 13.9742 7.68342 13.9742 7.29289 13.5836L4.29289 10.5836C3.90237 10.1931 3.90237 9.55994 4.29289 9.16942Z" fill="white"/>
</svg>
