<svg width="20" height="20" viewBox="0 0 20 20" fill="none" xmlns="http://www.w3.org/2000/svg">
<path fill-rule="evenodd" clip-rule="evenodd" d="M8.15747 1.22986L8.1413 1.2339L8.12528 1.23848C5.55909 1.97168 3.80001 4.4931 3.80001 7.2V9.2C3.80001 9.42551 3.69748 9.91962 3.49275 10.5097C3.30568 11.0489 3.0866 11.5154 2.92174 11.7668C2.67808 12.0293 2.4578 12.3602 2.29431 12.6057L2.26795 12.6453C1.14235 14.3337 2.55448 16.3 4.40001 16.3H6.89999C6.89999 18.049 8.46747 19 9.99999 19C10.7853 19 11.5304 18.7174 12.0902 18.2659C12.6436 17.8197 13.1 17.1317 13.1 16.3H15.5C16.413 16.3 17.224 15.8734 17.673 15.155C18.1243 14.4329 18.1431 13.5172 17.6743 12.7139C17.6145 12.6021 17.5462 12.5054 17.4947 12.4361C17.4339 12.3544 17.3672 12.2724 17.3115 12.2043L17.2929 12.1816C17.1777 12.0408 17.0952 11.9401 17.0321 11.8453L17.0231 11.8319L17.0137 11.8188C16.8458 11.5837 16.6081 11.0886 16.4073 10.5097C16.2025 9.91962 16.1 9.42551 16.1 9.2V7.1C16.1 4.33879 14.2946 2.07744 11.8162 1.25132L11.7956 1.24445L11.7747 1.23848L11.7719 1.23768L11.7681 1.2366L11.7573 1.23361L11.7238 1.22457C11.6962 1.21729 11.6584 1.20762 11.6115 1.19636C11.5179 1.17391 11.3871 1.1449 11.2289 1.11613C10.9162 1.05928 10.4784 1 10 1C9.52442 1 9.06505 1.0587 8.73561 1.11361C8.56814 1.14152 8.42792 1.16953 8.32798 1.19095C8.27789 1.20168 8.2376 1.21082 8.20871 1.21757L8.17403 1.2258L8.16342 1.22838L8.15985 1.22926L8.15747 1.22986ZM5.80001 7.2C5.80001 5.31425 7.03131 3.64136 8.65572 3.16701L8.66317 3.16525C8.68116 3.16105 8.70962 3.15457 8.74703 3.14655C8.82209 3.13047 8.93187 3.10848 9.0644 3.08639C9.33496 3.0413 9.67559 3 10 3C10.3217 3 10.6338 3.04072 10.8711 3.08387C10.9879 3.1051 11.0821 3.1261 11.1448 3.14114C11.1734 3.14801 11.1952 3.15359 11.2093 3.15729C12.9172 3.73782 14.1 5.27032 14.1 7.1V9.2C14.1 9.77449 14.2975 10.5304 14.5177 11.1653C14.7398 11.8054 15.0483 12.5031 15.3769 12.9681C15.496 13.1448 15.6359 13.3152 15.7339 13.4346L15.7635 13.4707C15.8203 13.5401 15.8599 13.5894 15.8897 13.6295C15.9022 13.6463 15.9095 13.6569 15.9131 13.6622L15.9228 13.6816L15.9425 13.7145C16.0565 13.9045 16.0203 14.0257 15.977 14.095C15.926 14.1766 15.787 14.3 15.5 14.3H4.40001C4.1488 14.3 3.99851 14.1819 3.9302 14.0692C3.86337 13.9589 3.86589 13.8539 3.93206 13.7547C4.15112 13.4261 4.29247 13.2218 4.40711 13.1071L4.46563 13.0486L4.51374 12.9812C4.84582 12.5163 5.15809 11.8114 5.38226 11.1653C5.60253 10.5304 5.80001 9.77449 5.80001 9.2V7.2ZM9.12468 16.7441C8.99952 16.644 8.93063 16.5305 8.90823 16.4H11.0793C11.0493 16.4812 10.9805 16.5915 10.8347 16.7091C10.6196 16.8826 10.3147 17 9.99999 17C9.58779 17 9.29396 16.8795 9.12468 16.7441Z" fill="white"/>
</svg>
