<svg width="20" height="20" viewBox="0 0 20 20" fill="none" xmlns="http://www.w3.org/2000/svg">
<path fill-rule="evenodd" clip-rule="evenodd" d="M16.7175 8.35282C15.717 4.61886 11.8777 2.40271 8.14167 3.40377C8.09341 3.4167 8.04541 3.4301 7.9977 3.44396C7.46733 3.59801 6.9125 3.29295 6.75845 2.76259C6.6044 2.23222 6.90946 1.67739 7.43982 1.52334C7.50092 1.50559 7.56233 1.48845 7.62404 1.47191M7.62404 1.47191C12.4264 0.18514 17.3628 3.03368 18.6493 7.83518C19.5026 11.0196 18.5362 14.2613 16.3887 16.4597L17.0697 16.5559C17.6166 16.6332 17.9972 17.1392 17.9199 17.686C17.8426 18.2329 17.3367 18.6135 16.7898 18.5362L13.8193 18.1164C13.5567 18.0793 13.3196 17.9394 13.1602 17.7274C13.0528 17.5847 12.9866 17.4173 12.9661 17.243C12.9453 17.1035 12.9545 16.9624 12.9914 16.8288L13.389 14.0158C13.4663 13.469 13.9722 13.0883 14.5191 13.1656C15.0659 13.2429 15.4466 13.7489 15.3693 14.2957L15.317 14.666C16.734 12.9752 17.3313 10.6436 16.7175 8.35282M1.95328 5.69857L1.27057 5.78186C0.722348 5.84874 0.223713 5.45853 0.156836 4.91031C0.0899591 4.36209 0.480165 3.86345 1.02839 3.79658L4.00631 3.4333C4.4698 3.37676 4.89785 3.64693 5.05951 4.06309C5.11371 4.19038 5.1403 4.32663 5.1393 4.4627L5.48332 7.28277C5.55019 7.831 5.15999 8.32963 4.61177 8.39651C4.06355 8.46338 3.56491 8.07318 3.49803 7.52496L3.45275 7.15377C2.52157 9.15367 2.54811 11.5604 3.73392 13.6143C5.04528 15.8856 7.43824 17.1453 9.8917 17.1144C10.4439 17.1074 10.8973 17.5495 10.9042 18.1017C10.9112 18.6539 10.4691 19.1073 9.9169 19.1142C6.76961 19.1539 3.68959 17.5375 2.00187 14.6143C0.35348 11.7592 0.447982 8.37781 1.95328 5.69857Z" fill="white"/>
</svg>
