<svg width="14" height="14" viewBox="0 0 14 14" fill="none" xmlns="http://www.w3.org/2000/svg">
<path fill-rule="evenodd" clip-rule="evenodd" d="M0.34314 6.99999C0.34314 6.44771 0.790855 5.99999 1.34314 5.99999H5.99999V1.34314C5.99999 0.790855 6.44771 0.34314 6.99999 0.34314C7.55228 0.34314 7.99999 0.790855 7.99999 1.34314V5.99999H12.6568C13.2091 5.99999 13.6568 6.44771 13.6568 6.99999C13.6568 7.55228 13.2091 7.99999 12.6568 7.99999H7.99999V12.6568C7.99999 13.2091 7.55228 13.6568 6.99999 13.6568C6.44771 13.6568 5.99999 13.2091 5.99999 12.6568V7.99999H1.34314C0.790855 7.99999 0.34314 7.55228 0.34314 6.99999Z" fill="white"/>
</svg>
