<svg width="14" height="15" viewBox="0 0 14 15" fill="none" xmlns="http://www.w3.org/2000/svg">
<path fill-rule="evenodd" clip-rule="evenodd" d="M3.54998 4.15001C3.54998 2.24463 5.09459 0.700012 6.99998 0.700012C8.90536 0.700012 10.45 2.24463 10.45 4.15001V6.0302C10.63 6.06352 10.8089 6.1125 10.9863 6.18599C11.7459 6.50062 12.3494 7.10411 12.664 7.86369C12.8028 8.19881 12.8542 8.53914 12.8777 8.88291C12.9 9.2101 12.9 9.60602 12.9 10.0677V10.1323C12.9 10.594 12.9 10.9899 12.8777 11.3171C12.8542 11.6609 12.8028 12.0012 12.664 12.3363C12.3494 13.0959 11.7459 13.6994 10.9863 14.014C10.6512 14.1528 10.3108 14.2043 9.96707 14.2277C9.63989 14.25 9.24397 14.25 8.78228 14.25H5.21768C4.75598 14.25 4.36007 14.25 4.03288 14.2277C3.6891 14.2043 3.34877 14.1528 3.01366 14.014C2.25407 13.6994 1.65058 13.0959 1.33595 12.3363C1.19714 12.0012 1.14573 11.6609 1.12228 11.3171C1.09995 10.9899 1.09996 10.594 1.09998 10.1323V10.0677C1.09996 9.60602 1.09995 9.2101 1.12228 8.88291C1.14573 8.53914 1.19714 8.19881 1.33595 7.86369C1.65058 7.10411 2.25407 6.50062 3.01366 6.18599C3.19106 6.1125 3.36992 6.06352 3.54998 6.0302V4.15001ZM5.54998 5.95001H8.44998V4.15001C8.44998 3.3492 7.80079 2.70001 6.99998 2.70001C6.19916 2.70001 5.54998 3.3492 5.54998 4.15001V5.95001ZM4.16902 7.96767C3.92708 7.98418 3.82983 8.0127 3.77902 8.03374C3.50949 8.14539 3.29535 8.35953 3.18371 8.62906C3.16267 8.67986 3.13415 8.77711 3.11764 9.01906C3.10052 9.26998 3.09998 9.59709 3.09998 10.1C3.09998 10.6029 3.10052 10.93 3.11764 11.181C3.13415 11.4229 3.16267 11.5202 3.18371 11.571C3.29535 11.8405 3.50949 12.0546 3.77902 12.1663C3.82983 12.1873 3.92708 12.2158 4.16902 12.2324C4.41995 12.2495 4.74706 12.25 5.24998 12.25H8.74998C9.2529 12.25 9.58001 12.2495 9.83093 12.2324C10.0729 12.2158 10.1701 12.1873 10.2209 12.1663C10.4905 12.0546 10.7046 11.8405 10.8162 11.571C10.8373 11.5202 10.8658 11.4229 10.8823 11.181C10.8994 10.93 10.9 10.6029 10.9 10.1C10.9 9.59709 10.8994 9.26998 10.8823 9.01906C10.8658 8.77711 10.8373 8.67986 10.8162 8.62906C10.7046 8.35953 10.4905 8.14539 10.2209 8.03374C10.1701 8.0127 10.0729 7.98418 9.83093 7.96767C9.58001 7.95055 9.2529 7.95001 8.74998 7.95001H5.24998C4.74706 7.95001 4.41995 7.95055 4.16902 7.96767Z" fill="white"/>
</svg>
