<svg width="16" height="18" viewBox="0 0 16 18" fill="none" xmlns="http://www.w3.org/2000/svg">
<path fill-rule="evenodd" clip-rule="evenodd" d="M6.78706 1.09294C7.17758 1.48347 7.17758 2.11663 6.78706 2.50716L5.61416 3.68005H9.07224C11.1555 3.68005 13.0051 5.01313 13.6639 6.98951L13.7486 7.24382C13.9233 7.76776 13.6401 8.33408 13.1162 8.50873C12.5922 8.68338 12.0259 8.40022 11.8513 7.87628L11.7665 7.62196C11.3799 6.46227 10.2947 5.68005 9.07224 5.68005H5.61416L6.78706 6.85294C7.17758 7.24347 7.17758 7.87663 6.78706 8.26716C6.39653 8.65768 5.76337 8.65768 5.37284 8.26716L2.49284 5.38716C2.30531 5.19962 2.19995 4.94527 2.19995 4.68005C2.19995 4.41483 2.30531 4.16048 2.49284 3.97294L5.37284 1.09294C5.76337 0.702418 6.39653 0.702418 6.78706 1.09294ZM2.88372 9.49136C3.40767 9.31672 3.97399 9.59988 4.14863 10.1238L4.23341 10.3781C4.61997 11.5378 5.70524 12.32 6.92767 12.32L10.3857 12.32L9.21284 11.1472C8.82232 10.7566 8.82232 10.1235 9.21285 9.73294C9.60337 9.34242 10.2365 9.34242 10.6271 9.73294L13.5071 12.6129C13.8976 13.0035 13.8976 13.6366 13.5071 14.0272L10.6271 16.9072C10.2365 17.2977 9.60337 17.2977 9.21284 16.9072C8.82232 16.5166 8.82232 15.8835 9.21284 15.4929L10.3857 14.32L6.92767 14.32C4.84438 14.32 2.99483 12.987 2.33604 11.0106L2.25127 10.7563C2.07662 10.2323 2.35978 9.66601 2.88372 9.49136Z" fill="white"/>
</svg>
