<svg width="14" height="14" viewBox="0 0 14 14" fill="none" xmlns="http://www.w3.org/2000/svg">
<path fill-rule="evenodd" clip-rule="evenodd" d="M7 2C4.23858 2 2 4.23858 2 7C2 9.76142 4.23858 12 7 12C9.76142 12 12 9.76142 12 7C12 4.23858 9.76142 2 7 2ZM0 7C0 3.13401 3.13401 0 7 0C10.866 0 14 3.13401 14 7C14 10.866 10.866 14 7 14C3.13401 14 0 10.866 0 7ZM7 3C7.55228 3 8 3.44771 8 4V6.58579L9.84996 8.43575C10.2405 8.82627 10.2405 9.45944 9.84996 9.84996C9.45944 10.2405 8.82627 10.2405 8.43575 9.84996L6.29289 7.70711C6.10536 7.51957 6 7.26522 6 7V4C6 3.44771 6.44771 3 7 3Z" fill="white"/>
</svg>
