<svg width="20" height="20" viewBox="0 0 20 20" fill="none" xmlns="http://www.w3.org/2000/svg">
<path d="M10 5C8.61929 5 7.5 3.88071 7.5 2.5C7.5 1.11929 8.61929 -6.03528e-08 10 0C11.3807 6.03528e-08 12.5 1.11929 12.5 2.5C12.5 3.88071 11.3807 5 10 5Z" fill="white"/>
<path d="M10 12.5C8.61929 12.5 7.5 11.3807 7.5 10C7.5 8.61929 8.61929 7.5 10 7.5C11.3807 7.5 12.5 8.61929 12.5 10C12.5 11.3807 11.3807 12.5 10 12.5Z" fill="white"/>
<path d="M7.5 17.5C7.5 18.8807 8.61929 20 10 20C11.3807 20 12.5 18.8807 12.5 17.5C12.5 16.1193 11.3807 15 10 15C8.61929 15 7.5 16.1193 7.5 17.5Z" fill="white"/>
</svg>
