<svg width="14" height="14" viewBox="0 0 14 14" fill="none" xmlns="http://www.w3.org/2000/svg">
<path fill-rule="evenodd" clip-rule="evenodd" d="M6.48546 1.14251C6.80215 0.952498 7.19777 0.952498 7.51445 1.14251L12.9905 4.42813C14.0776 5.0804 13.6152 6.75 12.3474 6.75H11.75V11H12C12.5522 11 13 11.4477 13 12C13 12.5523 12.5522 13 12 13H1.99996C1.44767 13 0.999959 12.5523 0.999959 12C0.999959 11.4477 1.44767 11 1.99996 11H2.24996L2.24996 6.75H1.65254C0.384754 6.75 -0.0776892 5.0804 1.00942 4.42813L6.48546 1.14251ZM4.24996 6.75L4.24996 11H5.99996V6.75H4.24996ZM7.99996 6.75V11H9.74996V6.75H7.99996ZM9.63964 4.75H4.36028L6.99996 3.16619L9.63964 4.75Z" fill="white"/>
</svg>
