<svg width="16" height="16" viewBox="0 0 16 16" fill="none" xmlns="http://www.w3.org/2000/svg">
<path fill-rule="evenodd" clip-rule="evenodd" d="M15.6869 3.70704C16.0774 4.09756 16.0774 4.73073 15.6869 5.12125L12.2722 8.53589C11.8817 8.92641 11.2485 8.92641 10.858 8.53589C10.4675 8.14536 10.4675 7.5122 10.858 7.12167L12.5655 5.41415H6.10171C5.54943 5.41415 5.10171 4.96643 5.10171 4.41415C5.10171 3.86186 5.54943 3.41415 6.10171 3.41415L12.5655 3.41415L10.858 1.70662C10.4675 1.31609 10.4675 0.682929 10.858 0.292405C11.2485 -0.0981194 11.8817 -0.0981193 12.2722 0.292405L15.6869 3.70704ZM10.8822 11.5849C10.8822 12.1372 10.4345 12.5849 9.8822 12.5849L3.41836 12.5849L5.12589 14.2924C5.51642 14.6829 5.51642 15.3161 5.12589 15.7066C4.73537 16.0971 4.1022 16.0971 3.71168 15.7066L0.297044 12.292C0.109508 12.1044 0.00415038 11.8501 0.00415039 11.5849C0.0041504 11.3197 0.109508 11.0653 0.297044 10.8778L3.71168 7.46314C4.1022 7.07261 4.73537 7.07261 5.12589 7.46314C5.51642 7.85366 5.51642 8.48683 5.12589 8.87735L3.41836 10.5849L9.8822 10.5849C10.4345 10.5849 10.8822 11.0326 10.8822 11.5849Z" fill="white"/>
</svg>
