<svg width="16" height="16" viewBox="0 0 16 16" fill="none" xmlns="http://www.w3.org/2000/svg">
<path fill-rule="evenodd" clip-rule="evenodd" d="M5.8567 3.50837C5.77615 3.50098 5.68731 3.50001 5.3846 3.50001H5.06884C4.51101 3.50001 4.14142 3.50052 3.85614 3.51949C3.57952 3.53788 3.45396 3.5704 3.37746 3.60118C3.0238 3.74347 2.74345 4.02381 2.60117 4.37747C2.57039 4.45397 2.53786 4.57953 2.51948 4.85615C2.50051 5.14143 2.5 5.51102 2.5 6.06885V9.18001C2.5 10.1022 2.50137 10.7136 2.55148 11.176C2.59955 11.6198 2.68269 11.8063 2.76737 11.9229C2.85373 12.0418 2.95825 12.1463 3.0771 12.2326C3.19366 12.3173 3.38025 12.4005 3.824 12.4485C4.28646 12.4986 4.89779 12.5 5.82 12.5H10.18C11.1022 12.5 11.7135 12.4986 12.176 12.4485C12.6197 12.4005 12.8063 12.3173 12.9229 12.2326C13.0417 12.1463 13.1463 12.0418 13.2326 11.9229C13.3173 11.8063 13.4004 11.6198 13.4485 11.176C13.4986 10.7136 13.5 10.1022 13.5 9.18001V8.23552C13.5 7.67769 13.4995 7.3081 13.4805 7.02281C13.4621 6.7462 13.4296 6.62064 13.3988 6.54414C13.2565 6.19048 12.9762 5.91013 12.6225 5.76785C12.546 5.73707 12.4205 5.70454 12.1439 5.68615C11.8586 5.66719 11.489 5.66668 10.9312 5.66668H10.6154C10.602 5.66668 10.5889 5.66668 10.5759 5.66668C10.3295 5.66673 10.1438 5.66676 9.96063 5.64996C9.15459 5.57603 8.38994 5.2593 7.76771 4.74162C7.62627 4.62395 7.49499 4.49262 7.32085 4.31841C7.31165 4.30921 7.30233 4.29989 7.29289 4.29045C7.07885 4.0764 7.01533 4.01427 6.95316 3.96254C6.64204 3.7037 6.25972 3.54533 5.8567 3.50837ZM5.42414 1.5C5.67047 1.49996 5.85615 1.49992 6.03937 1.51673C6.84541 1.59066 7.61006 1.90739 8.23229 2.42507C8.37373 2.54274 8.505 2.67406 8.67915 2.84828C8.68835 2.85748 8.69766 2.86679 8.70711 2.87624C8.92115 3.09028 8.98466 3.15242 9.04684 3.20415C9.35796 3.46299 9.74028 3.62135 10.1433 3.65832C10.2238 3.6657 10.3127 3.66668 10.6154 3.66668L10.9634 3.66668C11.4804 3.66667 11.917 3.66666 12.2765 3.69056C12.6522 3.71553 13.0144 3.76972 13.369 3.91238C14.2279 4.25793 14.9087 4.93877 15.2543 5.79765C15.397 6.15225 15.4511 6.51449 15.4761 6.89016C15.5 7.24972 15.5 7.68622 15.5 8.2033L15.5 9.23376C15.5 10.0879 15.5 10.8084 15.4369 11.3914C15.3704 12.0053 15.2243 12.5842 14.8507 13.0985C14.6409 13.3871 14.3871 13.641 14.0985 13.8507C13.5841 14.2243 13.0053 14.3704 12.3914 14.4369C11.8084 14.5001 11.0878 14.5 10.2337 14.5H5.76625C4.91215 14.5 4.19158 14.5001 3.60857 14.4369C2.99466 14.3704 2.41585 14.2243 1.90153 13.8507C1.61289 13.641 1.35905 13.3871 1.14934 13.0985C0.775667 12.5842 0.629625 12.0053 0.563111 11.3914C0.499947 10.8084 0.49997 10.0879 0.499997 9.23376L0.499998 6.03664C0.499988 5.51956 0.499979 5.08305 0.52388 4.72349C0.548852 4.34783 0.603043 3.98558 0.745704 3.63098C1.09125 2.7721 1.77209 2.09126 2.63097 1.74572C2.98557 1.60305 3.34782 1.54886 3.72348 1.52389C4.08304 1.49999 4.51955 1.5 5.03663 1.50001L5.3846 1.50001C5.39795 1.50001 5.41113 1.50001 5.42414 1.5Z" fill="white"/>
</svg>
