<svg width="16" height="16" viewBox="0 0 16 16" fill="none" xmlns="http://www.w3.org/2000/svg">
<path d="M8.51389 5.65979C8.36479 5.53092 8.15308 5.45867 7.9446 5.46735C7.79645 5.47352 7.59356 5.55637 7.41615 5.73946C7.23872 5.92256 7.16663 6.12311 7.16663 6.26444C7.16663 6.81672 6.71891 7.26444 6.16663 7.26444C5.61434 7.26444 5.16663 6.81672 5.16663 6.26444C5.16663 5.50763 5.51365 4.82878 5.97987 4.34766C6.4461 3.86653 7.1114 3.50033 7.86135 3.46908C9.22545 3.41225 10.7591 4.40105 10.7591 6.26447C10.7591 7.50817 9.95523 8.12619 9.51328 8.46597L9.47199 8.49776C9.00481 8.85836 8.96285 8.93445 8.96285 9.1478C8.96285 9.70008 8.51514 10.1478 7.96285 10.1478C7.41057 10.1478 6.96285 9.70008 6.96285 9.1478C6.96285 7.90411 7.7667 7.2861 8.20864 6.94633L8.24994 6.91453C8.7171 6.55394 8.75908 6.47784 8.75908 6.26447C8.75908 5.95511 8.64508 5.77319 8.51389 5.65979Z" fill="white"/>
<path d="M9.11664 11.8726C9.11664 12.4939 8.61296 12.9976 7.99164 12.9976C7.37032 12.9976 6.86664 12.4939 6.86664 11.8726C6.86664 11.2513 7.37032 10.7476 7.99164 10.7476C8.61296 10.7476 9.11664 11.2513 9.11664 11.8726Z" fill="white"/>
<path fill-rule="evenodd" clip-rule="evenodd" d="M0 8C0 3.58172 3.58172 0 8 0C12.4183 0 16 3.58172 16 8C16 12.4183 12.4183 16 8 16C3.58172 16 0 12.4183 0 8ZM8 2C4.68629 2 2 4.68629 2 8C2 11.3137 4.68629 14 8 14C11.3137 14 14 11.3137 14 8C14 4.68629 11.3137 2 8 2Z" fill="white"/>
</svg>
