<svg width="14" height="16" viewBox="0 0 14 16" fill="none" xmlns="http://www.w3.org/2000/svg">
<path fill-rule="evenodd" clip-rule="evenodd" d="M6.02715 0.992905C6.41768 1.38343 6.41768 2.01659 6.02715 2.40712L5.21426 3.22001H7.93829C9.81497 3.22001 11.4811 4.42089 12.0746 6.20126L12.1487 6.42378C12.3234 6.94773 12.0402 7.51405 11.5163 7.6887C10.9923 7.86334 10.426 7.58018 10.2514 7.05624L10.1772 6.83372C9.85596 5.87003 8.95411 5.22001 7.93829 5.22001H5.21426L6.02715 6.03291C6.41768 6.42343 6.41768 7.05659 6.02715 7.44712C5.63663 7.83764 5.00346 7.83764 4.61294 7.44712L2.09294 4.92712C1.70241 4.5366 1.70241 3.90343 2.09294 3.51291L4.61294 0.992905C5.00346 0.602381 5.63663 0.602381 6.02715 0.992905ZM2.48382 8.31133C3.00776 8.13668 3.57408 8.41984 3.74873 8.94378L3.8229 9.16631C4.14413 10.13 5.04598 10.78 6.0618 10.78L8.78583 10.78L7.97294 9.96712C7.58241 9.5766 7.58241 8.94343 7.97294 8.55291C8.36346 8.16238 8.99663 8.16238 9.38715 8.55291L11.9072 11.0729C12.2977 11.4634 12.2977 12.0966 11.9072 12.4871L9.38715 15.0071C8.99663 15.3976 8.36346 15.3976 7.97294 15.0071C7.58241 14.6166 7.58241 13.9834 7.97294 13.5929L8.78583 12.78H6.0618C4.18512 12.78 2.51899 11.5791 1.92554 9.79876L1.85136 9.57624C1.67671 9.0523 1.95987 8.48598 2.48382 8.31133Z" fill="white"/>
</svg>
