<svg width="14" height="14" viewBox="0 0 14 14" fill="none" xmlns="http://www.w3.org/2000/svg">
<path fill-rule="evenodd" clip-rule="evenodd" d="M6.2256 2.32572C4.23989 2.95146 2.79999 4.80758 2.79999 7.00001C2.79999 9.70621 4.9938 11.9 7.69999 11.9C9.03489 11.9 10.2457 11.3663 11.13 10.4995C8.06944 10.462 5.59999 7.96934 5.59999 4.89993C5.59999 3.97201 5.826 3.09645 6.2256 2.32572ZM1.39999 7.00001C1.39999 3.52062 4.2206 0.700012 7.69999 0.700012C7.72629 0.700012 7.75255 0.700174 7.77878 0.700496C8.06159 0.703969 8.31452 0.877291 8.41984 1.13978C8.52516 1.40227 8.46216 1.70235 8.26018 1.90034C7.48169 2.66343 6.99999 3.72479 6.99999 4.89993C6.99999 7.21952 8.8804 9.09993 11.2 9.09993C11.6416 9.09993 12.0661 9.032 12.4642 8.90653C12.734 8.82149 13.0285 8.90722 13.2105 9.12379C13.3925 9.34037 13.4263 9.64522 13.296 9.89637C12.2484 11.9169 10.1363 13.3 7.69999 13.3C4.2206 13.3 1.39999 10.4794 1.39999 7.00001Z" fill="white"/>
</svg>
