<svg width="14" height="14" viewBox="0 0 14 14" fill="none" xmlns="http://www.w3.org/2000/svg">
<path d="M6.99995 4.68756C5.7228 4.68756 4.68745 5.7229 4.68745 7.00006C4.68745 8.27722 5.7228 9.31256 6.99995 9.31256C8.27711 9.31256 9.31245 8.27722 9.31245 7.00006C9.31245 5.7229 8.27711 4.68756 6.99995 4.68756Z" fill="white"/>
<path fill-rule="evenodd" clip-rule="evenodd" d="M6.71248 0.160878C6.90359 0.140791 7.09628 0.140791 7.28739 0.160878C7.8754 0.222681 8.39636 0.524875 8.95122 0.846736L9.07493 0.918388L11.2293 2.16224L11.3533 2.23355C11.9094 2.55314 12.4316 2.85321 12.7791 3.33154C12.8921 3.48701 12.9884 3.65388 13.0666 3.82942C13.3071 4.36956 13.3058 4.97182 13.3045 5.61328L13.3043 5.75624V8.24393L13.3045 8.3869C13.3058 9.02835 13.3071 9.63061 13.0666 10.1708C12.9884 10.3463 12.8921 10.5132 12.7791 10.6686C12.4316 11.147 11.9094 11.447 11.3532 11.7666L11.2293 11.8379L9.07493 13.0818L8.95121 13.1534C8.39636 13.4753 7.8754 13.7775 7.28739 13.8393C7.09628 13.8594 6.90359 13.8594 6.71248 13.8393C6.12447 13.7775 5.60351 13.4753 5.04865 13.1534L4.92494 13.0818L2.77053 11.8379L2.64663 11.7666C2.09045 11.447 1.56826 11.147 1.22073 10.6686C1.10778 10.5132 1.01144 10.3463 0.933281 10.1708C0.692796 9.63061 0.694026 9.02836 0.695336 8.3869L0.695531 8.24393V5.75624L0.695336 5.61327C0.694026 4.97182 0.692796 4.36956 0.933281 3.82942C1.01144 3.65388 1.10778 3.487 1.22073 3.33154C1.56826 2.85321 2.09045 2.55314 2.64662 2.23355L2.77053 2.16224L4.92494 0.918388L5.04865 0.846736C5.60351 0.524875 6.12447 0.222681 6.71248 0.160878ZM7.07833 2.14992C7.02621 2.14444 6.97366 2.14444 6.92154 2.14992C6.81317 2.16131 6.68591 2.21109 5.92494 2.65044L3.77053 3.89429C3.00956 4.33363 2.90281 4.41896 2.83877 4.50711C2.80796 4.54951 2.78169 4.59502 2.76037 4.6429C2.71605 4.74244 2.69553 4.87754 2.69553 5.75624V8.24393C2.69553 9.12263 2.71605 9.25773 2.76037 9.35728C2.78169 9.40515 2.80796 9.45066 2.83877 9.49306C2.90282 9.58122 3.00956 9.66654 3.77053 10.1059L5.92494 11.3497C6.68591 11.7891 6.81317 11.8389 6.92154 11.8503C6.97366 11.8557 7.02621 11.8557 7.07833 11.8503C7.1867 11.8389 7.31396 11.7891 8.07493 11.3497L10.2293 10.1059C10.9903 9.66654 11.0971 9.58122 11.1611 9.49306C11.1919 9.45067 11.2182 9.40516 11.2395 9.35728C11.2838 9.25773 11.3043 9.12263 11.3043 8.24393V5.75624C11.3043 4.87755 11.2838 4.74244 11.2395 4.6429C11.2182 4.59502 11.1919 4.54951 11.1611 4.50711C11.0971 4.41896 10.9903 4.33363 10.2293 3.89429L8.07493 2.65044C7.31396 2.21109 7.1867 2.16131 7.07833 2.14992Z" fill="white"/>
</svg>
