<svg width="14" height="14" viewBox="0 0 14 14" fill="none" xmlns="http://www.w3.org/2000/svg">
<path fill-rule="evenodd" clip-rule="evenodd" d="M7 2C5.34315 2 4 3.34315 4 5C4 5.83205 4.33741 6.58342 4.88532 7.12794L4.89893 7.14147C5.0995 7.34079 5.26931 7.50955 5.3969 7.64586C5.51049 7.7672 5.67155 7.94509 5.77839 8.15274C5.8359 8.26451 5.86391 8.33184 5.90265 8.45143C5.90792 8.46769 5.91288 8.48388 5.91755 8.5H8.08245C8.08712 8.48388 8.09208 8.46769 8.09735 8.45143C8.13609 8.33184 8.1641 8.26451 8.22161 8.15274C8.32845 7.94509 8.48951 7.7672 8.6031 7.64586C8.73069 7.50955 8.90051 7.34078 9.10108 7.14146L9.11468 7.12794C9.66259 6.58342 10 5.83205 10 5C10 3.34315 8.65685 2 7 2ZM8 10.5H6C6 10.9997 6.00212 11.2738 6.02769 11.464C6.02803 11.4665 6.02836 11.4689 6.02869 11.4713C6.03107 11.4716 6.0335 11.472 6.03598 11.4723C6.22617 11.4979 6.50033 11.5 7 11.5C7.49967 11.5 7.77383 11.4979 7.96402 11.4723C7.9665 11.472 7.96893 11.4716 7.97131 11.4713C7.97164 11.4689 7.97197 11.4665 7.97231 11.464C7.99788 11.2738 8 10.9997 8 10.5ZM4 9.5C4 9.29276 3.99968 9.17563 3.99526 9.09048C3.99499 9.08522 3.99471 9.08036 3.99443 9.07587C3.98005 9.05952 3.96121 9.03872 3.93677 9.01261C3.83699 8.90602 3.69335 8.76303 3.47549 8.54653C2.56531 7.64197 2 6.38606 2 5C2 2.23858 4.23858 0 7 0C9.76142 0 12 2.23858 12 5C12 6.38606 11.4347 7.64197 10.5245 8.54653C10.3067 8.76304 10.163 8.90602 10.0632 9.01261C10.0388 9.03872 10.02 9.05952 10.0056 9.07587C10.0053 9.08036 10.005 9.08522 10.0047 9.09048C10.0003 9.17563 10 9.29276 10 9.5V10.5C10 10.5182 10 10.5363 10 10.5544C10.0001 10.9785 10.0002 11.3906 9.95447 11.7305C9.90295 12.1137 9.77743 12.551 9.41421 12.9142C9.051 13.2774 8.61372 13.403 8.23052 13.4545C7.89061 13.5002 7.47848 13.5001 7.05441 13.5C7.03629 13.5 7.01816 13.5 7 13.5C6.98184 13.5 6.96371 13.5 6.94559 13.5C6.52152 13.5001 6.10939 13.5002 5.76948 13.4545C5.38628 13.403 4.949 13.2774 4.58579 12.9142C4.22257 12.551 4.09705 12.1137 4.04553 11.7305C3.99983 11.3906 3.99991 10.9785 3.99999 10.5544C4 10.5363 4 10.5182 4 10.5V9.5ZM9.97055 9.11772C9.96965 9.119 9.96915 9.11967 9.9691 9.11971C9.96905 9.11975 9.96951 9.1191 9.97055 9.11772ZM4.0309 9.11971C4.03088 9.1197 4.03036 9.11902 4.02942 9.11768C4.03045 9.11905 4.03092 9.11972 4.0309 9.11971Z" fill="white"/>
</svg>
