<svg width="16" height="16" viewBox="0 0 16 16" fill="none" xmlns="http://www.w3.org/2000/svg">
<path fill-rule="evenodd" clip-rule="evenodd" d="M7.0158 2.7271C5.81114 3.0815 4.87997 4.33444 4.87997 5.7601V7.3601C4.87997 7.85459 4.7125 8.48548 4.53473 8.99787C4.35305 9.52152 4.09578 10.1064 3.8137 10.5013L3.7656 10.5687L3.70708 10.6272C3.63244 10.7018 3.53108 10.8462 3.35202 11.1148C3.34779 11.1211 3.34588 11.1251 3.34508 11.1272C3.34546 11.1301 3.34722 11.1387 3.35517 11.1518C3.36561 11.169 3.38467 11.1901 3.41523 11.2073C3.44369 11.2233 3.48956 11.2401 3.55997 11.2401H5.35999L10.72 11.24L12.44 11.2401C12.607 11.2401 12.6509 11.1717 12.652 11.1701C12.6546 11.1659 12.655 11.164 12.655 11.1601C12.655 11.1572 12.655 11.1288 12.6225 11.0746L12.6027 11.0417L12.598 11.0323C12.5962 11.0297 12.5939 11.0267 12.5913 11.023C12.5705 10.9951 12.5415 10.9589 12.496 10.9033C12.4887 10.8943 12.4808 10.8847 12.4724 10.8745C12.395 10.7803 12.2777 10.6374 12.1769 10.4882C11.8985 10.0935 11.6449 9.51573 11.4652 8.99787C11.2874 8.48548 11.12 7.85459 11.12 7.3601V5.6801C11.12 4.31057 10.2374 3.15823 8.9499 2.71762C8.93997 2.71506 8.92625 2.7116 8.9091 2.70749C8.86204 2.69619 8.79036 2.6802 8.70108 2.66397C8.51878 2.63082 8.28162 2.6001 8.03997 2.6001C7.79556 2.6001 7.53493 2.6314 7.32437 2.66649C7.22183 2.68358 7.13706 2.70057 7.0795 2.7129C7.05084 2.71904 7.0291 2.724 7.0158 2.7271ZM9.23997 1.7601L9.51469 0.798575L9.53559 0.804544L9.5562 0.811415C11.6146 1.49754 13.12 3.37889 13.12 5.6801V7.3601C13.12 7.50561 13.1925 7.87472 13.3547 8.34233C13.5131 8.79868 13.6958 9.17377 13.8137 9.33886L13.8231 9.35198L13.832 9.3654C13.877 9.43284 13.9372 9.5064 14.0338 9.62443L14.0439 9.63686C14.0885 9.69129 14.1445 9.76011 14.1962 9.82965C14.239 9.88729 14.2996 9.97252 14.354 10.0735C14.7632 10.7771 14.7493 11.5879 14.348 12.2301C13.949 12.8685 13.233 13.2401 12.44 13.2401H10.7004C10.6139 13.8537 10.2522 14.3542 9.83774 14.6884C9.35535 15.0774 8.71527 15.32 8.03999 15.32C6.82775 15.32 5.53199 14.6066 5.37569 13.2401H3.55997C1.95445 13.2401 0.682317 11.5138 1.68792 10.0054C1.69553 9.99398 1.70338 9.98219 1.71143 9.97008C1.83736 9.78083 2.0167 9.51132 2.21876 9.29057C2.33608 9.10723 2.5008 8.75858 2.64521 8.34233C2.80745 7.87472 2.87997 7.50561 2.87997 7.3601V5.7601C2.87997 3.5132 4.33905 1.41177 6.48525 0.798574L6.50127 0.793996L6.51744 0.789955L6.75997 1.7601C6.51744 0.789955 6.51732 0.789984 6.51744 0.789955L6.5197 0.789391L6.52292 0.788596L6.53216 0.786342L6.56149 0.779381C6.58569 0.773735 6.61911 0.766153 6.66044 0.757295C6.74288 0.739629 6.85811 0.716614 6.99557 0.693704C7.26502 0.648796 7.64438 0.600098 8.03997 0.600098C8.43832 0.600098 8.80116 0.649373 9.05886 0.696228C9.18958 0.719997 9.2979 0.744004 9.37584 0.762712C9.41492 0.772089 9.44665 0.780204 9.47005 0.786386L9.49889 0.794153L9.50846 0.796812L9.512 0.797809L9.51469 0.798575C9.51484 0.798617 9.51469 0.798575 9.23997 1.7601ZM7.60383 13.2401C7.70846 13.285 7.85308 13.32 8.03999 13.32C8.16783 13.32 8.29379 13.2898 8.40388 13.2401H7.60383ZM3.34458 11.1291C3.34452 11.1291 3.34474 11.1282 3.34508 11.1272L3.34458 11.1291Z" fill="white"/>
</svg>
