<svg width="14" height="15" viewBox="0 0 14 15" fill="none" xmlns="http://www.w3.org/2000/svg">
<path fill-rule="evenodd" clip-rule="evenodd" d="M9.77443 3.33806C9.33387 3.42464 8.74533 3.61398 7.84507 3.9064L6.04881 4.48985C4.57028 4.9701 3.53863 5.30658 2.83833 5.61657C2.49141 5.77014 2.28184 5.89371 2.15996 5.98982C2.10811 6.0307 2.08306 6.05796 2.07266 6.07087C2.04271 6.17831 2.04251 6.29188 2.07207 6.39942C2.08243 6.41237 2.10739 6.43972 2.15908 6.48078C2.28062 6.57732 2.48975 6.70164 2.83612 6.85644C3.42904 7.12143 4.26015 7.4063 5.39966 7.78285L7.04152 5.82615C7.39652 5.40307 8.02728 5.34789 8.45035 5.70289C8.87343 6.05789 8.92861 6.68865 8.57361 7.11172L6.93174 9.06842C7.50044 10.1252 7.92531 10.8942 8.28923 11.4321C8.50182 11.7464 8.66057 11.9307 8.77675 12.0337C8.82616 12.0774 8.85743 12.0973 8.87198 12.1052C8.98302 12.1157 9.09483 12.0957 9.19544 12.0476C9.20634 12.0351 9.22884 12.0057 9.2601 11.9475C9.33358 11.8108 9.41888 11.583 9.50987 11.2147C9.69356 10.4712 9.84577 9.39677 10.062 7.8573L10.3247 5.98702C10.4563 5.04965 10.5406 4.43719 10.5493 3.98828C10.5535 3.77304 10.5384 3.64175 10.5197 3.56181C10.5038 3.49378 10.4881 3.47441 10.4853 3.47092C10.4335 3.40556 10.3687 3.35112 10.2954 3.31145C10.2914 3.30927 10.2693 3.29703 10.1996 3.29317C10.1176 3.28864 9.98567 3.29654 9.77443 3.33806ZM5.03799 9.76959C3.78227 9.35626 2.76285 9.01435 2.02006 8.68238C1.60866 8.49851 1.22637 8.29408 0.915135 8.04686C0.597419 7.79449 0.305909 7.4592 0.166629 7.00842C0.0102514 6.50231 0.0112156 5.96064 0.169394 5.45509C0.310277 5.00481 0.602979 4.67056 0.921592 4.41933C1.23371 4.17322 1.61672 3.97014 2.02878 3.78774C2.83502 3.43085 3.9662 3.06344 5.37124 2.60708L7.28628 1.98504C8.11102 1.71711 8.81541 1.48828 9.38873 1.3756C9.98 1.25939 10.6347 1.22127 11.2467 1.55217C11.5583 1.72066 11.8324 1.95069 12.0524 2.22831C12.4846 2.77351 12.5607 3.42488 12.549 4.02734C12.5375 4.61151 12.4345 5.34493 12.3139 6.20367L12.0338 8.19767C11.8284 9.66061 11.663 10.8384 11.4515 11.6943C11.3434 12.1318 11.2099 12.5443 11.0218 12.8944C10.8297 13.2518 10.5513 13.5981 10.1324 13.815C9.66196 14.0586 9.12869 14.1536 8.60311 14.0875C8.13499 14.0286 7.75417 13.7997 7.45047 13.5307C7.15296 13.2671 6.88525 12.9261 6.63274 12.5529C6.17683 11.879 5.66309 10.9345 5.03799 9.76959Z" fill="white"/>
</svg>
