<svg width="14" height="14" viewBox="0 0 14 14" fill="none" xmlns="http://www.w3.org/2000/svg">
<path d="M6.5 6C7.32843 6 8 5.32843 8 4.5C8 3.67157 7.32843 3 6.5 3C5.67157 3 5 3.67157 5 4.5C5 5.32843 5.67157 6 6.5 6Z" fill="white"/>
<path fill-rule="evenodd" clip-rule="evenodd" d="M5.75 0C3.67893 0 2 1.67893 2 3.75V10.25C2 12.3211 3.67893 14 5.75 14H8.25C10.3211 14 12 12.3211 12 10.25V3.75C12 1.67893 10.3211 0 8.25 0H5.75ZM4 3.75C4 2.7835 4.7835 2 5.75 2H8.25C9.2165 2 10 2.7835 10 3.75V10.25C10 11.2165 9.2165 12 8.25 12H5.75C4.7835 12 4 11.2165 4 10.25V3.75Z" fill="white"/>
</svg>
