<svg width="14" height="14" viewBox="0 0 14 14" fill="none" xmlns="http://www.w3.org/2000/svg">
<path fill-rule="evenodd" clip-rule="evenodd" d="M10.8489 0.00942659C11.3961 -0.0657437 11.9006 0.316868 11.9757 0.864013L12.454 4.3455C12.5292 4.89258 12.1467 5.39702 11.5996 5.47228L8.11922 5.95106C7.57208 6.02632 7.06753 5.6438 6.99226 5.09667C6.917 4.54954 7.29952 4.04498 7.84665 3.96972L9.01411 3.80912C8.6104 3.57543 8.15639 3.41232 7.66517 3.33914C5.58036 3.02855 3.63807 4.46738 3.32746 6.55367C3.01685 8.64002 4.45582 10.5827 6.54071 10.8933C8.43868 11.1761 10.2201 10.0082 10.7571 8.22215C10.9162 7.69326 11.4738 7.39341 12.0027 7.55243C12.5316 7.71145 12.8315 8.26912 12.6724 8.79802C11.8536 11.5214 9.14131 13.3028 6.246 12.8715C3.06808 12.398 0.876097 9.43737 1.34927 6.25915C1.82244 3.08087 4.78188 0.88752 7.95987 1.36097C8.75359 1.47922 9.48734 1.75339 10.1333 2.14796L9.99434 1.13623C9.91917 0.589083 10.3018 0.0845969 10.8489 0.00942659Z" fill="white"/>
</svg>
