<svg width="16" height="16" viewBox="0 0 16 16" fill="none" xmlns="http://www.w3.org/2000/svg">
<path fill-rule="evenodd" clip-rule="evenodd" d="M3.80005 5.59996C3.80005 6.15225 4.24776 6.59996 4.80005 6.59996C5.35233 6.59996 5.80005 6.15225 5.80005 5.59996C5.80005 5.04768 5.35233 4.59996 4.80005 4.59996C4.24776 4.59996 3.80005 5.04768 3.80005 5.59996ZM3.80005 8.42926C2.63486 8.01742 1.80005 6.90618 1.80005 5.59996C1.80005 4.29375 2.63486 3.18251 3.80005 2.77067L3.80005 1.59996C3.80005 1.04768 4.24776 0.599964 4.80005 0.599964C5.35233 0.599964 5.80005 1.04768 5.80005 1.59996L5.80005 2.77067C6.96524 3.18251 7.80005 4.29375 7.80005 5.59996C7.80005 6.90618 6.96524 8.01742 5.80005 8.42926L5.80005 14.4C5.80005 14.9522 5.35233 15.4 4.80005 15.4C4.24776 15.4 3.80005 14.9522 3.80005 14.4L3.80005 8.42926ZM10.2 10.4C10.2 10.9522 10.6478 11.4 11.2 11.4C11.7523 11.4 12.2 10.9522 12.2 10.4C12.2 9.84768 11.7523 9.39996 11.2 9.39996C10.6478 9.39996 10.2 9.84768 10.2 10.4ZM10.2 13.2293C9.03486 12.8174 8.20005 11.7062 8.20005 10.4C8.20005 9.09374 9.03486 7.98251 10.2 7.57067V1.59996C10.2 1.04768 10.6478 0.599964 11.2 0.599964C11.7523 0.599964 12.2 1.04768 12.2 1.59996V7.57067C13.3652 7.98251 14.2 9.09375 14.2 10.4C14.2 11.7062 13.3652 12.8174 12.2 13.2293L12.2 14.4C12.2 14.9522 11.7523 15.4 11.2 15.4C10.6478 15.4 10.2 14.9522 10.2 14.4V13.2293Z" fill="white"/>
</svg>
