<svg width="16" height="16" viewBox="0 0 16 16" fill="none" xmlns="http://www.w3.org/2000/svg">
<path fill-rule="evenodd" clip-rule="evenodd" d="M9.5 2.41683V5.00012H12.0833C12.0152 4.93028 11.9295 4.8438 11.8205 4.73483L9.7653 2.67964C9.65633 2.57066 9.56985 2.48493 9.5 2.41683ZM12.5 7.00012H8.5C7.94772 7.00012 7.5 6.55241 7.5 6.00012V2.00012H5.82C5.18503 2.00012 4.77498 2.00106 4.46409 2.02896C4.16673 2.05565 4.05853 2.1007 4.00454 2.13149C3.84898 2.22022 3.7201 2.3491 3.63137 2.50466C3.60058 2.55865 3.55553 2.66685 3.52884 2.96421C3.50094 3.2751 3.5 3.68515 3.5 4.32012V10.6801C3.5 11.3151 3.50094 11.7251 3.52884 12.036C3.55553 12.3334 3.60058 12.4416 3.63137 12.4956C3.7201 12.6511 3.84898 12.78 4.00454 12.8688C4.05853 12.8995 4.16673 12.9446 4.46409 12.9713C4.77498 12.9992 5.18503 13.0001 5.82 13.0001H10.18C10.815 13.0001 11.225 12.9992 11.5359 12.9713C11.8333 12.9446 11.9415 12.8995 11.9955 12.8688C12.151 12.78 12.2799 12.6511 12.3686 12.4956C12.3994 12.4416 12.4445 12.3334 12.4712 12.036C12.4991 11.7251 12.5 11.3151 12.5 10.6801V7.00012ZM8.21645 6.07236e-05C8.66408 -0.000396802 9.05905 -0.000800684 9.44044 0.100323C9.69894 0.168863 9.94712 0.27166 10.1784 0.405983C10.5196 0.604161 10.7986 0.883736 11.1148 1.20059C11.1362 1.22203 11.1577 1.24365 11.1795 1.26542L13.2347 3.32061C13.2565 3.34239 13.2781 3.36396 13.2995 3.38537C13.6164 3.70157 13.896 3.98057 14.0941 4.32175C14.2285 4.55301 14.3313 4.80118 14.3998 5.05968C14.5009 5.44107 14.5005 5.83605 14.5001 6.28369C14.5 6.31398 14.5 6.34452 14.5 6.37531L14.5 10.7227C14.5 11.3031 14.5 11.8038 14.4632 12.2148C14.4242 12.6494 14.3378 13.0799 14.1059 13.4865C13.8397 13.9532 13.4531 14.3398 12.9864 14.606C12.5797 14.838 12.1492 14.9243 11.7147 14.9633C11.3037 15.0002 10.803 15.0001 10.2225 15.0001H5.77747C5.19702 15.0001 4.69635 15.0002 4.28532 14.9633C3.85076 14.9243 3.42026 14.838 3.01363 14.606C2.54694 14.3398 2.1603 13.9532 1.89411 13.4865C1.66216 13.0799 1.57585 12.6494 1.53685 12.2148C1.49996 11.8038 1.49998 11.3031 1.5 10.7226V4.2776C1.49998 3.69715 1.49996 3.19647 1.53685 2.78544C1.57585 2.35089 1.66216 1.92039 1.89411 1.51375C2.1603 1.04706 2.54694 0.660422 3.01363 0.394228C3.42027 0.162286 3.85076 0.075966 4.28532 0.0369677C4.69635 8.14646e-05 5.19703 0.000100182 5.77748 0.000121997L8.12481 0.000122951C8.15561 0.000122951 8.18615 9.1718e-05 8.21645 6.07236e-05Z" fill="white"/>
</svg>
