<svg width="16" height="16" viewBox="0 0 16 16" fill="none" xmlns="http://www.w3.org/2000/svg">
<path fill-rule="evenodd" clip-rule="evenodd" d="M6.27486 3.44278C4.54112 4.22776 3.33496 5.97302 3.33496 8C3.33496 10.7614 5.57354 13 8.33496 13C9.48326 13 10.5418 12.613 11.3865 11.9613C8.26347 11.614 5.83496 8.96558 5.83496 5.74991C5.83496 4.93525 5.99111 4.15667 6.27486 3.44278ZM1.33496 8C1.33496 4.13401 4.46897 1 8.33496 1C8.36416 1 8.39332 1.00018 8.42244 1.00054C8.82646 1.0055 9.18779 1.2531 9.33824 1.62809C9.4887 2.00308 9.39871 2.43176 9.11017 2.7146C8.32206 3.48711 7.83496 4.56073 7.83496 5.74991C7.83496 8.09712 9.73775 9.99991 12.085 9.99991C12.5324 9.99991 12.9618 9.93112 13.3643 9.80426C13.7498 9.68277 14.1705 9.80524 14.4305 10.1146C14.6905 10.424 14.7387 10.8595 14.5527 11.2183C13.3889 13.4628 11.0423 15 8.33496 15C4.46897 15 1.33496 11.866 1.33496 8Z" fill="white"/>
</svg>
