<svg width="14" height="14" viewBox="0 0 14 14" fill="none" xmlns="http://www.w3.org/2000/svg">
<path fill-rule="evenodd" clip-rule="evenodd" d="M7 -6.10352e-05C7.3866 -6.10352e-05 7.7 0.31334 7.7 0.699939V1.8117C7.7 2.1983 7.3866 2.5117 7 2.5117C6.6134 2.5117 6.3 2.1983 6.3 1.8117V0.699939C6.3 0.31334 6.6134 -6.10352e-05 7 -6.10352e-05ZM2.05025 2.05019C2.32362 1.77682 2.76683 1.77682 3.0402 2.05019L3.82634 2.83633C4.09971 3.10969 4.09971 3.55291 3.82634 3.82628C3.55297 4.09964 3.10976 4.09964 2.83639 3.82628L2.05025 3.04014C1.77689 2.76677 1.77689 2.32356 2.05025 2.05019ZM11.9497 2.05019C12.2231 2.32356 12.2231 2.76677 11.9497 3.04014L11.1636 3.82628C10.8902 4.09964 10.447 4.09964 10.1737 3.82628C9.90029 3.55291 9.90029 3.10969 10.1737 2.83633L10.9598 2.05019C11.2332 1.77682 11.6764 1.77682 11.9497 2.05019ZM7 4.73523C5.74924 4.73523 4.73529 5.74918 4.73529 6.99994C4.73529 8.2507 5.74924 9.26464 7 9.26464C8.25076 9.26464 9.2647 8.2507 9.2647 6.99994C9.2647 5.74918 8.25076 4.73523 7 4.73523ZM3.33529 6.99994C3.33529 4.97598 4.97604 3.33523 7 3.33523C9.02396 3.33523 10.6647 4.97598 10.6647 6.99994C10.6647 9.0239 9.02396 10.6646 7 10.6646C4.97604 10.6646 3.33529 9.0239 3.33529 6.99994ZM0 6.99994C0 6.61334 0.313401 6.29994 0.7 6.29994H1.81176C2.19836 6.29994 2.51176 6.61334 2.51176 6.99994C2.51176 7.38654 2.19836 7.69994 1.81176 7.69994H0.7C0.313401 7.69994 0 7.38654 0 6.99994ZM11.4882 6.99994C11.4882 6.61334 11.8016 6.29994 12.1882 6.29994H13.3C13.6866 6.29994 14 6.61334 14 6.99994C14 7.38654 13.6866 7.69994 13.3 7.69994H12.1882C11.8016 7.69994 11.4882 7.38654 11.4882 6.99994ZM3.82634 10.1736C4.09971 10.447 4.09971 10.8902 3.82634 11.1635L3.0402 11.9497C2.76683 12.2231 2.32362 12.2231 2.05025 11.9497C1.77689 11.6763 1.77689 11.2331 2.05025 10.9597L2.83639 10.1736C3.10976 9.90023 3.55297 9.90023 3.82634 10.1736ZM10.1737 10.1736C10.447 9.90023 10.8902 9.90023 11.1636 10.1736L11.9497 10.9597C12.2231 11.2331 12.2231 11.6763 11.9497 11.9497C11.6764 12.2231 11.2332 12.2231 10.9598 11.9497L10.1737 11.1635C9.90029 10.8902 9.90029 10.447 10.1737 10.1736ZM7 11.4882C7.3866 11.4882 7.7 11.8016 7.7 12.1882V13.2999C7.7 13.6865 7.3866 13.9999 7 13.9999C6.6134 13.9999 6.3 13.6865 6.3 13.2999V12.1882C6.3 11.8016 6.6134 11.4882 7 11.4882Z" fill="white"/>
</svg>
