<svg width="16" height="16" viewBox="0 0 16 16" fill="none" xmlns="http://www.w3.org/2000/svg">
<path fill-rule="evenodd" clip-rule="evenodd" d="M4.00519 0.499946C4.03647 0.499973 4.06806 0.500001 4.09999 0.500001C4.13192 0.500001 4.16351 0.499973 4.19478 0.499946C4.6286 0.499569 5.00001 0.499247 5.32998 0.573002C6.47591 0.829148 7.37083 1.72407 7.62698 2.87C7.70073 3.19997 7.70041 3.57138 7.70003 4.00519C7.70001 4.03647 7.69998 4.06806 7.69998 4.09999C7.69998 4.13192 7.70001 4.16351 7.70003 4.19478C7.70041 4.6286 7.70073 5.00001 7.62698 5.32998C7.37083 6.47591 6.47591 7.37083 5.32998 7.62698C5.00001 7.70073 4.6286 7.70041 4.19478 7.70003C4.16351 7.70001 4.13192 7.69998 4.09999 7.69998C4.06806 7.69998 4.03647 7.70001 4.00519 7.70003C3.57138 7.70041 3.19997 7.70073 2.87 7.62698C1.72407 7.37083 0.829148 6.47591 0.573002 5.32998C0.499247 5.00001 0.499569 4.6286 0.499946 4.19478C0.499973 4.16351 0.500001 4.13192 0.500001 4.09999C0.500001 4.06806 0.499973 4.03647 0.499946 4.00519C0.499569 3.57137 0.499247 3.19996 0.573002 2.87C0.829148 1.72407 1.72407 0.829148 2.87 0.573002C3.19996 0.499247 3.57137 0.499569 4.00519 0.499946ZM4.09999 2.5C3.51751 2.5 3.39023 2.50607 3.30628 2.52484C2.91643 2.61198 2.61198 2.91643 2.52484 3.30628C2.50607 3.39023 2.5 3.51751 2.5 4.09999C2.5 4.68247 2.50607 4.80974 2.52484 4.89369C2.61198 5.28354 2.91643 5.588 3.30628 5.67514C3.39023 5.69391 3.51751 5.69998 4.09999 5.69998C4.68247 5.69998 4.80974 5.69391 4.89369 5.67514C5.28355 5.588 5.588 5.28355 5.67514 4.89369C5.69391 4.80974 5.69998 4.68247 5.69998 4.09999C5.69998 3.51751 5.69391 3.39023 5.67514 3.30628C5.588 2.91643 5.28354 2.61198 4.89369 2.52484C4.80974 2.50607 4.68247 2.5 4.09999 2.5ZM11.8052 0.499946C11.8365 0.499973 11.8681 0.500001 11.9 0.500001C11.9319 0.500001 11.9635 0.499973 11.9948 0.499946C12.4286 0.499569 12.8 0.499247 13.13 0.573002C14.2759 0.829148 15.1709 1.72407 15.427 2.87C15.5008 3.19996 15.5004 3.57137 15.5001 4.00519C15.5 4.03646 15.5 4.06806 15.5 4.09999C15.5 4.13192 15.5 4.16352 15.5001 4.19479C15.5004 4.62861 15.5008 5.00002 15.427 5.32998C15.1709 6.47591 14.2759 7.37083 13.13 7.62698C12.8 7.70073 12.4286 7.70041 11.9948 7.70003C11.9635 7.70001 11.9319 7.69998 11.9 7.69998C11.8681 7.69998 11.8365 7.70001 11.8052 7.70003C11.3714 7.70041 11 7.70073 10.67 7.62698C9.52409 7.37083 8.62917 6.47591 8.37303 5.32998C8.29927 5.00001 8.29959 4.6286 8.29997 4.19478C8.3 4.16351 8.30002 4.13192 8.30002 4.09999C8.30002 4.06806 8.3 4.03647 8.29997 4.00519C8.29959 3.57138 8.29927 3.19997 8.37303 2.87C8.62917 1.72407 9.52409 0.829148 10.67 0.573002C11 0.499247 11.3714 0.499569 11.8052 0.499946ZM11.9 2.5C11.3175 2.5 11.1903 2.50607 11.1063 2.52484C10.7165 2.61198 10.412 2.91643 10.3249 3.30628C10.3061 3.39023 10.3 3.51751 10.3 4.09999C10.3 4.68247 10.3061 4.80974 10.3249 4.89369C10.412 5.28355 10.7165 5.588 11.1063 5.67514C11.1903 5.69391 11.3175 5.69998 11.9 5.69998C12.4825 5.69998 12.6098 5.69391 12.6937 5.67514C13.0836 5.588 13.388 5.28354 13.4752 4.89369C13.4939 4.80974 13.5 4.68247 13.5 4.09999C13.5 3.51751 13.4939 3.39023 13.4752 3.30628C13.388 2.91643 13.0836 2.61198 12.6937 2.52484C12.6098 2.50607 12.4825 2.5 11.9 2.5ZM4.00519 8.29997C4.03647 8.3 4.06806 8.30002 4.09999 8.30002C4.13192 8.30002 4.16351 8.3 4.19478 8.29997C4.6286 8.29959 5.00001 8.29927 5.32998 8.37303C6.47591 8.62917 7.37083 9.52409 7.62698 10.67C7.70073 11 7.70041 11.3714 7.70003 11.8052C7.70001 11.8365 7.69998 11.8681 7.69998 11.9C7.69998 11.9319 7.70001 11.9635 7.70003 11.9948C7.70041 12.4286 7.70073 12.8 7.62698 13.13C7.37083 14.2759 6.47591 15.1709 5.32998 15.427C5.00002 15.5008 4.62861 15.5004 4.19479 15.5001C4.16352 15.5 4.13192 15.5 4.09999 15.5C4.06806 15.5 4.03646 15.5 4.00519 15.5001C3.57137 15.5004 3.19996 15.5008 2.87 15.427C1.72407 15.1709 0.829148 14.2759 0.573002 13.13C0.499247 12.8 0.499569 12.4286 0.499946 11.9948C0.499973 11.9635 0.500001 11.9319 0.500001 11.9C0.500001 11.8681 0.499973 11.8365 0.499946 11.8052C0.499569 11.3714 0.499247 11 0.573002 10.67C0.829148 9.52409 1.72407 8.62917 2.87 8.37303C3.19997 8.29927 3.57138 8.29959 4.00519 8.29997ZM4.09999 10.3C3.51751 10.3 3.39023 10.3061 3.30628 10.3249C2.91643 10.412 2.61198 10.7165 2.52484 11.1063C2.50607 11.1903 2.5 11.3175 2.5 11.9C2.5 12.4825 2.50607 12.6098 2.52484 12.6937C2.61198 13.0836 2.91643 13.388 3.30628 13.4752C3.39023 13.4939 3.51751 13.5 4.09999 13.5C4.68247 13.5 4.80974 13.4939 4.89369 13.4752C5.28354 13.388 5.588 13.0836 5.67514 12.6937C5.69391 12.6098 5.69998 12.4825 5.69998 11.9C5.69998 11.3175 5.69391 11.1903 5.67514 11.1063C5.588 10.7165 5.28355 10.412 4.89369 10.3249C4.80974 10.3061 4.68247 10.3 4.09999 10.3ZM11.8052 8.29997C11.8365 8.3 11.8681 8.30002 11.9 8.30002C11.9319 8.30002 11.9635 8.3 11.9948 8.29997C12.4286 8.29959 12.8 8.29927 13.13 8.37303C14.2759 8.62917 15.1709 9.52409 15.427 10.67C15.5008 11 15.5004 11.3714 15.5001 11.8052C15.5 11.8365 15.5 11.8681 15.5 11.9C15.5 11.9319 15.5 11.9635 15.5001 11.9948C15.5004 12.4286 15.5008 12.8 15.427 13.13C15.1709 14.2759 14.2759 15.1709 13.13 15.427C12.8 15.5008 12.4286 15.5004 11.9948 15.5001C11.9635 15.5 11.9319 15.5 11.9 15.5C11.8681 15.5 11.8365 15.5 11.8052 15.5001C11.3714 15.5004 11 15.5008 10.67 15.427C9.52409 15.1709 8.62917 14.2759 8.37303 13.13C8.29927 12.8 8.29959 12.4286 8.29997 11.9948C8.3 11.9635 8.30002 11.9319 8.30002 11.9C8.30002 11.8681 8.3 11.8365 8.29997 11.8052C8.29959 11.3714 8.29927 11 8.37303 10.67C8.62917 9.52409 9.52409 8.62917 10.67 8.37303C11 8.29927 11.3714 8.29959 11.8052 8.29997ZM11.9 10.3C11.3175 10.3 11.1903 10.3061 11.1063 10.3249C10.7165 10.412 10.412 10.7165 10.3249 11.1063C10.3061 11.1903 10.3 11.3175 10.3 11.9C10.3 12.4825 10.3061 12.6098 10.3249 12.6937C10.412 13.0836 10.7165 13.388 11.1063 13.4752C11.1903 13.4939 11.3175 13.5 11.9 13.5C12.4825 13.5 12.6098 13.4939 12.6937 13.4752C13.0836 13.388 13.388 13.0836 13.4752 12.6937C13.4939 12.6098 13.5 12.4825 13.5 11.9C13.5 11.3175 13.4939 11.1903 13.4752 11.1063C13.388 10.7165 13.0836 10.412 12.6937 10.3249C12.6098 10.3061 12.4825 10.3 11.9 10.3Z" fill="white"/>
</svg>
