<svg width="14" height="14" viewBox="0 0 14 14" fill="none" xmlns="http://www.w3.org/2000/svg">
<path fill-rule="evenodd" clip-rule="evenodd" d="M4.86242 0.999956C4.90762 0.99998 4.95347 1 5 1H9C9.04654 1 9.09239 0.99998 9.13758 0.999956C9.93297 0.999525 10.5236 0.999205 11.0353 1.1363C12.4156 1.50617 13.4938 2.58436 13.8637 3.96473C14.0008 4.47638 14.0005 5.06704 14.0001 5.86242C14 5.90761 14 5.95347 14 6C14 6.04654 14 6.0924 14.0001 6.13759C14.0005 6.93297 14.0008 7.52363 13.8637 8.03528C13.4938 9.41565 12.4156 10.4938 11.0353 10.8637C10.5236 11.0008 9.93297 11.0005 9.13759 11.0001C9.0924 11 9.04654 11 9 11H5C4.95347 11 4.90761 11 4.86242 11.0001C4.06704 11.0005 3.47638 11.0008 2.96473 10.8637C1.58436 10.4938 0.50617 9.41565 0.136302 8.03528C-0.000794873 7.52363 -0.000475039 6.93297 -4.4336e-05 6.13759C-1.98981e-05 6.09239 4.8974e-06 6.04654 4.8974e-06 6C4.8974e-06 5.95347 -1.98981e-05 5.90762 -4.4336e-05 5.86242C-0.000475039 5.06704 -0.000794873 4.47638 0.136302 3.96473C0.50617 2.58436 1.58436 1.50617 2.96473 1.1363C3.47638 0.999205 4.06704 0.999525 4.86242 0.999956ZM5 3.00001C4.00565 3.00001 3.70464 3.00859 3.48237 3.06815C2.79218 3.25309 2.25309 3.79218 2.06815 4.48237C2.00859 4.70464 2.00001 5.00565 2.00001 6C2.00001 6.99436 2.00859 7.29537 2.06815 7.51764C2.25309 8.20783 2.79218 8.74692 3.48237 8.93186C3.70464 8.99142 4.00565 9 5 9H9C9.99436 9 10.2954 8.99142 10.5176 8.93186C11.2078 8.74692 11.7469 8.20783 11.9319 7.51764C11.9914 7.29537 12 6.99436 12 6C12 5.00565 11.9914 4.70464 11.9319 4.48237C11.7469 3.79218 11.2078 3.25309 10.5176 3.06815C10.2954 3.00859 9.99436 3.00001 9 3.00001H5ZM3.50001 13C3.50001 12.4477 3.94772 12 4.5 12H9.5C10.0523 12 10.5 12.4477 10.5 13C10.5 13.5523 10.0523 14 9.5 14H4.5C3.94772 14 3.50001 13.5523 3.50001 13Z" fill="white"/>
</svg>
