<svg width="16" height="16" viewBox="0 0 16 16" fill="none" xmlns="http://www.w3.org/2000/svg">
<path fill-rule="evenodd" clip-rule="evenodd" d="M7.33704 2.50171C4.66562 2.50171 2.5 4.66733 2.5 7.33875C2.5 10.0102 4.66562 12.1758 7.33704 12.1758C10.0085 12.1758 12.1741 10.0102 12.1741 7.33875C12.1741 4.66733 10.0085 2.50171 7.33704 2.50171ZM0.5 7.33875C0.5 3.56276 3.56105 0.501709 7.33704 0.501709C11.113 0.501709 14.1741 3.56276 14.1741 7.33875C14.1741 8.86641 13.6731 10.277 12.8264 11.4153L15.2071 13.796C15.5976 14.1866 15.5976 14.8197 15.2071 15.2103C14.8166 15.6008 14.1834 15.6008 13.7929 15.2103L11.4119 12.8293C10.274 13.6753 8.86396 14.1758 7.33704 14.1758C3.56105 14.1758 0.5 11.1147 0.5 7.33875Z" fill="white"/>
</svg>
