<svg width="14" height="14" viewBox="0 0 14 14" fill="none" xmlns="http://www.w3.org/2000/svg">
<path fill-rule="evenodd" clip-rule="evenodd" d="M6.99845 0C7.55074 0 7.99845 0.447715 7.99845 1V5.61538C7.99845 6.16767 7.55074 6.61538 6.99845 6.61538C6.44617 6.61538 5.99845 6.16767 5.99845 5.61538V1C5.99845 0.447715 6.44617 0 6.99845 0ZM4.76861 2.29248C5.07439 2.75239 4.94945 3.3731 4.48955 3.67889C3.26413 4.49365 2.45999 5.8839 2.45999 7.46154C2.45999 9.96806 4.49193 12 6.99845 12C9.50498 12 11.5369 9.96806 11.5369 7.46154C11.5369 5.8839 10.7328 4.49365 9.50736 3.67889C9.04745 3.3731 8.92251 2.75239 9.2283 2.29248C9.53409 1.83257 10.1548 1.70763 10.6147 2.01342C12.374 3.18313 13.5369 5.18631 13.5369 7.46154C13.5369 11.0726 10.6095 14 6.99845 14C3.38736 14 0.459991 11.0726 0.459991 7.46154C0.459991 5.18631 1.62294 3.18313 3.3822 2.01342C3.8421 1.70763 4.46282 1.83257 4.76861 2.29248Z" fill="white"/>
</svg>
