<svg width="20" height="20" viewBox="0 0 20 20" fill="none" xmlns="http://www.w3.org/2000/svg">
<path fill-rule="evenodd" clip-rule="evenodd" d="M13 6.00342C13 4.00252 11.4423 2.93859 9.90829 3.0025C9.20919 3.03163 8.47373 3.38994 7.90147 3.98049C7.3292 4.57106 7 5.31107 7 6.00336C7 6.55565 6.55228 7.00336 6 7.00336C5.44772 7.00336 5 6.55565 5 6.00336C5 4.6956 5.60414 3.47728 6.46519 2.5887C7.32627 1.7001 8.52414 1.05844 9.82504 1.00424C12.291 0.901498 15 2.67076 15 6.00342C15 8.16349 13.6457 9.20768 12.6673 9.96211C12.6484 9.97668 12.6296 9.99114 12.611 10.0055C11.5929 10.7914 11 11.2927 11 12.4243C11 12.9766 10.5523 13.4243 10 13.4243C9.44772 13.4243 9 12.9766 9 12.4243C9 10.2643 10.3543 9.22009 11.3327 8.46568C11.3516 8.4511 11.3704 8.43664 11.389 8.42227C12.4071 7.63642 13 7.13505 13 6.00342Z" fill="white"/>
<path d="M11.7342 17.2713C11.7342 18.2181 10.9667 18.9856 10.0199 18.9856C9.07318 18.9856 8.30566 18.2181 8.30566 17.2713C8.30566 16.3245 9.07318 15.557 10.0199 15.557C10.9667 15.557 11.7342 16.3245 11.7342 17.2713Z" fill="white"/>
<path fill-rule="evenodd" clip-rule="evenodd" d="M10.0199 18.9856C10.9667 18.9856 11.7342 18.2181 11.7342 17.2713C11.7342 16.3245 10.9667 15.557 10.0199 15.557C9.07318 15.557 8.30566 16.3245 8.30566 17.2713C8.30566 18.2181 9.07318 18.9856 10.0199 18.9856Z" fill="white"/>
</svg>
