<svg width="20" height="20" viewBox="0 0 20 20" fill="none" xmlns="http://www.w3.org/2000/svg">
<path fill-rule="evenodd" clip-rule="evenodd" d="M11.5275 1.85718H13.2345C13.9313 1.85716 14.5198 1.85714 15.0005 1.90028C15.5048 1.94553 15.9866 2.04436 16.4371 2.30133C16.963 2.60133 17.3987 3.03706 17.6987 3.56301C17.9557 4.01352 18.0545 4.49532 18.0998 4.99959C18.1429 5.48025 18.1429 6.06882 18.1429 6.76562V8.47255C18.1429 9.16935 18.1429 9.75792 18.0998 10.2386C18.0545 10.7428 17.9557 11.2247 17.6987 11.6752C17.3987 12.2011 16.963 12.6368 16.4371 12.9368C15.9866 13.1938 15.5048 13.2926 15.0005 13.3379C14.5539 13.378 14.0141 13.3808 13.381 13.381C13.3808 14.0141 13.378 14.5539 13.3379 15.0005C13.2926 15.5048 13.1938 15.9866 12.9368 16.4371C12.6368 16.963 12.2011 17.3987 11.6752 17.6987C11.2247 17.9557 10.7428 18.0545 10.2386 18.0998C9.75792 18.1429 9.16935 18.1429 8.47255 18.1429H6.76562C6.06882 18.1429 5.48025 18.1429 4.99959 18.0998C4.49532 18.0545 4.01352 17.9557 3.56301 17.6987C3.03706 17.3987 2.60133 16.963 2.30133 16.4371C2.04436 15.9866 1.94553 15.5048 1.90028 15.0005C1.85714 14.5198 1.85716 13.9313 1.85718 13.2345V11.5275C1.85716 10.8307 1.85714 10.2422 1.90028 9.76149C1.94553 9.25723 2.04436 8.77542 2.30133 8.32491C2.60133 7.79896 3.03706 7.36323 3.56301 7.06323C4.01352 6.80627 4.49532 6.70744 4.99959 6.66218C5.44618 6.62211 5.98593 6.61928 6.61909 6.61909C6.61928 5.98593 6.62211 5.44618 6.66218 4.99959C6.70744 4.49532 6.80627 4.01352 7.06323 3.56301C7.36323 3.03706 7.79896 2.60133 8.32491 2.30133C8.77542 2.04436 9.25723 1.94553 9.76149 1.90028C10.2422 1.85714 10.8307 1.85716 11.5275 1.85718ZM6.61909 8.61913C5.97143 8.6195 5.52588 8.62299 5.17835 8.65418C4.81128 8.68712 4.65178 8.74468 4.55393 8.8005C4.3391 8.92303 4.16113 9.10101 4.03859 9.31583C3.98278 9.41369 3.92522 9.57319 3.89227 9.94026C3.85812 10.3209 3.85718 10.819 3.85718 11.5715V13.1905C3.85718 13.943 3.85812 14.4411 3.89227 14.8217C3.92522 15.1888 3.98278 15.3483 4.03859 15.4461C4.16113 15.661 4.3391 15.8389 4.55393 15.9615C4.65178 16.0173 4.81128 16.0749 5.17835 16.1078C5.55895 16.142 6.05711 16.1429 6.80956 16.1429H8.42861C9.18106 16.1429 9.67922 16.142 10.0598 16.1078C10.4269 16.0749 10.5864 16.0173 10.6842 15.9615C10.8991 15.8389 11.077 15.661 11.1996 15.4461C11.2554 15.3483 11.313 15.1888 11.3459 14.8217C11.3771 14.4742 11.3806 14.0286 11.3809 13.381C10.7478 13.3808 10.2081 13.378 9.76149 13.3379C9.25723 13.2926 8.77542 13.1938 8.32491 12.9368C7.79896 12.6368 7.36323 12.2011 7.06323 11.6752C6.80627 11.2247 6.70744 10.7428 6.66218 10.2386C6.62211 9.792 6.61928 9.25226 6.61909 8.61913ZM9.94026 3.89227C9.57319 3.92522 9.41369 3.98278 9.31583 4.03859C9.10101 4.16113 8.92303 4.3391 8.8005 4.55393C8.74468 4.65178 8.68712 4.81128 8.65418 5.17835C8.62002 5.55895 8.61908 6.05711 8.61908 6.80956V8.42861C8.61908 9.18106 8.62002 9.67922 8.65418 10.0598C8.68712 10.4269 8.74468 10.5864 8.8005 10.6842C8.92303 10.8991 9.10101 11.077 9.31583 11.1996C9.41369 11.2554 9.57319 11.313 9.94026 11.3459C10.3209 11.38 10.819 11.381 11.5715 11.381H13.1905C13.943 11.381 14.4411 11.38 14.8217 11.3459C15.1888 11.313 15.3483 11.2554 15.4461 11.1996C15.661 11.077 15.8389 10.8991 15.9615 10.6842C16.0173 10.5864 16.0749 10.4269 16.1078 10.0598C16.142 9.67922 16.1429 9.18106 16.1429 8.42861V6.80956C16.1429 6.05711 16.142 5.55895 16.1078 5.17835C16.0749 4.81128 16.0173 4.65178 15.9615 4.55393C15.8389 4.3391 15.661 4.16113 15.4461 4.03859C15.3483 3.98278 15.1888 3.92522 14.8217 3.89227C14.4411 3.85812 13.943 3.85718 13.1905 3.85718H11.5715C10.819 3.85718 10.3209 3.85812 9.94026 3.89227Z" fill="white"/>
</svg>
