<svg width="14" height="14" viewBox="0 0 14 14" fill="none" xmlns="http://www.w3.org/2000/svg">
<path fill-rule="evenodd" clip-rule="evenodd" d="M6.99989 13.5C10.5885 13.5 13.4977 10.5899 13.4977 7C13.4977 3.41015 10.5885 0.5 6.99989 0.5C3.41125 0.5 0.502075 3.41015 0.502075 7C0.502075 10.5899 3.41125 13.5 6.99989 13.5ZM7.01329 2.59998C5.48162 2.59998 4.31848 3.80174 4.31848 5.3004C4.31848 5.85269 4.7662 6.3004 5.31848 6.3004C5.87077 6.3004 6.31848 5.85269 6.31848 5.3004C6.31848 4.88694 6.60546 4.59998 7.01329 4.59998C7.24527 4.59998 7.38696 4.67918 7.47301 4.76908C7.56116 4.86118 7.64754 5.02511 7.65019 5.28793C7.64494 5.30223 7.6282 5.33926 7.58097 5.40532C7.48889 5.53413 7.36403 5.66414 7.1675 5.86878L7.08561 5.95408C6.70728 6.34802 6.01329 7.07064 6.01329 8.11958C6.01329 8.67186 6.46101 9.11958 7.01329 9.11958C7.56557 9.11958 8.01329 8.67186 8.01329 8.11958C8.01329 7.96022 8.10698 7.77855 8.55348 7.313L8.61707 7.24699C8.79229 7.06548 9.02499 6.82442 9.20798 6.56844C9.42487 6.26505 9.65025 5.83862 9.65025 5.3004C9.65025 4.57702 9.40436 3.89446 8.91785 3.38617C8.42785 2.87423 7.75107 2.59998 7.01329 2.59998ZM6.99983 11.7309C7.61917 11.7309 8.12124 11.2288 8.12124 10.6094C8.12124 9.99011 7.61917 9.48804 6.99983 9.48804C6.38049 9.48804 5.87842 9.99011 5.87842 10.6094C5.87842 11.2288 6.38049 11.7309 6.99983 11.7309Z" fill="white"/>
</svg>
