<svg width="16" height="16" viewBox="0 0 16 16" fill="none" xmlns="http://www.w3.org/2000/svg">
<path fill-rule="evenodd" clip-rule="evenodd" d="M12.4182 0.259427C12.9653 0.184256 13.4698 0.566868 13.545 1.11401L14.0916 5.09285C14.1668 5.63993 13.7843 6.14438 13.2372 6.21963L9.2596 6.76681C8.71247 6.84208 8.20791 6.45955 8.13265 5.91242C8.05738 5.36529 8.4399 4.86074 8.98704 4.78547L10.7055 4.54908C10.151 4.1592 9.49965 3.88902 8.7812 3.78199C6.32048 3.41539 4.02807 5.11367 3.66148 7.57599C3.29488 10.0384 4.99321 12.3313 7.45401 12.6979C9.69436 13.0317 11.7968 11.6532 12.4306 9.545C12.5897 9.01611 13.1473 8.71626 13.6762 8.87529C14.2051 9.03431 14.505 9.59197 14.3459 10.1209C13.4303 13.1663 10.397 15.1584 7.1593 14.6761C3.60547 14.1467 1.15413 10.8357 1.68328 7.28148C2.21244 3.72715 5.522 1.27436 9.07591 1.80382C10.0712 1.9521 10.982 2.31954 11.7647 2.85012L11.5636 1.38623C11.4884 0.839083 11.871 0.334597 12.4182 0.259427Z" fill="white"/>
</svg>
