<svg width="20" height="20" viewBox="0 0 20 20" fill="none" xmlns="http://www.w3.org/2000/svg">
<path fill-rule="evenodd" clip-rule="evenodd" d="M3.35539 3.35539C3.74592 2.96487 4.37908 2.96487 4.76961 3.35539L10 8.58579L15.2304 3.35539C15.6209 2.96487 16.2541 2.96487 16.6446 3.35539C17.0351 3.74592 17.0351 4.37908 16.6446 4.76961L11.4142 10L16.6446 15.2304C17.0351 15.6209 17.0351 16.2541 16.6446 16.6446C16.2541 17.0351 15.6209 17.0351 15.2304 16.6446L10 11.4142L4.76961 16.6446C4.37908 17.0351 3.74592 17.0351 3.35539 16.6446C2.96487 16.2541 2.96487 15.6209 3.35539 15.2304L8.58579 10L3.35539 4.76961C2.96487 4.37908 2.96487 3.74592 3.35539 3.35539Z" fill="white"/>
</svg>
