<svg width="16" height="14" viewBox="0 0 16 14" fill="none" xmlns="http://www.w3.org/2000/svg">
<path d="M6.12029 7.00879C6.12029 5.97326 6.95975 5.13379 7.99529 5.13379C9.03082 5.13379 9.87029 5.97326 9.87029 7.00879C9.87029 8.04432 9.03082 8.88379 7.99529 8.88379C6.95975 8.88379 6.12029 8.04432 6.12029 7.00879Z" fill="white"/>
<path fill-rule="evenodd" clip-rule="evenodd" d="M15.0531 6.62778L15.0528 6.62684L15.0519 6.62467L15.0496 6.61911L15.0431 6.60326C15.0378 6.59061 15.0307 6.57386 15.0218 6.55326C15.004 6.51208 14.9787 6.45546 14.9458 6.38559C14.88 6.24602 14.7831 6.05267 14.6532 5.82339C14.3945 5.36684 13.9984 4.75688 13.4464 4.14354C12.341 2.91529 10.5595 1.625 7.99999 1.625C5.44051 1.625 3.65899 2.91529 2.55357 4.14354C2.00156 4.75688 1.60548 5.36684 1.34676 5.82339C1.21684 6.05267 1.12 6.24602 1.0542 6.38559C1.02127 6.45546 0.995996 6.51208 0.978152 6.55326C0.969226 6.57386 0.962148 6.59061 0.956887 6.60326L0.95035 6.61911L0.948094 6.62467L0.947218 6.62684L0.946843 6.62778C0.946843 6.62778 0.946509 6.62861 1.87492 6.99997L0.946843 6.62778C0.851478 6.86619 0.851145 7.13298 0.946509 7.37139L1.87492 6.99997C0.946509 7.37133 0.946509 7.37139 0.946509 7.37139L0.947218 7.37316L0.948094 7.37533L0.95035 7.38089L0.956887 7.39674C0.962148 7.40939 0.969226 7.42614 0.978152 7.44674C0.995996 7.48792 1.02127 7.54454 1.0542 7.61441C1.12 7.75398 1.21684 7.94733 1.34676 8.17661C1.60548 8.63316 2.00156 9.24312 2.55357 9.85646C3.65899 11.0847 5.44051 12.375 7.99999 12.375C10.5595 12.375 12.341 11.0847 13.4464 9.85646C13.9984 9.24312 14.3945 8.63316 14.6532 8.17661C14.7831 7.94733 14.88 7.75398 14.9458 7.61441C14.9787 7.54454 15.004 7.48792 15.0218 7.44674C15.0307 7.42614 15.0378 7.40939 15.0431 7.39674L15.0496 7.38089L15.0519 7.37533L15.0528 7.37316L15.0531 7.37222C15.1756 7.06602 13.5547 7.22871 15.0531 6.62778ZM2.98256 7C3.01328 7.05829 3.048 7.12211 3.08681 7.19058C3.29293 7.55434 3.60779 8.03813 4.04016 8.51854C4.90348 9.47779 6.18446 10.375 7.99999 10.375C9.81551 10.375 11.0965 9.47779 11.9598 8.51854C12.3922 8.03813 12.707 7.55434 12.9132 7.19058C12.952 7.12211 12.9867 7.05829 13.0174 7C12.9867 6.94171 12.952 6.87789 12.9132 6.80942C12.707 6.44566 12.3922 5.96187 11.9598 5.48146C11.0965 4.52221 9.81551 3.625 7.99999 3.625C6.18446 3.625 4.90348 4.52221 4.04016 5.48146C3.60779 5.96187 3.29293 6.44566 3.08681 6.80942C3.048 6.87789 3.01328 6.94171 2.98256 7Z" fill="white"/>
<path d="M15.0531 6.62778C15.1485 6.86619 15.1485 7.13381 15.0531 7.37222C15.1756 7.06602 13.5547 7.22871 15.0531 6.62778Z" fill="white"/>
</svg>
