<svg width="20" height="20" viewBox="0 0 20 20" fill="none" xmlns="http://www.w3.org/2000/svg">
<path fill-rule="evenodd" clip-rule="evenodd" d="M5.5 4.5C5.5 2.01472 7.51472 0 10 0C12.4853 0 14.5 2.01472 14.5 4.5V7.55642C14.86 7.59618 15.2004 7.66767 15.5307 7.80448C16.5108 8.21046 17.2895 8.98915 17.6955 9.96927C17.8686 10.3871 17.9371 10.8212 17.9691 11.2905C18 11.7431 18 12.2959 18 12.9657V13.0343C18 13.7041 18 14.2569 17.9691 14.7095C17.9371 15.1788 17.8686 15.6129 17.6955 16.0307C17.2895 17.0108 16.5108 17.7895 15.5307 18.1955C15.1129 18.3686 14.6788 18.4371 14.2095 18.4691C13.7569 18.5 13.2041 18.5 12.5343 18.5H7.46573C6.79594 18.5 6.24307 18.5 5.79046 18.4691C5.32118 18.4371 4.88708 18.3686 4.46927 18.1955C3.48915 17.7895 2.71046 17.0108 2.30448 16.0307C2.13142 15.6129 2.06288 15.1788 2.03087 14.7095C1.99998 14.2569 1.99999 13.7041 2 13.0343V12.9657C1.99999 12.2959 1.99998 11.7431 2.03087 11.2905C2.06288 10.8212 2.13142 10.3871 2.30448 9.96927C2.71046 8.98915 3.48915 8.21046 4.46927 7.80448C4.79956 7.66767 5.14002 7.59618 5.5 7.55642V4.5ZM7.5 7.5H12.5V4.5C12.5 3.11929 11.3807 2 10 2C8.61929 2 7.5 3.11929 7.5 4.5V7.5ZM5.9266 9.52623C5.55915 9.5513 5.36813 9.59694 5.23463 9.65224C4.74458 9.85523 4.35523 10.2446 4.15224 10.7346C4.09694 10.8681 4.0513 11.0591 4.02623 11.4266C4.00054 11.803 4 12.2874 4 13C4 13.7126 4.00054 14.197 4.02623 14.5734C4.0513 14.9409 4.09694 15.1319 4.15224 15.2654C4.35523 15.7554 4.74458 16.1448 5.23463 16.3478C5.36813 16.4031 5.55915 16.4487 5.9266 16.4738C6.30304 16.4995 6.78741 16.5 7.5 16.5H12.5C13.2126 16.5 13.697 16.4995 14.0734 16.4738C14.4409 16.4487 14.6319 16.4031 14.7654 16.3478C15.2554 16.1448 15.6448 15.7554 15.8478 15.2654C15.9031 15.1319 15.9487 14.9409 15.9738 14.5734C15.9995 14.197 16 13.7126 16 13C16 12.2874 15.9995 11.803 15.9738 11.4266C15.9487 11.0591 15.9031 10.8681 15.8478 10.7346C15.6448 10.2446 15.2554 9.85523 14.7654 9.65224C14.6319 9.59694 14.4409 9.5513 14.0734 9.52623C13.697 9.50054 13.2126 9.5 12.5 9.5H7.5C6.78741 9.5 6.30304 9.50054 5.9266 9.52623Z" fill="white"/>
</svg>
