<svg width="14" height="14" viewBox="0 0 14 14" fill="none" xmlns="http://www.w3.org/2000/svg">
<path fill-rule="evenodd" clip-rule="evenodd" d="M7 2.00037C4.23889 2.00037 2 4.23953 2 7.00238C2 9.76523 4.23889 12.0044 7 12.0044C9.76111 12.0044 12 9.76523 12 7.00238C12 4.23953 9.76111 2.00037 7 2.00037ZM0 7.00238C0 3.13559 3.13369 0.000366211 7 0.000366211C10.8663 0.000366211 14 3.13559 14 7.00238C14 10.8692 10.8663 14.0044 7 14.0044C3.13369 14.0044 0 10.8692 0 7.00238ZM7 3.72503C7.55229 3.72503 8 4.17275 8 4.72503L8 6.85973L8.39289 6.46684C8.78342 6.07632 9.41658 6.07632 9.80711 6.46684C10.1976 6.85737 10.1976 7.49053 9.80711 7.88106L7.70711 9.98106C7.31658 10.3716 6.68342 10.3716 6.29289 9.98106L4.19289 7.88106C3.80237 7.49053 3.80237 6.85737 4.19289 6.46684C4.58342 6.07632 5.21658 6.07632 5.60711 6.46684L6 6.85974L6 4.72503C6 4.17275 6.44772 3.72503 7 3.72503Z" fill="white"/>
</svg>
