<svg width="20" height="20" viewBox="0 0 20 20" fill="none" xmlns="http://www.w3.org/2000/svg">
<path fill-rule="evenodd" clip-rule="evenodd" d="M9.28535 4C6.36633 4 4 6.36633 4 9.28535C4 12.2044 6.36633 14.5707 9.28535 14.5707C12.2044 14.5707 14.5707 12.2044 14.5707 9.28535C14.5707 6.36633 12.2044 4 9.28535 4ZM2 9.28535C2 5.26176 5.26176 2 9.28535 2C13.3089 2 16.5707 5.26176 16.5707 9.28535C16.5707 10.937 16.0211 12.4602 15.0948 13.6822L17.7056 16.2929C18.0961 16.6834 18.0961 17.3166 17.7056 17.7071C17.315 18.0976 16.6819 18.0976 16.2913 17.7071L13.6804 15.0962C12.4587 16.0216 10.9362 16.5707 9.28535 16.5707C5.26176 16.5707 2 13.3089 2 9.28535Z" fill="white"/>
</svg>
