<svg width="20" height="20" viewBox="0 0 20 20" fill="none" xmlns="http://www.w3.org/2000/svg">
<path fill-rule="evenodd" clip-rule="evenodd" d="M6.15814 2.09558H13.8419C14.6772 2.09557 15.3702 2.09555 15.9336 2.14611C16.5206 2.19879 17.0633 2.31248 17.5659 2.59916C18.1622 2.9393 18.6563 3.43334 18.9964 4.02966C19.2724 4.51342 19.388 5.03436 19.4433 5.59621C19.5048 5.77008 19.5155 5.95468 19.4796 6.12977C19.5 6.59679 19.5 7.13641 19.5 7.75377V12.2462C19.5 13.0816 19.5 13.7746 19.4495 14.338C19.3968 14.925 19.2831 15.4677 18.9964 15.9704C18.6563 16.5667 18.1622 17.0607 17.5659 17.4008C17.0633 17.6875 16.5206 17.8012 15.9336 17.8539C15.3702 17.9045 14.6772 17.9044 13.8419 17.9044H6.15814C5.32283 17.9044 4.62983 17.9045 4.06645 17.8539C3.47941 17.8012 2.93668 17.6875 2.43407 17.4008C1.83775 17.0607 1.34371 16.5667 1.00358 15.9704C0.716899 15.4677 0.603211 14.925 0.550528 14.338C0.499969 13.7746 0.499983 13.0816 0.499999 12.2463V7.75373C0.499987 7.13639 0.499976 6.59678 0.520381 6.12978C0.484485 5.95469 0.495246 5.77008 0.556715 5.59621C0.611976 5.03436 0.727643 4.51342 1.00358 4.02966C1.34372 3.43333 1.83775 2.9393 2.43407 2.59916C2.93668 2.31248 3.47941 2.19879 4.06645 2.14611C4.62983 2.09555 5.32284 2.09557 6.15814 2.09558ZM2.5 7.79743C2.5 7.79793 2.5 7.79842 2.5 7.79892V12.2011C2.5 13.0931 2.50094 13.6958 2.54252 14.1592C2.58289 14.6091 2.65531 14.8295 2.74084 14.9794C2.90352 15.2646 3.13979 15.5009 3.42499 15.6636C3.57494 15.7491 3.79537 15.8215 4.24521 15.8619C4.70859 15.9035 5.31137 15.9044 6.20333 15.9044H13.7967C14.6886 15.9044 15.2914 15.9035 15.7548 15.8619C16.2046 15.8215 16.4251 15.7491 16.575 15.6636C16.8602 15.5009 17.0965 15.2646 17.2592 14.9794C17.3447 14.8295 17.4171 14.6091 17.4575 14.1592C17.4991 13.6958 17.5 13.0931 17.5 12.2011V7.79892C17.5 7.79842 17.5 7.79793 17.5 7.79743L12.1263 11.3799C10.8387 12.2383 9.16126 12.2383 7.87365 11.3799L2.5 7.79743ZM17.4061 5.45631L11.0169 9.71576C10.4011 10.1263 9.59887 10.1263 8.98305 9.71576L2.59387 5.45631C2.63348 5.24965 2.6843 5.11971 2.74084 5.02057C2.90352 4.73538 3.13979 4.4991 3.42499 4.33642C3.57494 4.25089 3.79537 4.17848 4.24521 4.13811C4.70859 4.09652 5.31137 4.09558 6.20333 4.09558H13.7967C14.6886 4.09558 15.2914 4.09652 15.7548 4.13811C16.2046 4.17848 16.4251 4.25089 16.575 4.33642C16.8602 4.4991 17.0965 4.73538 17.2592 5.02057C17.3157 5.11971 17.3665 5.24965 17.4061 5.45631Z" fill="white"/>
</svg>
