<svg width="20" height="20" viewBox="0 0 20 20" fill="none" xmlns="http://www.w3.org/2000/svg">
<path fill-rule="evenodd" clip-rule="evenodd" d="M13.8808 4.34813C13.22 4.478 12.3501 4.75871 11.0748 5.17297L8.50869 6.00648C6.40631 6.68936 4.90679 7.17781 3.88121 7.63179C3.37166 7.85736 3.0351 8.05092 2.82022 8.22036C2.61183 8.38468 2.57011 8.48488 2.55969 8.51819C2.48058 8.77105 2.48009 9.04197 2.55831 9.29511C2.56861 9.32845 2.60998 9.4288 2.81777 9.59386C3.03205 9.76406 3.36792 9.95882 3.87667 10.1862C4.79287 10.5957 6.08844 11.0341 7.85529 11.6164L10.3876 8.59856C10.7426 8.17548 11.3733 8.1203 11.7964 8.4753C12.2195 8.8303 12.2746 9.46106 11.9196 9.88413L9.38738 12.902C10.2676 14.5409 10.9244 15.7406 11.4867 16.5718C11.799 17.0333 12.0491 17.3303 12.2539 17.5117C12.4526 17.6877 12.5586 17.711 12.5932 17.7154C12.8561 17.7485 13.1228 17.7009 13.3581 17.5791C13.3891 17.5631 13.4805 17.5046 13.6061 17.2708C13.7357 17.0298 13.8679 16.6647 14.0015 16.1237C14.2705 15.0349 14.4912 13.4734 14.7986 11.2843L15.1738 8.6125C15.3603 7.28457 15.4857 6.37918 15.4989 5.70592C15.512 5.03704 15.4047 4.80562 15.3145 4.69184C15.2044 4.55299 15.0673 4.43794 14.9114 4.35366C14.7837 4.28461 14.5372 4.21912 13.8808 4.34813ZM7.49373 13.603C5.61919 12.9864 4.1304 12.4903 3.0606 12.0121C2.48683 11.7557 1.9778 11.4808 1.57383 11.1599C1.16337 10.8339 0.813119 10.4217 0.647443 9.88552C0.449667 9.24542 0.450886 8.56036 0.65094 7.92097C0.818524 7.38536 1.17024 6.97443 1.58185 6.64987C1.98697 6.33043 2.49697 6.05736 3.07166 5.80297C4.20309 5.30212 5.80179 4.78285 7.82903 4.12438L10.5196 3.25044C11.7166 2.86161 12.7017 2.5416 13.4951 2.38568C14.3065 2.22619 15.1202 2.1929 15.8627 2.59438C16.2568 2.80748 16.6035 3.09841 16.8818 3.44952C17.4062 4.11101 17.5147 4.91816 17.4985 5.74498C17.4827 6.55333 17.3386 7.57905 17.1636 8.82536L16.7701 11.6268C16.4737 13.7376 16.2399 15.4022 15.9432 16.6034C15.7924 17.2136 15.6121 17.7632 15.3678 18.2177C15.1197 18.6794 14.7761 19.0971 14.2777 19.3552C13.6827 19.6632 13.0083 19.7834 12.3436 19.6997C11.7867 19.6297 11.32 19.3563 10.9277 19.0087C10.5415 18.6666 10.1824 18.2131 9.83023 17.6925C9.17361 16.722 8.42648 15.342 7.49373 13.603Z" fill="white"/>
</svg>
