<svg width="16" height="16" viewBox="0 0 16 16" fill="none" xmlns="http://www.w3.org/2000/svg">
<path fill-rule="evenodd" clip-rule="evenodd" d="M7.99998 2.60001C5.90321 2.60001 4.08378 3.79483 3.18858 5.54539C2.81255 6.28072 2.59998 7.11409 2.59998 8.00001C2.59998 8.24988 2.61689 8.4956 2.64962 8.73615L8.73606 2.6497C8.49538 2.61693 8.24966 2.60001 7.99998 2.60001ZM10.8203 3.3939L3.39391 10.8203C3.5903 11.1402 3.81919 11.4383 4.07598 11.7098L11.7098 4.07597C11.4383 3.81913 11.1403 3.59027 10.8203 3.3939ZM12.8959 5.71827L5.71824 12.896C6.41099 13.2195 7.18377 13.4 7.99998 13.4C10.0058 13.4 11.7575 12.3069 12.6898 10.6791C13.1415 9.89042 13.4 8.97692 13.4 8.00001C13.4 7.1838 13.2194 6.41102 12.8959 5.71827ZM1.4079 4.63479C2.63165 2.24175 5.12323 0.600006 7.99998 0.600006C10.3977 0.600006 12.5293 1.74149 13.8799 3.50654C14.8332 4.75227 15.4 6.31137 15.4 8.00001C15.4 9.33477 15.0457 10.5898 14.4253 11.673C13.1513 13.8975 10.7517 15.4 7.99998 15.4C6.31134 15.4 4.75224 14.8332 3.50651 13.8799C2.72304 13.2804 2.06286 12.5277 1.57055 11.6659C0.95271 10.5843 0.599976 9.33184 0.599976 8.00001C0.599976 6.7902 0.891062 5.64547 1.4079 4.63479Z" fill="white"/>
</svg>
