<svg width="20" height="20" viewBox="0 0 20 20" fill="none" xmlns="http://www.w3.org/2000/svg">
<path d="M5.75736 7.87867C6.92893 9.05025 6.92893 10.9497 5.75736 12.1213C4.58579 13.2929 2.68629 13.2929 1.51472 12.1213C0.343146 10.9497 0.343146 9.05025 1.51472 7.87867C2.68629 6.7071 4.58579 6.7071 5.75736 7.87867Z" fill="white"/>
<path d="M12.1213 1.51471C13.2929 2.68628 13.2929 4.58578 12.1213 5.75735C10.9497 6.92893 9.05025 6.92893 7.87868 5.75735C6.70711 4.58578 6.70711 2.68628 7.87868 1.51471C9.05025 0.343139 10.9497 0.343139 12.1213 1.51471Z" fill="white"/>
<path d="M12.1213 14.2426C13.2929 15.4142 13.2929 17.3137 12.1213 18.4853C10.9497 19.6568 9.05025 19.6568 7.87868 18.4853C6.70711 17.3137 6.70711 15.4142 7.87868 14.2426C9.05025 13.0711 10.9497 13.0711 12.1213 14.2426Z" fill="white"/>
<path d="M18.4853 7.87867C19.6569 9.05025 19.6569 10.9497 18.4853 12.1213C17.3137 13.2929 15.4142 13.2929 14.2426 12.1213C13.0711 10.9497 13.0711 9.05025 14.2426 7.87867C15.4142 6.7071 17.3137 6.7071 18.4853 7.87867Z" fill="white"/>
</svg>
