<svg width="14" height="14" viewBox="0 0 14 14" fill="none" xmlns="http://www.w3.org/2000/svg">
<path fill-rule="evenodd" clip-rule="evenodd" d="M11.2427 1.34311C11.6332 1.73363 11.6332 2.3668 11.2427 2.75732L2.7574 11.2426C2.36688 11.6331 1.73371 11.6331 1.34319 11.2426C0.952662 10.8521 0.952662 10.2189 1.34319 9.82839L9.82847 1.34311C10.219 0.952586 10.8522 0.952586 11.2427 1.34311ZM12.6569 8.41423C13.0474 8.80475 13.0474 9.43791 12.6569 9.82844L9.82843 12.6569C9.4379 13.0474 8.80474 13.0474 8.41422 12.6569C8.02369 12.2663 8.02369 11.6332 8.41422 11.2427L11.2426 8.41422C11.6332 8.0237 12.2663 8.0237 12.6569 8.41423Z" fill="white"/>
</svg>
