<svg width="16" height="16" viewBox="0 0 16 16" fill="none" xmlns="http://www.w3.org/2000/svg">
<path fill-rule="evenodd" clip-rule="evenodd" d="M7.31534 0.714295H8.68455C9.81538 0.714273 10.7445 0.714255 11.4911 0.795143C12.2687 0.87939 12.966 1.0609 13.5779 1.50551C13.9296 1.76104 14.2389 2.07034 14.4944 2.42204C14.9391 3.034 15.1206 3.73126 15.2048 4.50886C15.2857 5.25545 15.2857 6.18458 15.2857 7.31541V8.68461C15.2857 9.81544 15.2857 10.7446 15.2048 11.4912C15.1206 12.2688 14.9391 12.966 14.4944 13.578C14.2389 13.9297 13.9296 14.239 13.5779 14.4945C12.966 14.9391 12.2687 15.1206 11.4911 15.2049C10.7445 15.2858 9.81538 15.2857 8.68454 15.2857H7.31535C6.18451 15.2857 5.25538 15.2858 4.5088 15.2049C3.7312 15.1206 3.03393 14.9391 2.42198 14.4945C2.07027 14.239 1.76098 13.9297 1.50545 13.578C1.32624 13.3313 1.18731 13.0673 1.08038 12.7841C0.877199 12.2458 0.793779 11.6471 0.753812 10.9939C0.714223 10.3468 0.714227 9.57059 0.714231 8.65708L0.71423 7.3154C0.714208 6.18457 0.714191 5.25545 0.795078 4.50886C0.879325 3.73127 1.06084 3.034 1.50545 2.42204C1.76098 2.07034 2.07027 1.76104 2.42198 1.50551C3.03393 1.0609 3.7312 0.87939 4.5088 0.795143C5.25538 0.714255 6.18451 0.714273 7.31534 0.714295ZM4.72422 2.78351C4.11679 2.84932 3.81174 2.96792 3.59755 3.12355C3.41563 3.25572 3.25565 3.4157 3.12348 3.59761C2.96786 3.81181 2.84925 4.11686 2.78344 4.72429C2.7156 5.35043 2.71423 6.17068 2.71423 7.37144V8.62858C2.71423 9.26468 2.71442 9.79623 2.72524 10.2521C2.85107 10.124 2.97719 9.99917 3.10262 9.88069C3.6413 9.37189 4.39774 8.74459 5.3075 8.70615C5.32156 8.70556 5.33564 8.70526 5.34971 8.70526C5.88883 8.70526 6.30947 8.87276 6.62443 9.04335C6.76285 9.11832 6.88923 9.19886 6.98052 9.25704C6.9871 9.26123 6.99349 9.26531 6.9997 9.26926C7.05777 9.30622 7.10039 9.33289 7.13431 9.35309C7.19488 9.30448 7.29215 9.21509 7.42863 9.05546C8.51764 7.78168 9.67587 6.7262 11.1272 6.79355C11.8498 6.82708 12.5073 7.1356 13.1192 7.58447C13.1745 7.62507 13.23 7.6672 13.2857 7.71082V7.37144C13.2857 6.17068 13.2843 5.35043 13.2164 4.72429C13.1506 4.11686 13.032 3.81181 12.8764 3.59761C12.7442 3.4157 12.5843 3.25572 12.4023 3.12355C12.1881 2.96792 11.8831 2.84932 11.2757 2.78351C10.6495 2.71567 9.82928 2.7143 8.62852 2.7143H7.37137C6.17061 2.7143 5.35036 2.71567 4.72422 2.78351ZM13.2684 10.472C12.7446 9.88474 12.3099 9.47121 11.9362 9.1971C11.5112 8.88531 11.2281 8.80038 11.0345 8.7914C10.6532 8.7737 10.0758 9.03688 8.94879 10.3551C8.57591 10.7913 8.16427 11.1536 7.6707 11.3105C7.10669 11.4897 6.63353 11.3436 6.30501 11.1784C6.15945 11.1052 6.02464 11.0194 5.93084 10.9597L5.92581 10.9565C5.819 10.8885 5.74644 10.8423 5.6719 10.802C5.55224 10.7371 5.46724 10.7101 5.37588 10.7059C5.27155 10.7201 5.00316 10.8367 4.47593 11.3347C4.22576 11.5709 3.96166 11.8479 3.66493 12.162C3.6406 12.1877 3.61606 12.2137 3.59133 12.2399C3.48697 12.3504 3.3791 12.4646 3.26828 12.5808C3.3674 12.6903 3.47771 12.7894 3.59755 12.8765C3.81174 13.0321 4.11679 13.1507 4.72422 13.2165C5.35037 13.2844 6.17061 13.2857 7.37137 13.2857H8.62852C9.82928 13.2857 10.6495 13.2844 11.2757 13.2165C11.8831 13.1507 12.1881 13.0321 12.4023 12.8765C12.5843 12.7443 12.7442 12.5843 12.8764 12.4024C13.032 12.1882 13.1506 11.8832 13.2164 11.2757C13.2421 11.0389 13.2582 10.7744 13.2684 10.472Z" fill="white"/>
<path d="M4.27338 5.70209C4.27338 4.91311 4.91298 4.27352 5.70195 4.27352C6.49093 4.27352 7.13053 4.91311 7.13053 5.70209C7.13053 6.49107 6.49093 7.13066 5.70195 7.13066C4.91298 7.13066 4.27338 6.49107 4.27338 5.70209Z" fill="white"/>
</svg>
