<svg width="20" height="20" viewBox="0 0 20 20" fill="none" xmlns="http://www.w3.org/2000/svg">
<path d="M10.8125 5.8125C10.8125 6.91707 9.91707 7.8125 8.8125 7.8125C7.70793 7.8125 6.8125 6.91707 6.8125 5.8125C6.8125 4.70793 7.70793 3.8125 8.8125 3.8125C9.91707 3.8125 10.8125 4.70793 10.8125 5.8125Z" fill="white"/>
<path fill-rule="evenodd" clip-rule="evenodd" d="M3 4.75C3 2.12665 5.12665 0 7.75 0H12.25C14.8734 0 17 2.12665 17 4.75V15.25C17 17.8734 14.8734 20 12.25 20H7.75C5.12665 20 3 17.8734 3 15.25V4.75ZM7.75 2C6.23122 2 5 3.23122 5 4.75V15.25C5 16.7688 6.23122 18 7.75 18H12.25C13.7688 18 15 16.7688 15 15.25V4.75C15 3.23122 13.7688 2 12.25 2H7.75Z" fill="white"/>
</svg>
