<svg width="16" height="14" viewBox="0 0 16 14" fill="none" xmlns="http://www.w3.org/2000/svg">
<path fill-rule="evenodd" clip-rule="evenodd" d="M2.73038 12.5197C2.33986 12.1291 2.33986 11.496 2.73038 11.1055L3.27045 10.5654C3.00578 10.3333 2.76706 10.0937 2.55357 9.85653C2.00156 9.24318 1.60548 8.63322 1.34676 8.17667C1.21684 7.94739 1.12 7.75404 1.0542 7.61447C1.02127 7.5446 0.995996 7.48798 0.978152 7.4468C0.969226 7.4262 0.962148 7.40945 0.956887 7.3968L0.95035 7.38095L0.948094 7.37539L0.947218 7.37322L0.946843 7.37228C0.946673 7.37186 0.946509 7.37145 1.87492 7.00009L0.946843 7.37228C0.851478 7.13387 0.851145 6.86708 0.946509 6.62867L1.87492 7.00009C0.946509 6.62873 0.946339 6.62909 0.946509 6.62867L0.947218 6.6269L0.948094 6.62473L0.95035 6.61917L0.956887 6.60332C0.962148 6.59067 0.969226 6.57392 0.978152 6.55332C0.995996 6.51214 1.02127 6.45552 1.0542 6.38565C1.12 6.24608 1.21684 6.05273 1.34676 5.82345C1.60548 5.3669 2.00156 4.75694 2.55357 4.1436C3.65899 2.91535 5.44051 1.62506 7.99999 1.62506C9.32417 1.62506 10.4401 1.97043 11.3619 2.47389L12.3554 1.48045C12.7459 1.08993 13.3791 1.08993 13.7696 1.48045C14.1239 1.83479 14.1568 2.38887 13.8681 2.78023L4.66788 11.9805C4.63169 12.0166 4.59885 12.0549 4.56937 12.0949L4.14459 12.5197C3.75407 12.9102 3.1209 12.9102 2.73038 12.5197ZM4.68821 9.14762L6.22053 7.6153C6.15555 7.42508 6.12029 7.22108 6.12029 7.00885C6.12029 5.97332 6.95975 5.13385 7.99529 5.13385C8.20752 5.13385 8.41152 5.16911 8.60174 5.2341L9.86129 3.97454C9.31524 3.75731 8.69701 3.62506 7.99999 3.62506C6.18446 3.62506 4.90348 4.52227 4.04016 5.48152C3.60779 5.96193 3.29293 6.44572 3.08681 6.80948C3.048 6.87795 3.01328 6.94177 2.98256 7.00006C3.01328 7.05835 3.048 7.12217 3.08681 7.19064C3.29293 7.5544 3.60779 8.03819 4.04016 8.5186C4.23455 8.73459 4.45013 8.94745 4.68821 9.14762Z" fill="white"/>
<path d="M7.1505 12.3263C7.42355 12.3581 7.70666 12.3751 7.99999 12.3751C10.5595 12.3751 12.341 11.0848 13.4464 9.85653C13.9984 9.24318 14.3945 8.63322 14.6532 8.17667C14.7831 7.94739 14.88 7.75404 14.9458 7.61447C14.9787 7.5446 15.004 7.48798 15.0218 7.4468C15.0307 7.4262 15.0378 7.40945 15.0431 7.3968L15.0496 7.38095L15.0519 7.37539L15.0528 7.37322L15.0531 7.37228C15.0533 7.37186 15.0535 7.37145 14.125 7.00006L15.0531 7.37228C15.1485 7.13387 15.1488 6.86708 15.0535 6.62867L14.125 7.00006C15.0535 6.62867 15.0536 6.62909 15.0535 6.62867L15.0528 6.6269L15.0519 6.62473L15.0496 6.61917L15.0431 6.60332C15.0378 6.59067 15.0307 6.57392 15.0218 6.55332C15.004 6.51214 14.9787 6.45552 14.9458 6.38565C14.88 6.24608 14.7831 6.05273 14.6532 5.82345C14.5488 5.63912 14.4219 5.42978 14.2714 5.20531L12.8226 6.65411C12.8549 6.70793 12.885 6.75982 12.9132 6.80948C12.952 6.87795 12.9867 6.94177 13.0174 7.00006C12.9867 7.05835 12.952 7.12217 12.9132 7.19064C12.707 7.5544 12.3922 8.03819 11.9598 8.5186C11.3107 9.23979 10.4256 9.92591 9.25471 10.222L7.1505 12.3263Z" fill="white"/>
</svg>
