<svg width="14" height="14" viewBox="0 0 14 14" fill="none" xmlns="http://www.w3.org/2000/svg">
<path d="M8.79995 4.39147C8.79995 3.19061 7.88225 2.55166 6.94824 2.59057C6.54914 2.6072 6.10368 2.81552 5.74643 3.18419C5.38915 3.55289 5.19995 3.99915 5.19995 4.39143C5.19995 4.94372 4.75224 5.39143 4.19995 5.39143C3.64767 5.39143 3.19995 4.94372 3.19995 4.39143C3.19995 3.38367 3.66409 2.45911 4.31014 1.7924C4.95622 1.12567 5.86409 0.634007 6.86499 0.592304C8.73098 0.514563 10.8 1.85885 10.8 4.39147C10.8 6.05224 9.74557 6.86448 9.06098 7.39186L9.01098 7.43041C8.29286 7.9847 7.99995 8.25449 7.99995 8.88608C7.99995 9.43836 7.55224 9.88608 6.99995 9.88608C6.44767 9.88608 5.99995 9.43836 5.99995 8.88608C5.99995 7.22535 7.05432 6.41312 7.7389 5.88575L7.78893 5.84718C8.50703 5.2929 8.79995 5.02309 8.79995 4.39147Z" fill="white"/>
<path d="M8.39985 12.2C8.39985 12.9732 7.77305 13.6 6.99985 13.6C6.22665 13.6 5.59985 12.9732 5.59985 12.2C5.59985 11.4268 6.22665 10.8 6.99985 10.8C7.77305 10.8 8.39985 11.4268 8.39985 12.2Z" fill="white"/>
</svg>
