<svg width="14" height="14" viewBox="0 0 14 14" fill="none" xmlns="http://www.w3.org/2000/svg">
<path fill-rule="evenodd" clip-rule="evenodd" d="M5.04505 2.05025C6.95173 0.143569 10.0431 0.14357 11.9497 2.05025C13.8564 3.95693 13.8564 7.04826 11.9497 8.95494L11.7002 9.20451C11.3097 9.59503 10.6765 9.59503 10.286 9.2045C9.89544 8.81398 9.89544 8.18081 10.286 7.79029L10.5355 7.54072C11.6612 6.4151 11.6612 4.59009 10.5355 3.46446C9.4099 2.33883 7.5849 2.33883 6.45927 3.46446L6.2097 3.71403C5.81918 4.10455 5.18601 4.10455 4.79549 3.71403C4.40496 3.3235 4.40496 2.69034 4.79549 2.29981L5.04505 2.05025ZM3.71403 4.79549C4.10455 5.18601 4.10455 5.81917 3.71403 6.2097L3.46446 6.45926C2.33883 7.58489 2.33883 9.4099 3.46446 10.5355C4.59009 11.6612 6.4151 11.6612 7.54073 10.5355L7.79029 10.286C8.18081 9.89544 8.81398 9.89544 9.2045 10.286C9.59503 10.6765 9.59503 11.3097 9.2045 11.7002L8.95494 11.9497C7.04826 13.8564 3.95692 13.8564 2.05025 11.9497C0.143569 10.0431 0.143571 6.95173 2.05025 5.04505L2.29981 4.79549C2.69034 4.40496 3.3235 4.40496 3.71403 4.79549ZM8.65546 5.24472C9.04598 5.63524 9.04598 6.26841 8.65546 6.65893L6.65892 8.65547C6.2684 9.04599 5.63523 9.04599 5.24471 8.65547C4.85418 8.26494 4.85418 7.63178 5.24471 7.24126L7.24125 5.24472C7.63177 4.85419 8.26493 4.85419 8.65546 5.24472Z" fill="white"/>
</svg>
