<svg width="16" height="16" viewBox="0 0 16 16" fill="none" xmlns="http://www.w3.org/2000/svg">
<path fill-rule="evenodd" clip-rule="evenodd" d="M5.22836 2.9C5.42245 1.54308 6.58941 0.5 8 0.5C9.41059 0.5 10.5776 1.54308 10.7716 2.9H12.7842C12.7939 2.89986 12.8036 2.89986 12.8133 2.9H14C14.5523 2.9 15 3.34772 15 3.9C15 4.45228 14.5523 4.9 14 4.9H13.6828L13.0334 10.0947C12.9512 10.7532 12.8813 11.3122 12.7826 11.7666C12.6784 12.246 12.5257 12.6956 12.2286 13.1031C11.9369 13.5032 11.5614 13.8347 11.1282 14.0745C10.687 14.3188 10.2219 14.4146 9.73329 14.4584C9.27022 14.5 8.70686 14.5 8.04326 14.5H7.95674C7.29314 14.5 6.72978 14.5 6.26671 14.4584C5.77812 14.4146 5.313 14.3188 4.87178 14.0745C4.43864 13.8347 4.0631 13.5032 3.77141 13.1031C3.47428 12.6956 3.32156 12.246 3.21742 11.7666C3.11871 11.3122 3.04885 10.7532 2.96656 10.0947L2.31722 4.9H2C1.44772 4.9 1 4.45228 1 3.9C1 3.34772 1.44772 2.9 2 2.9H3.18674C3.19644 2.89986 3.20612 2.89986 3.21577 2.9H5.22836ZM4.33278 4.9L4.94575 9.80376C5.03487 10.5167 5.09446 10.9859 5.17183 11.342C5.24589 11.6829 5.31927 11.8313 5.38745 11.9248C5.50756 12.0895 5.66219 12.2261 5.84054 12.3248C5.94178 12.3809 6.09812 12.4353 6.44561 12.4665C6.80858 12.4991 7.28149 12.5 8 12.5C8.71851 12.5 9.19142 12.4991 9.55439 12.4665C9.90188 12.4353 10.0582 12.3809 10.1595 12.3248C10.3378 12.2261 10.4924 12.0895 10.6126 11.9248C10.6807 11.8313 10.7541 11.6829 10.8282 11.342C10.9055 10.9859 10.9651 10.5167 11.0542 9.80376L11.6672 4.9H4.33278ZM8.69297 2.9H7.30703C7.44535 2.66088 7.70389 2.5 8 2.5C8.29611 2.5 8.55465 2.66088 8.69297 2.9Z" fill="white"/>
</svg>
