<svg width="16" height="16" viewBox="0 0 16 16" fill="none" xmlns="http://www.w3.org/2000/svg">
<path d="M4 8.25C4 9.35457 3.10457 10.25 2 10.25C0.89543 10.25 0 9.35457 0 8.25C0 7.14543 0.89543 6.25 2 6.25C3.10457 6.25 4 7.14543 4 8.25Z" fill="white"/>
<path d="M10 8.25C10 9.35457 9.10457 10.25 8 10.25C6.89543 10.25 6 9.35457 6 8.25C6 7.14543 6.89543 6.25 8 6.25C9.10457 6.25 10 7.14543 10 8.25Z" fill="white"/>
<path d="M14 10.25C15.1046 10.25 16 9.35457 16 8.25C16 7.14543 15.1046 6.25 14 6.25C12.8954 6.25 12 7.14543 12 8.25C12 9.35457 12.8954 10.25 14 10.25Z" fill="white"/>
</svg>
