<svg width="20" height="20" viewBox="0 0 20 20" fill="none" xmlns="http://www.w3.org/2000/svg">
<path d="M10 14.624C9.41868 14.624 8.9474 14.1527 8.9474 13.5713V10.7142C8.9474 10.1328 9.41868 9.66157 10 9.66157C10.5814 9.66157 11.0527 10.1328 11.0527 10.7142V13.5713C11.0527 14.1527 10.5814 14.624 10 14.624Z" fill="white"/>
<path d="M8.68425 6.5789C8.68425 5.85221 9.27335 5.26311 10 5.26311C10.7267 5.26311 11.3158 5.85221 11.3158 6.5789C11.3158 7.30559 10.7267 7.89469 10 7.89469C9.27335 7.89469 8.68425 7.30559 8.68425 6.5789Z" fill="white"/>
<path fill-rule="evenodd" clip-rule="evenodd" d="M19.6241 9.99991C19.6241 15.3151 15.3153 19.624 10 19.624C4.68481 19.624 0.375977 15.3151 0.375977 9.99991C0.375977 4.68469 4.68481 0.375854 10 0.375854C15.3153 0.375854 19.6241 4.68469 19.6241 9.99991ZM10 17.5187C14.1526 17.5187 17.5188 14.1524 17.5188 9.99991C17.5188 5.8474 14.1526 2.48112 10 2.48112C5.84752 2.48112 2.48124 5.8474 2.48124 9.99991C2.48124 14.1524 5.84752 17.5187 10 17.5187Z" fill="white"/>
</svg>
