<svg width="14" height="14" viewBox="0 0 14 14" fill="none" xmlns="http://www.w3.org/2000/svg">
<path fill-rule="evenodd" clip-rule="evenodd" d="M7 2C4.23858 2 2 4.23858 2 7C2 9.76142 4.23858 12 7 12C9.76142 12 12 9.76142 12 7C12 4.23858 9.76142 2 7 2ZM0 7C0 3.13401 3.13401 0 7 0C10.866 0 14 3.13401 14 7C14 10.866 10.866 14 7 14C3.13401 14 0 10.866 0 7ZM7 3.5C7.55228 3.5 8 3.94772 8 4.5V6.5C8 7.05228 7.55228 7.5 7 7.5C6.44772 7.5 6 7.05228 6 6.5V4.5C6 3.94772 6.44772 3.5 7 3.5Z" fill="white"/>
<path d="M8.00004 9.5C8.00004 10.0523 7.55233 10.5 7.00004 10.5C6.44776 10.5 6.00004 10.0523 6.00004 9.5C6.00004 8.94772 6.44776 8.5 7.00004 8.5C7.55233 8.5 8.00004 8.94772 8.00004 9.5Z" fill="white"/>
<path fill-rule="evenodd" clip-rule="evenodd" d="M7.00004 10.5C7.55233 10.5 8.00004 10.0523 8.00004 9.5C8.00004 8.94772 7.55233 8.5 7.00004 8.5C6.44776 8.5 6.00004 8.94772 6.00004 9.5C6.00004 10.0523 6.44776 10.5 7.00004 10.5Z" fill="white"/>
</svg>
