<svg width="20" height="20" viewBox="0 0 20 20" fill="none" xmlns="http://www.w3.org/2000/svg">
<path fill-rule="evenodd" clip-rule="evenodd" d="M5.39743 1.49992C5.43118 1.49995 5.46536 1.49997 5.49999 1.49997C5.53461 1.49997 5.56879 1.49995 5.60255 1.49992C6.111 1.49957 6.52234 1.49929 6.88565 1.5805C8.14971 1.86305 9.13689 2.85023 9.41945 4.1143C9.50065 4.4776 9.50037 4.88895 9.50002 5.3974C9.5 5.43115 9.49997 5.46533 9.49997 5.49996C9.49997 5.53458 9.5 5.56876 9.50002 5.60251C9.50037 6.11097 9.50065 6.52231 9.41945 6.88561C9.13689 8.14968 8.14971 9.13686 6.88565 9.41941C6.52234 9.50062 6.111 9.50034 5.60254 9.49999C5.56879 9.49997 5.53461 9.49994 5.49999 9.49994C5.46536 9.49994 5.43118 9.49997 5.39743 9.49999C4.88898 9.50034 4.47763 9.50062 4.11433 9.41941C2.85026 9.13686 1.86308 8.14968 1.58053 6.88561C1.49932 6.52231 1.4996 6.11097 1.49995 5.60251C1.49998 5.56876 1.5 5.53458 1.5 5.49996C1.5 5.46533 1.49998 5.43115 1.49995 5.3974C1.4996 4.88894 1.49932 4.4776 1.58053 4.1143C1.86308 2.85023 2.85026 1.86305 4.11433 1.5805C4.47763 1.49929 4.88898 1.49957 5.39743 1.49992ZM5.49999 3.49997C4.83618 3.49997 4.66823 3.50604 4.55061 3.53233C4.04263 3.64588 3.64591 4.04259 3.53236 4.55058C3.50607 4.6682 3.5 4.83615 3.5 5.49996C3.5 6.16377 3.50607 6.33171 3.53236 6.44933C3.64591 6.95732 4.04262 7.35403 4.55061 7.46758C4.66823 7.49387 4.83618 7.49994 5.49999 7.49994C6.1638 7.49994 6.33174 7.49387 6.44936 7.46758C6.95735 7.35403 7.35406 6.95732 7.46761 6.44933C7.4939 6.33171 7.49997 6.16377 7.49997 5.49996C7.49997 4.83615 7.4939 4.6682 7.46761 4.55058C7.35406 4.04259 6.95735 3.64588 6.44936 3.53233C6.33174 3.50604 6.1638 3.49997 5.49999 3.49997ZM14.3975 1.49992C14.4312 1.49995 14.4654 1.49997 14.5 1.49997C14.5346 1.49997 14.5688 1.49995 14.6026 1.49992C15.111 1.49957 15.5224 1.49929 15.8857 1.5805C17.1497 1.86305 18.1369 2.85023 18.4195 4.1143C18.5007 4.4776 18.5004 4.88894 18.5 5.39739C18.5 5.43115 18.5 5.46533 18.5 5.49996C18.5 5.53458 18.5 5.56876 18.5 5.60252C18.5004 6.11097 18.5007 6.52231 18.4195 6.88561C18.1369 8.14968 17.1497 9.13686 15.8857 9.41941C15.5224 9.50062 15.111 9.50034 14.6026 9.49999C14.5688 9.49997 14.5346 9.49994 14.5 9.49994C14.4654 9.49994 14.4312 9.49997 14.3975 9.49999C13.889 9.50034 13.4777 9.50062 13.1144 9.41941C11.8503 9.13686 10.8631 8.14968 10.5806 6.88561C10.4993 6.52231 10.4996 6.11096 10.5 5.60251C10.5 5.56876 10.5 5.53458 10.5 5.49996C10.5 5.46534 10.5 5.43116 10.5 5.39741C10.4996 4.88895 10.4993 4.4776 10.5806 4.1143C10.8631 2.85023 11.8503 1.86305 13.1144 1.5805C13.4777 1.49929 13.889 1.49957 14.3975 1.49992ZM14.5 3.49997C13.8362 3.49997 13.6683 3.50604 13.5506 3.53233C13.0427 3.64588 12.6459 4.04259 12.5324 4.55058C12.5061 4.6682 12.5 4.83615 12.5 5.49996C12.5 6.16377 12.5061 6.33171 12.5324 6.44933C12.6459 6.95732 13.0427 7.35403 13.5506 7.46758C13.6683 7.49387 13.8362 7.49994 14.5 7.49994C15.1638 7.49994 15.3318 7.49387 15.4494 7.46758C15.9574 7.35403 16.3541 6.95732 16.4676 6.44933C16.4939 6.33171 16.5 6.16377 16.5 5.49996C16.5 4.83615 16.4939 4.6682 16.4676 4.55058C16.3541 4.04259 15.9574 3.64588 15.4494 3.53233C15.3318 3.50604 15.1638 3.49997 14.5 3.49997ZM5.39744 10.4999C5.43119 10.5 5.46537 10.5 5.49999 10.5C5.53461 10.5 5.56879 10.5 5.60254 10.4999C6.11099 10.4996 6.52234 10.4993 6.88565 10.5805C8.14971 10.8631 9.13689 11.8503 9.41945 13.1143C9.50065 13.4776 9.50037 13.889 9.50002 14.3974C9.5 14.4312 9.49997 14.4654 9.49997 14.5C9.49997 14.5346 9.5 14.5688 9.50002 14.6025C9.50037 15.111 9.50065 15.5223 9.41945 15.8856C9.13689 17.1497 8.14971 18.1369 6.88565 18.4194C6.52234 18.5006 6.111 18.5004 5.60255 18.5C5.56879 18.5 5.53461 18.5 5.49999 18.5C5.46536 18.5 5.43118 18.5 5.39742 18.5C4.88897 18.5004 4.47763 18.5006 4.11433 18.4194C2.85026 18.1369 1.86308 17.1497 1.58053 15.8856C1.49932 15.5223 1.4996 15.111 1.49995 14.6025C1.49998 14.5688 1.5 14.5346 1.5 14.5C1.5 14.4654 1.49998 14.4312 1.49995 14.3974C1.4996 13.889 1.49932 13.4776 1.58053 13.1143C1.86308 11.8503 2.85026 10.8631 4.11433 10.5805C4.47763 10.4993 4.88898 10.4996 5.39744 10.4999ZM5.49999 12.5C4.83618 12.5 4.66823 12.5061 4.55061 12.5324C4.04262 12.6459 3.64591 13.0426 3.53236 13.5506C3.50607 13.6682 3.5 13.8362 3.5 14.5C3.5 15.1638 3.50607 15.3317 3.53236 15.4494C3.64591 15.9573 4.04263 16.3541 4.55061 16.4676C4.66823 16.4939 4.83618 16.5 5.49999 16.5C6.1638 16.5 6.33174 16.4939 6.44936 16.4676C6.95735 16.3541 7.35406 15.9573 7.46761 15.4494C7.4939 15.3317 7.49997 15.1638 7.49997 14.5C7.49997 13.8362 7.4939 13.6682 7.46761 13.5506C7.35406 13.0426 6.95735 12.6459 6.44936 12.5324C6.33174 12.5061 6.1638 12.5 5.49999 12.5ZM14.3975 10.4999C14.4312 10.5 14.4654 10.5 14.5 10.5C14.5346 10.5 14.5688 10.5 14.6026 10.4999C15.111 10.4996 15.5224 10.4993 15.8857 10.5805C17.1497 10.8631 18.1369 11.8503 18.4195 13.1143C18.5007 13.4776 18.5004 13.889 18.5 14.3974C18.5 14.4312 18.5 14.4654 18.5 14.5C18.5 14.5346 18.5 14.5688 18.5 14.6025C18.5004 15.111 18.5007 15.5223 18.4195 15.8856C18.1369 17.1497 17.1497 18.1369 15.8857 18.4194C15.5224 18.5006 15.111 18.5004 14.6026 18.5C14.5688 18.5 14.5346 18.5 14.5 18.5C14.4654 18.5 14.4312 18.5 14.3975 18.5C13.889 18.5004 13.4777 18.5006 13.1144 18.4194C11.8503 18.1369 10.8631 17.1497 10.5806 15.8856C10.4993 15.5223 10.4996 15.111 10.5 14.6025C10.5 14.5688 10.5 14.5346 10.5 14.5C10.5 14.4654 10.5 14.4312 10.5 14.3974C10.4996 13.889 10.4993 13.4776 10.5806 13.1143C10.8631 11.8503 11.8503 10.8631 13.1144 10.5805C13.4777 10.4993 13.889 10.4996 14.3975 10.4999ZM14.5 12.5C13.8362 12.5 13.6683 12.5061 13.5506 12.5324C13.0427 12.6459 12.6459 13.0426 12.5324 13.5506C12.5061 13.6682 12.5 13.8362 12.5 14.5C12.5 15.1638 12.5061 15.3317 12.5324 15.4494C12.6459 15.9573 13.0427 16.3541 13.5506 16.4676C13.6683 16.4939 13.8362 16.5 14.5 16.5C15.1638 16.5 15.3318 16.4939 15.4494 16.4676C15.9574 16.3541 16.3541 15.9573 16.4676 15.4494C16.4939 15.3317 16.5 15.1638 16.5 14.5C16.5 13.8362 16.4939 13.6682 16.4676 13.5506C16.3541 13.0426 15.9574 12.6459 15.4494 12.5324C15.3318 12.5061 15.1638 12.5 14.5 12.5Z" fill="white"/>
</svg>
