<svg width="20" height="20" viewBox="0 0 20 20" fill="none" xmlns="http://www.w3.org/2000/svg">
<path fill-rule="evenodd" clip-rule="evenodd" d="M0.490204 10C0.490204 9.21105 1.1298 8.57146 1.91878 8.57146H8.57142V1.91881C8.57142 1.12983 9.21102 0.490235 10 0.490234C10.789 0.490235 11.4286 1.12983 11.4286 1.91881V8.57146H18.0812C18.8702 8.57146 19.5098 9.21105 19.5098 10C19.5098 10.789 18.8702 11.4286 18.0812 11.4286H11.4286V18.0812C11.4286 18.8702 10.789 19.5098 10 19.5098C9.21102 19.5098 8.57142 18.8702 8.57142 18.0812V11.4286H1.91878C1.1298 11.4286 0.490204 10.789 0.490204 10Z" fill="white"/>
</svg>
