<svg width="20" height="20" viewBox="0 0 20 20" fill="none" xmlns="http://www.w3.org/2000/svg">
<path fill-rule="evenodd" clip-rule="evenodd" d="M7.42114 2.92892C10.0859 0.26417 14.4063 0.264171 17.0711 2.92892C19.7358 5.59368 19.7358 9.9141 17.0711 12.5789L16.6967 12.9532C16.3062 13.3437 15.673 13.3437 15.2825 12.9532C14.892 12.5627 14.892 11.9295 15.2825 11.539L15.6569 11.1646C17.5406 9.28093 17.5406 6.22684 15.6569 4.34314C13.7731 2.45943 10.7191 2.45943 8.83535 4.34314L8.461 4.71749C8.07048 5.10802 7.43731 5.10802 7.04679 4.71749C6.65626 4.32697 6.65626 3.6938 7.04679 3.30328L7.42114 2.92892ZM4.71746 7.04677C5.10798 7.4373 5.10798 8.07046 4.71746 8.46099L4.34311 8.83534C2.4594 10.719 2.4594 13.7731 4.34311 15.6568C6.22681 17.5405 9.2809 17.5405 11.1646 15.6568L11.539 15.2825C11.9295 14.892 12.5626 14.892 12.9532 15.2825C13.3437 15.673 13.3437 16.3062 12.9532 16.6967L12.5788 17.0711C9.91407 19.7358 5.59365 19.7358 2.92889 17.0711C0.264139 14.4063 0.26414 10.0859 2.9289 7.42112L3.30324 7.04677C3.69377 6.65625 4.32693 6.65625 4.71746 7.04677ZM12.1297 7.72056C12.5202 8.11108 12.5202 8.74425 12.1297 9.13477L9.13488 12.1296C8.74436 12.5201 8.11119 12.5201 7.72067 12.1296C7.33014 11.7391 7.33014 11.1059 7.72067 10.7154L10.7155 7.72056C11.106 7.33004 11.7392 7.33004 12.1297 7.72056Z" fill="white"/>
</svg>
