<svg width="14" height="14" viewBox="0 0 14 14" fill="none" xmlns="http://www.w3.org/2000/svg">
<path fill-rule="evenodd" clip-rule="evenodd" d="M6.17305 0.750002C6.19031 0.750002 6.20763 0.750003 6.225 0.750003L7.82695 0.750002C8.5325 0.74997 9.14086 0.749942 9.63581 0.803567C10.1616 0.860531 10.6766 0.987475 11.1384 1.32295C11.393 1.50799 11.617 1.73196 11.8021 1.98665C12.1375 2.44839 12.2645 2.96342 12.3214 3.48919C12.3751 3.98415 12.375 4.59251 12.375 5.29806V8.70194C12.375 9.4075 12.3751 10.0159 12.3214 10.5108C12.2645 11.0366 12.1375 11.5516 11.8021 12.0134C11.617 12.268 11.393 12.492 11.1384 12.6771C10.6766 13.0125 10.1616 13.1395 9.63581 13.1964C9.14086 13.2501 8.5325 13.25 7.82694 13.25H6.17307C5.46751 13.25 4.85915 13.2501 4.36419 13.1964C3.83842 13.1395 3.32339 13.0125 2.86165 12.6771C2.60696 12.492 2.38299 12.268 2.19795 12.0134C1.86247 11.5516 1.73553 11.0366 1.67857 10.5108C1.62494 10.0159 1.62497 9.4075 1.625 8.70195L1.625 5.35C1.625 5.33263 1.625 5.31531 1.625 5.29806C1.62497 4.5925 1.62494 3.98415 1.67857 3.48919C1.73553 2.96342 1.86247 2.44839 2.19795 1.98665C2.38299 1.73196 2.60696 1.50799 2.86165 1.32295C3.32339 0.987475 3.83842 0.860531 4.36419 0.803567C4.85915 0.749942 5.4675 0.74997 6.17305 0.750002ZM4.57962 2.79193C4.22401 2.83046 4.1012 2.8945 4.03722 2.94099C3.95232 3.00267 3.87767 3.07732 3.81599 3.16222C3.7695 3.2262 3.70546 3.34901 3.66693 3.70462C3.62638 4.07894 3.625 4.57778 3.625 5.35V8.65C3.625 9.42222 3.62638 9.92106 3.66693 10.2954C3.70546 10.651 3.7695 10.7738 3.81599 10.8378C3.87767 10.9227 3.95232 10.9973 4.03722 11.059C4.1012 11.1055 4.22401 11.1695 4.57962 11.2081C4.95394 11.2486 5.45278 11.25 6.225 11.25H7.775C8.54722 11.25 9.04606 11.2486 9.42039 11.2081C9.77599 11.1695 9.8988 11.1055 9.96279 11.059C10.0477 10.9973 10.1223 10.9227 10.184 10.8378C10.2305 10.7738 10.2945 10.651 10.3331 10.2954C10.3736 9.92106 10.375 9.42222 10.375 8.65V5.35C10.375 4.57778 10.3736 4.07894 10.3331 3.70462C10.2945 3.34901 10.2305 3.2262 10.184 3.16222C10.1223 3.07732 10.0477 3.00267 9.96279 2.94099C9.8988 2.8945 9.77599 2.83046 9.42039 2.79193C9.04607 2.75138 8.54722 2.75 7.775 2.75H6.225C5.45278 2.75 4.95394 2.75138 4.57962 2.79193ZM4.25 6.5625C4.25 6.01022 4.69772 5.5625 5.25 5.5625H8.75C9.30229 5.5625 9.75 6.01022 9.75 6.5625C9.75 7.11479 9.30229 7.5625 8.75 7.5625H5.25C4.69772 7.5625 4.25 7.11479 4.25 6.5625ZM4.25 9.1875C4.25 8.63522 4.69772 8.1875 5.25 8.1875H7C7.55229 8.1875 8 8.63522 8 9.1875C8 9.73979 7.55229 10.1875 7 10.1875H5.25C4.69772 10.1875 4.25 9.73979 4.25 9.1875Z" fill="white"/>
</svg>
