<svg width="20" height="20" viewBox="0 0 20 20" fill="none" xmlns="http://www.w3.org/2000/svg">
<path fill-rule="evenodd" clip-rule="evenodd" d="M6.75735 0.292893C7.14788 0.683418 7.14788 1.31658 6.75735 1.70711L4.07422 4.39024H13.0746C13.6269 4.39024 14.0746 4.83796 14.0746 5.39024C14.0746 5.94253 13.6269 6.39024 13.0746 6.39024H4.07422L6.75735 9.07338C7.14788 9.46391 7.14788 10.0971 6.75735 10.4876C6.36683 10.8781 5.73367 10.8781 5.34314 10.4876L0.952897 6.09735C0.765361 5.90981 0.660004 5.65546 0.660004 5.39024C0.660004 5.12503 0.765361 4.87067 0.952897 4.68314L5.34314 0.292893C5.73367 -0.0976311 6.36683 -0.0976311 6.75735 0.292893ZM13.2456 9.51241C13.6361 9.12188 14.2693 9.12188 14.6598 9.51241L19.05 13.9026C19.4406 14.2932 19.4406 14.9263 19.05 15.3169L14.6598 19.7071C14.2693 20.0976 13.6361 20.0976 13.2456 19.7071C12.8551 19.3166 12.8551 18.6834 13.2456 18.2929L15.9287 15.6098L6.9283 15.6098C6.37601 15.6098 5.9283 15.162 5.9283 14.6098C5.9283 14.0575 6.37601 13.6098 6.9283 13.6098L15.9287 13.6098L13.2456 10.9266C12.8551 10.5361 12.8551 9.90293 13.2456 9.51241Z" fill="white"/>
</svg>
