<svg width="16" height="16" viewBox="0 0 16 16" fill="none" xmlns="http://www.w3.org/2000/svg">
<path fill-rule="evenodd" clip-rule="evenodd" d="M4.54805 1.5C4.56531 1.5 4.58263 1.5 4.6 1.5L11.4519 1.5C12.1575 1.49997 12.7659 1.49994 13.2608 1.55357C13.7866 1.61053 14.3016 1.73747 14.7634 2.07295C15.018 2.25799 15.242 2.48196 15.4271 2.73665C15.7625 3.19839 15.8895 3.71342 15.9464 4.23919C16.0001 4.73415 16 5.34251 16 6.04806V9.95194C16 10.6575 16.0001 11.2659 15.9464 11.7608C15.8895 12.2866 15.7625 12.8016 15.4271 13.2634C15.242 13.518 15.018 13.742 14.7634 13.9271C14.3016 14.2625 13.7866 14.3895 13.2608 14.4464C12.7659 14.5001 12.1575 14.5 11.4519 14.5H4.54806C3.8425 14.5 3.23414 14.5001 2.73919 14.4464C2.21342 14.3895 1.69839 14.2625 1.23664 13.9271C0.981959 13.742 0.757987 13.518 0.572948 13.2634C0.237471 12.8016 0.110527 12.2866 0.0535631 11.7608C-6.15194e-05 11.2659 -3.41008e-05 10.6575 -2.27197e-06 9.95195L-6.03038e-07 6.1C-6.03038e-07 6.08263 -1.4375e-06 6.06531 -2.27197e-06 6.04806C-3.41008e-05 5.3425 -6.15194e-05 4.73415 0.0535631 4.23919C0.110527 3.71342 0.237471 3.19839 0.572948 2.73665C0.757987 2.48196 0.981959 2.25799 1.23664 2.07295C1.69839 1.73747 2.21342 1.61053 2.73919 1.55357C3.23414 1.49994 3.8425 1.49997 4.54805 1.5ZM2.95462 3.54193C2.59901 3.58046 2.4762 3.6445 2.41221 3.69099C2.32732 3.75267 2.25266 3.82732 2.19098 3.91222C2.14449 3.9762 2.08045 4.09901 2.04193 4.45462C2.00137 4.82894 2 5.32778 2 6.1V9.9C2 10.6722 2.00137 11.1711 2.04193 11.5454C2.08045 11.901 2.14449 12.0238 2.19098 12.0878C2.25266 12.1727 2.32732 12.2473 2.41221 12.309C2.4762 12.3555 2.59901 12.4195 2.95462 12.4581C3.32894 12.4986 3.82778 12.5 4.6 12.5H11.4C12.1722 12.5 12.6711 12.4986 13.0454 12.4581C13.401 12.4195 13.5238 12.3555 13.5878 12.309C13.6727 12.2473 13.7473 12.1727 13.809 12.0878C13.8555 12.0238 13.9195 11.901 13.9581 11.5454C13.9986 11.1711 14 10.6722 14 9.9V6.1C14 5.32778 13.9986 4.82894 13.9581 4.45462C13.9195 4.09901 13.8555 3.9762 13.809 3.91222C13.7473 3.82732 13.6727 3.75267 13.5878 3.69099C13.5238 3.6445 13.401 3.58046 13.0454 3.54193C12.6711 3.50138 12.1722 3.5 11.4 3.5H4.6C3.82778 3.5 3.32894 3.50138 2.95462 3.54193ZM3 7.5C3 6.39543 3.89543 5.5 5 5.5C6.10457 5.5 7 6.39543 7 7.5C7 8.60457 6.10457 9.5 5 9.5C3.89543 9.5 3 8.60457 3 7.5ZM8 6.5C8 5.94772 8.44771 5.5 9 5.5H11C11.5523 5.5 12 5.94772 12 6.5C12 7.05229 11.5523 7.5 11 7.5H9C8.44771 7.5 8 7.05229 8 6.5ZM8 9.5C8 8.94772 8.44771 8.5 9 8.5H12C12.5523 8.5 13 8.94772 13 9.5C13 10.0523 12.5523 10.5 12 10.5H9C8.44771 10.5 8 10.0523 8 9.5Z" fill="white"/>
</svg>
