<svg width="20" height="20" viewBox="0 0 20 20" fill="none" xmlns="http://www.w3.org/2000/svg">
<path fill-rule="evenodd" clip-rule="evenodd" d="M10.0363 1.5H9.9637C8.82961 1.49999 7.92758 1.49999 7.19615 1.5499C6.44795 1.60094 5.80548 1.70754 5.2039 1.95672C3.73373 2.56569 2.56569 3.73373 1.95672 5.2039C1.70754 5.80548 1.60094 6.44795 1.5499 7.19615C1.49999 7.92758 1.49999 8.8296 1.5 9.96369V10.0363C1.49999 11.1704 1.49999 12.0724 1.5499 12.8038C1.60094 13.552 1.70754 14.1945 1.95672 14.7961C2.56569 16.2663 3.73373 17.4343 5.2039 18.0433C5.80548 18.2925 6.44795 18.3991 7.19615 18.4501C7.92756 18.5 8.82956 18.5 9.96361 18.5H10.0363C11.1704 18.5 12.0724 18.5 12.8038 18.4501C13.552 18.3991 14.1945 18.2925 14.7961 18.0433C16.2663 17.4343 17.4343 16.2663 18.0433 14.7961C18.2925 14.1945 18.3991 13.552 18.4501 12.8038C18.5 12.0724 18.5 11.1704 18.5 10.0364V9.96369C18.5 8.82964 18.5 7.92756 18.4501 7.19615C18.3991 6.44795 18.2925 5.80548 18.0433 5.2039C17.4343 3.73373 16.2663 2.56569 14.7961 1.95672C14.1945 1.70754 13.552 1.60094 12.8038 1.5499C12.0724 1.49999 11.1704 1.49999 10.0363 1.5ZM5.96927 3.80448C6.28654 3.67306 6.68592 3.58936 7.33229 3.54526C7.98764 3.50054 8.82146 3.5 10 3.5C10.2014 3.5 10.3927 3.50002 10.5747 3.50027C9.61451 4.2727 9 5.45745 9 6.78573C9 9.11321 10.8868 11 13.2143 11C14.5426 11 15.7273 10.3855 16.4997 9.42528C16.5 9.60735 16.5 9.79864 16.5 10C16.5 11.1785 16.4995 12.0124 16.4547 12.6677C16.4106 13.3141 16.3269 13.7135 16.1955 14.0307C15.7895 15.0108 15.0108 15.7895 14.0307 16.1955C13.7135 16.3269 13.3141 16.4106 12.6677 16.4547C12.0124 16.4995 11.1785 16.5 10 16.5C8.82146 16.5 7.98764 16.4995 7.33229 16.4547C6.68592 16.4106 6.28654 16.3269 5.96927 16.1955C4.98915 15.7895 4.21046 15.0108 3.80448 14.0307C3.67306 13.7135 3.58936 13.3141 3.54526 12.6677C3.50054 12.0124 3.5 11.1785 3.5 10C3.5 8.82146 3.50054 7.98764 3.54526 7.33229C3.58936 6.68592 3.67306 6.28654 3.80448 5.96927C4.21046 4.98915 4.98915 4.21046 5.96927 3.80448ZM11 6.78573C11 5.56281 11.9914 4.57144 13.2143 4.57144C14.4372 4.57144 15.4286 5.56281 15.4286 6.78573C15.4286 8.00864 14.4372 9.00001 13.2143 9.00001C11.9914 9.00001 11 8.00864 11 6.78573Z" fill="white"/>
</svg>
