<svg width="16" height="16" viewBox="0 0 16 16" fill="none" xmlns="http://www.w3.org/2000/svg">
<path fill-rule="evenodd" clip-rule="evenodd" d="M0 2.75171C0 2.19942 0.447715 1.75171 1 1.75171H15C15.5523 1.75171 16 2.19942 16 2.75171C16 3.30399 15.5523 3.75171 15 3.75171H1C0.447715 3.75171 0 3.30399 0 2.75171ZM2.63198 8.00171C2.63198 7.44942 3.07969 7.00171 3.63198 7.00171H12.382C12.9343 7.00171 13.382 7.44942 13.382 8.00171C13.382 8.55399 12.9343 9.00171 12.382 9.00171H3.63198C3.07969 9.00171 2.63198 8.55399 2.63198 8.00171ZM5.25 13.2517C5.25 12.6994 5.69772 12.2517 6.25 12.2517H9.75C10.3023 12.2517 10.75 12.6994 10.75 13.2517C10.75 13.804 10.3023 14.2517 9.75 14.2517H6.25C5.69772 14.2517 5.25 13.804 5.25 13.2517Z" fill="white"/>
</svg>
