<svg width="16" height="16" viewBox="0 0 16 16" fill="none" xmlns="http://www.w3.org/2000/svg">
<path d="M10.2 5.01883C10.2 3.55129 9.06892 2.77068 7.93491 2.81792C7.4358 2.83872 6.89368 3.09703 6.46476 3.53967C6.03582 3.98232 5.79995 4.5265 5.79995 5.01878C5.79995 5.57107 5.35224 6.01878 4.79995 6.01878C4.24767 6.01878 3.79995 5.57107 3.79995 5.01878C3.79995 3.91102 4.31075 2.88854 5.02848 2.14787C5.74622 1.40719 6.75076 0.865527 7.85165 0.819656C9.91764 0.733584 12.2 2.21953 12.2 5.01883C12.2 6.84598 11.0456 7.73556 10.2634 8.33838L10.211 8.37881C9.39286 9.0103 8.99995 9.35727 8.99995 10.1555C8.99995 10.7078 8.55224 11.1555 7.99995 11.1555C7.44767 11.1555 6.99995 10.7078 6.99995 10.1555C6.99995 8.32842 8.15426 7.43885 8.93646 6.83604L8.98893 6.79559C9.80703 6.16412 10.2 5.81712 10.2 5.01883Z" fill="white"/>
<path d="M9.50002 13.86C9.50002 14.6884 8.82845 15.36 8.00002 15.36C7.1716 15.36 6.50002 14.6884 6.50002 13.86C6.50002 13.0316 7.1716 12.36 8.00002 12.36C8.82845 12.36 9.50002 13.0316 9.50002 13.86Z" fill="white"/>
</svg>
