<svg width="16" height="14" viewBox="0 0 16 14" fill="none" xmlns="http://www.w3.org/2000/svg">
<path fill-rule="evenodd" clip-rule="evenodd" d="M12.3017 0.648121C12.8374 0.782086 13.1632 1.32503 13.0292 1.86082C12.9053 2.35643 12.7805 2.92948 12.6461 3.54707C12.3373 4.96529 11.9774 6.6184 11.4591 8.10799C11.6676 8.85528 11.8577 9.53178 12.076 10.1331C12.2524 10.6191 12.4169 10.9624 12.5711 11.1818C12.6733 11.3272 12.7365 11.3703 12.7541 11.3801C12.7789 11.3853 12.7923 11.3858 12.8455 11.3409C12.9401 11.2609 13.0619 11.0955 13.1832 10.8325C13.2988 10.582 13.3831 10.3108 13.4391 10.0927C13.4665 9.98606 13.4858 9.8975 13.4978 9.83762C13.5038 9.80779 13.5079 9.78542 13.5104 9.77186L13.5127 9.75887C13.6002 9.2138 14.1129 8.84274 14.6581 8.93001C15.2034 9.0173 15.5747 9.53015 15.4874 10.0755C15.4847 10.0922 15.4902 10.0588 15.4874 10.0755L15.4872 10.0767L15.487 10.0782L15.4864 10.0818L15.4847 10.0922L15.479 10.1245C15.4743 10.151 15.4675 10.1872 15.4586 10.2319C15.4407 10.3208 15.4138 10.4443 15.3763 10.5901C15.3027 10.8769 15.1826 11.2728 14.9992 11.6704C14.8215 12.0555 14.5497 12.5192 14.1363 12.8685C13.6885 13.2468 13.0752 13.4838 12.351 13.339C11.6921 13.2072 11.2388 12.7645 10.9347 12.3316C10.6293 11.897 10.3933 11.3592 10.196 10.8155C10.1921 10.8047 10.1882 10.7939 10.1843 10.783C9.21297 12.2453 7.80622 13.3584 5.71265 13.3584C3.89409 13.3584 2.52876 12.5041 1.66271 11.2478C0.821407 10.0275 0.468205 8.4639 0.502252 6.96559C0.536334 5.46575 0.960538 3.92019 1.80582 2.72044C2.66752 1.4974 3.98847 0.618256 5.71266 0.618256C7.35777 0.618256 8.51445 1.51045 9.31571 2.65386C9.72989 3.2449 10.0681 3.92713 10.3542 4.63571C10.4571 4.189 10.554 3.7432 10.6495 3.30423C10.7943 2.63881 10.9356 1.98908 11.089 1.37569C11.2229 0.839899 11.7659 0.514155 12.3017 0.648121ZM9.35764 8.0238C9.26821 7.70684 9.17854 7.39415 9.08799 7.09463C8.69461 5.79341 8.25839 4.63008 7.67784 3.80163C7.12137 3.00755 6.50842 2.61826 5.71266 2.61826C4.75177 2.61826 3.99789 3.08162 3.44078 3.87236C2.86726 4.68638 2.52867 5.82585 2.50174 7.01103C2.47477 8.19776 2.76233 9.3192 3.30933 10.1126C3.83158 10.8702 4.60208 11.3584 5.71265 11.3584C7.39464 11.3584 8.49205 10.1767 9.33527 8.07978C9.34277 8.06115 9.35022 8.04249 9.35764 8.0238Z" fill="white"/>
</svg>
