<svg width="16" height="16" viewBox="0 0 16 16" fill="none" xmlns="http://www.w3.org/2000/svg">
<path d="M7 10.6001C7 11.1524 7.44772 11.6001 8 11.6001C8.55229 11.6001 9 11.1524 9 10.6001V8.8001C9 8.24781 8.55229 7.8001 8 7.8001C7.44772 7.8001 7 8.24781 7 8.8001V10.6001Z" fill="white"/>
<path d="M6.79995 5.60005C6.79995 4.93731 7.33721 4.40005 7.99995 4.40005C8.66269 4.40005 9.19995 4.93731 9.19995 5.60005C9.19995 6.26279 8.66269 6.80005 7.99995 6.80005C7.33721 6.80005 6.79995 6.26279 6.79995 5.60005Z" fill="white"/>
<path fill-rule="evenodd" clip-rule="evenodd" d="M8 15.5C12.1421 15.5 15.5 12.1421 15.5 8C15.5 3.85786 12.1421 0.5 8 0.5C3.85786 0.5 0.5 3.85786 0.5 8C0.5 12.1421 3.85786 15.5 8 15.5ZM13.5 8C13.5 11.0376 11.0376 13.5 8 13.5C4.96243 13.5 2.5 11.0376 2.5 8C2.5 4.96243 4.96243 2.5 8 2.5C11.0376 2.5 13.5 4.96243 13.5 8Z" fill="white"/>
</svg>
