<svg width="14" height="14" viewBox="0 0 14 14" fill="none" xmlns="http://www.w3.org/2000/svg">
<path fill-rule="evenodd" clip-rule="evenodd" d="M0 4.00134C0 2.62017 1.11929 1.5005 2.5 1.5005H10C11.3666 1.5005 12.4772 2.59746 12.4997 3.9592C13.3828 4.34503 14 5.22646 14 6.2521V7.7526C14 8.77824 13.3828 9.65968 12.4997 10.0455C12.4772 11.4072 11.3666 12.5042 10 12.5042H2.5C1.11929 12.5042 0 11.3845 0 10.0034V4.00134ZM10.4331 10.2534H9.25C7.45507 10.2534 6 8.79788 6 7.00235C6 5.20682 7.45507 3.75126 9.25 3.75126L10.4331 3.75126C10.3467 3.60176 10.1851 3.50118 10 3.50118H2.5C2.22386 3.50118 2 3.72511 2 4.00134V10.0034C2 10.2796 2.22386 10.5035 2.5 10.5035H10C10.1851 10.5035 10.3467 10.4029 10.4331 10.2534ZM9.25 5.75193C8.55964 5.75193 8 6.31176 8 7.00235C8 7.69294 8.55964 8.25277 9.25 8.25277H11.5C11.7761 8.25277 12 8.02884 12 7.7526V6.2521C12 5.97586 11.7761 5.75193 11.5 5.75193L9.25 5.75193Z" fill="white"/>
</svg>
