<svg width="14" height="14" viewBox="0 0 14 14" fill="none" xmlns="http://www.w3.org/2000/svg">
<path fill-rule="evenodd" clip-rule="evenodd" d="M9.09999 3.45001C8.68578 3.45001 8.34999 3.7858 8.34999 4.20001C8.34999 4.61423 8.68578 4.95001 9.09999 4.95001C9.51421 4.95001 9.84999 4.61423 9.84999 4.20001C9.84999 3.7858 9.51421 3.45001 9.09999 3.45001ZM6.53746 3.20001C6.9375 2.17567 7.934 1.45001 9.09999 1.45001C10.266 1.45001 11.2625 2.17567 11.6625 3.20001L12.6 3.20001C13.1523 3.20001 13.6 3.64773 13.6 4.20001C13.6 4.7523 13.1523 5.20001 12.6 5.20001L11.6625 5.20001C11.2625 6.22435 10.266 6.95001 9.09999 6.95001C7.934 6.95001 6.9375 6.22435 6.53746 5.20001L1.39999 5.20001C0.847709 5.20001 0.399994 4.7523 0.399994 4.20001C0.399994 3.64773 0.847709 3.20001 1.39999 3.20001L6.53746 3.20001ZM4.89999 9.05001C4.48578 9.05001 4.14999 9.3858 4.14999 9.80001C4.14999 10.2142 4.48578 10.55 4.89999 10.55C5.31421 10.55 5.64999 10.2142 5.64999 9.80001C5.64999 9.3858 5.31421 9.05001 4.89999 9.05001ZM2.33746 8.80001C2.7375 7.77567 3.734 7.05001 4.89999 7.05001C6.06599 7.05001 7.06249 7.77567 7.46252 8.80001H12.6C13.1523 8.80001 13.6 9.24773 13.6 9.80001C13.6 10.3523 13.1523 10.8 12.6 10.8H7.46252C7.06249 11.8244 6.06598 12.55 4.89999 12.55C3.734 12.55 2.7375 11.8244 2.33746 10.8H1.39999C0.84771 10.8 0.399994 10.3523 0.399994 9.80001C0.399994 9.24773 0.847709 8.80001 1.39999 8.80001L2.33746 8.80001Z" fill="white"/>
</svg>
