<svg width="16" height="16" viewBox="0 0 16 16" fill="none" xmlns="http://www.w3.org/2000/svg">
<path fill-rule="evenodd" clip-rule="evenodd" d="M4.82955 1.33997H11.1705C11.8527 1.33995 12.4303 1.33993 12.9022 1.38229C13.3978 1.42676 13.8732 1.52402 14.3182 1.77786C14.8367 2.07363 15.2663 2.50323 15.5621 3.02177C15.8159 3.4668 15.9132 3.94219 15.9577 4.43774C16 4.9097 16 5.48727 16 6.16951V9.88241C16 10.5647 16 11.1422 15.9577 11.6142C15.9132 12.1097 15.8159 12.5851 15.5621 13.0302C15.2663 13.5487 14.8367 13.9783 14.3182 14.2741C13.8732 14.5279 13.3978 14.6252 12.9022 14.6696C12.4303 14.712 11.8527 14.712 11.1705 14.712H4.82955C4.14731 14.712 3.56973 14.712 3.09777 14.6696C2.60222 14.6252 2.12683 14.5279 1.68181 14.2741C1.16326 13.9783 0.733667 13.5487 0.437897 13.0302C0.184059 12.5851 0.086792 12.1097 0.0423201 11.6142C-3.4593e-05 11.1422 -1.83797e-05 10.5646 8.12951e-07 9.88241V6.16952C-1.83797e-05 5.48728 -3.4593e-05 4.9097 0.0423201 4.43774C0.086792 3.94219 0.184059 3.4668 0.437897 3.02177C0.733667 2.50323 1.16326 2.07363 1.68181 1.77786C2.12683 1.52402 2.60222 1.42676 3.09777 1.38229C3.56973 1.33993 4.14731 1.33995 4.82955 1.33997ZM3.27654 3.37428C2.91818 3.40644 2.7651 3.46244 2.67272 3.51513C2.46531 3.63343 2.29347 3.80527 2.17516 4.01269C2.14978 4.05719 2.12363 4.11578 2.09975 4.20461L7.2604 7.64505C7.70827 7.94363 8.29174 7.94363 8.7396 7.64505L13.9003 4.20461C13.8764 4.11578 13.8502 4.05719 13.8248 4.01269C13.7065 3.80527 13.5347 3.63343 13.3273 3.51513C13.2349 3.46244 13.0818 3.40644 12.7235 3.37428C12.3516 3.34091 11.8644 3.33997 11.1267 3.33997H4.87333C4.13556 3.33997 3.64842 3.34091 3.27654 3.37428ZM14 6.54182L9.849 9.30915C8.72934 10.0556 7.27067 10.0556 6.151 9.30915L2 6.54182V9.83862C2 10.5764 2.00094 11.0635 2.03431 11.4354C2.06647 11.7938 2.12247 11.9469 2.17516 12.0392C2.29347 12.2467 2.46531 12.4185 2.67272 12.5368C2.7651 12.5895 2.91818 12.6455 3.27654 12.6776C3.64842 12.711 4.13556 12.712 4.87333 12.712H11.1267C11.8644 12.712 12.3516 12.711 12.7235 12.6776C13.0818 12.6455 13.2349 12.5895 13.3273 12.5368C13.5347 12.4185 13.7065 12.2467 13.8248 12.0392C13.8775 11.9469 13.9335 11.7938 13.9657 11.4354C13.9991 11.0635 14 10.5764 14 9.83862V6.54182Z" fill="white"/>
</svg>
