<svg width="14" height="14" viewBox="0 0 14 14" fill="none" xmlns="http://www.w3.org/2000/svg">
<path fill-rule="evenodd" clip-rule="evenodd" d="M0 2.5C0 1.94772 0.447715 1.5 1 1.5H13C13.5523 1.5 14 1.94772 14 2.5C14 3.05228 13.5523 3.5 13 3.5H1C0.447715 3.5 0 3.05228 0 2.5ZM2.25598 7C2.25598 6.44772 2.7037 6 3.25598 6H10.756C11.3083 6 11.756 6.44772 11.756 7C11.756 7.55228 11.3083 8 10.756 8H3.25598C2.7037 8 2.25598 7.55228 2.25598 7ZM4.5 11.5C4.5 10.9477 4.94772 10.5 5.5 10.5H8.5C9.05229 10.5 9.5 10.9477 9.5 11.5C9.5 12.0523 9.05229 12.5 8.5 12.5H5.5C4.94772 12.5 4.5 12.0523 4.5 11.5Z" fill="white"/>
</svg>
