<svg width="14" height="14" viewBox="0 0 14 14" fill="none" xmlns="http://www.w3.org/2000/svg">
<path fill-rule="evenodd" clip-rule="evenodd" d="M4.84953 1.625C4.8663 1.625 4.88312 1.625 4.9 1.625L9.15048 1.625C9.76346 1.62497 10.3017 1.62494 10.7417 1.6726C11.2124 1.7236 11.6875 1.8386 12.1164 2.15021C12.3499 2.31983 12.5552 2.52513 12.7248 2.75859C13.0364 3.18748 13.1514 3.66265 13.2024 4.13333C13.2501 4.57327 13.25 5.11155 13.25 5.72453V8.27547C13.25 8.88845 13.2501 9.42674 13.2024 9.86668C13.1514 10.3374 13.0364 10.8125 12.7248 11.2414C12.5552 11.4749 12.3499 11.6802 12.1164 11.8498C11.6875 12.1614 11.2124 12.2764 10.7417 12.3274C10.3017 12.3751 9.76346 12.375 9.15048 12.375H4.84953C4.23655 12.375 3.69827 12.3751 3.25833 12.3274C2.78765 12.2764 2.31248 12.1614 1.88359 11.8498C1.65013 11.6802 1.44483 11.4749 1.27521 11.2414C0.963602 10.8125 0.848595 10.3374 0.797599 9.86668C0.749935 9.42674 0.749966 8.88846 0.750002 8.27548L0.750004 5.775C0.750004 5.75812 0.750003 5.7413 0.750002 5.72453C0.749966 5.11155 0.749935 4.57327 0.797599 4.13333C0.848595 3.66264 0.963602 3.18748 1.27521 2.75859C1.44483 2.52513 1.65013 2.31983 1.88359 2.15021C2.31248 1.8386 2.78764 1.7236 3.25833 1.6726C3.69827 1.62494 4.23655 1.62497 4.84953 1.625ZM3.47376 3.66096C3.17324 3.69352 3.09029 3.74563 3.05917 3.76824C2.99549 3.8145 2.9395 3.87049 2.89324 3.93417C2.87063 3.96529 2.81852 4.04824 2.78596 4.34876C2.77236 4.47431 2.7639 4.61678 2.75863 4.7847H11.2414C11.2361 4.61678 11.2276 4.47431 11.214 4.34876C11.1815 4.04824 11.1294 3.96529 11.1068 3.93417C11.0605 3.87049 11.0045 3.8145 10.9408 3.76824C10.9097 3.74563 10.8268 3.69352 10.5262 3.66096C10.207 3.62638 9.77848 3.625 9.1 3.625H4.9C4.22153 3.625 3.79299 3.62638 3.47376 3.66096ZM11.25 6.7847H2.75V8.225C2.75 8.90348 2.75138 9.33202 2.78596 9.65125C2.81852 9.95177 2.87063 10.0347 2.89324 10.0658C2.9395 10.1295 2.99549 10.1855 3.05917 10.2318C3.09029 10.2544 3.17324 10.3065 3.47376 10.339C3.79299 10.3736 4.22153 10.375 4.9 10.375H9.1C9.77848 10.375 10.207 10.3736 10.5262 10.339C10.8268 10.3065 10.9097 10.2544 10.9408 10.2318C11.0045 10.1855 11.0605 10.1295 11.1068 10.0658C11.1294 10.0347 11.1815 9.95177 11.214 9.65125C11.2486 9.33201 11.25 8.90348 11.25 8.225V6.7847ZM7.75 8.75C7.75 8.19772 8.19772 7.75 8.75 7.75H9.625C10.1773 7.75 10.625 8.19772 10.625 8.75C10.625 9.30229 10.1773 9.75 9.625 9.75H8.75C8.19772 9.75 7.75 9.30229 7.75 8.75Z" fill="white"/>
</svg>
