<svg width="20" height="20" viewBox="0 0 20 20" fill="none" xmlns="http://www.w3.org/2000/svg">
<path d="M9.99329 7.51257C8.61258 7.51257 7.49329 8.63186 7.49329 10.0126C7.49329 11.3933 8.61258 12.5126 9.99329 12.5126C11.374 12.5126 12.4933 11.3933 12.4933 10.0126C12.4933 8.63186 11.374 7.51257 9.99329 7.51257Z" fill="white"/>
<path fill-rule="evenodd" clip-rule="evenodd" d="M18.75 10C19.6785 9.62861 19.6783 9.62819 19.6781 9.62776L19.6777 9.62676L19.6768 9.62433L19.6741 9.61775L19.6659 9.59788C19.6592 9.58169 19.6499 9.55967 19.638 9.5322C19.6142 9.47729 19.5799 9.40052 19.5349 9.30503C19.4449 9.11419 19.3115 8.84759 19.1317 8.53043C18.7734 7.89809 18.225 7.05376 17.462 6.20604C15.9348 4.50904 13.497 2.75 10 2.75C6.50303 2.75 4.06526 4.50904 2.53796 6.20604C1.77501 7.05376 1.22659 7.89809 0.868264 8.53043C0.688538 8.84759 0.555074 9.11419 0.465108 9.30503C0.420087 9.40052 0.385846 9.47729 0.362051 9.5322C0.35015 9.55967 0.340852 9.58169 0.334114 9.59788L0.325919 9.61775L0.32325 9.62433L0.322271 9.62676L0.32187 9.62776C0.321694 9.62819 0.321528 9.62861 1.24994 9.99997L0.32187 9.62776C0.226506 9.86617 0.226164 10.133 0.321528 10.3714L1.24994 9.99997C0.321528 10.3713 0.321352 10.371 0.321528 10.3714L0.322271 10.3732L0.32325 10.3757L0.325919 10.3822L0.334114 10.4021C0.340852 10.4183 0.35015 10.4403 0.362051 10.4678C0.385846 10.5227 0.420087 10.5995 0.465108 10.695C0.555074 10.8858 0.688538 11.1524 0.868264 11.4696C1.22659 12.1019 1.77501 12.9462 2.53796 13.794C4.06526 15.491 6.50303 17.25 10 17.25C13.497 17.25 15.9348 15.491 17.462 13.794C18.225 12.9462 18.7734 12.1019 19.1317 11.4696C19.3115 11.1524 19.4449 10.8858 19.5349 10.695C19.5799 10.5995 19.6142 10.5227 19.638 10.4678C19.6499 10.4403 19.6592 10.4183 19.6659 10.4021L19.6741 10.3822L19.6768 10.3757L19.6777 10.3732L19.6781 10.3722C19.6783 10.3718 19.6785 10.3714 18.75 10ZM2.3507 10C2.417 10.1332 2.50263 10.2971 2.60831 10.4836C2.91405 11.0231 3.38125 11.7413 4.02455 12.456C5.30975 13.884 7.24698 15.25 10 15.25C12.753 15.25 14.6903 13.884 15.9755 12.456C16.6188 11.7413 17.086 11.0231 17.3917 10.4836C17.4974 10.2971 17.583 10.1332 17.6493 10C17.583 9.86675 17.4974 9.70293 17.3917 9.51645C17.086 8.97691 16.6188 8.25874 15.9755 7.54396C14.6903 6.11596 12.753 4.75 10 4.75C7.24698 4.75 5.30975 6.11596 4.02455 7.54396C3.38125 8.25874 2.91405 8.97691 2.60831 9.51645C2.50263 9.70293 2.417 9.86675 2.3507 10Z" fill="white"/>
<path d="M18.75 10L19.6781 10.3722C19.7735 10.1338 19.7735 9.86617 19.6781 9.62776L18.75 10Z" fill="white"/>
</svg>
