<svg width="16" height="16" viewBox="0 0 16 16" fill="none" xmlns="http://www.w3.org/2000/svg">
<path d="M7.99997 11.857C7.44769 11.857 6.99997 11.4093 6.99997 10.857V8.57133C6.99997 8.01905 7.44769 7.57133 7.99997 7.57133C8.55226 7.57133 8.99997 8.01905 8.99997 8.57133V10.857C8.99997 11.4093 8.55226 11.857 7.99997 11.857Z" fill="white"/>
<path d="M6.85711 5.14278C6.85711 4.5116 7.36878 3.99992 7.99996 3.99992C8.63115 3.99992 9.14282 4.5116 9.14282 5.14278C9.14282 5.77396 8.63115 6.28563 7.99996 6.28563C7.36878 6.28563 6.85711 5.77396 6.85711 5.14278Z" fill="white"/>
<path fill-rule="evenodd" clip-rule="evenodd" d="M15.8571 7.9999C15.8571 12.3393 12.3394 15.857 7.99997 15.857C3.66059 15.857 0.14283 12.3393 0.14283 7.9999C0.14283 3.66052 3.66059 0.142761 7.99997 0.142761C12.3394 0.142761 15.8571 3.66052 15.8571 7.9999ZM7.99997 13.857C11.2348 13.857 13.8571 11.2347 13.8571 7.9999C13.8571 4.76509 11.2348 2.14276 7.99997 2.14276C4.76516 2.14276 2.14283 4.76509 2.14283 7.9999C2.14283 11.2347 4.76516 13.857 7.99997 13.857Z" fill="white"/>
</svg>
