<svg width="14" height="14" viewBox="0 0 14 14" fill="none" xmlns="http://www.w3.org/2000/svg">
<path fill-rule="evenodd" clip-rule="evenodd" d="M4.863 2.92536C4.02235 3.36708 3.33474 4.06158 2.90131 4.90915C2.72484 5.25424 2.59062 5.62471 2.50568 6.01412H4.42348C4.45241 5.41357 4.50743 4.84059 4.58506 4.3093C4.65669 3.81904 4.74928 3.35229 4.863 2.92536ZM6.99999 0.400024C4.43409 0.400024 2.21195 1.86448 1.12064 3.99855C0.659602 4.9001 0.399994 5.9212 0.399994 7.00002C0.399994 8.18769 0.714596 9.30491 1.26571 10.2697C2.4009 12.2569 4.54298 13.6 6.99999 13.6C9.45439 13.6 11.5945 12.2598 12.7307 10.276C13.284 9.30981 13.6 8.19031 13.6 7.00002C13.6 3.35495 10.6451 0.400024 6.99999 0.400024ZM6.99997 2.81021C6.83227 3.22889 6.67546 3.83589 6.56405 4.59845C6.5003 5.03475 6.45308 5.51041 6.42606 6.01412H7.57392C7.51652 4.94402 7.36841 4.00998 7.16984 3.31496C7.11343 3.11752 7.05587 2.94988 6.99997 2.81021ZM9.57649 6.01412C9.52067 4.85546 9.36734 3.79051 9.13702 2.9255C10.3212 3.54788 11.2009 4.67139 11.4941 6.01412H9.57649ZM7.57238 8.01412H6.4276C6.45941 8.58999 6.51763 9.12845 6.59665 9.61261C6.70586 10.2818 6.84952 10.8143 6.99999 11.1899C7.15004 10.8153 7.29338 10.2845 7.40251 9.61759C7.48194 9.13215 7.54046 8.59197 7.57238 8.01412ZM4.86299 11.0747C4.76796 10.718 4.68802 10.3346 4.62277 9.93477C4.52638 9.34421 4.45873 8.69703 4.42486 8.01412H2.51193C2.61308 8.46417 2.78015 8.8887 3.00234 9.27765C3.43818 10.0406 4.08507 10.6659 4.86299 11.0747ZM9.13698 11.0747C9.23156 10.7196 9.31119 10.3382 9.37626 9.94055C9.47315 9.34843 9.54113 8.69925 9.57512 8.01412H11.4881C11.3865 8.46587 11.2186 8.89191 10.9951 9.28207C10.5593 10.0431 9.9134 10.6667 9.13698 11.0747Z" fill="white"/>
</svg>
