<svg width="20" height="20" viewBox="0 0 20 20" fill="none" xmlns="http://www.w3.org/2000/svg">
<path fill-rule="evenodd" clip-rule="evenodd" d="M2.2218 17.7782C2.02635 17.5827 1.92052 17.3151 1.92943 17.0388L2.10621 11.5588C2.1144 11.3048 2.21893 11.0635 2.39858 10.8839L11.3948 1.8877C11.8052 1.47725 12.1592 1.1232 12.4759 0.858645C12.8108 0.578942 13.1762 0.33557 13.6278 0.212041C14.146 0.0702699 14.6928 0.0702705 15.211 0.212041C15.6626 0.33557 16.028 0.578942 16.3629 0.858644C16.6796 1.12321 17.0336 1.47726 17.4441 1.88773L18.1123 2.55593C18.5227 2.96636 18.8768 3.32039 19.1413 3.63712C19.421 3.97198 19.6644 4.33742 19.7879 4.78897C19.9297 5.30719 19.9297 5.85398 19.7879 6.37221C19.6644 6.82375 19.421 7.1892 19.1413 7.52405C18.8768 7.84077 18.5227 8.19479 18.1123 8.60522L9.11609 17.6014C8.93645 17.781 8.69516 17.8856 8.44123 17.8938L2.96115 18.0706C2.68489 18.0795 2.41725 17.9736 2.2218 17.7782ZM7.9815 15.9076L16.668 7.22107C17.117 6.77208 17.4063 6.48147 17.6064 6.24191C17.7978 6.01277 17.8424 5.90441 17.8588 5.84446C17.9061 5.67172 17.9061 5.48946 17.8588 5.31671C17.8424 5.25676 17.7978 5.1484 17.6064 4.91927C17.4063 4.6797 17.117 4.38909 16.668 3.9401L16.0599 3.33199C15.6109 2.88299 15.3203 2.59371 15.0807 2.3936C14.8516 2.20221 14.7432 2.15756 14.6833 2.14116C14.5105 2.0939 14.3283 2.0939 14.1555 2.14116C14.0956 2.15756 13.9872 2.20221 13.7581 2.3936C13.5185 2.59371 13.2279 2.88299 12.7789 3.33199L4.09242 12.0185L3.96278 16.0372L7.9815 15.9076Z" fill="white"/>
</svg>
