<svg width="14" height="14" viewBox="0 0 14 14" fill="none" xmlns="http://www.w3.org/2000/svg">
<path fill-rule="evenodd" clip-rule="evenodd" d="M3.47582 1.1953C3.86634 0.804774 4.49951 0.804774 4.89003 1.1953L7.57296 3.87822C7.96349 4.26875 7.96349 4.90191 7.57296 5.29244C7.18244 5.68296 6.54927 5.68296 6.15875 5.29244L5.18293 4.31662L5.18293 8.87801C5.18293 9.4303 4.73521 9.87801 4.18293 9.87801C3.63064 9.87801 3.18293 9.4303 3.18293 8.87801L3.18293 4.31662L2.20711 5.29244C1.81658 5.68296 1.18342 5.68296 0.792893 5.29244C0.402369 4.90191 0.402369 4.26875 0.792893 3.87823L3.47582 1.1953ZM9.81707 4.12192C10.3694 4.12192 10.8171 4.56963 10.8171 5.12192L10.8171 9.68331L11.7929 8.70749C12.1834 8.31697 12.8166 8.31697 13.2071 8.70749C13.5976 9.09802 13.5976 9.73118 13.2071 10.1217L10.5242 12.8046C10.3366 12.9922 10.0823 13.0975 9.81707 13.0975C9.55186 13.0975 9.2975 12.9922 9.10997 12.8046L6.42704 10.1217C6.03652 9.73118 6.03652 9.09802 6.42704 8.70749C6.81756 8.31697 7.45073 8.31697 7.84125 8.70749L8.81707 9.68331L8.81707 5.12192C8.81707 4.56963 9.26479 4.12192 9.81707 4.12192Z" fill="white"/>
</svg>
