<svg width="20" height="20" viewBox="0 0 20 20" fill="none" xmlns="http://www.w3.org/2000/svg">
<path fill-rule="evenodd" clip-rule="evenodd" d="M10 3C6.13401 3 3 6.13401 3 10C3 13.866 6.13401 17 10 17C13.866 17 17 13.866 17 10C17 6.13401 13.866 3 10 3ZM1 10C1 5.02944 5.02944 1 10 1C14.9706 1 19 5.02944 19 10C19 14.9706 14.9706 19 10 19C5.02944 19 1 14.9706 1 10ZM12.8126 7.17417C13.0804 7.442 13.174 7.83817 13.0542 8.1975L11.9972 11.3684C11.8977 11.667 11.6634 11.9013 11.3648 12.0008L8.19392 13.0578C7.83459 13.1776 7.43842 13.084 7.17059 12.8162C6.90276 12.5484 6.80924 12.1522 6.92901 11.7929L7.98597 8.622C8.0855 8.3234 8.31982 8.08908 8.61842 7.98955L11.7893 6.93259C12.1486 6.81282 12.5448 6.90634 12.8126 7.17417ZM9.72522 9.7288L9.45884 10.528L10.258 10.2616L10.5244 9.46242L9.72522 9.7288Z" fill="white"/>
</svg>
