<svg width="16" height="16" viewBox="0 0 16 16" fill="none" xmlns="http://www.w3.org/2000/svg">
<path fill-rule="evenodd" clip-rule="evenodd" d="M1.63605 14.3639C1.4406 14.1685 1.33476 13.9008 1.34368 13.6246L1.4851 9.2405C1.49329 8.98657 1.59782 8.74528 1.77747 8.56564L8.72973 1.61337C9.0399 1.30319 9.30752 1.03555 9.54414 0.829157C9.79328 0.611845 10.0616 0.413567 10.3875 0.278563C11.1226 -0.025919 11.9485 -0.0259191 12.6836 0.278563C13.0095 0.413567 13.2778 0.611845 13.5269 0.829155C13.7636 1.03555 14.0312 1.30319 14.3413 1.61337L14.3866 1.65861C14.6968 1.96877 14.9644 2.23639 15.1708 2.47301C15.3881 2.72215 15.5864 2.99044 15.7214 3.31636C16.0259 4.05145 16.0259 4.87738 15.7214 5.61247C15.5864 5.93839 15.3881 6.20668 15.1708 6.45582C14.9644 6.69244 14.6968 6.96006 14.3866 7.27023L7.43432 14.2225C7.25468 14.4021 7.01339 14.5067 6.75946 14.5149L2.3754 14.6563C2.09913 14.6652 1.8315 14.5594 1.63605 14.3639ZM6.29973 12.5287L12.9498 5.87863C13.2889 5.53948 13.5075 5.32015 13.6636 5.14115C13.8138 4.96893 13.8564 4.88871 13.8736 4.8471C13.9751 4.60207 13.9751 4.32676 13.8736 4.08173C13.8564 4.04012 13.8138 3.9599 13.6636 3.78768C13.5075 3.60868 13.2889 3.38935 12.9498 3.0502C12.6106 2.71106 12.3913 2.49249 12.2123 2.33636C12.0401 2.18614 11.9598 2.14356 11.9182 2.12632C11.6732 2.02483 11.3979 2.02483 11.1529 2.12632C11.1112 2.14356 11.031 2.18614 10.8588 2.33636C10.6798 2.49249 10.4605 2.71106 10.1213 3.0502L3.47131 9.70022L3.37703 12.6229L6.29973 12.5287Z" fill="white"/>
</svg>
