<svg width="16" height="16" viewBox="0 0 16 16" fill="none" xmlns="http://www.w3.org/2000/svg">
<path fill-rule="evenodd" clip-rule="evenodd" d="M8 0.00341797C8.55228 0.00341797 9 0.451133 9 1.00342V1.50342C9 2.0557 8.55228 2.50342 8 2.50342C7.44772 2.50342 7 2.0557 7 1.50342V1.00342C7 0.451133 7.44772 0.00341797 8 0.00341797ZM2.34574 2.34544C2.73626 1.95492 3.36943 1.95492 3.75995 2.34544L4.1135 2.69899C4.50403 3.08952 4.50403 3.72268 4.1135 4.11321C3.72298 4.50373 3.08981 4.50373 2.69929 4.11321L2.34574 3.75965C1.95521 3.36913 1.95521 2.73596 2.34574 2.34544ZM13.6544 2.34553C14.0449 2.73605 14.0449 3.36922 13.6544 3.75974L13.3008 4.11329C12.9103 4.50382 12.2771 4.50382 11.8866 4.11329C11.4961 3.72277 11.4961 3.0896 11.8866 2.69908L12.2401 2.34553C12.6307 1.955 13.2638 1.955 13.6544 2.34553ZM8 6.00012C6.89543 6.00012 6 6.89555 6 8.00012C6 9.10469 6.89543 10.0001 8 10.0001C9.10457 10.0001 10 9.10469 10 8.00012C10 6.89555 9.10457 6.00012 8 6.00012ZM4 8.00012C4 5.79098 5.79086 4.00012 8 4.00012C10.2091 4.00012 12 5.79098 12 8.00012C12 10.2093 10.2091 12.0001 8 12.0001C5.79086 12.0001 4 10.2093 4 8.00012ZM0.00354004 7.99988C0.00354004 7.44759 0.451255 6.99988 1.00354 6.99988H1.50354C2.05582 6.99988 2.50354 7.44759 2.50354 7.99988C2.50354 8.55216 2.05582 8.99988 1.50354 8.99988H1.00354C0.451255 8.99988 0.00354004 8.55216 0.00354004 7.99988ZM13.4965 7.99988C13.4965 7.44759 13.9442 6.99988 14.4965 6.99988H14.9965C15.5487 6.99988 15.9965 7.44759 15.9965 7.99988C15.9965 8.55216 15.5487 8.99988 14.9965 8.99988H14.4965C13.9442 8.99988 13.4965 8.55216 13.4965 7.99988ZM4.11342 11.8865C4.50394 12.277 4.50394 12.9102 4.11342 13.3007L3.75986 13.6542C3.36934 14.0448 2.73617 14.0448 2.34565 13.6542C1.95512 13.2637 1.95512 12.6305 2.34565 12.24L2.6992 11.8865C3.08973 11.4959 3.72289 11.4959 4.11342 11.8865ZM11.8865 11.8865C12.277 11.496 12.9102 11.496 13.3007 11.8865L13.6543 12.2401C14.0448 12.6306 14.0448 13.2638 13.6543 13.6543C13.2637 14.0448 12.6306 14.0448 12.2401 13.6543L11.8865 13.3008C11.496 12.9102 11.496 12.2771 11.8865 11.8865ZM8 13.4963C8.55228 13.4963 9 13.9441 9 14.4963V14.9963C9 15.5486 8.55228 15.9963 8 15.9963C7.44772 15.9963 7 15.5486 7 14.9963V14.4963C7 13.9441 7.44772 13.4963 8 13.4963Z" fill="white"/>
</svg>
