<svg width="16" height="16" viewBox="0 0 16 16" fill="none" xmlns="http://www.w3.org/2000/svg">
<path d="M8 6C6.89543 6 6 6.89543 6 8C6 9.10457 6.89543 10 8 10C9.10457 10 10 9.10457 10 8C10 6.89543 9.10457 6 8 6Z" fill="white"/>
<path fill-rule="evenodd" clip-rule="evenodd" d="M8.3136 0.325883C8.10512 0.30397 7.89491 0.30397 7.68643 0.325883C7.04618 0.393175 6.47728 0.722882 5.83406 1.09567L5.70001 1.17325L3.23784 2.59479L3.10363 2.67208C2.45917 3.04274 1.88919 3.37057 1.51078 3.89139C1.38757 4.06099 1.28246 4.24303 1.1972 4.43454C0.935352 5.02266 0.936438 5.68019 0.937666 6.42363L0.937836 6.57851V9.42159L0.937666 9.57646C0.936438 10.3199 0.935352 10.9774 1.1972 11.5656C1.28246 11.7571 1.38757 11.9391 1.51078 12.1087C1.88919 12.6295 2.45917 12.9574 3.10363 13.328L3.23784 13.4053L5.70001 14.8268L5.83405 14.9044C6.47728 15.2772 7.04618 15.6069 7.68643 15.6742C7.89491 15.6961 8.10512 15.6961 8.3136 15.6742C8.95385 15.6069 9.52275 15.2772 10.166 14.9044L10.3 14.8268L12.7622 13.4053L12.8964 13.328C13.5409 12.9574 14.1108 12.6295 14.4892 12.1087C14.6125 11.9391 14.7176 11.7571 14.8028 11.5656C15.0647 10.9774 15.0636 10.3199 15.0624 9.57646L15.0622 9.42159V6.57851L15.0624 6.42363C15.0636 5.68019 15.0647 5.02265 14.8028 4.43454C14.7176 4.24303 14.6125 4.06099 14.4892 3.89139C14.1108 3.37057 13.5409 3.04274 12.8964 2.67208L12.7622 2.59479L10.3 1.17325L10.166 1.09567C9.52274 0.722881 8.95385 0.393175 8.3136 0.325883ZM7.89548 2.31493C7.96498 2.30762 8.03505 2.30762 8.10454 2.31493C8.26576 2.33187 8.44169 2.40975 9.30001 2.9053L11.7622 4.32684C12.6205 4.82239 12.7759 4.93582 12.8712 5.06696C12.9123 5.12349 12.9473 5.18418 12.9757 5.24801C13.0417 5.3961 13.0622 5.58741 13.0622 6.57851V9.42159C13.0622 10.4127 13.0417 10.604 12.9757 10.7521C12.9473 10.8159 12.9123 10.8766 12.8712 10.9331C12.7759 11.0643 12.6205 11.1777 11.7622 11.6733L9.30001 13.0948C8.44169 13.5903 8.26576 13.6682 8.10454 13.6852C8.03505 13.6925 7.96498 13.6925 7.89548 13.6852C7.73427 13.6682 7.55833 13.5903 6.70001 13.0948L4.23784 11.6733C3.37952 11.1777 3.2241 11.0643 3.12882 10.9331C3.08775 10.8766 3.05271 10.8159 3.02429 10.7521C2.95836 10.604 2.93784 10.4127 2.93784 9.42159V6.57851C2.93784 5.58741 2.95836 5.3961 3.02429 5.24801C3.05271 5.18418 3.08775 5.12349 3.12882 5.06696C3.2241 4.93582 3.37952 4.82239 4.23784 4.32684L6.70001 2.9053C7.55833 2.40975 7.73427 2.33187 7.89548 2.31493Z" fill="white"/>
</svg>
