<svg width="16" height="16" viewBox="0 0 16 16" fill="none" xmlns="http://www.w3.org/2000/svg">
<path d="M14.362 4.73657C14.3717 4.87762 14.3717 5.01868 14.3717 5.16103C14.3717 9.49855 11.0697 14.501 5.03173 14.501V14.4984C3.2481 14.501 1.50152 13.9901 0 13.0268C0.259354 13.058 0.520008 13.0736 0.781312 13.0743C2.25944 13.0756 3.69531 12.5796 4.85818 11.6663C3.4535 11.6397 2.22173 10.7238 1.79143 9.38674C2.28349 9.48165 2.79049 9.46215 3.27345 9.33019C1.74203 9.02079 0.64026 7.67527 0.64026 6.11264C0.64026 6.09834 0.64026 6.08469 0.64026 6.07104C1.09657 6.3252 1.60748 6.46625 2.13008 6.48185C0.687711 5.51788 0.243104 3.59905 1.11412 2.09883C2.78074 4.14961 5.23973 5.39633 7.87942 5.52828C7.61487 4.38817 7.97627 3.19345 8.82909 2.39198C10.1512 1.14917 12.2306 1.21287 13.4734 2.53434C14.2086 2.38938 14.9132 2.11963 15.558 1.73742C15.3129 2.49729 14.8001 3.14275 14.115 3.5529C14.7656 3.4762 15.4013 3.302 16 3.03614C15.5593 3.69655 15.0042 4.27181 14.362 4.73657Z" fill="white"/>
</svg>
