<svg width="16" height="18" viewBox="0 0 16 18" fill="none" xmlns="http://www.w3.org/2000/svg">
<path d="M8.15001 5.64999C8.15001 6.2575 7.65753 6.74999 7.05001 6.74999C6.4425 6.74999 5.95001 6.2575 5.95001 5.64999C5.95001 5.04247 6.4425 4.54999 7.05001 4.54999C7.65753 4.54999 8.15001 5.04247 8.15001 5.64999ZM2.70001 5.04999C2.70001 2.97892 4.37894 1.29999 6.45001 1.29999H9.55001C11.6211 1.29999 13.3 2.97892 13.3 5.04999V12.95C13.3 15.0211 11.6211 16.7 9.55001 16.7H6.45001C4.37894 16.7 2.70001 15.0211 2.70001 12.95V5.04999ZM6.45001 2.29999C4.93123 2.29999 3.70001 3.53121 3.70001 5.04999V12.95C3.70001 14.4688 4.93123 15.7 6.45001 15.7H9.55001C11.0688 15.7 12.3 14.4688 12.3 12.95V5.04999C12.3 3.5312 11.0688 2.29999 9.55001 2.29999H6.45001Z" fill="white" stroke="white"/>
</svg>
