<svg width="20" height="20" viewBox="0 0 20 20" fill="none" xmlns="http://www.w3.org/2000/svg">
<path fill-rule="evenodd" clip-rule="evenodd" d="M8.89372 3.32244C6.05699 4.21636 4 6.86796 4 10C4 13.866 7.13401 17 11 17C12.907 17 14.6367 16.2376 15.9 14.9993C11.5278 14.9457 8 11.3848 8 6.99988C8 5.67429 8.32287 4.42348 8.89372 3.32244ZM2 10C2 5.02944 6.02944 1 11 1C11.0376 1 11.0751 1.00023 11.1125 1.00069C11.5166 1.00565 11.8779 1.25326 12.0283 1.62824C12.1788 2.00323 12.0888 2.43192 11.8003 2.71475C10.6881 3.80488 10 5.32112 10 6.99988C10 10.3136 12.6863 12.9999 16 12.9999C16.6309 12.9999 17.2373 12.9028 17.806 12.7236C18.1915 12.6021 18.6121 12.7246 18.8722 13.034C19.1322 13.3434 19.1804 13.7789 18.9944 14.1377C17.4977 17.0242 14.4804 19 11 19C6.02944 19 2 14.9706 2 10Z" fill="white"/>
</svg>
