<svg width="16" height="16" viewBox="0 0 16 16" fill="none" xmlns="http://www.w3.org/2000/svg">
<path fill-rule="evenodd" clip-rule="evenodd" d="M7.96449 1H8.03552C8.93728 0.999993 9.66469 0.999988 10.2567 1.04038C10.8654 1.08191 11.4037 1.16948 11.9134 1.3806C13.1386 1.88807 14.1119 2.86144 14.6194 4.08658C14.8305 4.59628 14.9181 5.13456 14.9596 5.74331C15 6.33531 15 7.06272 15 7.96448V8.03552C15 8.93728 15 9.66469 14.9596 10.2567C14.9181 10.8654 14.8305 11.4037 14.6194 11.9134C14.1119 13.1386 13.1386 14.1119 11.9134 14.6194C11.4037 14.8305 10.8654 14.9181 10.2567 14.9596C9.66469 15 8.93728 15 8.03552 15H7.96448C7.06272 15 6.33531 15 5.74331 14.9596C5.13456 14.9181 4.59628 14.8305 4.08658 14.6194C2.86144 14.1119 1.88807 13.1386 1.3806 11.9134C1.16948 11.4037 1.08191 10.8654 1.04038 10.2567C0.999988 9.66469 0.999993 8.93728 1 8.03552V7.96449C0.999993 7.06273 0.999988 6.33531 1.04038 5.74331C1.08191 5.13456 1.16948 4.59628 1.3806 4.08658C1.88807 2.86144 2.86144 1.88807 4.08658 1.3806C4.59628 1.16948 5.13456 1.08191 5.74331 1.04038C6.33531 0.999988 7.06273 0.999993 7.96449 1ZM5.87945 3.03574C5.37254 3.07033 5.07734 3.135 4.85195 3.22836C4.11687 3.53284 3.53284 4.11687 3.22836 4.85195C3.135 5.07734 3.07033 5.37254 3.03574 5.87945C3.00054 6.39534 3 7.05444 3 8C3 8.94557 3.00054 9.60466 3.03574 10.1206C3.07033 10.6275 3.135 10.9227 3.22836 11.1481C3.53284 11.8831 4.11687 12.4672 4.85195 12.7716C5.07733 12.865 5.37254 12.9297 5.87945 12.9643C6.39534 12.9995 7.05443 13 8 13C8.94557 13 9.60466 12.9995 10.1206 12.9643C10.6275 12.9297 10.9227 12.865 11.1481 12.7716C11.8831 12.4672 12.4672 11.8831 12.7716 11.1481C12.865 10.9227 12.9297 10.6275 12.9643 10.1206C12.9989 9.61329 13 8.96759 13 8.04723C12.3627 8.63851 11.5093 9.00002 10.5714 9.00002C8.59898 9.00002 7 7.40104 7 5.42859C7 4.49071 7.36152 3.63726 7.95281 3C7.03243 3.00003 6.38672 3.00113 5.87945 3.03574ZM10.5714 3.85716C9.70355 3.85716 9 4.56072 9 5.42859C9 6.29647 9.70355 7.00002 10.5714 7.00002C11.4393 7.00002 12.1429 6.29647 12.1429 5.42859C12.1429 4.56072 11.4393 3.85716 10.5714 3.85716Z" fill="white"/>
</svg>
