<svg width="20" height="20" viewBox="0 0 20 20" fill="none" xmlns="http://www.w3.org/2000/svg">
<path fill-rule="evenodd" clip-rule="evenodd" d="M10 3C6.13401 3 3 6.13401 3 10C3 13.866 6.13401 17 10 17C13.866 17 17 13.866 17 10C17 6.13401 13.866 3 10 3ZM1 10C1 5.02944 5.02944 1 10 1C14.9706 1 19 5.02944 19 10C19 14.9706 14.9706 19 10 19C5.02944 19 1 14.9706 1 10ZM12.8109 6.88845C13.2754 7.1871 13.4099 7.80582 13.1113 8.27039L10.1953 12.8064C10.0231 13.0743 9.73361 13.2441 9.41578 13.2637C9.09794 13.2834 8.78975 13.1504 8.58589 12.9058L6.96589 10.9618C6.61233 10.5375 6.66965 9.90697 7.09393 9.55341C7.51821 9.19984 8.14877 9.25717 8.50234 9.68144L9.24989 10.5785L11.4289 7.18887C11.7276 6.7243 12.3463 6.5898 12.8109 6.88845Z" fill="white"/>
</svg>
