<svg width="16" height="16" viewBox="0 0 16 16" fill="none" xmlns="http://www.w3.org/2000/svg">
<path fill-rule="evenodd" clip-rule="evenodd" d="M7.99997 2.14325C4.76547 2.14325 2.14282 4.7663 2.14282 8.0027C2.14282 11.2391 4.76547 13.8621 7.99997 13.8621C11.2345 13.8621 13.8571 11.2391 13.8571 8.0027C13.8571 4.7663 11.2345 2.14325 7.99997 2.14325ZM0.142822 8.0027C0.142822 3.66236 3.66027 0.14325 7.99997 0.14325C12.3397 0.14325 15.8571 3.66236 15.8571 8.0027C15.8571 12.343 12.3397 15.8621 7.99997 15.8621C3.66027 15.8621 0.142822 12.343 0.142822 8.0027ZM7.99997 4.40001C8.55225 4.40001 8.99997 4.84772 8.99997 5.40001L8.99997 8.18456L9.69286 7.49167C10.0834 7.10114 10.7165 7.10114 11.1071 7.49167C11.4976 7.88219 11.4976 8.51536 11.1071 8.90588L8.70707 11.3059C8.31655 11.6964 7.68338 11.6964 7.29286 11.3059L4.89286 8.90588C4.50233 8.51536 4.50233 7.88219 4.89286 7.49167C5.28338 7.10114 5.91655 7.10114 6.30707 7.49167L6.99997 8.18456L6.99997 5.40001C6.99997 4.84772 7.44768 4.40001 7.99997 4.40001Z" fill="white"/>
</svg>
