<svg width="20" height="20" viewBox="0 0 20 20" fill="none" xmlns="http://www.w3.org/2000/svg">
<path fill-rule="evenodd" clip-rule="evenodd" d="M15.5568 0.759427C16.104 0.684256 16.6084 1.06687 16.6836 1.61401L17.3669 6.58757C17.4421 7.13464 17.0596 7.63909 16.5125 7.71434L11.5405 8.39832C10.9934 8.47358 10.4888 8.09106 10.4135 7.54393C10.3383 6.9968 10.7208 6.49224 11.2679 6.41698L14.0674 6.03187C13.9771 5.99622 13.8906 5.94672 13.8108 5.88303C13.0288 5.25887 12.077 4.82614 11.0134 4.66769C7.80085 4.18908 4.80819 6.40624 4.32963 9.62065C3.85106 12.8351 6.0681 15.8285 9.28073 16.3072C12.2058 16.7429 14.9502 14.9431 15.7778 12.1907C15.9368 11.6618 16.4945 11.362 17.0234 11.521C17.5523 11.68 17.8521 12.2377 17.6931 12.7666C16.5837 16.4562 12.9085 18.8697 8.98603 18.2853C4.68036 17.6439 1.71031 13.6325 2.35143 9.32614C2.99257 5.01973 7.00237 2.04805 11.3081 2.68952C12.7186 2.89965 13.9884 3.47277 15.0339 4.30039L14.7022 1.88623C14.6271 1.33908 15.0097 0.834597 15.5568 0.759427ZM15.2276 5.71062C15.2239 5.71552 15.2201 5.7204 15.2162 5.72525C15.1634 5.79144 15.1038 5.84914 15.0394 5.89816L15.2494 5.86926L15.2276 5.71062Z" fill="white"/>
</svg>
