<svg width="16" height="16" viewBox="0 0 16 16" fill="none" xmlns="http://www.w3.org/2000/svg">
<path fill-rule="evenodd" clip-rule="evenodd" d="M8.00002 2.14282C6.02757 2.14282 4.42859 3.74181 4.42859 5.71425C4.42859 6.71296 4.83721 7.61442 5.49892 8.26369L5.5168 8.28123C5.75482 8.51477 5.95931 8.7154 6.11235 8.88088C6.25254 9.03246 6.44535 9.25233 6.55841 9.52165C6.60648 9.63616 6.63851 9.74919 6.66028 9.85711H9.33976C9.36152 9.74919 9.39356 9.63616 9.44163 9.52165C9.55468 9.25233 9.7475 9.03246 9.88768 8.88087C10.0407 8.71539 10.2452 8.51475 10.4833 8.28121L10.5011 8.26369C11.1628 7.61442 11.5714 6.71296 11.5714 5.71425C11.5714 3.74181 9.97246 2.14282 8.00002 2.14282ZM9.28573 11.8571H6.7143V12.2857C6.7143 12.7854 6.71643 13.0595 6.742 13.2497C6.74233 13.2522 6.74266 13.2546 6.743 13.257C6.74537 13.2573 6.7478 13.2577 6.75028 13.258C6.94047 13.2836 7.21463 13.2857 7.7143 13.2857H8.28573C8.78541 13.2857 9.05956 13.2836 9.24976 13.258C9.25223 13.2577 9.25466 13.2573 9.25704 13.257C9.25737 13.2546 9.2577 13.2522 9.25804 13.2497C9.28361 13.0595 9.28573 12.7854 9.28573 12.2857V11.8571ZM2.42859 5.71425C2.42859 2.63724 4.923 0.142822 8.00002 0.142822C11.077 0.142822 13.5714 2.63724 13.5714 5.71425C13.5714 7.27169 12.9311 8.68138 11.9018 9.69126C11.6409 9.94726 11.4719 10.1135 11.356 10.2388C11.3299 10.2671 11.3097 10.2898 11.2942 10.3079C11.2939 10.3121 11.2936 10.3166 11.2932 10.3214C11.2863 10.4256 11.2857 10.5697 11.2857 10.8277V12.2857C11.2857 12.3038 11.2857 12.322 11.2857 12.3401C11.2858 12.7642 11.2859 13.1763 11.2402 13.5162C11.1887 13.8994 11.0632 14.3367 10.6999 14.6999C10.3367 15.0631 9.89945 15.1886 9.51625 15.2401C9.17634 15.2859 8.76421 15.2858 8.34014 15.2857C8.32202 15.2857 8.30389 15.2857 8.28573 15.2857H7.7143C7.69615 15.2857 7.67801 15.2857 7.65989 15.2857C7.23582 15.2858 6.8237 15.2859 6.48378 15.2401C6.10058 15.1886 5.6633 15.0631 5.30009 14.6999C4.93687 14.3367 4.81135 13.8994 4.75983 13.5162C4.71413 13.1763 4.71421 12.7642 4.7143 12.3401C4.7143 12.322 4.7143 12.3038 4.7143 12.2857V10.8277C4.7143 10.5697 4.71378 10.4256 4.7068 10.3214C4.70648 10.3166 4.70615 10.3121 4.70583 10.3079C4.69037 10.2898 4.67017 10.2671 4.64403 10.2388C4.52812 10.1135 4.3591 9.94726 4.0982 9.69127C3.06895 8.68138 2.42859 7.27169 2.42859 5.71425Z" fill="white"/>
</svg>
