<svg width="16" height="14" viewBox="0 0 16 14" fill="none" xmlns="http://www.w3.org/2000/svg">
<path d="M14.125 4.08915L9.13251 7.41748C8.44672 7.87467 7.55328 7.87467 6.86749 7.41748L1.875 4.08915M5.26417 11.998H10.7358C11.9951 11.998 12.6247 11.998 13.0949 11.7298C13.4125 11.5486 13.6756 11.2855 13.8568 10.9679C14.125 10.4976 14.125 9.86804 14.125 8.60881V5.43665C14.125 4.17743 14.125 3.54781 13.8568 3.07759C13.6756 2.75998 13.4125 2.49686 13.0949 2.3157C12.6247 2.04749 11.9951 2.04749 10.7358 2.04749H5.26417C4.00494 2.04749 3.37533 2.04749 2.90511 2.3157C2.5875 2.49686 2.32437 2.75998 2.14321 3.07759C1.875 3.54781 1.875 4.17743 1.875 5.43665V8.60881C1.875 9.86804 1.875 10.4976 2.14321 10.9679C2.32437 11.2855 2.5875 11.5486 2.90511 11.7298C3.37533 11.998 4.00494 11.998 5.26417 11.998Z" stroke="white" stroke-width="2" stroke-linejoin="round"/>
<path fill-rule="evenodd" clip-rule="evenodd" d="M5.22377 1.11414H10.7762C11.3714 1.11412 11.879 1.1141 12.2947 1.1514C12.7323 1.19067 13.1576 1.27698 13.5573 1.50496C14.0201 1.76893 14.4035 2.15235 14.6675 2.61515C14.8955 3.01483 14.9818 3.4402 15.0211 3.87781C15.0584 4.29342 15.0583 4.80108 15.0583 5.39625V8.64919C15.0583 9.24435 15.0584 9.75202 15.0211 10.1676C14.9818 10.6052 14.8955 11.0306 14.6675 11.4303C14.4035 11.8931 14.0201 12.2765 13.5573 12.5405C13.1576 12.7684 12.7323 12.8548 12.2947 12.894C11.879 12.9313 11.3714 12.9313 10.7762 12.9313H5.22376C4.6286 12.9313 4.12093 12.9313 3.70532 12.894C3.26771 12.8548 2.84234 12.7684 2.44266 12.5405C1.97986 12.2765 1.59645 11.8931 1.33247 11.4303C1.1045 11.0306 1.01819 10.6052 0.978914 10.1676C0.941616 9.75202 0.941632 9.24435 0.941651 8.64918V5.39625C0.941632 4.80109 0.941616 4.29342 0.978914 3.87781C1.01819 3.4402 1.1045 3.01483 1.33247 2.61515C1.59645 2.15235 1.97986 1.76893 2.44266 1.50496C2.84234 1.27698 3.26771 1.19067 3.70532 1.1514C4.12093 1.1141 4.6286 1.11412 5.22377 1.11414ZM3.87217 3.01059C3.56261 3.03838 3.43806 3.08617 3.36752 3.1264C3.1951 3.22475 3.05226 3.36759 2.95392 3.54C2.9383 3.56739 2.92154 3.60292 2.90525 3.65425L7.38519 6.64088C7.75748 6.88907 8.24249 6.88907 8.61478 6.64088L13.0947 3.65425C13.0784 3.60292 13.0617 3.56739 13.0461 3.54C12.9477 3.36759 12.8049 3.22475 12.6325 3.1264C12.5619 3.08617 12.4374 3.03838 12.1278 3.01059C11.8056 2.98168 11.3824 2.9808 10.7358 2.9808H5.26415C4.61754 2.9808 4.19436 2.98168 3.87217 3.01059ZM13.1917 5.83309L9.65022 8.19404C8.65092 8.86024 7.34905 8.86024 6.34975 8.19404L2.80832 5.83309V8.6088C2.80832 9.25541 2.8092 9.67859 2.83811 10.0008C2.86589 10.3103 2.91368 10.4349 2.95392 10.5054C3.05226 10.6778 3.1951 10.8207 3.36752 10.919C3.43806 10.9593 3.56261 11.0071 3.87217 11.0348C4.19436 11.0638 4.61754 11.0646 5.26415 11.0646H10.7358C11.3824 11.0646 11.8056 11.0638 12.1278 11.0348C12.4374 11.0071 12.5619 10.9593 12.6325 10.919C12.8049 10.8207 12.9477 10.6778 13.0461 10.5054C13.0863 10.4349 13.1341 10.3103 13.1619 10.0008C13.1908 9.67859 13.1917 9.25541 13.1917 8.6088V5.83309Z" fill="white"/>
</svg>
