<svg width="16" height="16" viewBox="0 0 16 16" fill="none" xmlns="http://www.w3.org/2000/svg">
<path fill-rule="evenodd" clip-rule="evenodd" d="M11.1431 3.67476C10.6292 3.77578 9.94686 3.99557 8.92155 4.32861L6.86869 4.99541C5.18221 5.54321 3.9946 5.93034 3.18588 6.28833C2.78475 6.4659 2.53285 6.6128 2.37996 6.73335C2.27548 6.81574 2.24436 6.86433 2.23779 6.87682C2.18764 7.03888 2.18733 7.21228 2.2369 7.37452C2.24343 7.38703 2.27438 7.43573 2.37857 7.51849C2.53102 7.63958 2.78239 7.78738 3.18289 7.96638C3.88346 8.27948 4.86918 8.61554 6.2181 9.06073L8.15678 6.7503C8.51178 6.32722 9.14254 6.27204 9.56561 6.62704C9.98869 6.98204 10.0439 7.6128 9.68887 8.03587L7.75019 10.3463C8.42286 11.5974 8.92497 12.5098 9.35498 13.1454C9.6008 13.5087 9.79 13.7306 9.93573 13.8597C10.0353 13.9479 10.0887 13.97 10.1021 13.9742C10.2705 13.9949 10.4412 13.9644 10.5921 13.8869C10.6033 13.8783 10.6457 13.8392 10.7087 13.722C10.8009 13.5505 10.9018 13.2769 11.007 12.851C11.2191 11.9924 11.3942 10.7556 11.6408 8.99966L11.941 6.8622C12.0909 5.79464 12.1889 5.08453 12.1991 4.56084C12.2093 4.04153 12.1235 3.91397 12.0948 3.87772C12.0236 3.78786 11.9348 3.71341 11.834 3.65887C11.7933 3.63687 11.6528 3.5746 11.1431 3.67476ZM5.85648 11.0474C4.39484 10.5664 3.2188 10.1731 2.36683 9.79231C1.9013 9.58426 1.47677 9.35634 1.13462 9.08456C0.785989 8.80764 0.474897 8.44672 0.326819 7.96747C0.156642 7.4167 0.157691 6.82723 0.329828 6.27707C0.479612 5.79834 0.791985 5.43853 1.1416 5.16286C1.48471 4.8923 1.91006 4.6659 2.37632 4.4595C3.29096 4.05462 4.57794 3.6366 6.19027 3.11291L8.36423 2.40677C9.31285 2.09861 10.1108 1.8394 10.7574 1.71231C11.4221 1.58167 12.1298 1.54516 12.7853 1.89959C13.1244 2.08295 13.4227 2.33328 13.6622 2.63539C14.125 3.21936 14.212 3.92265 14.1987 4.5999C14.1859 5.2588 14.0691 6.08961 13.9304 7.07734L13.6125 9.34091C13.3767 11.0197 13.1885 12.3597 12.9486 13.3307C12.8263 13.8257 12.6772 14.2839 12.4704 14.6688C12.2596 15.061 11.9595 15.4311 11.514 15.6617C11.0021 15.9268 10.4218 16.0302 9.84985 15.9582C9.35216 15.8956 8.94271 15.6519 8.60946 15.3567C8.2824 15.0669 7.98422 14.6884 7.69849 14.2661C7.17556 13.4932 6.58395 12.4033 5.85648 11.0474Z" fill="white"/>
</svg>
