<svg width="14" height="14" viewBox="0 0 14 14" fill="none" xmlns="http://www.w3.org/2000/svg">
<path fill-rule="evenodd" clip-rule="evenodd" d="M8.05914 1H9.2742C9.75318 0.999976 10.177 0.999954 10.5271 1.03137C10.9007 1.0649 11.2863 1.14027 11.6546 1.35032C12.0694 1.58694 12.4131 1.93061 12.6497 2.34545C12.8597 2.7137 12.9351 3.09931 12.9686 3.47287C13.0001 3.82298 13 4.24682 13 4.72581V5.94087C13 6.41985 13.0001 6.84369 12.9686 7.1938C12.9351 7.56736 12.8597 7.95297 12.6497 8.32123C12.4131 8.73606 12.0694 9.07974 11.6546 9.31635C11.2863 9.5264 10.9007 9.60177 10.5271 9.6353C10.2758 9.65786 9.98645 9.66421 9.66599 9.66599C9.66421 9.98645 9.65786 10.2758 9.6353 10.5271C9.60177 10.9007 9.5264 11.2863 9.31635 11.6546C9.07974 12.0694 8.73606 12.4131 8.32123 12.6497C7.95297 12.8597 7.56736 12.9351 7.1938 12.9686C6.84369 13.0001 6.41985 13 5.94087 13H4.72581C4.24682 13 3.82298 13.0001 3.47287 12.9686C3.09931 12.9351 2.7137 12.8597 2.34545 12.6497C1.93061 12.4131 1.58694 12.0694 1.35032 11.6546C1.14027 11.2863 1.0649 10.9007 1.03137 10.5271C0.999954 10.177 0.999976 9.75318 1 9.2742V8.05914C0.999976 7.58016 0.999954 7.15632 1.03137 6.80621C1.0649 6.43264 1.14027 6.04703 1.35032 5.67878C1.58694 5.26395 1.93061 4.92027 2.34545 4.68365C2.7137 4.4736 3.09931 4.39823 3.47287 4.36471C3.72422 4.34215 4.01356 4.3358 4.33402 4.33402C4.3358 4.01356 4.34215 3.72422 4.36471 3.47287C4.39823 3.09931 4.4736 2.7137 4.68365 2.34545C4.92027 1.93061 5.26395 1.58694 5.67878 1.35032C6.04703 1.14027 6.43264 1.0649 6.80621 1.03137C7.15632 0.999954 7.58016 0.999976 8.05914 1ZM4.33403 6.33417C4.04009 6.33588 3.82571 6.34108 3.65164 6.3567C3.41527 6.37791 3.35197 6.41202 3.33636 6.42092C3.23266 6.48007 3.14674 6.56599 3.08758 6.6697C3.07868 6.6853 3.04458 6.7486 3.02337 6.98497C3.00094 7.23487 3 7.56782 3 8.1V9.23334C3 9.76552 3.00094 10.0985 3.02337 10.3484C3.04458 10.5847 3.07868 10.648 3.08758 10.6636C3.14674 10.7674 3.23266 10.8533 3.33636 10.9124C3.35197 10.9213 3.41527 10.9554 3.65164 10.9766C3.90154 10.9991 4.23449 11 4.76667 11H5.9C6.43218 11 6.76513 10.9991 7.01503 10.9766C7.2514 10.9554 7.31471 10.9213 7.33031 10.9124C7.43402 10.8533 7.51994 10.7674 7.57909 10.6636C7.58799 10.648 7.62209 10.5847 7.6433 10.3484C7.65893 10.1743 7.66412 9.95992 7.66583 9.66598C7.34598 9.66419 7.05715 9.65782 6.80621 9.6353C6.43264 9.60177 6.04703 9.5264 5.67878 9.31635C5.26395 9.07974 4.92027 8.73606 4.68365 8.32123C4.4736 7.95297 4.39823 7.56736 4.36471 7.1938C4.34219 6.94285 4.33582 6.65403 4.33403 6.33417ZM6.98497 3.02337C6.7486 3.04458 6.6853 3.07868 6.6697 3.08758C6.56599 3.14674 6.48007 3.23266 6.42092 3.33636C6.41202 3.35197 6.37791 3.41527 6.3567 3.65164C6.33428 3.90154 6.33334 4.23449 6.33334 4.76667V5.9C6.33334 6.43219 6.33428 6.76513 6.3567 7.01503C6.37791 7.2514 6.41202 7.31471 6.42092 7.33031C6.48007 7.43402 6.56599 7.51994 6.6697 7.57909C6.6853 7.58799 6.7486 7.62209 6.98497 7.6433C7.23487 7.66573 7.56782 7.66667 8.1 7.66667H9.23334C9.76552 7.66667 10.0985 7.66573 10.3484 7.6433C10.5847 7.62209 10.648 7.58799 10.6636 7.57909C10.7674 7.51994 10.8533 7.43402 10.9124 7.33031C10.9213 7.31471 10.9554 7.2514 10.9766 7.01503C10.9991 6.76513 11 6.43218 11 5.9V4.76667C11 4.23449 10.9991 3.90154 10.9766 3.65164C10.9554 3.41527 10.9213 3.35197 10.9124 3.33636C10.8533 3.23266 10.7674 3.14674 10.6636 3.08758C10.648 3.07868 10.5847 3.04458 10.3484 3.02337C10.0985 3.00094 9.76552 3 9.23334 3H8.1C7.56782 3 7.23487 3.00094 6.98497 3.02337Z" fill="white"/>
</svg>
