<svg width="16" height="16" viewBox="0 0 16 16" fill="none" xmlns="http://www.w3.org/2000/svg">
<path fill-rule="evenodd" clip-rule="evenodd" d="M14.0071 1.79289C14.3976 2.18342 14.3976 2.81658 14.0071 3.20711L13.2417 3.97251C13.5672 4.25232 13.8591 4.54302 14.1183 4.83104C14.7406 5.52251 15.1875 6.21059 15.4794 6.72574C15.6259 6.98431 15.735 7.20208 15.8088 7.35874C15.8458 7.43715 15.8741 7.50048 15.8939 7.54624C15.8957 7.55053 15.8975 7.55467 15.8992 7.55865L15.9009 7.56258C15.9054 7.57292 15.9093 7.58215 15.9127 7.59022C15.9144 7.59426 15.9159 7.59801 15.9174 7.60146L15.9245 7.61866L15.9269 7.62455L15.9282 7.62777C16.0235 7.86618 16.0235 8.13382 15.9282 8.37223L15.9269 8.37545L15.9245 8.38134L15.9174 8.39854C15.9116 8.41236 15.9038 8.43087 15.8939 8.45376C15.8741 8.49952 15.8458 8.56285 15.8088 8.64126C15.735 8.79792 15.6259 9.01569 15.4794 9.27426C15.1875 9.78941 14.7406 10.4775 14.1183 11.169C12.8723 12.5535 10.872 14 8.00002 14C6.49581 14 5.23073 13.6032 4.18789 13.0263L3.00709 14.2071C2.61657 14.5976 1.98341 14.5976 1.59288 14.2071C1.20236 13.8166 1.20236 13.1834 1.59288 12.7929L6.02523 8.36054C6.00512 8.24675 5.99463 8.12963 5.99463 8.01007C5.99463 6.9055 6.89006 6.01007 7.99463 6.01007C8.11419 6.01007 8.23131 6.02056 8.3451 6.04068L12.5929 1.79289C12.9834 1.40237 13.6166 1.40237 14.0071 1.79289ZM5.68106 11.5331C6.35364 11.8213 7.12353 12 8.00002 12C10.128 12 11.6278 10.9465 12.6317 9.83104C13.1344 9.27251 13.5 8.71059 13.7394 8.28824C13.7997 8.18177 13.8516 8.08487 13.8953 8C13.8516 7.91512 13.7997 7.81823 13.7394 7.71176C13.5 7.28941 13.1344 6.72749 12.6317 6.16896C12.3912 5.90167 12.1221 5.63793 11.8228 5.3914L9.87819 7.33601C9.95357 7.54661 9.99463 7.77355 9.99463 8.01007C9.99463 9.11464 9.0992 10.0101 7.99463 10.0101C7.75811 10.0101 7.53117 9.96901 7.32057 9.89364L5.68106 11.5331Z" fill="white"/>
<path fill-rule="evenodd" clip-rule="evenodd" d="M9.45597 2.12981C8.99801 2.04614 8.51291 2 8.00002 2C5.12804 2 3.12777 3.44654 1.88172 4.83104C1.2594 5.52251 0.812537 6.21059 0.520618 6.72574C0.374095 6.98431 0.265046 7.20208 0.191193 7.35874C0.154229 7.43715 0.125969 7.50048 0.106141 7.54624C0.0962238 7.56913 0.0884053 7.58764 0.082652 7.60146L0.0755627 7.61866L0.0731692 7.62455L0.0722587 7.62681L0.0718749 7.62777C-0.0234896 7.86618 -0.023826 8.13298 0.0715385 8.37139L0.0722587 8.37319L0.0731692 8.37545L0.0755627 8.38134L0.082652 8.39854C0.0884053 8.41236 0.0962238 8.43087 0.106141 8.45376C0.125969 8.49952 0.154229 8.56285 0.191193 8.64126C0.265046 8.79792 0.374095 9.01569 0.520618 9.27426C0.697148 9.58579 0.930339 9.96055 1.22473 10.3611L2.65909 8.92669C2.50032 8.69445 2.36783 8.47735 2.26066 8.28824C2.20033 8.18177 2.14842 8.08487 2.10473 8C2.14842 7.91512 2.20033 7.81823 2.26066 7.71176C2.49999 7.28941 2.86563 6.72749 3.36831 6.16896C4.30345 5.12992 5.66874 4.1447 7.57126 4.01453L9.45597 2.12981Z" fill="white"/>
</svg>
