<svg width="14" height="14" viewBox="0 0 14 14" fill="none" xmlns="http://www.w3.org/2000/svg">
<path fill-rule="evenodd" clip-rule="evenodd" d="M7.89834 1.01102C8.44452 1.09294 8.82086 1.60212 8.73894 2.14829L7.23894 12.1483C7.15701 12.6945 6.64783 13.0708 6.10166 12.9889C5.55549 12.907 5.17914 12.3978 5.26106 11.8516L6.76106 1.85161C6.84299 1.30544 7.35217 0.92909 7.89834 1.01102ZM9.53179 3.53174C9.92232 3.14122 10.5555 3.14122 10.946 3.53174L13.7071 6.29284C13.8946 6.48038 14 6.73473 14 6.99995C14 7.26516 13.8946 7.51952 13.7071 7.70706L10.946 10.4682C10.5555 10.8587 9.92232 10.8587 9.53179 10.4682C9.14127 10.0776 9.14127 9.44447 9.53179 9.05394L11.5858 6.99995L9.53179 4.94595C9.14127 4.55543 9.14127 3.92226 9.53179 3.53174ZM4.34743 3.65256C4.73795 4.04309 4.73795 4.67625 4.34743 5.06678L2.41421 6.99999L4.34743 8.93321C4.73795 9.32373 4.73795 9.9569 4.34743 10.3474C3.95691 10.7379 3.32374 10.7379 2.93322 10.3474L0.292893 7.7071C0.105357 7.51956 0 7.26521 0 6.99999C5.96046e-08 6.73477 0.105357 6.48042 0.292893 6.29288L2.93322 3.65256C3.32374 3.26204 3.95691 3.26204 4.34743 3.65256Z" fill="white"/>
</svg>
