<svg width="14" height="14" viewBox="0 0 14 14" fill="none" xmlns="http://www.w3.org/2000/svg">
<path fill-rule="evenodd" clip-rule="evenodd" d="M9.97288 1.8C9.9853 1.8 9.99769 1.8 10.01 1.8H10.99C11.0023 1.8 11.0147 1.8 11.0272 1.8C11.2569 1.79993 11.502 1.79986 11.7113 1.82253C11.9506 1.84846 12.2584 1.91333 12.5492 2.12467C12.6936 2.22953 12.8205 2.35645 12.9253 2.50077C13.1367 2.79165 13.2016 3.09938 13.2275 3.33871C13.2502 3.548 13.2501 3.79317 13.25 4.02287C13.25 4.0353 13.25 4.04768 13.25 4.06V11.2C13.25 11.7523 12.8023 12.2 12.25 12.2H1.75001C1.19773 12.2 0.750014 11.7523 0.750014 11.2V9.66C0.750014 9.64767 0.750011 9.63529 0.750007 9.62287C0.74994 9.39316 0.749869 9.14799 0.772543 8.93871C0.798473 8.69938 0.863347 8.39165 1.07469 8.10077C1.17954 7.95644 1.30646 7.82953 1.45078 7.72467C1.74166 7.51333 2.04939 7.44846 2.28872 7.42253C2.498 7.39986 2.74317 7.39993 2.97287 7.39999C2.9853 7.4 2.99768 7.4 3.01001 7.4H3.99001C4.00234 7.4 4.01473 7.4 4.02716 7.39999C4.10042 7.39997 4.17527 7.39995 4.25001 7.40067V6.86C4.25001 6.84767 4.25001 6.83529 4.25001 6.82287C4.24994 6.59316 4.24987 6.34799 4.27254 6.13871C4.29847 5.89938 4.36335 5.59165 4.57469 5.30077C4.67954 5.15645 4.80646 5.02953 4.95078 4.92467C5.24166 4.71333 5.54939 4.64846 5.78872 4.62253C5.998 4.59986 6.24317 4.59993 6.47288 4.6C6.4853 4.6 6.49769 4.6 6.51001 4.6H7.49001C7.50234 4.6 7.51472 4.6 7.52715 4.6C7.60042 4.59997 7.67526 4.59995 7.75001 4.60067V4.06C7.75001 4.04767 7.75001 4.03529 7.75001 4.02286C7.74994 3.79316 7.74987 3.54799 7.77254 3.33871C7.79847 3.09938 7.86335 2.79165 8.07469 2.50077C8.17954 2.35645 8.30646 2.22953 8.45078 2.12467C8.74166 1.91333 9.04939 1.84846 9.28872 1.82253C9.49801 1.79986 9.74318 1.79993 9.97288 1.8ZM9.75001 6.86V10.2H11.25V4.06C11.25 3.95835 11.25 3.87426 11.2492 3.80083C11.1758 3.80003 11.0917 3.8 10.99 3.8H10.01C9.90837 3.8 9.82428 3.80003 9.75085 3.80083C9.75004 3.87426 9.75001 3.95836 9.75001 4.06V6.74708C9.75004 6.77249 9.75003 6.79777 9.75002 6.82287C9.75002 6.8353 9.75001 6.84768 9.75001 6.86ZM7.75001 10.2V6.86C7.75001 6.75836 7.74999 6.67426 7.74918 6.60083C7.67575 6.60003 7.59166 6.6 7.49001 6.6H6.51001C6.40837 6.6 6.32428 6.60003 6.25085 6.60083C6.25004 6.67426 6.25001 6.75835 6.25001 6.86V9.54707C6.25004 9.57248 6.25003 9.59776 6.25002 9.62286C6.25002 9.63529 6.25001 9.64767 6.25001 9.66V10.2H7.75001ZM4.25001 10.2V9.66C4.25001 9.55835 4.24999 9.47426 4.24918 9.40083C4.17575 9.40003 4.09166 9.4 3.99001 9.4H3.01001C2.90837 9.4 2.82428 9.40003 2.75085 9.40083C2.75004 9.47426 2.75001 9.55835 2.75001 9.66V10.2H4.25001Z" fill="white"/>
</svg>
