<svg width="20" height="20" viewBox="0 0 20 20" fill="none" xmlns="http://www.w3.org/2000/svg">
<path fill-rule="evenodd" clip-rule="evenodd" d="M13 4.5C12.1716 4.5 11.5 5.17157 11.5 6C11.5 6.82843 12.1716 7.5 13 7.5C13.8284 7.5 14.5 6.82843 14.5 6C14.5 5.17157 13.8284 4.5 13 4.5ZM9.64494 5C10.0752 3.55426 11.4145 2.5 13 2.5C14.5855 2.5 15.9248 3.55426 16.3551 5L18 5C18.5523 5 19 5.44771 19 6C19 6.55228 18.5523 7 18 7L16.3551 7C15.9248 8.44575 14.5855 9.5 13 9.5C11.4145 9.5 10.0752 8.44574 9.64494 7L2 7C1.44772 7 1 6.55228 1 6C1 5.44771 1.44772 5 2 5L9.64494 5ZM7 12.5C6.17157 12.5 5.5 13.1716 5.5 14C5.5 14.8284 6.17157 15.5 7 15.5C7.82843 15.5 8.5 14.8284 8.5 14C8.5 13.1716 7.82843 12.5 7 12.5ZM3.64494 13C4.07521 11.5543 5.41449 10.5 7 10.5C8.58551 10.5 9.92479 11.5543 10.3551 13H18C18.5523 13 19 13.4477 19 14C19 14.5523 18.5523 15 18 15H10.3551C9.92479 16.4457 8.58551 17.5 7 17.5C5.41449 17.5 4.07521 16.4457 3.64494 15L2 15C1.44772 15 1 14.5523 1 14C1 13.4477 1.44771 13 2 13L3.64494 13Z" fill="white"/>
</svg>
