<svg width="16" height="16" viewBox="0 0 16 16" fill="none" xmlns="http://www.w3.org/2000/svg">
<path fill-rule="evenodd" clip-rule="evenodd" d="M6.06928 1.00171L6.63795 1.00171C7.19023 1.00171 7.63795 1.44943 7.63795 2.00171C7.63795 2.554 7.19023 3.00171 6.63795 3.00171H6.12366C5.13717 3.00171 4.47762 3.00308 3.97739 3.05728C3.49588 3.10945 3.28194 3.20077 3.14285 3.30183C3.00945 3.39875 2.89213 3.51607 2.7952 3.64948C2.69415 3.78857 2.60283 4.0025 2.55066 4.48401C2.49646 4.98425 2.49509 5.64379 2.49509 6.63028V9.37314C2.49509 10.3596 2.49646 11.0192 2.55066 11.5194C2.60283 12.0009 2.69415 12.2149 2.7952 12.3539C2.89213 12.4874 3.00945 12.6047 3.14285 12.7016C3.28195 12.8026 3.49588 12.894 3.97739 12.9461C4.47762 13.0003 5.13717 13.0017 6.12366 13.0017H6.63795C7.19023 13.0017 7.63795 13.4494 7.63795 14.0017C7.63795 14.554 7.19023 15.0017 6.63795 15.0017L6.06929 15.0017C5.1514 15.0017 4.38272 15.0018 3.76197 14.9345C3.11028 14.8639 2.50413 14.7097 1.96728 14.3196C1.66409 14.0993 1.39745 13.8327 1.17717 13.5295C0.787127 12.9927 0.6329 12.3865 0.562294 11.7348C0.49504 11.1141 0.495062 10.3454 0.495088 9.42752V6.5759C0.495062 5.65802 0.49504 4.88934 0.562294 4.26859C0.6329 3.6169 0.787127 3.01076 1.17717 2.47391C1.39745 2.17071 1.66409 1.90408 1.96728 1.68379C2.50413 1.29375 3.11028 1.13952 3.76197 1.06892C4.38272 1.00166 5.1514 1.00168 6.06928 1.00171ZM9.51209 3.00892C9.90262 2.61839 10.5358 2.61839 10.9263 3.00892L15.212 7.29463C15.6025 7.68515 15.6025 8.31832 15.212 8.70884L10.9263 12.9946C10.5358 13.3851 9.90262 13.3851 9.51209 12.9946C9.12157 12.604 9.12157 11.9709 9.51209 11.5803L12.0907 9.00174H6.7808C6.22852 9.00174 5.7808 8.55402 5.7808 8.00174C5.7808 7.44945 6.22852 7.00174 6.7808 7.00174H12.0907L9.51209 4.42313C9.12157 4.03261 9.12157 3.39944 9.51209 3.00892Z" fill="white"/>
</svg>
