<svg width="20" height="20" viewBox="0 0 20 20" fill="none" xmlns="http://www.w3.org/2000/svg">
<path fill-rule="evenodd" clip-rule="evenodd" d="M11.2675 1.87661C11.8091 1.98492 12.1603 2.51174 12.052 3.0533L9.19486 17.339C9.08655 17.8806 8.55973 18.2318 8.01817 18.1235C7.47661 18.0152 7.12539 17.4883 7.2337 16.9468L10.0908 2.66107C10.1992 2.11951 10.726 1.76829 11.2675 1.87661ZM6.42138 5.00722C6.8119 5.39775 6.8119 6.03091 6.42138 6.42144L2.84277 10L6.42138 13.5787C6.8119 13.9692 6.8119 14.6023 6.42138 14.9929C6.03086 15.3834 5.39769 15.3834 5.00717 14.9929L0.721452 10.7072C0.533915 10.5196 0.428558 10.2653 0.428558 10C0.428558 9.73483 0.533915 9.48047 0.721452 9.29294L5.00717 5.00722C5.39769 4.6167 6.03086 4.6167 6.42138 5.00722ZM13.5786 5.00722C13.9691 4.6167 14.6023 4.6167 14.9928 5.00722L19.2785 9.29294C19.4661 9.48047 19.5714 9.73483 19.5714 10C19.5714 10.2653 19.4661 10.5196 19.2785 10.7072L14.9928 14.9929C14.6023 15.3834 13.9691 15.3834 13.5786 14.9929C13.1881 14.6023 13.1881 13.9692 13.5786 13.5787L17.1572 10L13.5786 6.42144C13.1881 6.03091 13.1881 5.39775 13.5786 5.00722Z" fill="white"/>
</svg>
