<svg width="20" height="20" viewBox="0 0 20 20" fill="none" xmlns="http://www.w3.org/2000/svg">
<path fill-rule="evenodd" clip-rule="evenodd" d="M0 5.5C0 3.70508 1.45507 2.25 3.25 2.25H14.5C16.2949 2.25 17.75 3.70507 17.75 5.5V5.78175C19.0556 6.20353 20 7.42898 20 8.875V11.125C20 12.571 19.0556 13.7965 17.75 14.2183V14.5C17.75 16.2949 16.2949 17.75 14.5 17.75H3.25C1.45507 17.75 0 16.2949 0 14.5V5.5ZM15.75 14.375H13.375C10.9588 14.375 9 12.4162 9 10C9 7.58375 10.9588 5.625 13.375 5.625L15.75 5.625V5.5C15.75 4.80964 15.1904 4.25 14.5 4.25H3.25C2.55964 4.25 2 4.80964 2 5.5V14.5C2 15.1904 2.55964 15.75 3.25 15.75H14.5C15.1904 15.75 15.75 15.1904 15.75 14.5V14.375ZM13.375 7.625C12.0633 7.625 11 8.68832 11 10C11 11.3117 12.0633 12.375 13.375 12.375H16.75C17.4404 12.375 18 11.8154 18 11.125V8.875C18 8.18464 17.4404 7.625 16.75 7.625H13.375Z" fill="white"/>
</svg>
