<svg width="14" height="14" viewBox="0 0 14 14" fill="none" xmlns="http://www.w3.org/2000/svg">
<path fill-rule="evenodd" clip-rule="evenodd" d="M8.69605 1.94C7.91271 0.686667 6.08739 0.686665 5.30405 1.94L0.412548 9.76641C-0.420012 11.0985 0.537674 12.8264 2.10855 12.8264H11.8916C13.4624 12.8264 14.4201 11.0985 13.5876 9.76641L8.69605 1.94ZM7.00012 3.74646C7.55241 3.74646 8.00012 4.19418 8.00012 4.74646V6.91313C8.00012 7.46541 7.55241 7.91313 7.00012 7.91313C6.44784 7.91313 6.00012 7.46541 6.00012 6.91313V4.74646C6.00012 4.19418 6.44784 3.74646 7.00012 3.74646ZM7.00008 11.2465C7.59839 11.2465 8.08341 10.7615 8.08341 10.1632C8.08341 9.56486 7.59839 9.07983 7.00008 9.07983C6.40177 9.07983 5.91675 9.56486 5.91675 10.1632C5.91675 10.7615 6.40177 11.2465 7.00008 11.2465Z" fill="white"/>
</svg>
