<svg width="16" height="16" viewBox="0 0 16 16" fill="none" xmlns="http://www.w3.org/2000/svg">
<path d="M10.8214 0C10.8846 0.812787 10.6236 1.61783 10.0936 2.24415C9.8399 2.55489 9.51784 2.80489 9.15174 2.97531C8.78564 3.14574 8.38504 3.23215 7.9801 3.22805C7.95426 2.83719 8.00692 2.44515 8.13507 2.07434C8.26321 1.70353 8.46433 1.36122 8.72692 1.06698C9.26399 0.464682 10.0118 0.08372 10.8214 0Z" fill="white"/>
<path d="M12.2989 5.9157C12.0299 6.38242 11.8851 6.90857 11.8781 7.44518C11.8788 8.04879 12.0599 8.63885 12.3989 9.1418C12.7378 9.64474 13.2197 10.0383 13.7843 10.2734C13.5623 10.9835 13.2277 11.6545 12.7928 12.2617C12.2088 13.1218 11.5965 13.9621 10.6246 13.9777C10.1624 13.9882 9.85036 13.8573 9.52524 13.7209C9.18612 13.5787 8.83273 13.4305 8.27974 13.4305C7.69327 13.4305 7.32406 13.5835 6.96797 13.731C6.66025 13.8585 6.36233 13.982 5.94246 13.9991C5.0169 14.0329 4.30954 13.0811 3.70429 12.229C2.49457 10.4889 1.55259 7.32511 2.81545 5.17238C3.10699 4.65658 3.52925 4.22392 4.04111 3.91657C4.55297 3.60923 5.13696 3.43766 5.73618 3.4186C6.26112 3.40797 6.76484 3.60718 7.20647 3.78183C7.54421 3.9154 7.84563 4.0346 8.09246 4.0346C8.30943 4.0346 8.60244 3.9201 8.94392 3.78666C9.48184 3.57647 10.14 3.31927 10.8107 3.38859C11.3248 3.40442 11.828 3.53805 12.2804 3.77885C12.7328 4.01965 13.1219 4.361 13.4169 4.77578C12.9526 5.05684 12.568 5.44898 12.2989 5.9157Z" fill="white"/>
</svg>
