<svg width="16" height="16" viewBox="0 0 16 16" fill="none" xmlns="http://www.w3.org/2000/svg">
<path fill-rule="evenodd" clip-rule="evenodd" d="M3.69947 0.304612C4.09 -0.0859123 4.72316 -0.0859123 5.11368 0.304612L8.52832 3.71925C8.91884 4.10977 8.91884 4.74294 8.52832 5.13346C8.13779 5.52398 7.50463 5.52398 7.11411 5.13346L5.40658 3.42593V9.88977C5.40658 10.4421 4.95886 10.8898 4.40658 10.8898C3.85429 10.8898 3.40658 10.4421 3.40658 9.88977V3.42593L1.69905 5.13346C1.30853 5.52398 0.675361 5.52398 0.284837 5.13346C-0.105688 4.74294 -0.105688 4.10977 0.284837 3.71925L3.69947 0.304612ZM11.5773 5.10928C12.1296 5.10928 12.5773 5.557 12.5773 6.10928L12.5773 12.5731L14.2848 10.8656C14.6754 10.4751 15.3085 10.4751 15.699 10.8656C16.0896 11.2561 16.0896 11.8893 15.699 12.2798L12.2844 15.6944C12.0969 15.882 11.8425 15.9873 11.5773 15.9873C11.3121 15.9873 11.0577 15.882 10.8702 15.6944L7.45557 12.2798C7.06504 11.8893 7.06504 11.2561 7.45557 10.8656C7.84609 10.4751 8.47926 10.4751 8.86978 10.8656L10.5773 12.5731L10.5773 6.10928C10.5773 5.557 11.025 5.10928 11.5773 5.10928Z" fill="white"/>
</svg>
