<svg width="16" height="16" viewBox="0 0 16 16" fill="none" xmlns="http://www.w3.org/2000/svg">
<path fill-rule="evenodd" clip-rule="evenodd" d="M9.00545 1.29678C9.55162 1.37871 9.92797 1.88789 9.84604 2.43406L8.13176 13.8626C8.04983 14.4088 7.54066 14.7852 6.99448 14.7032C6.44831 14.6213 6.07196 14.1121 6.15389 13.566L7.86817 2.13738C7.9501 1.5912 8.45927 1.21486 9.00545 1.29678ZM10.9945 4.13735C11.385 3.74682 12.0181 3.74682 12.4087 4.13735L15.5642 7.29289C15.9547 7.68342 15.9547 8.31658 15.5642 8.70711L12.4087 11.8626C12.0181 12.2532 11.385 12.2532 10.9945 11.8626C10.6039 11.4721 10.6039 10.839 10.9945 10.4484L13.4429 8L10.9945 5.55156C10.6039 5.16104 10.6039 4.52787 10.9945 4.13735ZM4.86744 4.27543C5.25797 4.66596 5.25797 5.29912 4.86744 5.68964L2.55704 8.00005L4.86744 10.3105C5.25797 10.701 5.25797 11.3341 4.86744 11.7247C4.47692 12.1152 3.84375 12.1152 3.45323 11.7247L0.435715 8.70716C0.0451911 8.31663 0.0451913 7.68347 0.435716 7.29294L3.45323 4.27543C3.84375 3.88491 4.47692 3.88491 4.86744 4.27543Z" fill="white"/>
</svg>
