<svg width="16" height="16" viewBox="0 0 16 16" fill="none" xmlns="http://www.w3.org/2000/svg">
<path d="M4.25146 7.0026C3.90597 7.0026 3.62166 7.287 3.62166 7.63321L3.62226 11.6035C3.62226 11.8759 3.42432 12.1111 3.1526 12.1357C2.8443 12.1729 2.59718 12.1975 2.39924 12.2101C2.02855 12.2473 1.68246 12.0619 1.49712 11.7403C1.26259 11.3323 1.06465 10.9117 0.916499 10.4665C-0.442077 6.55739 1.63328 2.27808 5.53746 0.91725C9.44164 -0.443583 13.7159 1.63487 15.0751 5.54336C15.1986 5.88957 15.1369 6.26098 14.9143 6.54539C14.173 7.51021 13.2337 8.31423 12.3195 8.98205V4.44233C12.3195 4.08353 12.0352 3.79912 11.6891 3.79912H10.6269C10.2808 3.79912 9.99647 4.09613 9.99647 4.44233V9.94627C9.99647 10.1695 9.87291 10.3549 9.67497 10.4413C9.41585 10.5523 9.15613 10.6639 9.15613 10.6639V6.04977C9.15613 5.69097 8.85983 5.40656 8.51373 5.40656H7.45146C7.09338 5.40656 6.80906 5.70357 6.80906 6.04977V11.0221C6.80906 11.2699 6.63572 11.4799 6.40119 11.5417C6.22784 11.5789 6.07969 11.6161 5.95613 11.6533V7.64581C5.95613 7.287 5.65982 7.0026 5.31373 7.0026H4.25146Z" fill="white"/>
<path d="M14.0608 12.4081C11.6274 15.7598 6.94462 16.502 3.59646 14.0654C7.68599 13.484 12.7394 11.5669 15.4692 7.47301L15.4709 7.49812C15.4823 7.6631 15.4938 7.82759 15.4938 7.99262C15.4938 9.57546 14.9875 11.1217 14.0608 12.4081Z" fill="white"/>
</svg>
