<svg width="20" height="20" viewBox="0 0 20 20" fill="none" xmlns="http://www.w3.org/2000/svg">
<path fill-rule="evenodd" clip-rule="evenodd" d="M10 3C7.28154 3 4.92324 4.5494 3.76317 6.8179C3.27553 7.77149 3 8.85212 3 10C3 10.4933 3.05089 10.9743 3.14767 11.4381L11.438 3.14775C10.9739 3.05089 10.4929 3 10 3ZM13.486 3.92818L3.92821 13.486C4.24718 14.0402 4.64003 14.5469 5.09333 14.9925L14.9925 5.0933C14.5469 4.6399 14.0403 4.24712 13.486 3.92818ZM16.1887 6.72549L6.72549 16.1887C7.70223 16.7068 8.81609 17 10 17C12.6005 17 14.8712 15.5824 16.0792 13.4731C16.6649 12.4504 17 11.2659 17 10C17 8.81609 16.7068 7.70223 16.1887 6.72549ZM1.98249 5.90731C3.47111 2.99632 6.50156 1 10 1C12.9161 1 15.5084 2.38793 17.1514 4.53509C18.3107 6.05016 19 7.94601 19 10C19 11.6237 18.5691 13.1498 17.8148 14.467C16.265 17.1731 13.3464 19 10 19C7.94601 19 6.05016 18.3107 4.53509 17.1514C3.58208 16.4221 2.77905 15.5065 2.1803 14.4584C1.429 13.1431 1 11.6202 1 10C1 8.52823 1.35404 7.13624 1.98249 5.90731Z" fill="white"/>
</svg>
