<svg width="16" height="16" viewBox="0 0 16 16" fill="none" xmlns="http://www.w3.org/2000/svg">
<path d="M8.50883 1.5V0.5V1.5ZM9.78961 1.59789L9.48059 2.54894L9.78961 1.59789ZM11.0544 2.55442L11.7615 1.84731V1.84731L11.0544 2.55442ZM10.0796 1.71799L9.62556 2.60899L10.0796 1.71799ZM3.82443 14.118L3.23664 14.9271H3.23664L3.82443 14.118ZM3.38197 13.6756L2.57295 14.2634H2.57295L3.38197 13.6756ZM12.1756 14.118L12.7634 14.9271L12.1756 14.118ZM12.618 13.6756L13.4271 14.2634V14.2634L12.618 13.6756ZM12.9021 4.71039L13.8532 4.40138L12.9021 4.71039ZM11.9456 3.44558L11.2385 4.15269V4.15269L11.9456 3.44558ZM12.782 4.42045L13.673 3.96646L12.782 4.42045ZM3.38197 2.32443L2.57295 1.73664L2.57295 1.73664L3.38197 2.32443ZM6.6 1.5V2.5V1.5ZM3.82443 1.88197L3.23664 1.07295L3.82443 1.88197ZM6 10C5.44772 10 5 10.4477 5 11C5 11.5523 5.44772 12 6 12V10ZM9.5 12C10.0523 12 10.5 11.5523 10.5 11C10.5 10.4477 10.0523 10 9.5 10V12ZM6 7.25C5.44772 7.25 5 7.69772 5 8.25C5 8.80228 5.44772 9.25 6 9.25V7.25ZM8 9.25C8.55228 9.25 9 8.80228 9 8.25C9 7.69772 8.55228 7.25 8 7.25V9.25ZM9.82443 5.11803L9.23664 5.92705L9.82443 5.11803ZM9.38197 4.67557L10.191 4.08779V4.08779L9.38197 4.67557ZM9.4 13.5H6.6V15.5H9.4V13.5ZM4 10.9V5.1H2V10.9H4ZM12 5.99117V10.9H14V5.99117H12ZM6.6 2.5H8.50883V0.5H6.6V2.5ZM10.3473 3.26152L11.2385 4.15269L12.6527 2.73848L11.7615 1.84731L10.3473 3.26152ZM8.50883 2.5C9.22609 2.5 9.36499 2.51138 9.48059 2.54894L10.0986 0.646831C9.61169 0.488617 9.09759 0.5 8.50883 0.5V2.5ZM11.7615 1.84731C11.3452 1.431 10.9897 1.05942 10.5335 0.826981L9.62556 2.60899C9.73386 2.66418 9.84013 2.75434 10.3473 3.26152L11.7615 1.84731ZM9.48059 2.54894C9.53041 2.56513 9.57889 2.58521 9.62556 2.60899L10.5335 0.826981C10.3935 0.755631 10.2481 0.695396 10.0986 0.646831L9.48059 2.54894ZM6.6 13.5C5.82778 13.5 5.32894 13.4986 4.95462 13.4581C4.59901 13.4195 4.4762 13.3555 4.41221 13.309L3.23664 14.9271C3.69839 15.2625 4.21342 15.3895 4.73919 15.4464C5.24625 15.5014 5.87233 15.5 6.6 15.5V13.5ZM2 10.9C2 11.6277 1.99863 12.2538 2.05356 12.7608C2.11053 13.2866 2.23747 13.8016 2.57295 14.2634L4.19098 13.0878C4.14449 13.0238 4.08046 12.901 4.04193 12.5454C4.00137 12.1711 4 11.6722 4 10.9H2ZM4.41221 13.309C4.32732 13.2473 4.25266 13.1727 4.19098 13.0878L2.57295 14.2634C2.75799 14.518 2.98196 14.742 3.23664 14.9271L4.41221 13.309ZM9.4 15.5C10.1277 15.5 10.7538 15.5014 11.2608 15.4464C11.7866 15.3895 12.3016 15.2625 12.7634 14.9271L11.5878 13.309C11.5238 13.3555 11.401 13.4195 11.0454 13.4581C10.6711 13.4986 10.1722 13.5 9.4 13.5V15.5ZM12 10.9C12 11.6722 11.9986 12.1711 11.9581 12.5454C11.9195 12.901 11.8555 13.0238 11.809 13.0878L13.4271 14.2634C13.7625 13.8016 13.8895 13.2866 13.9464 12.7608C14.0014 12.2538 14 11.6277 14 10.9H12ZM12.7634 14.9271C13.018 14.742 13.242 14.518 13.4271 14.2634L11.809 13.0878C11.7473 13.1727 11.6727 13.2473 11.5878 13.309L12.7634 14.9271ZM14 5.99117C14 5.40241 14.0114 4.88831 13.8532 4.40138L11.9511 5.01941C11.9886 5.13501 12 5.27391 12 5.99117H14ZM11.2385 4.15269C11.7457 4.65987 11.8358 4.76614 11.891 4.87444L13.673 3.96646C13.4406 3.51027 13.069 3.15479 12.6527 2.73848L11.2385 4.15269ZM13.8532 4.40138C13.8046 4.25191 13.7444 4.10649 13.673 3.96646L11.891 4.87444C11.9148 4.92111 11.9349 4.96959 11.9511 5.01941L13.8532 4.40138ZM4 5.1C4 4.32778 4.00137 3.82894 4.04193 3.45462C4.08046 3.09901 4.14449 2.9762 4.19098 2.91221L2.57295 1.73664C2.23747 2.19839 2.11053 2.71342 2.05356 3.23919C1.99863 3.74625 2 4.37233 2 5.1H4ZM6.6 0.5C5.87233 0.5 5.24625 0.498627 4.73919 0.553564C4.21342 0.610528 3.69839 0.737471 3.23664 1.07295L4.41221 2.69098C4.4762 2.64449 4.59901 2.58046 4.95462 2.54193C5.32894 2.50137 5.82778 2.5 6.6 2.5V0.5ZM4.19098 2.91221C4.25266 2.82732 4.32732 2.75266 4.41221 2.69098L3.23664 1.07295C2.98196 1.25799 2.75799 1.48196 2.57295 1.73664L4.19098 2.91221ZM6 12H9.5V10H6V12ZM6 9.25H8V7.25H6V9.25ZM13 4.5H12.6V6.5H13V4.5ZM10 1.9V1.5H8V1.9H10ZM12.6 4.5C11.8278 4.5 11.3289 4.49863 10.9546 4.45807C10.599 4.41954 10.4762 4.35551 10.4122 4.30902L9.23664 5.92705C9.69839 6.26253 10.2134 6.38947 10.7392 6.44644C11.2462 6.50137 11.8723 6.5 12.6 6.5V4.5ZM8 1.9C8 2.62767 7.99863 3.25375 8.05356 3.76081C8.11053 4.28658 8.23747 4.80161 8.57295 5.26336L10.191 4.08779C10.1445 4.0238 10.0805 3.90099 10.0419 3.54538C10.0014 3.17106 10 2.67222 10 1.9H8ZM10.4122 4.30902C10.3273 4.24734 10.2527 4.17268 10.191 4.08779L8.57295 5.26336C8.75799 5.51804 8.98196 5.74201 9.23664 5.92705L10.4122 4.30902Z" fill="white"/>
<path fill-rule="evenodd" clip-rule="evenodd" d="M10.0069 2.92537C10.0126 3.16918 10.023 3.37082 10.0419 3.54538C10.0805 3.90099 10.1445 4.0238 10.191 4.08778C10.2527 4.17268 10.3273 4.24733 10.4122 4.30901C10.4762 4.3555 10.599 4.41954 10.9546 4.45807C11.1292 4.47698 11.3308 4.48737 11.5746 4.49308C11.4896 4.40512 11.3804 4.29459 11.2385 4.15269L10.3473 3.26152C10.2054 3.11961 10.0949 3.01035 10.0069 2.92537ZM12 6.49898C11.5234 6.49616 11.101 6.48563 10.7392 6.44643C10.2134 6.38947 9.69839 6.26253 9.23664 5.92705C8.98196 5.74201 8.75799 5.51804 8.57295 5.26335C8.23747 4.80161 8.11053 4.28658 8.05356 3.76081C8.01437 3.39902 8.00383 2.97664 8.00102 2.5H6.6C5.82778 2.5 5.32894 2.50137 4.95462 2.54192C4.59901 2.58045 4.4762 2.64449 4.41221 2.69098C4.32732 2.75266 4.25266 2.82732 4.19098 2.91221C4.14449 2.9762 4.08045 3.09901 4.04193 3.45461C4.00137 3.82894 4 4.32778 4 5.1V10.9C4 11.6722 4.00137 12.1711 4.04193 12.5454C4.08045 12.901 4.14449 13.0238 4.19098 13.0878C4.25266 13.1727 4.32732 13.2473 4.41221 13.309C4.4762 13.3555 4.59901 13.4195 4.95462 13.4581C5.32894 13.4986 5.82778 13.5 6.6 13.5H9.4C10.1722 13.5 10.6711 13.4986 11.0454 13.4581C11.401 13.4195 11.5238 13.3555 11.5878 13.309C11.6727 13.2473 11.7473 13.1727 11.809 13.0878C11.8555 13.0238 11.9195 12.901 11.9581 12.5454C11.9986 12.1711 12 11.6722 12 10.9V6.49898ZM8.6199 0.499906C9.16265 0.499235 9.64256 0.498643 10.0986 0.646828C10.2481 0.695393 10.3935 0.755628 10.5335 0.826978C10.9608 1.04468 11.2997 1.38445 11.6831 1.76871C11.709 1.79471 11.7351 1.82092 11.7615 1.84731L12.6527 2.73847C12.6791 2.76486 12.7053 2.791 12.7313 2.81694C13.1155 3.20025 13.4553 3.53918 13.673 3.96645C13.7444 4.10648 13.8046 4.2519 13.8532 4.40137C14.0014 4.85744 14.0008 5.33735 14.0001 5.8801C14 5.91683 14 5.95385 14 5.99117L14 10.9519C14 11.6575 14.0001 12.2659 13.9464 12.7608C13.8895 13.2866 13.7625 13.8016 13.4271 14.2634C13.242 14.518 13.018 14.742 12.7634 14.927C12.3016 15.2625 11.7866 15.3895 11.2608 15.4464C10.7659 15.5001 10.1575 15.5 9.45194 15.5H6.54806C5.8425 15.5 5.23414 15.5001 4.73919 15.4464C4.21342 15.3895 3.69839 15.2625 3.23664 14.927C2.98196 14.742 2.75799 14.518 2.57295 14.2634C2.23747 13.8016 2.11053 13.2866 2.05356 12.7608C1.99994 12.2659 1.99997 11.6575 2 10.9519L2 5.1C2 5.08262 2 5.06531 2 5.04805C1.99997 4.3425 1.99994 3.73414 2.05356 3.23919C2.11053 2.71341 2.23747 2.19839 2.57295 1.73664C2.75799 1.48196 2.98196 1.25798 3.23664 1.07295C3.69839 0.737468 4.21342 0.610525 4.73919 0.553561C5.23414 0.499936 5.8425 0.499964 6.54805 0.499995C6.56531 0.499996 6.58263 0.499997 6.6 0.499997H8.50883C8.54615 0.499997 8.58317 0.499951 8.6199 0.499906ZM5 8.25C5 7.69771 5.44771 7.25 6 7.25H8C8.55228 7.25 9 7.69771 9 8.25C9 8.80228 8.55228 9.25 8 9.25H6C5.44771 9.25 5 8.80228 5 8.25ZM5 11C5 10.4477 5.44771 10 6 10H9.5C10.0523 10 10.5 10.4477 10.5 11C10.5 11.5523 10.0523 12 9.5 12H6C5.44771 12 5 11.5523 5 11Z" fill="white"/>
</svg>
