<svg width="14" height="14" viewBox="0 0 14 14" fill="none" xmlns="http://www.w3.org/2000/svg">
<path fill-rule="evenodd" clip-rule="evenodd" d="M6.7119 2C6.39597 2 6.13985 2.25611 6.13985 2.57205C6.13985 3.12424 5.69228 3.57192 5.14009 3.57205C4.55867 3.57219 4.18292 3.57527 3.89944 3.6029C3.62947 3.6292 3.53082 3.67136 3.48267 3.69883C3.33254 3.78446 3.20816 3.90883 3.12253 4.05896C3.08134 4.13118 3.03172 4.26894 3.00955 4.7261C4.32337 4.84138 5.35383 5.94445 5.35383 7.2882C5.35383 8.63195 4.32337 9.73502 3.00956 9.8503C3.03173 10.3075 3.08134 10.4452 3.12253 10.5174C3.20816 10.6676 3.33254 10.7919 3.48267 10.8776C3.55489 10.9188 3.69264 10.9684 4.1498 10.9905C4.26509 9.67673 5.36816 8.64628 6.7119 8.64628C8.05565 8.64628 9.15872 9.67673 9.27401 10.9905C9.73116 10.9684 9.86892 10.9188 9.94114 10.8776C10.0913 10.7919 10.2156 10.6676 10.3013 10.5174C10.3287 10.4693 10.3709 10.3706 10.3972 10.1007C10.4248 9.81718 10.4279 9.44144 10.4281 8.86001C10.4282 8.30782 10.8759 7.86025 11.4281 7.86025C11.744 7.86025 12.0001 7.60414 12.0001 7.2882C12.0001 6.97227 11.744 6.71615 11.4281 6.71615C10.8759 6.71615 10.4282 6.26858 10.4281 5.71639C10.4279 5.13496 10.4248 4.75922 10.3972 4.47574C10.3709 4.20577 10.3287 4.10712 10.3013 4.05896C10.2156 3.90884 10.0913 3.78446 9.94114 3.69883C9.89299 3.67136 9.79434 3.6292 9.52437 3.6029C9.24088 3.57527 8.86514 3.57219 8.28371 3.57205C7.73152 3.57192 7.28395 3.12424 7.28395 2.57205C7.28395 2.25612 7.02784 2 6.7119 2ZM5.15251 12.9946C5.69979 12.9876 6.13981 12.542 6.13983 11.9947L6.13985 11.2183C6.13985 10.9024 6.39597 10.6463 6.7119 10.6463C7.02784 10.6463 7.28395 10.9024 7.28395 11.2183L7.28393 11.9942C7.28391 12.5401 7.72175 12.9856 8.26761 12.9945L8.29307 12.9949L8.36055 12.9959C8.4172 12.9967 8.49529 12.9976 8.58093 12.9985C8.74627 13 8.95908 13.0012 9.0938 12.998C9.73773 12.9828 10.3696 12.9357 10.9321 12.6148C11.3933 12.3517 11.7754 11.9696 12.0385 11.5084C12.2607 11.1188 12.3475 10.7081 12.3878 10.2946C12.4065 10.102 12.4165 9.89049 12.4219 9.66121C13.3489 9.2725 14.0001 8.3564 14.0001 7.2882C14.0001 6.22001 13.3489 5.3039 12.4219 4.91519C12.4165 4.68591 12.4065 4.47436 12.3878 4.28177C12.3475 3.86829 12.2607 3.45755 12.0385 3.06805C11.7754 2.6068 11.3933 2.22466 10.9321 1.96157C10.5426 1.7394 10.1318 1.65262 9.71833 1.61233C9.52574 1.59356 9.31419 1.58356 9.08491 1.57822C8.6962 0.651173 7.7801 1.19209e-07 6.7119 0C5.64371 0 4.7276 0.651174 4.33889 1.57822C4.10962 1.58356 3.89806 1.59356 3.70547 1.61233C3.292 1.65262 2.88126 1.73939 2.49175 1.96157C2.03049 2.22466 1.64836 2.6068 1.38527 3.06805C1.06445 3.6305 1.0173 4.26237 1.00213 4.9063C0.999451 5.01982 1.00007 5.23196 1.00104 5.39974C1.00155 5.4871 1.0022 5.56825 1.00272 5.62749L1.00364 5.72434C1.00942 6.27114 1.45333 6.71242 2.00015 6.7143L2.29896 6.71522C2.46308 6.71569 2.65896 6.71615 2.78178 6.71615C3.09771 6.71615 3.35383 6.97227 3.35383 7.2882C3.35383 7.60414 3.09771 7.86025 2.78178 7.86025C2.67271 7.86025 2.47955 7.85979 2.31245 7.85933L2.00732 7.85841C1.45834 7.85659 1.01014 8.29769 1.00368 8.84664L1.00268 8.94193C1.00211 8.99999 1.00141 9.07978 1.00087 9.16647C0.999823 9.3337 0.999205 9.54615 1.00213 9.6701C1.0173 10.314 1.06445 10.9459 1.38527 11.5084C1.64836 11.9696 2.0305 12.3517 2.49175 12.6148C3.0542 12.9357 3.68608 12.9828 4.33001 12.998C4.43714 13.0005 4.65184 12.9993 4.82061 12.998C4.90918 12.9972 4.99203 12.9964 5.05267 12.9957L5.15251 12.9946Z" fill="white"/>
</svg>
