<svg width="14" height="14" viewBox="0 0 14 14" fill="none" xmlns="http://www.w3.org/2000/svg">
<path fill-rule="evenodd" clip-rule="evenodd" d="M3.45001 4.89998C3.45001 5.31419 3.7858 5.64998 4.20001 5.64998C4.61423 5.64998 4.95001 5.31419 4.95001 4.89998C4.95001 4.48576 4.61423 4.14998 4.20001 4.14998C3.7858 4.14998 3.45001 4.48576 3.45001 4.89998ZM3.20001 7.46251C2.17567 7.06247 1.45001 6.06597 1.45001 4.89998C1.45001 3.73398 2.17567 2.73748 3.20001 2.33745L3.20001 1.39998C3.20001 0.847692 3.64773 0.399977 4.20001 0.399977C4.7523 0.399977 5.20001 0.847692 5.20001 1.39998L5.20001 2.33745C6.22435 2.73748 6.95001 3.73398 6.95001 4.89998C6.95001 6.06597 6.22435 7.06247 5.20001 7.46251L5.20001 12.6C5.20001 13.1523 4.7523 13.6 4.20001 13.6C3.64773 13.6 3.20001 13.1523 3.20001 12.6L3.20001 7.46251ZM9.05001 9.09998C9.05001 9.51419 9.3858 9.84998 9.80001 9.84998C10.2142 9.84998 10.55 9.51419 10.55 9.09998C10.55 8.68576 10.2142 8.34998 9.80001 8.34998C9.3858 8.34998 9.05001 8.68576 9.05001 9.09998ZM8.80001 11.6625C7.77567 11.2625 7.05001 10.266 7.05001 9.09998C7.05001 7.93398 7.77567 6.93748 8.80001 6.53745V1.39998C8.80001 0.847692 9.24773 0.399977 9.80001 0.399977C10.3523 0.399977 10.8 0.847692 10.8 1.39998V6.53745C11.8244 6.93748 12.55 7.93398 12.55 9.09998C12.55 10.266 11.8244 11.2625 10.8 11.6625V12.6C10.8 13.1523 10.3523 13.6 9.80001 13.6C9.24773 13.6 8.80001 13.1523 8.80001 12.6L8.80001 11.6625Z" fill="white"/>
</svg>
