<svg width="16" height="17" viewBox="0 0 16 17" fill="none" xmlns="http://www.w3.org/2000/svg">
<path fill-rule="evenodd" clip-rule="evenodd" d="M4.20003 4.59999C4.20003 2.50131 5.90134 0.799988 8.00003 0.799988C10.0987 0.799988 11.8 2.50131 11.8 4.59999V6.86958C12.0382 6.90586 12.2714 6.96365 12.5012 7.0588C13.3342 7.40388 13.9961 8.06577 14.3412 8.89886C14.4914 9.26155 14.5486 9.63313 14.5749 10.0187C14.6 10.3877 14.6 10.8359 14.6 11.3669V11.4331C14.6 11.964 14.6 12.4122 14.5749 12.7812C14.5486 13.1668 14.4914 13.5384 14.3412 13.9011C13.9961 14.7342 13.3342 15.3961 12.5012 15.7412C12.1385 15.8914 11.7669 15.9485 11.3813 15.9748C11.0123 16 10.5641 16 10.0331 16H5.96693C5.43598 16 4.98777 16 4.61878 15.9748C4.23317 15.9485 3.86158 15.8914 3.4989 15.7412C2.66581 15.3961 2.00391 14.7342 1.65883 13.9011C1.50861 13.5384 1.45149 13.1668 1.42518 12.7812C1.40001 12.4122 1.40001 11.964 1.40002 11.4331V11.3669C1.40001 10.8359 1.40001 10.3877 1.42518 10.0187C1.45149 9.63313 1.50861 9.26155 1.65883 8.89886C2.00391 8.06577 2.66581 7.40388 3.4989 7.0588C3.7286 6.96365 3.96188 6.90586 4.20003 6.86958V4.59999ZM6.20003 6.79999H9.80003V4.59999C9.80003 3.60588 8.99414 2.79999 8.00003 2.79999C7.00591 2.79999 6.20003 3.60588 6.20003 4.59999V6.79999ZM4.75492 8.82051C4.47114 8.83987 4.34264 8.8741 4.26427 8.90656C3.92123 9.04865 3.64869 9.32119 3.50659 9.66423C3.47413 9.7426 3.4399 9.8711 3.42054 10.1549C3.40057 10.4476 3.40003 10.8272 3.40003 11.4C3.40003 11.9728 3.40057 12.3523 3.42054 12.6451C3.4399 12.9289 3.47413 13.0574 3.50659 13.1357C3.64869 13.4788 3.92123 13.7513 4.26427 13.8934C4.34264 13.9259 4.47114 13.9601 4.75492 13.9795C5.04769 13.9994 5.42721 14 6.00003 14H10C10.5728 14 10.9524 13.9994 11.2451 13.9795C11.5289 13.9601 11.6574 13.9259 11.7358 13.8934C12.0788 13.7513 12.3514 13.4788 12.4935 13.1357C12.5259 13.0574 12.5601 12.9289 12.5795 12.6451C12.5995 12.3523 12.6 11.9728 12.6 11.4C12.6 10.8272 12.5995 10.4476 12.5795 10.1549C12.5601 9.8711 12.5259 9.7426 12.4935 9.66423C12.3514 9.32119 12.0788 9.04865 11.7358 8.90656C11.6574 8.8741 11.5289 8.83987 11.2451 8.82051C10.9524 8.80053 10.5728 8.79999 10 8.79999H6.00003C5.42721 8.79999 5.04769 8.80053 4.75492 8.82051Z" fill="white"/>
</svg>
