<svg width="20" height="20" viewBox="0 0 20 20" fill="none" xmlns="http://www.w3.org/2000/svg">
<path fill-rule="evenodd" clip-rule="evenodd" d="M9 1.25C9 0.697715 9.44771 0.25 10 0.25C13.3859 0.25 16.3573 2.02211 18.0383 4.6847C18.9643 6.15144 19.5 7.88969 19.5 9.75C19.5 12.0771 18.8488 14.3673 18.1124 16.0926C17.8956 16.6005 17.3081 16.8365 16.8001 16.6197C16.2922 16.4029 16.0561 15.8154 16.273 15.3074C16.9381 13.7492 17.5 11.7311 17.5 9.75C17.5 8.2786 17.0773 6.90898 16.3471 5.75239C15.0171 3.64571 12.6712 2.25 10 2.25C9.44771 2.25 9 1.80228 9 1.25ZM6.61497 1.88956C6.89212 2.36727 6.72954 2.9792 6.25183 3.25636C4.4363 4.30969 3.10321 6.10085 2.66008 8.20598C2.54632 8.74643 2.01598 9.09232 1.47554 8.97856C0.935098 8.86479 0.589206 8.33446 0.702968 7.79402C1.26566 5.12085 2.95448 2.85717 5.24817 1.52643C5.72588 1.24927 6.33782 1.41185 6.61497 1.88956ZM10.3325 6.07071C8.54592 5.90475 6.75 7.26642 6.75 9.75C6.75 10.0266 6.79442 10.3199 6.87013 10.6662C6.90411 10.8217 6.94545 10.9869 6.98917 11.1616C7.28765 12.3545 7.69691 13.9902 6.6322 15.9849C6.62645 15.9957 6.6205 16.0064 6.61435 16.017C6.15025 16.8146 5.66224 17.4768 5.28717 17.9351C4.93736 18.3624 4.30732 18.4253 3.87995 18.0755C3.45257 17.7257 3.38969 17.0957 3.7395 16.6683C4.05659 16.2809 4.47677 15.7115 4.8762 15.0274C5.5506 13.7533 5.33716 12.8647 5.05807 11.7028C5.01136 11.5084 4.96281 11.3062 4.91627 11.0934C4.82758 10.6876 4.75 10.2344 4.75 9.75C4.75 6.15077 7.49749 3.79874 10.5175 4.07929C11.8449 4.2026 12.9537 4.67809 13.7945 5.48541C14.6284 6.28614 15.1287 7.34576 15.3678 8.52384C15.4776 9.06509 15.1279 9.59291 14.5866 9.70274C14.0454 9.81258 13.5175 9.46284 13.4077 8.92159C13.2294 8.04291 12.8844 7.38421 12.4093 6.92804C11.9411 6.47846 11.2773 6.15848 10.3325 6.07071ZM9.75746 8.52986C10.2933 8.39591 10.8362 8.72167 10.9701 9.25746C11.5059 11.4004 11.5097 13.05 11.1444 14.8827C11.0364 15.4243 10.5098 15.7759 9.96819 15.6679C9.42657 15.5599 9.07501 15.0333 9.18297 14.4917C9.49029 12.95 9.49411 11.5996 9.02985 9.74254C8.8959 9.20674 9.22166 8.66381 9.75746 8.52986ZM1.6923 11.0169C2.23525 10.9158 2.75736 11.274 2.85847 11.8169C3.01083 12.6351 3.12945 13.6154 2.96357 14.7153C2.88121 15.2614 2.37173 15.6373 1.82562 15.555C1.27951 15.4726 0.903573 14.9631 0.985934 14.417C1.10419 13.6329 1.02625 12.9025 0.892276 12.1831C0.791166 11.6401 1.14935 11.118 1.6923 11.0169ZM14.5615 11.0091C15.1088 11.0836 15.492 11.5876 15.4176 12.1348C15.2126 13.6411 14.7603 15.2645 14.0969 16.9216C13.7698 17.7389 13.1287 18.9398 12.6182 19.5704C12.2707 19.9997 11.641 20.066 11.2117 19.7186C10.7825 19.3711 10.7161 18.7414 11.0636 18.3121C11.406 17.8891 11.9576 16.8843 12.2402 16.1784C12.855 14.6424 13.2571 13.1791 13.4358 11.8652C13.5103 11.3179 14.0143 10.9347 14.5615 11.0091ZM9.24919 17.015C9.71502 17.3116 9.85214 17.9298 9.55546 18.3956C9.33267 18.7454 9.09417 19.099 8.84394 19.4605C8.52961 19.9146 7.90666 20.028 7.45256 19.7136C6.99845 19.3993 6.88514 18.7763 7.19947 18.3222C7.44153 17.9725 7.66442 17.6417 7.86854 17.3212C8.16522 16.8554 8.78335 16.7183 9.24919 17.015Z" fill="white"/>
</svg>
