<svg width="20" height="20" viewBox="0 0 20 20" fill="none" xmlns="http://www.w3.org/2000/svg">
<path fill-rule="evenodd" clip-rule="evenodd" d="M10 2.42908C5.81875 2.42908 2.42859 5.81989 2.42859 10.0034C2.42859 14.1869 5.81875 17.5777 10 17.5777C14.1813 17.5777 17.5714 14.1869 17.5714 10.0034C17.5714 5.81989 14.1813 2.42908 10 2.42908ZM0.428589 10.0034C0.428589 4.71596 4.71355 0.429077 10 0.429077C15.2865 0.429077 19.5714 4.71596 19.5714 10.0034C19.5714 15.2908 15.2865 19.5777 10 19.5777C4.71355 19.5777 0.428589 15.2908 0.428589 10.0034ZM10 5.75003C10.5523 5.75003 11 6.19774 11 6.75003L11 10.8343L12.2929 9.54137C12.6834 9.15085 13.3166 9.15085 13.7071 9.54137C14.0976 9.9319 14.0976 10.5651 13.7071 10.9556L10.7071 13.9556C10.3166 14.3461 9.68343 14.3461 9.29291 13.9556L6.29291 10.9556C5.90239 10.5651 5.90239 9.9319 6.29291 9.54137C6.68343 9.15085 7.3166 9.15085 7.70712 9.54137L9.00002 10.8343L9.00002 6.75003C9.00002 6.19774 9.44773 5.75003 10 5.75003Z" fill="white"/>
</svg>
