<svg width="14" height="14" viewBox="0 0 14 14" fill="none" xmlns="http://www.w3.org/2000/svg">
<path fill-rule="evenodd" clip-rule="evenodd" d="M6.99998 0C5.70542 0 4.65597 1.04945 4.65597 2.34401C4.65597 3.28086 5.20559 4.08934 5.99998 4.46461V5.11244C5.86232 5.16526 5.72991 5.22867 5.60374 5.30167C5.39585 5.42144 5.202 5.56885 5.02826 5.74227C4.85196 5.91782 4.70233 6.11408 4.58107 6.32475C4.4602 6.53385 4.36566 6.76008 4.30199 6.9989C4.23823 7.23685 4.20729 7.47927 4.20751 7.72002C4.20738 7.86578 4.21867 8.01216 4.24175 8.15778L3.68071 8.4817C2.95853 7.98137 1.98355 7.90963 1.17221 8.37806C0.0510904 9.02534 -0.333034 10.4589 0.314245 11.58C0.961525 12.7011 2.3951 13.0853 3.51622 12.438C4.32756 11.9696 4.75292 11.0893 4.68071 10.2137L5.24175 9.88983C5.35466 9.98129 5.47392 10.0632 5.59824 10.1352C5.80976 10.2582 6.03892 10.3543 6.281 10.4186C6.51949 10.4823 6.76245 10.513 7.0037 10.5125C7.24136 10.5124 7.48061 10.4819 7.71555 10.4195C7.95679 10.3557 8.18523 10.2605 8.39622 10.1384C8.52252 10.0656 8.64365 9.98265 8.75822 9.88984L9.31926 10.2138C9.24705 11.0893 9.67241 11.9696 10.4838 12.438C11.6049 13.0853 13.0384 12.7012 13.6857 11.58C14.333 10.4589 13.9489 9.02534 12.8278 8.37807C12.0164 7.90964 11.0414 7.98138 10.3193 8.48171L9.75822 8.15779C9.7813 8.01216 9.79259 7.86579 9.79246 7.72002C9.79268 7.47637 9.76099 7.231 9.69566 6.99029C9.63217 6.7552 9.53875 6.5324 9.41974 6.32623C9.29996 6.11784 9.15244 5.92352 8.97881 5.74938C8.80165 5.57125 8.60336 5.42033 8.39043 5.29834C8.266 5.22674 8.13553 5.16446 7.99998 5.11244V4.46461C8.79437 4.08934 9.34399 3.28086 9.34399 2.34401C9.34399 1.04945 8.29454 0 6.99998 0ZM6.65597 2.34401C6.65597 2.15402 6.80999 2 6.99998 2C7.18997 2 7.34399 2.15402 7.34399 2.34401C7.34399 2.53399 7.18997 2.68801 6.99998 2.68801C6.80999 2.68801 6.65597 2.53399 6.65597 2.34401ZM6.60398 7.03412C6.62602 7.02139 6.64841 7.00985 6.67109 6.99947C6.74976 6.96364 6.83388 6.94084 6.91986 6.93202C6.94621 6.92937 6.97293 6.92802 6.99998 6.92802C7.02864 6.92802 7.05694 6.92954 7.08481 6.93251C7.16688 6.94142 7.24719 6.96307 7.32261 6.99664C7.34743 7.00774 7.37192 7.02023 7.39599 7.03413C7.41861 7.04719 7.44034 7.06119 7.46116 7.07607C7.53292 7.12755 7.59572 7.19074 7.64677 7.26283C7.6606 7.28243 7.67366 7.30283 7.68588 7.32401C7.69894 7.34663 7.71076 7.36963 7.72136 7.39293C7.75642 7.47043 7.77886 7.55316 7.78776 7.63774C7.79056 7.66479 7.79199 7.69224 7.79199 7.72003C7.79199 7.74781 7.79055 7.77526 7.78776 7.80231C7.77886 7.88688 7.75642 7.96961 7.72136 8.04711C7.71076 8.07041 7.69894 8.0934 7.68588 8.11603C7.67282 8.13865 7.65881 8.16038 7.64394 8.18121C7.59436 8.25032 7.53392 8.31112 7.46513 8.36112C7.44311 8.37706 7.42005 8.39202 7.39599 8.40591C7.37192 8.41981 7.34743 8.43229 7.32261 8.4434C7.24492 8.47798 7.16205 8.49991 7.0774 8.5083C7.05193 8.51077 7.0261 8.51203 6.99998 8.51203C6.97552 8.51203 6.95133 8.51093 6.92744 8.50876C6.83894 8.50054 6.7523 8.47751 6.67141 8.44072C6.64862 8.43029 6.62612 8.4187 6.60398 8.40592C6.57992 8.39203 6.55686 8.37706 6.53483 8.36112C6.46783 8.31243 6.40877 8.25349 6.35993 8.1866C6.34359 8.16414 6.32828 8.1406 6.31409 8.11602C6.30019 8.09196 6.28771 8.06747 6.2766 8.04265C6.24203 7.96496 6.22009 7.88208 6.21171 7.79744C6.20924 7.77197 6.20797 7.74615 6.20797 7.72003C6.20797 7.6939 6.20924 7.66808 6.21171 7.6426C6.22016 7.55731 6.24236 7.47382 6.2774 7.39562C6.2883 7.3714 6.30052 7.34751 6.31409 7.32402C6.32751 7.30076 6.34194 7.27844 6.35729 7.25708C6.4079 7.18694 6.46972 7.12541 6.54012 7.07512C6.56054 7.06059 6.58184 7.0469 6.60398 7.03412ZM2.17221 10.1101C2.33675 10.0151 2.54714 10.0715 2.64213 10.236C2.73713 10.4006 2.68075 10.6109 2.51622 10.7059C2.35168 10.8009 2.14129 10.7446 2.0463 10.58C1.9513 10.4155 2.00768 10.2051 2.17221 10.1101ZM11.3578 10.236C11.4528 10.0715 11.6632 10.0151 11.8278 10.1101C11.9923 10.2051 12.0487 10.4155 11.9537 10.58C11.8587 10.7446 11.6483 10.8009 11.4838 10.706C11.3192 10.611 11.2628 10.4006 11.3578 10.236Z" fill="white"/>
<path d="M2.9421 4.60909C3.41942 4.33351 4.02977 4.49705 4.30535 4.97437C4.58093 5.45169 4.41739 6.06204 3.94007 6.33761C3.46275 6.6132 2.8524 6.44965 2.57682 5.97233C2.30124 5.49502 2.46478 4.88467 2.9421 4.60909Z" fill="white"/>
<path d="M10.0334 4.60909C10.5107 4.33351 11.1211 4.49705 11.3967 4.97437C11.6722 5.45169 11.5087 6.06204 11.0314 6.33761C10.554 6.6132 9.9437 6.44965 9.66813 5.97233C9.39254 5.49502 9.55608 4.88467 10.0334 4.60909Z" fill="white"/>
<path d="M6.501 11.1279C6.97832 10.8523 7.58867 11.0158 7.86425 11.4932C8.13983 11.9705 7.97628 12.5808 7.49897 12.8564C7.02165 13.132 6.4113 12.9684 6.13572 12.4911C5.86014 12.0138 6.02368 11.4035 6.501 11.1279Z" fill="white"/>
</svg>
