<svg width="14" height="14" viewBox="0 0 14 14" fill="none" xmlns="http://www.w3.org/2000/svg">
<path fill-rule="evenodd" clip-rule="evenodd" d="M4.10247 12.4281L3.64766 11.6467L2.71867 11.4555C1.88008 11.2828 1.31217 10.4983 1.41 9.64777L1.50817 8.79427L0.895639 8.07661C0.366327 7.45644 0.368342 6.54294 0.900385 5.92512L1.50817 5.21934L1.40996 4.36575C1.31214 3.51548 1.87962 2.73118 2.71784 2.55818L3.64766 2.36627L4.10417 1.57629C4.53238 0.83525 5.45547 0.543701 6.23164 0.90434L7.00008 1.26139L7.77629 0.900728C8.54921 0.5416 9.46847 0.829081 9.89906 1.56458L10.3688 2.36689L11.2843 2.5569C12.1217 2.73068 12.6882 3.51449 12.5904 4.36406L12.492 5.21996L13.0994 5.92509C13.6316 6.5429 13.6337 7.45655 13.1044 8.07679L12.492 8.79427L12.5904 9.6498C12.6881 10.4995 12.1214 11.2834 11.2839 11.457L10.3688 11.6467L9.90079 12.4401C9.46885 13.1724 8.5518 13.4576 7.78076 13.0993L7.00008 12.7366L6.22736 13.0956C5.45298 13.4554 4.532 13.1661 4.10247 12.4281ZM9.84129 5.53996C10.1399 5.07534 10.0053 4.45665 9.54065 4.15807C9.07604 3.85949 8.45735 3.99408 8.15876 4.4587L6.32436 7.31318L5.76835 6.64575C5.41486 6.22142 4.7843 6.16399 4.35997 6.51748C3.93563 6.87098 3.8782 7.50153 4.2317 7.92587L5.66027 9.64073C5.86413 9.88544 6.17236 10.0184 6.49025 9.99877C6.80814 9.97913 7.09767 9.80924 7.26986 9.5413L9.84129 5.53996Z" fill="white"/>
</svg>
