<svg width="16" height="16" viewBox="0 0 16 16" fill="none" xmlns="http://www.w3.org/2000/svg">
<path fill-rule="evenodd" clip-rule="evenodd" d="M9.21498 1.28571H10.5944C11.1458 1.28568 11.6246 1.28566 12.0182 1.32099C12.4353 1.35842 12.853 1.44161 13.2486 1.6673C13.7005 1.92505 14.0749 2.29941 14.3326 2.75128C14.5583 3.14695 14.6415 3.56463 14.6789 3.98176C14.7143 4.37537 14.7142 4.85409 14.7142 5.40551V6.78495C14.7142 7.33637 14.7143 7.81509 14.6789 8.20871C14.6415 8.62584 14.5583 9.04351 14.3326 9.43918C14.0749 9.89106 13.7005 10.2654 13.2486 10.5232C12.853 10.7488 12.4353 10.832 12.0182 10.8695C11.7003 10.898 11.3269 10.9035 10.9045 10.9045C10.9034 11.3269 10.8979 11.7003 10.8694 12.0182C10.832 12.4354 10.7488 12.853 10.5231 13.2487C10.2654 13.7006 9.89099 14.0749 9.43912 14.3327C9.04345 14.5584 8.62578 14.6416 8.20865 14.679C7.81503 14.7143 7.33631 14.7143 6.78489 14.7143H5.40545C4.85403 14.7143 4.37531 14.7143 3.9817 14.679C3.56456 14.6416 3.14689 14.5584 2.75122 14.3327C2.29935 14.0749 1.92498 13.7006 1.66724 13.2487C1.44155 12.853 1.35836 12.4354 1.32093 12.0182C1.2856 11.6246 1.28562 11.1459 1.28565 10.5945V9.21504C1.28562 8.66362 1.2856 8.1849 1.32093 7.79128C1.35836 7.37415 1.44155 6.95648 1.66724 6.5608C1.92498 6.10893 2.29935 5.73457 2.75122 5.47683C3.14689 5.25114 3.56456 5.16795 3.9817 5.13051C4.2996 5.10198 4.67301 5.09651 5.09541 5.09547C5.09645 4.67308 5.10192 4.29966 5.13045 3.98176C5.16789 3.56463 5.25108 3.14695 5.47676 2.75128C5.73451 2.29941 6.10887 1.92505 6.56074 1.6673C6.95642 1.44161 7.37409 1.35842 7.79122 1.32099C8.18484 1.28566 8.66356 1.28568 9.21498 1.28571ZM5.09541 7.09558C4.68397 7.09673 4.39263 7.10167 4.16046 7.12251C3.88053 7.14763 3.78516 7.18955 3.74214 7.21409C3.60139 7.29437 3.48478 7.41097 3.4045 7.55172C3.37997 7.59474 3.33804 7.69011 3.31292 7.97005C3.28659 8.26351 3.28565 8.65153 3.28565 9.25714V10.5524C3.28565 11.158 3.28659 11.546 3.31292 11.8395C3.33804 12.1194 3.37997 12.2148 3.4045 12.2578C3.48478 12.3985 3.60139 12.5151 3.74214 12.5954C3.78516 12.62 3.88053 12.6619 4.16046 12.687C4.45393 12.7133 4.84195 12.7143 5.44755 12.7143H6.74279C7.3484 12.7143 7.73641 12.7133 8.02988 12.687C8.30981 12.6619 8.40518 12.62 8.44821 12.5954C8.58895 12.5151 8.70556 12.3985 8.78584 12.2578C8.81038 12.2148 8.8523 12.1194 8.87742 11.8395C8.89825 11.6073 8.90319 11.316 8.90435 10.9045C8.48219 10.9035 8.10898 10.898 7.79122 10.8695C7.37409 10.832 6.95641 10.7488 6.56074 10.5232C6.10887 10.2654 5.73451 9.89106 5.47676 9.43918C5.25108 9.04351 5.16789 8.62584 5.13045 8.20871C5.10194 7.89095 5.09645 7.51773 5.09541 7.09558ZM7.96999 3.31298C7.69005 3.33811 7.59468 3.38003 7.55166 3.40457C7.41091 3.48485 7.29431 3.60145 7.21403 3.7422C7.18949 3.78522 7.14757 3.88059 7.12245 4.16052C7.09611 4.45399 7.09517 4.84201 7.09517 5.44761V6.74285C7.09517 7.34846 7.09611 7.73647 7.12245 8.02994C7.14757 8.30988 7.18949 8.40525 7.21403 8.44827C7.29431 8.58901 7.41091 8.70562 7.55166 8.7859C7.59468 8.81044 7.69005 8.85236 7.96999 8.87748C8.26345 8.90382 8.65147 8.90476 9.25708 8.90476H10.5523C11.1579 8.90476 11.5459 8.90382 11.8394 8.87748C12.1193 8.85236 12.2147 8.81044 12.2577 8.7859C12.3985 8.70562 12.5151 8.58901 12.5954 8.44827C12.6199 8.40525 12.6618 8.30988 12.6869 8.02994C12.7133 7.73647 12.7142 7.34846 12.7142 6.74285V5.44761C12.7142 4.84201 12.7133 4.45399 12.6869 4.16052C12.6618 3.88059 12.6199 3.78522 12.5954 3.7422C12.5151 3.60145 12.3985 3.48485 12.2577 3.40457C12.2147 3.38003 12.1193 3.33811 11.8394 3.31298C11.5459 3.28665 11.1579 3.28571 10.5523 3.28571H9.25708C8.65147 3.28571 8.26345 3.28665 7.96999 3.31298Z" fill="white"/>
</svg>
