<svg width="16" height="16" viewBox="0 0 16 16" fill="none" xmlns="http://www.w3.org/2000/svg">
<path d="M2.60001 4.79571C2.60001 3.58306 3.58306 2.60001 4.79571 2.60001H5.60001C6.15229 2.60001 6.60001 2.15229 6.60001 1.60001C6.60001 1.04772 6.15229 0.600006 5.60001 0.600006H4.79571C2.47849 0.600006 0.600006 2.47849 0.600006 4.79571V5.60001C0.600006 6.15229 1.04772 6.60001 1.60001 6.60001C2.15229 6.60001 2.60001 6.15229 2.60001 5.60001V4.79571Z" fill="white"/>
<path d="M10.4 0.600006C9.84772 0.600006 9.40001 1.04772 9.40001 1.60001C9.40001 2.15229 9.84772 2.60001 10.4 2.60001H11.2C12.415 2.60001 13.4 3.58498 13.4 4.80001V5.60001C13.4 6.15229 13.8477 6.60001 14.4 6.60001C14.9523 6.60001 15.4 6.15229 15.4 5.60001V4.80001C15.4 2.48041 13.5196 0.600006 11.2 0.600006H10.4Z" fill="white"/>
<path d="M2.60001 10.4C2.60001 9.84772 2.15229 9.40001 1.60001 9.40001C1.04772 9.40001 0.600006 9.84772 0.600006 10.4V11.2C0.600006 13.5196 2.48041 15.4 4.8 15.4H5.60001C6.15229 15.4 6.60001 14.9523 6.60001 14.4C6.60001 13.8477 6.15229 13.4 5.60001 13.4H4.8C3.58498 13.4 2.60001 12.415 2.60001 11.2V10.4Z" fill="white"/>
<path d="M15.4 10.4C15.4 9.84772 14.9523 9.40001 14.4 9.40001C13.8477 9.40001 13.4 9.84772 13.4 10.4V11.1957C13.4 12.4131 12.4131 13.4 11.1957 13.4H10.4C9.84772 13.4 9.40001 13.8477 9.40001 14.4C9.40001 14.9523 9.84772 15.4 10.4 15.4H11.1957C13.5177 15.4 15.4 13.5177 15.4 11.1957V10.4Z" fill="white"/>
<path d="M4.2409 5.08943C4.20001 5.24203 4.20001 5.42802 4.20001 5.80001C4.20001 6.172 4.20001 6.358 4.2409 6.51059C4.35186 6.92471 4.67532 7.24816 5.08943 7.35912C5.24203 7.40001 5.42802 7.40001 5.80001 7.40001C6.172 7.40001 6.358 7.40001 6.51059 7.35912C6.92471 7.24816 7.24816 6.92471 7.35912 6.51059C7.40001 6.358 7.40001 6.172 7.40001 5.80001C7.40001 5.42802 7.40001 5.24203 7.35912 5.08943C7.24816 4.67532 6.92471 4.35186 6.51059 4.2409C6.358 4.20001 6.172 4.20001 5.80001 4.20001C5.42802 4.20001 5.24203 4.20001 5.08943 4.2409C4.67532 4.35186 4.35186 4.67532 4.2409 5.08943Z" fill="white"/>
<path d="M8.6409 5.08943C8.60001 5.24203 8.60001 5.42802 8.60001 5.80001C8.60001 6.172 8.60001 6.358 8.6409 6.51059C8.75186 6.92471 9.07532 7.24816 9.48943 7.35912C9.64203 7.40001 9.82802 7.40001 10.2 7.40001C10.572 7.40001 10.758 7.40001 10.9106 7.35912C11.3247 7.24816 11.6482 6.92471 11.7591 6.51059C11.8 6.358 11.8 6.17201 11.8 5.80004C11.8 5.42807 11.8 5.24203 11.7591 5.08943C11.6482 4.67532 11.3247 4.35186 10.9106 4.2409C10.758 4.20001 10.572 4.20001 10.2 4.20001C9.82802 4.20001 9.64203 4.20001 9.48943 4.2409C9.07532 4.35186 8.75186 4.67532 8.6409 5.08943Z" fill="white"/>
<path d="M4.20001 10.2C4.20001 9.82802 4.20001 9.64203 4.2409 9.48943C4.35186 9.07532 4.67532 8.75186 5.08943 8.6409C5.24203 8.60001 5.42802 8.60001 5.80001 8.60001C6.172 8.60001 6.358 8.60001 6.51059 8.6409C6.92471 8.75186 7.24816 9.07532 7.35912 9.48943C7.40001 9.64203 7.40001 9.82802 7.40001 10.2C7.40001 10.572 7.40001 10.758 7.35912 10.9106C7.24816 11.3247 6.92471 11.6482 6.51059 11.7591C6.358 11.8 6.17201 11.8 5.80004 11.8C5.42807 11.8 5.24203 11.8 5.08943 11.7591C4.67532 11.6482 4.35186 11.3247 4.2409 10.9106C4.20001 10.758 4.20001 10.572 4.20001 10.2Z" fill="white"/>
<path d="M8.6409 9.48943C8.60001 9.64203 8.60001 9.82802 8.60001 10.2C8.60001 10.572 8.60001 10.758 8.6409 10.9106C8.75186 11.3247 9.07532 11.6482 9.48943 11.7591C9.64202 11.8 9.82801 11.8 10.2 11.8C10.572 11.8 10.758 11.8 10.9106 11.7591C11.3247 11.6482 11.6482 11.3247 11.7591 10.9106C11.8 10.758 11.8 10.572 11.8 10.2C11.8 9.82806 11.8 9.64202 11.7591 9.48943C11.6482 9.07532 11.3247 8.75186 10.9106 8.6409C10.758 8.60001 10.572 8.60001 10.2 8.60001C9.82802 8.60001 9.64203 8.60001 9.48943 8.6409C9.07532 8.75186 8.75186 9.07532 8.6409 9.48943Z" fill="white"/>
</svg>
