<svg width="20" height="20" viewBox="0 0 20 20" fill="none" xmlns="http://www.w3.org/2000/svg">
<path d="M8.5 5.5C8.5 7.15685 7.15685 8.5 5.5 8.5C3.84315 8.5 2.5 7.15685 2.5 5.5C2.5 3.84315 3.84315 2.5 5.5 2.5C7.15685 2.5 8.5 3.84315 8.5 5.5Z" fill="white"/>
<path d="M17.5 5.5C17.5 7.15685 16.1569 8.5 14.5 8.5C12.8431 8.5 11.5 7.15685 11.5 5.5C11.5 3.84315 12.8431 2.5 14.5 2.5C16.1569 2.5 17.5 3.84315 17.5 5.5Z" fill="white"/>
<path d="M8.5 14.5C8.5 16.1569 7.15685 17.5 5.5 17.5C3.84315 17.5 2.5 16.1569 2.5 14.5C2.5 12.8431 3.84315 11.5 5.5 11.5C7.15685 11.5 8.5 12.8431 8.5 14.5Z" fill="white"/>
<path d="M17.5 14.5C17.5 16.1569 16.1569 17.5 14.5 17.5C12.8431 17.5 11.5 16.1569 11.5 14.5C11.5 12.8431 12.8431 11.5 14.5 11.5C16.1569 11.5 17.5 12.8431 17.5 14.5Z" fill="white"/>
</svg>
