<svg width="16" height="16" viewBox="0 0 16 16" fill="none" xmlns="http://www.w3.org/2000/svg">
<path fill-rule="evenodd" clip-rule="evenodd" d="M2.54289 2.54289C2.93342 2.15237 3.56658 2.15237 3.95711 2.54289L8 6.58579L12.0429 2.54289C12.4334 2.15237 13.0666 2.15237 13.4571 2.54289C13.8476 2.93342 13.8476 3.56658 13.4571 3.95711L9.41421 8L13.4571 12.0429C13.8476 12.4334 13.8476 13.0666 13.4571 13.4571C13.0666 13.8476 12.4334 13.8476 12.0429 13.4571L8 9.41421L3.95711 13.4571C3.56658 13.8476 2.93342 13.8476 2.54289 13.4571C2.15237 13.0666 2.15237 12.4334 2.54289 12.0429L6.58579 8L2.54289 3.95711C2.15237 3.56658 2.15237 2.93342 2.54289 2.54289Z" fill="white"/>
</svg>
