<svg width="14" height="14" viewBox="0 0 14 14" fill="none" xmlns="http://www.w3.org/2000/svg">
<path d="M6.99163 5.20218C7.12605 5.19658 7.26123 5.24416 7.35232 5.32292C7.4255 5.3862 7.5 5.49256 7.5 5.70324C7.5 5.91392 7.25234 6.03105 7.13898 6.11569L7.10136 6.14463C6.7301 6.42982 6 6.99064 6 8.11187C6 8.66434 6.44772 9.11221 7 9.11221C7.55228 9.11221 8 8.66434 8 8.11187C8 8.10531 7.99983 8.09913 7.99967 8.09319C7.99758 8.01765 7.99657 7.98085 8.36102 7.69944L8.39863 7.67051C8.7699 7.38532 9.5 6.82449 9.5 5.70324C9.5 4.03676 8.12436 3.15257 6.90837 3.20325C6.23248 3.23142 5.63877 3.5607 5.22561 3.98721C4.81247 4.41369 4.5 5.02024 4.5 5.70322C4.5 6.25569 4.94772 6.70355 5.5 6.70355C6.05228 6.70355 6.5 6.25569 6.5 5.70322C6.5 5.63592 6.53753 5.50784 6.66189 5.37947C6.78623 5.25111 6.91752 5.20527 6.99163 5.20218Z" fill="white"/>
<path d="M6.99331 11.1602C7.49707 11.1602 7.90545 10.7517 7.90545 10.2477C7.90545 9.7438 7.49707 9.33529 6.99331 9.33529C6.48955 9.33529 6.08118 9.7438 6.08118 10.2477C6.08118 10.7517 6.48955 11.1602 6.99331 11.1602Z" fill="white"/>
<path fill-rule="evenodd" clip-rule="evenodd" d="M7 0C3.13401 0 0 3.13506 0 7.00235C0 10.8696 3.13401 14.0047 7 14.0047C10.866 14.0047 14 10.8696 14 7.00235C14 3.13506 10.866 0 7 0ZM2 7.00235C2 4.24 4.23858 2.00067 7 2.00067C9.76142 2.00067 12 4.24 12 7.00235C12 9.7647 9.76142 12.004 7 12.004C4.23858 12.004 2 9.7647 2 7.00235Z" fill="white"/>
</svg>
