<svg width="20" height="20" viewBox="0 0 20 20" fill="none" xmlns="http://www.w3.org/2000/svg">
<path fill-rule="evenodd" clip-rule="evenodd" d="M9.4855 1.99962C9.80218 1.80961 10.1978 1.80961 10.5145 1.99962L18.3374 6.69338C19.5177 7.40155 19.0156 9.21426 17.6392 9.21426H16.3571V16.1428H17.1428C17.6951 16.1428 18.1428 16.5905 18.1428 17.1428C18.1428 17.6951 17.6951 18.1428 17.1428 18.1428H2.85713C2.30485 18.1428 1.85713 17.6951 1.85713 17.1428C1.85713 16.5905 2.30485 16.1428 2.85713 16.1428H3.64285L3.64285 9.21426H2.36082C0.984368 9.21426 0.482286 7.40155 1.66257 6.69338L9.4855 1.99962ZM5.64285 9.21426L5.64285 16.1428H8.99999V9.21426H5.64285ZM11 9.21426V16.1428H14.3571V9.21426H11ZM15.3182 7.21426H4.68174L9.99999 4.02331L15.3182 7.21426Z" fill="white"/>
</svg>
