<svg width="20" height="20" viewBox="0 0 20 20" fill="none" xmlns="http://www.w3.org/2000/svg">
<path fill-rule="evenodd" clip-rule="evenodd" d="M13.6557 2H6.34433C5.26679 1.99998 4.37776 1.99996 3.66265 2.07744C2.91653 2.15828 2.24204 2.33297 1.64886 2.76393C1.30928 3.01065 1.01065 3.30928 0.763934 3.64886C0.332965 4.24204 0.158276 4.91653 0.0774389 5.66264C-3.93987e-05 6.37776 -2.12552e-05 7.26676 7.37747e-07 8.3443V9.22711C-2.12552e-05 10.3046 -3.93987e-05 11.1937 0.0774388 11.9088C0.158276 12.6549 0.332965 13.3294 0.763934 13.9226C1.01065 14.2622 1.30928 14.5608 1.64886 14.8075C2.24204 15.2385 2.91653 15.4132 3.66265 15.494C4.37777 15.5715 5.26678 15.5715 6.34433 15.5714H13.6557C14.7332 15.5715 15.6222 15.5715 16.3374 15.494C17.0835 15.4132 17.758 15.2385 18.3511 14.8075C18.6907 14.5608 18.9894 14.2622 19.2361 13.9226C19.667 13.3294 19.8417 12.6549 19.9226 11.9088C20 11.1937 20 10.3047 20 9.22714V8.3443C20 7.26676 20 6.37776 19.9226 5.66265C19.8417 4.91653 19.667 4.24204 19.2361 3.64886C18.9894 3.30928 18.6907 3.01065 18.3511 2.76393C17.758 2.33297 17.0835 2.15828 16.3374 2.07744C15.6222 1.99996 14.7332 1.99998 13.6557 2ZM2.82443 4.38197C3.01985 4.23999 3.30212 4.1282 3.87807 4.0658C4.47274 4.00137 5.25281 4 6.4 4H13.6C14.7472 4 15.5273 4.00137 16.1219 4.0658C16.6979 4.1282 16.9802 4.23999 17.1756 4.38197C17.3454 4.50533 17.4947 4.65464 17.618 4.82443C17.76 5.01985 17.8718 5.30212 17.9342 5.87807C17.9986 6.47274 18 7.25281 18 8.4V9.17144C18 10.3186 17.9986 11.0987 17.9342 11.6934C17.8718 12.2693 17.76 12.5516 17.618 12.747C17.4947 12.9168 17.3454 13.0661 17.1756 13.1895C16.9802 13.3314 16.6979 13.4432 16.1219 13.5056C15.5273 13.5701 14.7472 13.5714 13.6 13.5714H6.4C5.25281 13.5714 4.47274 13.5701 3.87807 13.5056C3.30212 13.4432 3.01985 13.3314 2.82443 13.1895C2.65464 13.0661 2.50533 12.9168 2.38197 12.747C2.23999 12.5516 2.1282 12.2693 2.0658 11.6934C2.00137 11.0987 2 10.3186 2 9.17143V8.4C2 7.25281 2.00137 6.47274 2.0658 5.87807C2.1282 5.30212 2.23999 5.01985 2.38197 4.82443C2.50533 4.65464 2.65464 4.50533 2.82443 4.38197Z" fill="white"/>
<path d="M6.14282 17.57C5.59054 17.57 5.14282 18.0177 5.14282 18.57C5.14282 19.1223 5.59054 19.57 6.14282 19.57H13.8571C14.4094 19.57 14.8571 19.1223 14.8571 18.57C14.8571 18.0177 14.4094 17.57 13.8571 17.57H6.14282Z" fill="white"/>
</svg>
