<svg width="16" height="16" viewBox="0 0 16 16" fill="none" xmlns="http://www.w3.org/2000/svg">
<path fill-rule="evenodd" clip-rule="evenodd" d="M5.46573 1.55725H10.5343C11.2041 1.55724 11.7569 1.55724 12.2095 1.58812C12.6788 1.62014 13.1129 1.68867 13.5307 1.86173C14.5108 2.26771 15.2895 3.04641 15.6955 4.02652C15.8686 4.44433 15.9371 4.87843 15.9691 5.34771C16 5.80032 16 6.35319 16 7.02298V7.09153C16 7.76132 16 8.31418 15.9691 8.76679C15.9371 9.23608 15.8686 9.67017 15.6955 10.088C15.2895 11.0681 14.5108 11.8468 13.5307 12.2528C13.1129 12.4258 12.6788 12.4944 12.2095 12.5264C11.7569 12.5573 11.2041 12.5573 10.5343 12.5573H5.46573C4.79594 12.5573 4.24307 12.5573 3.79046 12.5264C3.32118 12.4944 2.88708 12.4258 2.46927 12.2528C1.48915 11.8468 0.710459 11.0681 0.304483 10.088C0.131418 9.67017 0.0628845 9.23608 0.0308653 8.76679C-1.59089e-05 8.31418 -8.63791e-06 7.76131 3.02784e-07 7.09152V7.02299C-8.63791e-06 6.35319 -1.59089e-05 5.80032 0.0308653 5.34771C0.0628845 4.87843 0.131418 4.44433 0.304483 4.02652C0.710459 3.04641 1.48915 2.26771 2.46927 1.86173C2.88708 1.68867 3.32118 1.62014 3.79046 1.58812C4.24307 1.55724 4.79594 1.55724 5.46573 1.55725ZM3.9266 3.58348C3.55915 3.60855 3.36813 3.6542 3.23463 3.70949C2.74458 3.91248 2.35523 4.30183 2.15224 4.79188C2.09694 4.92538 2.0513 5.1164 2.02623 5.48386C2.00054 5.86029 2 6.34466 2 7.05725C2 7.76985 2.00054 8.25421 2.02623 8.63065C2.0513 8.9981 2.09694 9.18912 2.15224 9.32262C2.35523 9.81268 2.74458 10.202 3.23463 10.405C3.36813 10.4603 3.55915 10.506 3.9266 10.531C4.30304 10.5567 4.78741 10.5573 5.5 10.5573H10.5C11.2126 10.5573 11.697 10.5567 12.0734 10.531C12.4409 10.506 12.6319 10.4603 12.7654 10.405C13.2554 10.202 13.6448 9.81268 13.8478 9.32262C13.9031 9.18912 13.9487 8.9981 13.9738 8.63065C13.9995 8.25421 14 7.76985 14 7.05725C14 6.34466 13.9995 5.86029 13.9738 5.48386C13.9487 5.1164 13.9031 4.92538 13.8478 4.79188C13.6448 4.30183 13.2554 3.91248 12.7654 3.70949C12.6319 3.6542 12.4409 3.60855 12.0734 3.58348C11.697 3.55779 11.2126 3.55725 10.5 3.55725H5.5C4.78741 3.55725 4.30304 3.55779 3.9266 3.58348ZM3.99997 14.6673C3.99997 14.115 4.44769 13.6673 4.99997 13.6673H11C11.5523 13.6673 12 14.115 12 14.6673C12 15.2195 11.5523 15.6673 11 15.6673H4.99997C4.44769 15.6673 3.99997 15.2195 3.99997 14.6673Z" fill="white"/>
</svg>
