<svg width="20" height="20" viewBox="0 0 20 20" fill="none" xmlns="http://www.w3.org/2000/svg">
<path d="M3 5.99463C3 4.34074 4.34074 3 5.99463 3H7C7.55228 3 8 2.55228 8 2C8 1.44772 7.55228 1 7 1H5.99463C3.23617 1 1 3.23617 1 5.99463V7C1 7.55228 1.44772 8 2 8C2.55228 8 3 7.55228 3 7V5.99463Z" fill="white"/>
<path d="M13 1C12.4477 1 12 1.44772 12 2C12 2.55228 12.4477 3 13 3H14C15.6569 3 17 4.34315 17 6V7C17 7.55228 17.4477 8 18 8C18.5523 8 19 7.55228 19 7V6C19 3.23858 16.7614 1 14 1H13Z" fill="white"/>
<path d="M3 13C3 12.4477 2.55228 12 2 12C1.44772 12 1 12.4477 1 13V14C1 16.7614 3.23858 19 6 19H7C7.55228 19 8 18.5523 8 18C8 17.4477 7.55228 17 7 17H6C4.34315 17 3 15.6569 3 14V13Z" fill="white"/>
<path d="M19 13C19 12.4477 18.5523 12 18 12C17.4477 12 17 12.4477 17 13L17 14.0032C16.9983 15.6575 15.6575 16.9983 14.0032 17L13 17C12.4477 17 12 17.4477 12 18C12 18.5523 12.4477 19 13 19L14.0053 19C16.7626 18.9971 18.9971 16.7626 19 14.0053L19 13Z" fill="white"/>
<path d="M5.30111 6.36177C5.25 6.55252 5.25 6.78501 5.25 7.25C5.25 7.71499 5.25 7.94748 5.30111 8.13823C5.43981 8.65587 5.84413 9.06019 6.36177 9.19889C6.55252 9.25 6.78501 9.25 7.25 9.25C7.71499 9.25 7.94748 9.25 8.13823 9.19889C8.65587 9.06019 9.06019 8.65587 9.19889 8.13823C9.25 7.94748 9.25 7.71499 9.25 7.25C9.25 6.78501 9.25 6.55252 9.19889 6.36177C9.06019 5.84413 8.65587 5.43981 8.13823 5.30111C7.94748 5.25 7.71499 5.25 7.25 5.25C6.78501 5.25 6.55252 5.25 6.36177 5.30111C5.84413 5.43981 5.43981 5.84413 5.30111 6.36177Z" fill="white"/>
<path d="M10.8011 6.36177C10.75 6.55252 10.75 6.78501 10.75 7.25C10.75 7.71499 10.75 7.94748 10.8011 8.13823C10.9398 8.65587 11.3441 9.06019 11.8618 9.19889C12.0525 9.25 12.285 9.25 12.75 9.25C13.215 9.25 13.4475 9.25 13.6382 9.19889C14.1559 9.06019 14.5602 8.65587 14.6989 8.13823C14.75 7.94748 14.75 7.71499 14.75 7.25C14.75 6.78501 14.75 6.55252 14.6989 6.36177C14.5602 5.84413 14.1559 5.43981 13.6382 5.30111C13.4475 5.25 13.215 5.25 12.75 5.25C12.285 5.25 12.0525 5.25 11.8618 5.30111C11.3441 5.43981 10.9398 5.84413 10.8011 6.36177Z" fill="white"/>
<path d="M5.25 12.75C5.25 12.285 5.25 12.0525 5.30111 11.8618C5.43981 11.3441 5.84413 10.9398 6.36177 10.8011C6.55252 10.75 6.78501 10.75 7.25 10.75C7.71499 10.75 7.94748 10.75 8.13823 10.8011C8.65587 10.9398 9.06019 11.3441 9.19889 11.8618C9.25 12.0525 9.25 12.285 9.25 12.75C9.25 13.215 9.25 13.4475 9.19889 13.6382C9.06019 14.1559 8.65587 14.5602 8.13823 14.6989C7.94748 14.75 7.71499 14.75 7.25 14.75C6.78501 14.75 6.55252 14.75 6.36177 14.6989C5.84413 14.5602 5.43981 14.1559 5.30111 13.6382C5.25 13.4475 5.25 13.215 5.25 12.75Z" fill="white"/>
<path d="M10.8011 11.8618C10.75 12.0525 10.75 12.285 10.75 12.75C10.75 13.215 10.75 13.4475 10.8011 13.6382C10.9398 14.1559 11.3441 14.5602 11.8618 14.6989C12.0525 14.75 12.285 14.75 12.75 14.75C13.215 14.75 13.4475 14.75 13.6382 14.6989C14.1559 14.5602 14.5602 14.1559 14.6989 13.6382C14.75 13.4475 14.75 13.215 14.75 12.75C14.75 12.285 14.75 12.0525 14.6989 11.8618C14.5602 11.3441 14.1559 10.9398 13.6382 10.8011C13.4475 10.75 13.215 10.75 12.75 10.75C12.285 10.75 12.0525 10.75 11.8618 10.8011C11.3441 10.9398 10.9398 11.3441 10.8011 11.8618Z" fill="white"/>
</svg>
