<svg width="16" height="16" viewBox="0 0 16 16" fill="none" xmlns="http://www.w3.org/2000/svg">
<path d="M5.99464 8.01007C5.99464 6.9055 6.89007 6.01007 7.99464 6.01007C9.09921 6.01007 9.99464 6.9055 9.99464 8.01007C9.99464 9.11464 9.09921 10.0101 7.99464 10.0101C6.89007 10.0101 5.99464 9.11464 5.99464 8.01007Z" fill="white"/>
<path fill-rule="evenodd" clip-rule="evenodd" d="M15.9282 7.62777L15.9269 7.62455L15.9245 7.61866L15.9174 7.60146C15.9116 7.58764 15.9038 7.56913 15.8939 7.54624C15.8741 7.50048 15.8458 7.43715 15.8088 7.35874C15.735 7.20208 15.6259 6.98431 15.4794 6.72574C15.1875 6.21059 14.7406 5.52251 14.1183 4.83104C12.8723 3.44654 10.872 2 8.00002 2C5.12804 2 3.12777 3.44654 1.88172 4.83104C1.2594 5.52251 0.812537 6.21059 0.520618 6.72574C0.374095 6.98431 0.265046 7.20208 0.191193 7.35874C0.154229 7.43715 0.125969 7.50048 0.106141 7.54624C0.0962238 7.56913 0.0884053 7.58764 0.082652 7.60146L0.0755627 7.61866L0.0731692 7.62455L0.0722587 7.62681L0.0718749 7.62777C-0.0234896 7.86618 -0.023826 8.13298 0.0715385 8.37139L0.0722587 8.37319L0.0731692 8.37545L0.0755627 8.38134L0.082652 8.39854C0.0884053 8.41236 0.0962238 8.43087 0.106141 8.45376C0.125969 8.49952 0.154229 8.56285 0.191193 8.64126C0.265046 8.79792 0.374095 9.01569 0.520618 9.27426C0.812537 9.78941 1.2594 10.4775 1.88172 11.169C3.12777 12.5535 5.12804 14 8.00002 14C10.872 14 12.8723 12.5535 14.1183 11.169C14.7406 10.4775 15.1875 9.78941 15.4794 9.27426C15.6259 9.01569 15.735 8.79792 15.8088 8.64126C15.8458 8.56285 15.8741 8.49952 15.8939 8.45376C15.9038 8.43087 15.9116 8.41236 15.9174 8.39854L15.9245 8.38134L15.9269 8.37545L15.9282 8.37223C16.0235 8.13382 16.0235 7.86618 15.9282 7.62777ZM2.10473 8C2.14842 7.91512 2.20033 7.81823 2.26066 7.71176C2.49999 7.28941 2.86563 6.72749 3.36831 6.16896C4.37226 5.05346 5.87199 4 8.00002 4C10.128 4 11.6278 5.05346 12.6317 6.16896C13.1344 6.72749 13.5 7.28941 13.7394 7.71176C13.7997 7.81823 13.8516 7.91512 13.8953 8C13.8516 8.08487 13.7997 8.18177 13.7394 8.28824C13.5 8.71059 13.1344 9.27251 12.6317 9.83104C11.6278 10.9465 10.128 12 8.00002 12C5.87199 12 4.37226 10.9465 3.36831 9.83104C2.86563 9.27251 2.49999 8.71059 2.26066 8.28824C2.20033 8.18177 2.14842 8.08487 2.10473 8Z" fill="white"/>
</svg>
