<svg width="16" height="16" viewBox="0 0 16 16" fill="none" xmlns="http://www.w3.org/2000/svg">
<path fill-rule="evenodd" clip-rule="evenodd" d="M5.54805 2C5.56531 2 5.58263 2 5.6 2L10.4519 2C11.1575 1.99997 11.7659 1.99994 12.2608 2.05357C12.7866 2.11053 13.3016 2.23747 13.7634 2.57295C14.018 2.75799 14.242 2.98196 14.4271 3.23665C14.7625 3.69839 14.8895 4.21342 14.9464 4.73919C15.0001 5.23415 15 5.84251 15 6.54806V9.45194C15 10.1575 15.0001 10.7659 14.9464 11.2608C14.8895 11.7866 14.7625 12.3016 14.4271 12.7634C14.242 13.018 14.018 13.242 13.7634 13.4271C13.3016 13.7625 12.7866 13.8895 12.2608 13.9464C11.7659 14.0001 11.1575 14 10.4519 14H5.54806C4.8425 14 4.23414 14.0001 3.73919 13.9464C3.21342 13.8895 2.69839 13.7625 2.23664 13.4271C1.98196 13.242 1.75799 13.018 1.57295 12.7634C1.23747 12.3016 1.11053 11.7866 1.05356 11.2608C0.999938 10.7659 0.999966 10.1575 0.999998 9.45195L0.999999 6.6C0.999999 6.58263 0.999999 6.56531 0.999998 6.54806C0.999966 5.8425 0.999938 5.23415 1.05356 4.73919C1.11053 4.21342 1.23747 3.69839 1.57295 3.23665C1.75799 2.98196 1.98196 2.75799 2.23664 2.57295C2.69839 2.23747 3.21342 2.11053 3.73919 2.05357C4.23414 1.99994 4.8425 1.99997 5.54805 2ZM3.95462 4.04193C3.59901 4.08046 3.4762 4.1445 3.41221 4.19099C3.32732 4.25267 3.25266 4.32732 3.19098 4.41222C3.14449 4.4762 3.08045 4.59901 3.04193 4.95462C3.02208 5.13781 3.01162 5.35081 3.00611 5.61109H12.9939C12.9884 5.35081 12.9779 5.13781 12.9581 4.95462C12.9195 4.59901 12.8555 4.4762 12.809 4.41222C12.7473 4.32732 12.6727 4.25267 12.5878 4.19099C12.5238 4.1445 12.401 4.08046 12.0454 4.04193C11.6711 4.00138 11.1722 4 10.4 4H5.6C4.82778 4 4.32894 4.00138 3.95462 4.04193ZM13 7.61109H3V9.4C3 10.1722 3.00137 10.6711 3.04193 11.0454C3.08045 11.401 3.14449 11.5238 3.19098 11.5878C3.25266 11.6727 3.32732 11.7473 3.41221 11.809C3.4762 11.8555 3.59901 11.9195 3.95462 11.9581C4.32894 11.9986 4.82778 12 5.6 12H10.4C11.1722 12 11.6711 11.9986 12.0454 11.9581C12.401 11.9195 12.5238 11.8555 12.5878 11.809C12.6727 11.7473 12.7473 11.6727 12.809 11.5878C12.8555 11.5238 12.9195 11.401 12.9581 11.0454C12.9986 10.6711 13 10.1722 13 9.4V7.61109ZM9 10C9 9.44772 9.44771 9 10 9H11C11.5523 9 12 9.44772 12 10C12 10.5523 11.5523 11 11 11H10C9.44771 11 9 10.5523 9 10Z" fill="white"/>
</svg>
