<svg width="14" height="14" viewBox="0 0 14 14" fill="none" xmlns="http://www.w3.org/2000/svg">
<path fill-rule="evenodd" clip-rule="evenodd" d="M1.34313 12.6569C1.14768 12.4614 1.04184 12.1938 1.05075 11.9175L1.1745 8.08145C1.18269 7.82752 1.28722 7.58623 1.46687 7.40658L7.53031 1.34314C7.55527 1.31818 7.57996 1.29344 7.60441 1.26895C7.94062 0.932064 8.23054 0.64157 8.55126 0.449337C9.50072 -0.119749 10.6864 -0.11975 11.6359 0.449336C11.9566 0.64157 12.2465 0.932066 12.5827 1.26895C12.6072 1.29345 12.6319 1.31818 12.6568 1.34314C12.6818 1.3681 12.7065 1.39279 12.731 1.41723C13.0679 1.75345 13.3584 2.04337 13.5506 2.3641C14.1197 3.31356 14.1197 4.49925 13.5506 5.44871C13.3584 5.76944 13.0679 6.05936 12.731 6.39557C12.7065 6.42002 12.6818 6.4447 12.6568 6.46967L6.59339 12.5331C6.41375 12.7128 6.17246 12.8173 5.91853 12.8255L2.08247 12.9492C1.80621 12.9581 1.53858 12.8523 1.34313 12.6569ZM5.4588 10.8393L11.2426 5.05545C11.6961 4.60195 11.7878 4.49963 11.8352 4.42051C12.0249 4.10402 12.0249 3.70879 11.8352 3.3923C11.7878 3.31318 11.6961 3.21086 11.2426 2.75736C10.7891 2.30385 10.6868 2.21222 10.6077 2.16479C10.2912 1.9751 9.89596 1.9751 9.57947 2.16479C9.50035 2.21222 9.39803 2.30385 8.94453 2.75735L3.16071 8.54117L3.0841 10.9159L5.4588 10.8393Z" fill="white"/>
</svg>
