<svg width="20" height="20" viewBox="0 0 20 20" fill="none" xmlns="http://www.w3.org/2000/svg">
<path fill-rule="evenodd" clip-rule="evenodd" d="M14.257 3C14.2714 3.00001 14.2857 3.00001 14.3 3.00001L15.743 3C16.0806 2.99995 16.4092 2.9999 16.6843 3.0297C16.9897 3.06279 17.3453 3.14199 17.6756 3.38198C17.8454 3.50533 17.9947 3.65465 18.118 3.82444C18.358 4.15475 18.4372 4.51032 18.4703 4.81575C18.5001 5.0908 18.5001 5.41936 18.5 5.75703L18.5 16C18.5 16.5523 18.0523 17 17.5 17H2.50001C1.94772 17 1.50001 16.5523 1.50001 16V13.8C1.50001 13.7857 1.50001 13.7714 1.5 13.757C1.49995 13.4194 1.4999 13.0908 1.5297 12.8157C1.56279 12.5103 1.64199 12.1548 1.88198 11.8244C2.00533 11.6546 2.15465 11.5053 2.32444 11.382C2.65475 11.142 3.01032 11.0628 3.31575 11.0297C3.59081 10.9999 3.91937 11 4.25704 11C4.27135 11 4.28567 11 4.30001 11H5.70001C5.71435 11 5.72867 11 5.74298 11C6.0081 11 6.26761 10.9999 6.50001 11.0143V9.80001C6.50001 9.78567 6.50001 9.77135 6.5 9.75705C6.49995 9.41937 6.4999 9.09081 6.5297 8.81575C6.56279 8.51032 6.64199 8.15475 6.88197 7.82444C7.00533 7.65465 7.15465 7.50533 7.32444 7.38197C7.65475 7.14199 8.01032 7.06279 8.31575 7.0297C8.59081 6.9999 8.91937 6.99995 9.25705 7C9.27135 7.00001 9.28567 7.00001 9.30001 7.00001H10.7C10.7143 7.00001 10.7287 7.00001 10.743 7C11.0081 6.99996 11.2676 6.99992 11.5 7.01433V5.80001C11.5 5.78568 11.5 5.77136 11.5 5.75705C11.5 5.41938 11.4999 5.09081 11.5297 4.81575C11.5628 4.51032 11.642 4.15475 11.882 3.82444C12.0053 3.65465 12.1546 3.50533 12.3244 3.38198C12.6547 3.14199 13.0103 3.06279 13.3157 3.0297C13.5908 2.9999 13.9194 2.99995 14.257 3ZM13.5 15H16.5V5.80001C16.5 5.40276 16.4986 5.18515 16.482 5.03117C16.4815 5.02709 16.4811 5.02317 16.4806 5.01939C16.4769 5.01895 16.4729 5.01851 16.4688 5.01806C16.3149 5.00138 16.0973 5.00001 15.7 5.00001H14.3C13.9028 5.00001 13.6852 5.00138 13.5312 5.01806C13.5271 5.01851 13.5232 5.01895 13.5194 5.01939C13.519 5.02317 13.5185 5.02709 13.5181 5.03117C13.5014 5.18515 13.5 5.40276 13.5 5.80001V9.67313C13.5 9.70103 13.5 9.72901 13.5 9.75705L13.5 15ZM11.5 15V9.80001C11.5 9.40276 11.4986 9.18515 11.482 9.03117C11.4815 9.02709 11.4811 9.02317 11.4806 9.01939C11.4769 9.01895 11.4729 9.01851 11.4688 9.01806C11.3149 9.00138 11.0973 9.00001 10.7 9.00001H9.30001C8.90276 9.00001 8.68515 9.00138 8.53117 9.01806C8.52709 9.01851 8.52317 9.01895 8.51939 9.01939C8.51895 9.02317 8.51851 9.02709 8.51806 9.03117C8.50138 9.18515 8.50001 9.40276 8.50001 9.80001V13.6711C8.50002 13.6997 8.50002 13.7283 8.50001 13.757C8.50001 13.7713 8.50001 13.7857 8.50001 13.8V15H11.5ZM6.50001 15V13.8C6.50001 13.4028 6.49864 13.1852 6.48195 13.0312C6.48151 13.0271 6.48107 13.0232 6.48062 13.0194C6.47685 13.0189 6.47293 13.0185 6.46884 13.0181C6.31487 13.0014 6.09726 13 5.70001 13H4.30001C3.90276 13 3.68515 13.0014 3.53117 13.0181C3.52709 13.0185 3.52317 13.0189 3.51939 13.0194C3.51895 13.0232 3.51851 13.0271 3.51806 13.0312C3.50138 13.1852 3.50001 13.4028 3.50001 13.8V15H6.50001Z" fill="white"/>
</svg>
