<svg width="20" height="20" viewBox="0 0 20 20" fill="none" xmlns="http://www.w3.org/2000/svg">
<path fill-rule="evenodd" clip-rule="evenodd" d="M8.45536 2.5H10.5446C11.6741 2.49999 12.585 2.49998 13.3217 2.56264C14.0804 2.62717 14.7456 2.76361 15.357 3.09039C16.2291 3.55656 16.9434 4.27088 17.4096 5.14302C17.5723 5.44732 17.6876 5.76457 17.7705 6.09986C19.054 6.43996 20 7.6095 20 9V11C20 12.3905 19.054 13.5601 17.7704 13.9002C17.6874 14.2361 17.5718 14.5535 17.4096 14.857C16.9434 15.7291 16.2291 16.4434 15.357 16.9096C14.7456 17.2364 14.0804 17.3728 13.3217 17.4374C12.585 17.5 11.6741 17.5 10.5446 17.5H8.45536C7.32593 17.5 6.41498 17.5 5.67833 17.4374C4.91958 17.3728 4.25439 17.2364 3.64302 16.9096C2.77088 16.4434 2.05656 15.7291 1.59039 14.857C1.26361 14.2456 1.12717 13.5804 1.06264 12.8217C0.999981 12.085 0.999989 11.1741 1 10.0446V9.95536C0.999989 8.82592 0.999981 7.91498 1.06264 7.17833C1.12717 6.41958 1.26361 5.75439 1.59039 5.14302C2.05656 4.27088 2.77088 3.55656 3.64302 3.09039C4.25439 2.76361 4.91958 2.62717 5.67833 2.56264C6.41498 2.49998 7.32592 2.49999 8.45536 2.5ZM15.5981 14H14C11.7909 14 10 12.2091 10 10C10 7.79086 11.7909 6 14 6L15.5981 6C15.3184 5.51565 14.9086 5.11849 14.4142 4.85424C14.1419 4.70871 13.7816 4.60898 13.1522 4.55544C12.5103 4.50084 11.6845 4.5 10.5 4.5H8.5C7.31547 4.5 6.48974 4.50084 5.84784 4.55544C5.21836 4.60898 4.85807 4.70871 4.58581 4.85424C4.06253 5.13394 3.63394 5.56253 3.35424 6.08581C3.20871 6.35807 3.10898 6.71836 3.05544 7.34784C3.00084 7.98974 3 8.81547 3 10C3 11.1845 3.00084 12.0103 3.05544 12.6522C3.10898 13.2816 3.20871 13.6419 3.35424 13.9142C3.63394 14.4375 4.06253 14.8661 4.58581 15.1458C4.85807 15.2913 5.21836 15.391 5.84784 15.4446C6.48974 15.4992 7.31547 15.5 8.5 15.5H10.5C11.6845 15.5 12.5103 15.4992 13.1522 15.4446C13.7816 15.391 14.1419 15.2913 14.4142 15.1458C14.9086 14.8815 15.3184 14.4844 15.5981 14ZM14 8C12.8954 8 12 8.89543 12 10C12 11.1046 12.8954 12 14 12H17C17.5523 12 18 11.5523 18 11V9C18 8.44772 17.5523 8 17 8H14Z" fill="white"/>
</svg>
