<svg width="16" height="16" viewBox="0 0 16 16" fill="none" xmlns="http://www.w3.org/2000/svg">
<path fill-rule="evenodd" clip-rule="evenodd" d="M7.48547 1.42821C7.80215 1.2382 8.19778 1.2382 8.51446 1.42821L14.7728 5.18321C15.891 5.85412 15.4153 7.57142 14.1113 7.57142H13.2857V12.7143H13.7142C14.2665 12.7143 14.7142 13.162 14.7142 13.7143C14.7142 14.2666 14.2665 14.7143 13.7142 14.7143H2.28568C1.73339 14.7143 1.28568 14.2666 1.28568 13.7143C1.28568 13.162 1.73339 12.7143 2.28568 12.7143H2.71425L2.71425 7.57142H1.88863C0.58462 7.57142 0.108963 5.85412 1.22713 5.18321L7.48547 1.42821ZM4.71425 7.57142V12.7143H6.99996V7.57142H4.71425ZM8.99996 7.57142V12.7143H11.2857V7.57142H8.99996ZM11.5325 5.57142H4.46742L7.99996 3.4519L11.5325 5.57142Z" fill="white"/>
</svg>
