<svg width="14" height="14" viewBox="0 0 14 14" fill="none" xmlns="http://www.w3.org/2000/svg">
<path fill-rule="evenodd" clip-rule="evenodd" d="M3.51688 0.499914L3.59998 0.499981L3.68307 0.499914C4.02523 0.499497 4.34696 0.499105 4.63538 0.563575C5.63365 0.786713 6.41324 1.56631 6.63638 2.56457C6.70085 2.853 6.70046 3.17472 6.70004 3.51688L6.69997 3.59998L6.70004 3.68307C6.70046 4.02522 6.70085 4.34696 6.63638 4.63538C6.41324 5.63365 5.63365 6.41324 4.63538 6.63638C4.34696 6.70085 4.02523 6.70046 3.68308 6.70004L3.59998 6.69997L3.51688 6.70004C3.17473 6.70046 2.85299 6.70085 2.56457 6.63638C1.56631 6.41324 0.786713 5.63365 0.563575 4.63538C0.499105 4.34696 0.499497 4.02523 0.499914 3.68307L0.499981 3.59998L0.499914 3.51688C0.499497 3.17473 0.499105 2.853 0.563575 2.56457C0.786713 1.56631 1.56631 0.786713 2.56457 0.563575C2.853 0.499105 3.17473 0.499497 3.51688 0.499914ZM3.59998 2.49998C3.11917 2.49998 3.04272 2.50605 3.00086 2.51541C2.75868 2.56954 2.56954 2.75868 2.51541 3.00086C2.50605 3.04272 2.49998 3.11917 2.49998 3.59998C2.49998 4.08079 2.50605 4.15724 2.51541 4.1991C2.56954 4.44128 2.75868 4.63041 3.00086 4.68455C3.04272 4.6939 3.11917 4.69997 3.59998 4.69997C4.08079 4.69997 4.15724 4.6939 4.1991 4.68455C4.44128 4.63041 4.63041 4.44128 4.68455 4.1991C4.6939 4.15724 4.69997 4.08079 4.69997 3.59998C4.69997 3.11917 4.6939 3.04272 4.68455 3.00086C4.63041 2.75868 4.44128 2.56954 4.1991 2.51541C4.15724 2.50605 4.08079 2.49998 3.59998 2.49998Z" fill="white"/>
<path fill-rule="evenodd" clip-rule="evenodd" d="M10.4 0.499981L10.3169 0.499914C9.97478 0.499497 9.65305 0.499105 9.36462 0.563575C8.36636 0.786713 7.58676 1.56631 7.36362 2.56457C7.29915 2.853 7.29955 3.17473 7.29996 3.51688L7.30003 3.59998L7.29996 3.68307C7.29955 4.02523 7.29915 4.34696 7.36362 4.63538C7.58676 5.63365 8.36636 6.41324 9.36462 6.63638C9.65304 6.70085 9.97477 6.70046 10.3169 6.70004L10.4 6.69997L10.4831 6.70004C10.8253 6.70046 11.147 6.70085 11.4354 6.63638C12.4337 6.41324 13.2133 5.63365 13.4364 4.63538C13.5009 4.34696 13.5005 4.02522 13.5001 3.68307L13.5 3.59998L13.5001 3.51689C13.5005 3.17473 13.5009 2.853 13.4364 2.56457C13.2133 1.56631 12.4337 0.786713 11.4354 0.563575C11.147 0.499105 10.8253 0.499497 10.4831 0.499914L10.4 0.499981ZM9.80091 2.51541C9.84277 2.50605 9.91921 2.49998 10.4 2.49998C10.8808 2.49998 10.9573 2.50605 10.9991 2.51541C11.2413 2.56954 11.4305 2.75868 11.4846 3.00086C11.494 3.04272 11.5 3.11917 11.5 3.59998C11.5 4.08079 11.494 4.15723 11.4846 4.1991C11.4305 4.44128 11.2413 4.63041 10.9991 4.68455C10.9573 4.6939 10.8808 4.69997 10.4 4.69997C9.91921 4.69997 9.84277 4.6939 9.80091 4.68455C9.55872 4.63041 9.36959 4.44128 9.31546 4.1991C9.3061 4.15724 9.30003 4.08079 9.30003 3.59998C9.30003 3.11917 9.3061 3.04272 9.31546 3.00086C9.36959 2.75868 9.55872 2.56954 9.80091 2.51541Z" fill="white"/>
<path fill-rule="evenodd" clip-rule="evenodd" d="M10.4 7.29997L10.3169 7.2999C9.97478 7.29948 9.65305 7.29909 9.36462 7.36356C8.36636 7.5867 7.58676 8.3663 7.36362 9.36456C7.29915 9.65298 7.29955 9.97472 7.29996 10.3169L7.30003 10.4L7.29996 10.4831C7.29955 10.8252 7.29915 11.1469 7.36362 11.4354C7.58676 12.4336 8.36636 13.2132 9.36462 13.4364C9.65305 13.5008 9.97478 13.5004 10.3169 13.5L10.4 13.5L10.4831 13.5C10.8253 13.5004 11.147 13.5008 11.4354 13.4364C12.4337 13.2132 13.2133 12.4336 13.4364 11.4354C13.5009 11.1469 13.5005 10.8252 13.5001 10.4831L13.5 10.4L13.5001 10.3169C13.5005 9.97472 13.5009 9.65299 13.4364 9.36456C13.2133 8.3663 12.4337 7.5867 11.4354 7.36356C11.147 7.29909 10.8253 7.29948 10.4831 7.2999L10.4 7.29997ZM9.80091 9.3154C9.84277 9.30604 9.91921 9.29997 10.4 9.29997C10.8808 9.29997 10.9573 9.30604 10.9991 9.3154C11.2413 9.36953 11.4305 9.55866 11.4846 9.80084C11.494 9.84271 11.5 9.91916 11.5 10.4C11.5 10.8808 11.494 10.9572 11.4846 10.9991C11.4305 11.2413 11.2413 11.4304 10.9991 11.4845C10.9573 11.4939 10.8808 11.5 10.4 11.5C9.91922 11.5 9.84277 11.4939 9.80091 11.4845C9.55872 11.4304 9.36959 11.2413 9.31546 10.9991C9.3061 10.9572 9.30003 10.8808 9.30003 10.4C9.30003 9.91915 9.3061 9.84271 9.31546 9.80084C9.36959 9.55866 9.55872 9.36953 9.80091 9.3154Z" fill="white"/>
<path fill-rule="evenodd" clip-rule="evenodd" d="M3.59998 7.29997L3.51688 7.2999C3.17473 7.29948 2.853 7.29909 2.56457 7.36356C1.56631 7.5867 0.786713 8.3663 0.563575 9.36456C0.499105 9.65298 0.499497 9.97472 0.499914 10.3169L0.499981 10.4L0.499914 10.4831C0.499497 10.8252 0.499105 11.1469 0.563575 11.4354C0.786713 12.4336 1.56631 13.2132 2.56457 13.4364C2.853 13.5008 3.17473 13.5004 3.51689 13.5L3.59998 13.5L3.68307 13.5C4.02522 13.5004 4.34696 13.5008 4.63538 13.4364C5.63365 13.2132 6.41324 12.4336 6.63638 11.4354C6.70085 11.1469 6.70046 10.8252 6.70004 10.4831L6.69997 10.4L6.70004 10.3169C6.70046 9.97472 6.70085 9.65298 6.63638 9.36456C6.41324 8.3663 5.63365 7.5867 4.63538 7.36356C4.34696 7.29909 4.02523 7.29948 3.68307 7.2999L3.59998 7.29997ZM3.00086 9.3154C3.04272 9.30604 3.11917 9.29997 3.59998 9.29997C4.08079 9.29997 4.15724 9.30604 4.1991 9.3154C4.44128 9.36953 4.63041 9.55866 4.68455 9.80084C4.6939 9.84271 4.69997 9.91915 4.69997 10.4C4.69997 10.8808 4.6939 10.9572 4.68455 10.9991C4.63041 11.2413 4.44128 11.4304 4.1991 11.4845C4.15723 11.4939 4.08079 11.5 3.59998 11.5C3.11917 11.5 3.04272 11.4939 3.00086 11.4845C2.75868 11.4304 2.56954 11.2413 2.51541 10.9991C2.50605 10.9572 2.49998 10.8808 2.49998 10.4C2.49998 9.91915 2.50605 9.84271 2.51541 9.80084C2.56954 9.55866 2.75868 9.36953 3.00086 9.3154Z" fill="white"/>
</svg>
