<svg width="20" height="20" viewBox="0 0 20 20" fill="none" xmlns="http://www.w3.org/2000/svg">
<path fill-rule="evenodd" clip-rule="evenodd" d="M10 0C10.5523 0 11 0.447715 11 1V2.58824C11 3.14052 10.5523 3.58824 10 3.58824C9.44772 3.58824 9 3.14052 9 2.58824V1C9 0.447715 9.44772 0 10 0ZM2.92893 2.92893C3.31946 2.53841 3.95262 2.53841 4.34315 2.92893L5.4662 4.05198C5.85672 4.44251 5.85672 5.07567 5.4662 5.4662C5.07567 5.85672 4.44251 5.85672 4.05198 5.4662L2.92893 4.34315C2.53841 3.95262 2.53841 3.31946 2.92893 2.92893ZM17.0711 2.92893C17.4616 3.31946 17.4616 3.95262 17.0711 4.34315L15.948 5.4662C15.5575 5.85672 14.9243 5.85672 14.5338 5.4662C14.1433 5.07567 14.1433 4.44251 14.5338 4.05198L15.6569 2.92893C16.0474 2.53841 16.6805 2.53841 17.0711 2.92893ZM10 6.76471C8.2132 6.76471 6.76471 8.2132 6.76471 10C6.76471 11.7868 8.2132 13.2353 10 13.2353C11.7868 13.2353 13.2353 11.7868 13.2353 10C13.2353 8.2132 11.7868 6.76471 10 6.76471ZM4.76471 10C4.76471 7.10863 7.10863 4.76471 10 4.76471C12.8914 4.76471 15.2353 7.10863 15.2353 10C15.2353 12.8914 12.8914 15.2353 10 15.2353C7.10863 15.2353 4.76471 12.8914 4.76471 10ZM0 10C0 9.44772 0.447715 9 1 9H2.58824C3.14052 9 3.58824 9.44772 3.58824 10C3.58824 10.5523 3.14052 11 2.58824 11H1C0.447715 11 0 10.5523 0 10ZM16.4118 10C16.4118 9.44772 16.8595 9 17.4118 9H19C19.5523 9 20 9.44772 20 10C20 10.5523 19.5523 11 19 11H17.4118C16.8595 11 16.4118 10.5523 16.4118 10ZM5.4662 14.5338C5.85672 14.9243 5.85672 15.5575 5.4662 15.948L4.34315 17.0711C3.95262 17.4616 3.31946 17.4616 2.92893 17.0711C2.53841 16.6805 2.53841 16.0474 2.92893 15.6569L4.05198 14.5338C4.44251 14.1433 5.07567 14.1433 5.4662 14.5338ZM14.5338 14.5338C14.9243 14.1433 15.5575 14.1433 15.948 14.5338L17.0711 15.6569C17.4616 16.0474 17.4616 16.6805 17.0711 17.0711C16.6805 17.4616 16.0474 17.4616 15.6569 17.0711L14.5338 15.948C14.1433 15.5575 14.1433 14.9243 14.5338 14.5338ZM10 16.4118C10.5523 16.4118 11 16.8595 11 17.4118V19C11 19.5523 10.5523 20 10 20C9.44772 20 9 19.5523 9 19V17.4118C9 16.8595 9.44772 16.4118 10 16.4118Z" fill="white"/>
</svg>
