<svg width="14" height="14" viewBox="0 0 14 14" fill="none" xmlns="http://www.w3.org/2000/svg">
<path fill-rule="evenodd" clip-rule="evenodd" d="M2.29289 2.29289C2.68342 1.90237 3.31658 1.90237 3.70711 2.29289L7 5.58579L10.2929 2.29289C10.6834 1.90237 11.3166 1.90237 11.7071 2.29289C12.0976 2.68342 12.0976 3.31658 11.7071 3.70711L8.41421 7L11.7071 10.2929C12.0976 10.6834 12.0976 11.3166 11.7071 11.7071C11.3166 12.0976 10.6834 12.0976 10.2929 11.7071L7 8.41421L3.70711 11.7071C3.31658 12.0976 2.68342 12.0976 2.29289 11.7071C1.90237 11.3166 1.90237 10.6834 2.29289 10.2929L5.58579 7L2.29289 3.70711C1.90237 3.31658 1.90237 2.68342 2.29289 2.29289Z" fill="white"/>
</svg>
