<svg width="20" height="20" viewBox="0 0 20 20" fill="none" xmlns="http://www.w3.org/2000/svg">
<path fill-rule="evenodd" clip-rule="evenodd" d="M3.9909 6.40723C4.00152 6.63398 3.93539 6.86558 3.78691 7.06016C3.71738 7.15127 3.63525 7.2271 3.54483 7.28708C3.19411 8.12044 3 9.03653 3 10C3 11.2631 3.33365 12.4453 3.91693 13.4663C5.12399 15.5794 7.39672 17 10 17C12.6005 17 14.8712 15.5824 16.0792 13.4731C16.6649 12.4504 17 11.2659 17 10C17 9.04333 16.8081 8.13147 16.4607 7.30085C16.1791 7.12393 15.9919 6.81058 15.9919 6.4535C15.9919 6.42984 15.9928 6.40636 15.9944 6.38311C14.7683 4.35543 12.5424 3 10 3C7.44893 3 5.21502 4.36446 3.9909 6.40723ZM1.98249 5.90731C3.47111 2.99632 6.50156 1 10 1C14.9706 1 19 5.02944 19 10C19 11.6237 18.5691 13.1498 17.8148 14.467C16.265 17.1731 13.3464 19 10 19C6.64999 19 3.72883 17.1692 2.1803 14.4584C1.429 13.1431 1 11.6202 1 10C1 8.52823 1.35404 7.13624 1.98249 5.90731Z" fill="white"/>
<path fill-rule="evenodd" clip-rule="evenodd" d="M6.03385 8.62884C4.5687 8.33562 3.31217 7.87685 2.43201 7.28204L2.40816 7.26592L2.26617 7.15757C1.82712 6.82252 1.74281 6.19499 2.07786 5.75594C2.41291 5.3169 3.04044 5.23259 3.47948 5.56764L3.57423 5.63994C4.16413 6.0318 5.09122 6.38451 6.25568 6.6325C6.41635 5.65387 6.64634 4.75991 6.93429 3.99202C7.23034 3.20256 7.60699 2.49422 8.07595 1.96527C8.54388 1.43749 9.18905 1 9.99194 1C10.7948 1 11.44 1.43749 11.9079 1.96527C12.3769 2.49422 12.7535 3.20256 13.0496 3.99202C13.3375 4.75991 13.5675 5.65387 13.7282 6.6325C14.9075 6.38135 15.8433 6.0228 16.432 5.62496L16.6857 5.4535H17.1729C17.7252 5.4535 18.1729 5.90121 18.1729 6.4535C18.1729 6.96494 17.789 7.38671 17.2936 7.44629C16.4334 7.96171 15.2773 8.36321 13.95 8.62884C13.9777 9.07679 13.9919 9.53485 13.9919 10C13.9919 10.6211 13.9665 11.2296 13.9177 11.8182C15.3673 12.1053 16.6138 12.5538 17.4966 13.1346C17.958 13.4381 18.0859 14.0582 17.7824 14.5196C17.4789 14.981 16.8588 15.109 16.3974 14.8054C15.7927 14.4076 14.8422 14.0515 13.6508 13.8047C13.4968 14.6131 13.2941 15.356 13.0496 16.008C12.7535 16.7974 12.3769 17.5058 11.9079 18.0347C11.44 18.5625 10.7948 19 9.99194 19C9.18905 19 8.54388 18.5625 8.07595 18.0347C7.60699 17.5058 7.23034 16.7974 6.93429 16.008C6.6898 15.356 6.4871 14.6131 6.33313 13.8047C5.14799 14.0502 4.20102 14.4039 3.59559 14.7995C3.13324 15.1016 2.51355 14.9717 2.21146 14.5093C1.90937 14.047 2.03928 13.4273 2.50163 13.1252C3.38335 12.5491 4.62417 12.1038 6.06617 11.8182C6.01734 11.2296 5.99194 10.6211 5.99194 10C5.99194 9.53485 6.00619 9.07679 6.03385 8.62884ZM8.23467 6.92378C8.37591 6.07463 8.57238 5.31978 8.80695 4.69427C9.0538 4.03602 9.3236 3.57279 9.57247 3.29209C9.82237 3.01022 9.96641 3 9.99194 3C10.0175 3 10.1615 3.01022 10.4114 3.29209C10.6603 3.57279 10.9301 4.03602 11.1769 4.69427C11.4115 5.31978 11.608 6.07463 11.7492 6.92378C11.1915 6.97316 10.6036 7 9.99194 7C9.38032 7 8.79238 6.97316 8.23467 6.92378ZM8.05015 11.5384C8.01216 11.0442 7.99194 10.5298 7.99194 10C7.99194 9.62942 8.00184 9.26633 8.02079 8.91244C8.65986 8.9702 9.32039 9 9.99194 9C10.6635 9 11.324 8.9702 11.9631 8.91244C11.982 9.26632 11.9919 9.62942 11.9919 10C11.9919 10.5298 11.9717 11.0443 11.9337 11.5384C11.304 11.4824 10.6534 11.4535 9.99194 11.4535C9.3304 11.4535 8.67985 11.4824 8.05015 11.5384ZM8.31568 13.5227C8.44743 14.1913 8.61435 14.7921 8.80695 15.3057C9.0538 15.964 9.3236 16.4272 9.57247 16.7079C9.82237 16.9898 9.96641 17 9.99194 17C10.0175 17 10.1615 16.9898 10.4114 16.7079C10.6603 16.4272 10.9301 15.964 11.1769 15.3057C11.3695 14.7921 11.5365 14.1913 11.6682 13.5227C11.1345 13.4778 10.5739 13.4535 9.99194 13.4535C9.41007 13.4535 8.84941 13.4778 8.31568 13.5227Z" fill="white"/>
</svg>
