<svg width="20" height="20" viewBox="0 0 20 20" fill="none" xmlns="http://www.w3.org/2000/svg">
<path fill-rule="evenodd" clip-rule="evenodd" d="M12.9281 3.39731C12.6255 2.88051 11.9796 2.67851 11.4365 2.93085L10.4215 3.40248C10.1543 3.52663 9.84593 3.52663 9.57873 3.40248L8.57385 2.93557C8.02847 2.68217 7.37986 2.88703 7.07898 3.40771L6.48201 4.44078C6.33925 4.68783 6.09775 4.86213 5.81831 4.9198L4.60238 5.17076C4.0134 5.29232 3.61466 5.84341 3.6834 6.44086L3.81182 7.55709C3.84372 7.83439 3.75827 8.11241 3.57612 8.32392L2.78133 9.24686C2.40749 9.68097 2.40607 10.3229 2.778 10.7586L3.579 11.6971C3.75921 11.9082 3.84354 12.1848 3.81182 12.4606L3.68345 13.5767C3.61471 14.1743 4.01375 14.7255 4.60299 14.8469L5.81783 15.097C6.0964 15.1543 6.33737 15.3276 6.48044 15.5734L7.07518 16.5952C7.377 17.1138 8.02412 17.3171 8.56824 17.0642L9.57873 16.5947C9.84593 16.4706 10.1543 16.4706 10.4215 16.5947L11.4424 17.0691C11.9841 17.3208 12.6285 17.1204 12.932 16.6059L13.544 15.5684C13.6872 15.3255 13.9263 15.1545 14.2023 15.0972L15.399 14.8492C15.9875 14.7272 16.3857 14.1764 16.3171 13.5793L16.1884 12.4606C16.1567 12.1848 16.241 11.9082 16.4212 11.6971L17.222 10.7589C17.594 10.323 17.5925 9.68106 17.2185 9.24695L16.4242 8.32486C16.242 8.11333 16.1565 7.83527 16.1884 7.55792L16.3171 6.43867C16.3858 5.84172 15.9877 5.29097 15.3994 5.16887L14.2021 4.92038C13.925 4.86288 13.6853 4.69068 13.5423 4.44648L12.9281 3.39731ZM10.5938 1.11707C12.0722 0.43016 13.8305 0.980034 14.6541 2.38685L15.0437 3.05243L15.8058 3.21059C17.4074 3.54298 18.4909 5.0422 18.304 6.6672L18.2253 7.35134L18.7338 7.94161C19.7518 9.12332 19.7558 10.8709 18.7433 12.0572L18.225 12.6644L18.304 13.3508C18.4909 14.9761 17.4069 16.4755 15.805 16.8076L15.0417 16.9658L14.6547 17.622C13.8285 19.0227 12.0744 19.5681 10.5996 18.8828L10.0001 18.6043L9.41099 18.878C7.92982 19.5662 6.16823 19.0129 5.34665 17.6013L4.97674 16.9657L4.19968 16.8058C2.59569 16.4755 1.50942 14.9751 1.69655 13.3481L1.77519 12.6644L1.25675 12.057C0.244321 10.8708 0.248173 9.1235 1.26583 7.94177L1.77488 7.35065L1.69651 6.66945C1.5094 5.0431 2.59483 3.54295 4.19812 3.21204L4.97476 3.05175L5.34731 2.40705C6.16637 0.989648 7.932 0.431992 9.4166 1.1218L10.0001 1.39292L10.5938 1.11707ZM12.994 6.70591C13.4586 7.00449 13.5932 7.62318 13.2946 8.0878L10.1434 12.9913C9.97119 13.2593 9.68167 13.4292 9.36377 13.4488C9.04588 13.4684 8.73765 13.3355 8.53379 13.0908L6.78311 10.9893C6.42962 10.5649 6.48705 9.93436 6.91138 9.58087C7.33572 9.22737 7.96627 9.2848 8.31977 9.70914L9.19788 10.7632L11.6121 7.00654C11.9107 6.54192 12.5294 6.40733 12.994 6.70591Z" fill="white"/>
</svg>
