<svg width="16" height="16" viewBox="0 0 16 16" fill="none" xmlns="http://www.w3.org/2000/svg">
<path fill-rule="evenodd" clip-rule="evenodd" d="M7.27511 0.208989C7.74136 0.027668 8.25864 0.0276677 8.72489 0.208989L13.0873 1.9055C14.2405 2.35393 15 3.46427 15 4.70151V6.38402C15 10.4628 12.5319 14.1253 8.75897 15.7687C8.27498 15.9795 7.72502 15.9795 7.24103 15.7687C3.46815 14.1253 1 10.4628 1 6.38402V4.70151C1 3.46427 1.75955 2.35393 2.91266 1.9055L7.27511 0.208989ZM12.3624 3.7695L8 2.073L3.63755 3.7695C3.25318 3.91898 3 4.2891 3 4.70151V6.38402C3 9.62617 4.95446 12.573 8 13.9177C11.0455 12.573 13 9.62617 13 6.38402V4.70151C13 4.2891 12.7468 3.91898 12.3624 3.7695ZM10.7427 5.72931C11.1658 6.08428 11.2211 6.71504 10.8661 7.13814L8.3413 10.1475C8.16132 10.362 7.89965 10.4913 7.61991 10.5038C7.34018 10.5163 7.06801 10.4109 6.86959 10.2134L5.39438 8.74434C5.00304 8.35464 5.00171 7.72148 5.39141 7.33013C5.78111 6.93879 6.41427 6.93746 6.80562 7.32716L7.50911 8.0277L9.33391 5.85267C9.68888 5.42957 10.3196 5.37434 10.7427 5.72931Z" fill="white"/>
</svg>
